<?xml version="1.0" encoding="utf-8"?>
<!-- Generator: Adobe Illustrator 16.0.0, SVG Export Plug-In . SVG Version: 6.00 Build 0)  -->
<!DOCTYPE svg PUBLIC "-//W3C//DTD SVG 1.1//EN" "http://www.w3.org/Graphics/SVG/1.1/DTD/svg11.dtd">
<svg version="1.1" id="Layer_1" xmlns="http://www.w3.org/2000/svg" xmlns:xlink="http://www.w3.org/1999/xlink" x="0px" y="0px"
	 width="375px" height="35px" viewBox="0 0 375 35" enable-background="new 0 0 375 35" xml:space="preserve">
<g>
	<path fill="none" d="M166.718,4.758c-1.563,0.006-2.143-1.732-1.36-2.945c0.014-0.021,0.021-0.041,0.033-0.063
		c0.442,0,0.885,0,1.327,0s0.885,0,1.327,0c0.012,0.021,0.019,0.041,0.032,0.063C168.867,3.035,168.277,4.752,166.718,4.758z"/>
	<path fill="none" d="M250.03,8.59c1.505,0,3.356-0.424,4.657-1.25C253.388,8.166,251.535,8.59,250.03,8.59z"/>
	<path fill="none" d="M159.477,7.334c-1.306-1.65-1.572-3.771-0.729-5.584c0.008,0,0.015,0,0.022,0
		c-0.844,1.813-0.577,3.934,0.729,5.584c1.657,2.094,4.653,3.004,7.209,3.006c-0.004,0-0.007,0-0.011,0
		C164.139,10.34,161.136,9.43,159.477,7.334z"/>
	<path fill="none" d="M174.716,10.018c-2.436,1.732-5.119,2.107-7.998,2.107c-0.004,0-0.007,0-0.011,0
		c2.875-0.002,5.554-0.377,7.986-2.107c2.665-1.893,4.229-5.268,1.994-8.219c-0.013-0.016-0.02-0.033-0.031-0.049
		c0.008,0,0.015,0,0.022,0c0.011,0.016,0.018,0.033,0.03,0.049C178.943,4.75,177.379,8.125,174.716,10.018z"/>
	<path fill="none" d="M171.375,7.34c-1.301,0.826-3.152,1.25-4.657,1.25c-0.004,0-0.008,0-0.011,0
		c1.503-0.002,3.348-0.426,4.646-1.25c1.71-1.084,2.906-3.488,1.487-5.35c-0.059-0.078-0.099-0.158-0.13-0.24
		c0.007,0,0.014,0,0.021,0c0.032,0.082,0.072,0.162,0.131,0.24C174.281,3.852,173.085,6.256,171.375,7.34z"/>
	<path fill="none" d="M117.819,7.334c-1.305-1.65-1.571-3.771-0.729-5.584c0.008,0,0.015,0,0.022,0
		c-0.843,1.813-0.576,3.934,0.729,5.584c1.658,2.094,4.653,3.004,7.209,3.006c-0.004,0-0.008,0-0.011,0
		C122.481,10.34,119.479,9.43,117.819,7.334z"/>
	<path fill="none" d="M129.718,7.34c-1.3,0.826-3.152,1.25-4.657,1.25c-0.003,0-0.007,0-0.011,0c1.503-0.002,3.349-0.426,4.646-1.25
		c1.71-1.084,2.907-3.488,1.487-5.35c-0.059-0.078-0.099-0.158-0.13-0.24c0.007,0,0.015,0,0.021,0
		c0.031,0.082,0.071,0.162,0.131,0.24C132.626,3.852,131.428,6.256,129.718,7.34z"/>
	<path fill="none" d="M133.059,10.018c-2.436,1.732-5.118,2.107-7.998,2.107c-0.004,0-0.007,0-0.011,0
		c2.876-0.002,5.554-0.377,7.987-2.107c2.664-1.893,4.228-5.268,1.993-8.219c-0.013-0.016-0.02-0.033-0.031-0.049
		c0.008,0,0.015,0,0.022,0c0.011,0.016,0.019,0.033,0.03,0.049C137.287,4.75,135.724,8.125,133.059,10.018z"/>
	<path fill="none" d="M64.025,17.787c-0.472-1.037-0.999-2.027-1.449-3.055C63.027,15.76,63.555,16.75,64.025,17.787
		c0.915,2.016,1.823,6.324-1.449,6.705c0,0,0,0-0.001,0C65.848,24.109,64.939,19.803,64.025,17.787z"/>
	<path fill="none" d="M135.947,16.881c-3.728,3.143-8.348,5.311-10.887,9.609c-2.538-4.299-7.158-6.467-10.886-9.609
		c-2.333-1.965-4.574-4.529-5.699-7.447c-1.016-2.631-0.826-5.928,1.764-7.498c0.089-0.053,0.157-0.117,0.216-0.186
		c0.889,0,1.778,0,2.666,0c-0.139,0.271-0.254,0.551-0.354,0.832c-0.313-0.227-0.644-0.422-1.01-0.553
		c-0.633-0.229-1.345,0.051-1.525,0.752c-0.309,1.191,1.131,1.889,2.114,1.896c-0.021,0.469,0.007,0.936,0.082,1.398
		c-0.396-0.037-0.798,0.014-1.158,0.199c-0.511,0.264-0.792,0.875-0.549,1.434c0.438,1,1.508,0.648,2.293,0.25
		c0.175,0.375,0.383,0.74,0.626,1.09c-0.351,0.209-0.698,0.469-0.928,0.805c-0.372,0.545-0.264,1.316,0.327,1.652
		c0.834,0.475,1.528-0.189,1.959-0.924c0.397,0.365,0.812,0.689,1.239,0.982c-0.227,0.133-0.419,0.324-0.546,0.559
		c-0.327,0.605-0.034,1.352,0.542,1.648c0.561,0.291,1.244,0.105,1.678-0.336c0.205-0.209,0.345-0.459,0.455-0.725
		c0.518,0.213,1.049,0.395,1.591,0.543c-0.214,0.184-0.386,0.406-0.478,0.68c-0.227,0.674,0.139,1.369,0.758,1.637
		c0.662,0.289,1.371-0.006,1.765-0.596c0.261-0.391,0.324-0.824,0.307-1.268c0.464,0.059,0.932,0.1,1.402,0.125
		c-0.047,0.447-0.146,0.889-0.023,1.35c0.164,0.611,0.723,1.191,1.373,1.191c0.651,0,1.21-0.58,1.374-1.191
		c0.122-0.455,0.024-0.895-0.022-1.34c0.47-0.025,0.937-0.066,1.4-0.123c-0.016,0.439,0.049,0.869,0.308,1.256
		c0.395,0.59,1.103,0.885,1.765,0.596c0.619-0.268,0.984-0.963,0.758-1.637c-0.091-0.27-0.26-0.49-0.47-0.674
		c0.477-0.131,0.945-0.285,1.403-0.469c0.105,0.236,0.238,0.457,0.423,0.645c0.434,0.441,1.118,0.627,1.678,0.336
		c0.582-0.301,0.859-1.039,0.542-1.648c-0.102-0.195-0.258-0.363-0.438-0.488c0.417-0.279,0.819-0.59,1.205-0.934
		c0.434,0.684,1.097,1.254,1.884,0.805c0.592-0.336,0.7-1.107,0.328-1.652c-0.196-0.289-0.481-0.521-0.78-0.715
		c0.253-0.354,0.471-0.719,0.654-1.094c0.761,0.355,1.711,0.592,2.117-0.336c0.253-0.58-0.06-1.193-0.588-1.451
		c-0.286-0.139-0.594-0.195-0.904-0.191c0.074-0.465,0.106-0.932,0.084-1.4c0.968-0.094,2.163-0.773,1.898-1.885
		c-0.17-0.709-0.9-0.971-1.526-0.752c-0.301,0.104-0.577,0.258-0.841,0.434c-0.092-0.24-0.194-0.479-0.313-0.713
		c0.888,0,1.777,0,2.667,0c0.058,0.068,0.126,0.133,0.216,0.186c2.78,1.686,2.752,5.236,1.565,7.945
		C140.253,12.613,138.186,14.994,135.947,16.881z"/>
	<path fill="none" d="M121.815,1.75c0.008,0,0.015,0,0.022,0c-0.751,2.207,0.736,4.752,3.212,4.758
		c-0.004,0-0.007,0.002-0.011,0.002C122.557,6.51,121.064,3.961,121.815,1.75z"/>
	<path fill="none" d="M219.26,16.881c-3.728,3.143-8.348,5.311-10.886,9.609c-2.539-4.299-7.157-6.467-10.886-9.609
		c-2.333-1.965-4.574-4.529-5.7-7.447c-1.016-2.631-0.826-5.928,1.765-7.498c0.089-0.053,0.157-0.117,0.216-0.186
		c0.889,0,1.777,0,2.667,0c-0.139,0.271-0.254,0.551-0.355,0.832c-0.313-0.227-0.645-0.422-1.011-0.553
		c-0.633-0.229-1.345,0.051-1.524,0.752c-0.309,1.191,1.13,1.889,2.113,1.896c-0.02,0.469,0.008,0.936,0.082,1.398
		c-0.396-0.037-0.797,0.014-1.157,0.199c-0.512,0.264-0.793,0.875-0.549,1.434c0.438,1,1.508,0.648,2.293,0.25
		c0.176,0.375,0.384,0.74,0.627,1.09c-0.351,0.209-0.698,0.469-0.929,0.805c-0.373,0.545-0.265,1.316,0.328,1.652
		c0.834,0.475,1.527-0.189,1.957-0.924c0.397,0.365,0.812,0.689,1.24,0.982c-0.228,0.133-0.42,0.324-0.547,0.559
		c-0.326,0.605-0.034,1.352,0.543,1.648c0.56,0.291,1.244,0.105,1.678-0.336c0.205-0.209,0.344-0.459,0.454-0.725
		c0.519,0.213,1.049,0.395,1.591,0.543c-0.214,0.184-0.386,0.406-0.478,0.68c-0.227,0.674,0.139,1.369,0.758,1.637
		c0.662,0.289,1.372-0.006,1.767-0.596c0.261-0.391,0.322-0.824,0.307-1.268c0.462,0.059,0.93,0.1,1.4,0.125
		c-0.047,0.447-0.146,0.889-0.023,1.35c0.164,0.611,0.723,1.191,1.374,1.191s1.211-0.58,1.373-1.191
		c0.123-0.455,0.024-0.895-0.021-1.34c0.469-0.025,0.936-0.066,1.399-0.123c-0.016,0.439,0.049,0.869,0.308,1.256
		c0.395,0.59,1.104,0.885,1.766,0.596c0.619-0.268,0.983-0.963,0.757-1.637c-0.091-0.27-0.26-0.49-0.469-0.674
		c0.476-0.131,0.944-0.285,1.403-0.469c0.104,0.236,0.238,0.457,0.423,0.645c0.433,0.441,1.118,0.627,1.678,0.336
		c0.582-0.301,0.858-1.039,0.542-1.648c-0.102-0.195-0.258-0.363-0.438-0.488c0.417-0.279,0.818-0.59,1.204-0.934
		c0.434,0.684,1.097,1.254,1.885,0.805c0.593-0.336,0.701-1.107,0.328-1.652c-0.197-0.289-0.482-0.521-0.78-0.715
		c0.253-0.354,0.471-0.719,0.653-1.094c0.763,0.355,1.711,0.592,2.117-0.336c0.253-0.58-0.059-1.193-0.588-1.451
		c-0.285-0.139-0.593-0.195-0.902-0.191c0.073-0.465,0.105-0.932,0.084-1.4c0.966-0.094,2.162-0.773,1.896-1.885
		c-0.17-0.709-0.9-0.971-1.524-0.752c-0.301,0.104-0.578,0.258-0.841,0.434c-0.093-0.24-0.195-0.479-0.314-0.713
		c0.89,0,1.777,0,2.667,0c0.059,0.068,0.127,0.133,0.216,0.186c2.78,1.686,2.752,5.236,1.567,7.945
		C223.566,12.613,221.5,14.994,219.26,16.881z"/>
	<path fill="none" d="M216.372,10.018c-2.437,1.732-5.118,2.107-7.998,2.107c-0.003,0-0.007,0-0.01,0
		c2.875-0.002,5.554-0.377,7.987-2.107c2.664-1.893,4.229-5.268,1.993-8.219c-0.013-0.016-0.02-0.033-0.031-0.049
		c0.007,0,0.014,0,0.021,0c0.012,0.016,0.019,0.033,0.031,0.049C220.601,4.75,219.036,8.125,216.372,10.018z"/>
	<path fill="none" d="M250.03,4.758c-1.563,0.006-2.143-1.732-1.358-2.945c0.014-0.021,0.021-0.041,0.032-0.063
		c0.442,0,0.885,0,1.326,0c0.442,0,0.885,0,1.327,0c0.012,0.021,0.019,0.041,0.032,0.063C252.181,3.035,251.591,4.752,250.03,4.758z
		"/>
	<path fill="none" d="M177.604,16.881c-3.728,3.143-8.347,5.311-10.886,9.609c-2.538-4.299-7.158-6.467-10.886-9.609
		c-2.334-1.965-4.574-4.529-5.7-7.447c-1.016-2.631-0.827-5.928,1.765-7.498c0.089-0.053,0.157-0.117,0.216-0.186
		c0.889,0,1.777,0,2.666,0c-0.139,0.271-0.254,0.551-0.355,0.832c-0.313-0.227-0.644-0.422-1.011-0.553
		c-0.632-0.229-1.343,0.051-1.524,0.752c-0.308,1.191,1.131,1.889,2.113,1.896c-0.02,0.469,0.008,0.936,0.082,1.398
		c-0.395-0.037-0.797,0.014-1.156,0.199c-0.511,0.264-0.793,0.875-0.549,1.434c0.438,1,1.507,0.648,2.292,0.25
		c0.176,0.375,0.384,0.74,0.627,1.09c-0.351,0.209-0.698,0.469-0.929,0.805c-0.373,0.545-0.264,1.316,0.328,1.652
		c0.834,0.475,1.528-0.189,1.959-0.924c0.397,0.365,0.811,0.689,1.238,0.982c-0.228,0.133-0.42,0.324-0.547,0.559
		c-0.325,0.605-0.033,1.352,0.543,1.648c0.561,0.291,1.245,0.105,1.679-0.336c0.204-0.209,0.345-0.459,0.455-0.725
		c0.518,0.213,1.048,0.395,1.589,0.543c-0.213,0.184-0.384,0.406-0.476,0.68c-0.227,0.674,0.137,1.369,0.757,1.637
		c0.661,0.289,1.371-0.006,1.766-0.596c0.261-0.391,0.323-0.824,0.307-1.268c0.463,0.059,0.931,0.1,1.401,0.125
		c-0.047,0.447-0.146,0.889-0.024,1.35c0.164,0.611,0.723,1.191,1.375,1.191c0.65,0,1.21-0.58,1.374-1.191
		c0.122-0.455,0.024-0.895-0.022-1.34c0.469-0.025,0.937-0.066,1.399-0.123c-0.016,0.439,0.049,0.869,0.307,1.256
		c0.395,0.59,1.104,0.885,1.766,0.596c0.62-0.268,0.985-0.963,0.759-1.637c-0.091-0.27-0.261-0.49-0.471-0.674
		c0.478-0.131,0.946-0.285,1.404-0.469c0.104,0.236,0.237,0.457,0.422,0.645c0.433,0.441,1.119,0.627,1.679,0.336
		c0.582-0.301,0.859-1.039,0.542-1.648c-0.103-0.195-0.258-0.363-0.438-0.488c0.418-0.279,0.819-0.59,1.205-0.934
		c0.435,0.684,1.096,1.254,1.885,0.805c0.592-0.336,0.7-1.107,0.328-1.652c-0.198-0.289-0.483-0.521-0.781-0.715
		c0.253-0.354,0.471-0.719,0.654-1.094c0.762,0.355,1.711,0.592,2.117-0.336c0.254-0.58-0.059-1.193-0.587-1.451
		c-0.286-0.139-0.594-0.195-0.904-0.191c0.074-0.465,0.105-0.932,0.084-1.4c0.967-0.094,2.162-0.773,1.897-1.885
		c-0.169-0.709-0.899-0.971-1.525-0.752c-0.301,0.104-0.578,0.258-0.841,0.434c-0.093-0.24-0.195-0.479-0.314-0.713
		c0.89,0,1.778,0,2.668,0c0.059,0.068,0.126,0.133,0.216,0.186c2.781,1.686,2.753,5.236,1.566,7.945
		C181.909,12.613,179.843,14.994,177.604,16.881z"/>
	<path fill="none" d="M105.671,17.787c-0.47-1.033-0.994-2.021-1.443-3.043c0.002-0.004,0.004-0.008,0.006-0.012
		c0.45,1.027,0.977,2.018,1.448,3.055c0.916,2.016,1.823,6.324-1.448,6.705c-0.002,0-0.004,0-0.006,0
		C107.492,24.105,106.585,19.803,105.671,17.787z"/>
	<path fill="none" d="M201.135,7.334c-1.306-1.65-1.572-3.771-0.729-5.584c0.007,0,0.014,0,0.021,0
		c-0.843,1.813-0.577,3.934,0.729,5.584c1.656,2.094,4.653,3.004,7.209,3.006c-0.003,0-0.007,0-0.01,0
		C205.796,10.34,202.793,9.43,201.135,7.334z"/>
	<path fill="none" d="M205.131,1.75c0.007,0,0.014,0,0.021,0c-0.751,2.207,0.736,4.752,3.213,4.758c-0.004,0-0.006,0.002-0.01,0.002
		C205.871,6.51,204.38,3.961,205.131,1.75z"/>
	<path fill="none" d="M208.374,4.758c-1.563,0.006-2.144-1.732-1.359-2.945c0.014-0.021,0.021-0.041,0.033-0.063
		c0.442,0,0.884,0,1.326,0s0.885,0,1.326,0c0.012,0.021,0.02,0.041,0.033,0.063C210.523,3.035,209.934,4.752,208.374,4.758z"/>
	<path fill="none" d="M213.032,7.34c-1.302,0.826-3.153,1.25-4.658,1.25c-0.003,0-0.007,0-0.01,0
		c1.502-0.002,3.349-0.426,4.647-1.25c1.709-1.084,2.906-3.488,1.486-5.35c-0.059-0.078-0.099-0.158-0.13-0.24
		c0.007,0,0.013,0,0.02,0c0.031,0.082,0.071,0.162,0.131,0.24C215.938,3.852,214.741,6.256,213.032,7.34z"/>
	<path fill="none" d="M163.473,1.75c0.007,0,0.015,0,0.021,0c-0.751,2.207,0.737,4.752,3.213,4.758
		c-0.004,0-0.007,0.002-0.011,0.002C164.214,6.51,162.722,3.961,163.473,1.75z"/>
	<path fill="none" d="M364.114,16.881c-2.333-1.965-4.574-4.529-5.699-7.447c-1.016-2.631-0.826-5.928,1.764-7.498
		c0.089-0.053,0.157-0.117,0.216-0.186c0.89,0,1.778,0,2.666,0c-0.139,0.271-0.253,0.551-0.354,0.832
		c-0.313-0.227-0.644-0.422-1.01-0.553c-0.633-0.229-1.345,0.051-1.525,0.752c-0.309,1.191,1.131,1.889,2.114,1.896
		c-0.021,0.469,0.007,0.936,0.082,1.398c-0.396-0.037-0.797,0.014-1.157,0.199c-0.512,0.264-0.793,0.875-0.55,1.434
		c0.438,1,1.509,0.648,2.293,0.25c0.175,0.375,0.384,0.74,0.627,1.09c-0.352,0.209-0.699,0.469-0.929,0.805
		c-0.372,0.545-0.264,1.316,0.327,1.652c0.834,0.475,1.528-0.189,1.959-0.924c0.397,0.365,0.812,0.689,1.24,0.982
		c-0.228,0.133-0.42,0.324-0.547,0.559c-0.327,0.605-0.034,1.352,0.542,1.648c0.561,0.291,1.244,0.105,1.678-0.336
		c0.205-0.209,0.345-0.459,0.455-0.725c0.518,0.213,1.049,0.395,1.591,0.543c-0.214,0.184-0.386,0.406-0.478,0.68
		c-0.227,0.674,0.139,1.369,0.758,1.637c0.662,0.289,1.371-0.006,1.765-0.596c0.261-0.391,0.324-0.824,0.307-1.268
		c0.464,0.059,0.932,0.1,1.402,0.125c-0.047,0.447-0.146,0.889-0.023,1.35c0.164,0.611,0.723,1.191,1.373,1.191V26.49
		C372.462,22.191,367.843,20.023,364.114,16.881z"/>
	<path fill="none" d="M5.642,6.604c0.181-0.189,0.348-0.395,0.495-0.611C5.989,6.209,5.822,6.414,5.642,6.604z"/>
	<path fill="none" d="M10.052,1.75c0.011,0.016,0.018,0.033,0.03,0.049C10.069,1.783,10.063,1.766,10.052,1.75L10.052,1.75z"/>
	<path fill="none" d="M0.091,8.59c1.505,0,3.356-0.424,4.657-1.25C3.448,8.166,1.596,8.59,0.091,8.59z"/>
	<path fill="none" d="M11.146,4.633c0.086,2.082-1.227,4.082-3.058,5.385c-2.436,1.732-5.118,2.107-7.998,2.107
		c2.88,0,5.562-0.375,7.997-2.107C9.92,8.715,11.232,6.715,11.146,4.633z"/>
	<path fill="none" d="M371.767,1.75c0.004,0,0.007,0,0.011,0c-0.752,2.209,0.739,4.756,3.219,4.76c-0.002,0-0.004,0-0.006,0
		C372.508,6.51,371.016,3.961,371.767,1.75z"/>
	<path fill="none" d="M367.771,7.334c-1.305-1.65-1.571-3.771-0.729-5.584c0.004,0,0.007,0,0.011,0
		c-0.843,1.813-0.576,3.934,0.729,5.584c1.658,2.096,4.658,3.006,7.215,3.006c-0.002,0-0.004,0-0.006,0
		C372.433,10.34,369.43,9.43,367.771,7.334z"/>
	<polygon fill="none" points="375,8.59 375,8.59 374.996,8.59 	"/>
	<polygon fill="none" points="375,12.125 375,12.125 374.996,12.125 	"/>
	<path fill="none" d="M373.642,1.813c0.014-0.021,0.021-0.041,0.032-0.063c0.442,0,0.885,0,1.326,0v3.008
		C373.438,4.764,372.857,3.025,373.642,1.813z"/>
	<path fill="none" d="M83.406,6.51L83.406,6.51c2.479-0.002,3.973-2.551,3.221-4.76c0.001,0,0.001,0,0.002,0
		C87.38,3.959,85.888,6.51,83.406,6.51z"/>
	<path fill="none" d="M125.061,4.758c-1.563,0.006-2.143-1.732-1.358-2.945c0.014-0.021,0.021-0.041,0.032-0.063
		c0.442,0,0.885,0,1.326,0c0.442,0,0.885,0,1.327,0c0.012,0.021,0.019,0.041,0.032,0.063C127.21,3.035,126.62,4.752,125.061,4.758z"
		/>
	<path fill="none" d="M90.692,7.244c-1.637,2.166-4.702,3.096-7.286,3.096h-0.001c2.584,0,5.649-0.93,7.285-3.096
		c1.245-1.648,1.491-3.717,0.663-5.494h0.001C92.184,3.527,91.938,5.596,90.692,7.244z"/>
	<path fill="none" d="M75.408,10.018c2.452,1.736,5.105,2.107,7.997,2.107h-0.001c-2.891,0-5.545-0.371-7.998-2.107
		c-2.674-1.891-4.224-5.273-1.993-8.219c0.013-0.016,0.02-0.033,0.03-0.049c0.001,0,0.001,0,0.002,0
		c-0.012,0.016-0.019,0.033-0.031,0.049C71.184,4.744,72.733,8.127,75.408,10.018z"/>
	<path fill="none" d="M94.29,16.881c-3.728,3.143-8.348,5.311-10.886,9.609c-2.539-4.299-7.157-6.467-10.886-9.609
		c-2.334-1.965-4.574-4.529-5.7-7.447c-1.016-2.631-0.826-5.928,1.764-7.498c0.09-0.053,0.158-0.117,0.217-0.186
		c0.889,0,1.777,0,2.666,0c-0.139,0.271-0.253,0.551-0.354,0.832C70.798,2.355,70.466,2.16,70.1,2.029
		c-0.633-0.229-1.345,0.051-1.525,0.752c-0.307,1.191,1.131,1.889,2.114,1.896c-0.021,0.469,0.007,0.936,0.082,1.398
		c-0.396-0.037-0.797,0.014-1.157,0.199c-0.512,0.264-0.793,0.875-0.549,1.434c0.438,1,1.508,0.648,2.293,0.25
		c0.175,0.375,0.384,0.74,0.627,1.09c-0.352,0.209-0.698,0.469-0.929,0.805c-0.373,0.545-0.265,1.316,0.328,1.652
		c0.833,0.475,1.526-0.189,1.957-0.924c0.397,0.365,0.813,0.689,1.24,0.982c-0.228,0.133-0.42,0.324-0.547,0.559
		c-0.327,0.605-0.034,1.352,0.542,1.648c0.562,0.291,1.245,0.105,1.679-0.336c0.205-0.209,0.344-0.459,0.454-0.725
		c0.519,0.213,1.049,0.395,1.591,0.543c-0.214,0.184-0.386,0.406-0.478,0.68c-0.227,0.674,0.139,1.369,0.758,1.637
		c0.662,0.289,1.372-0.006,1.767-0.596c0.261-0.391,0.322-0.824,0.306-1.268c0.463,0.059,0.931,0.1,1.401,0.125
		c-0.046,0.447-0.146,0.889-0.023,1.35c0.164,0.611,0.723,1.191,1.374,1.191s1.21-0.58,1.373-1.191
		c0.122-0.455,0.025-0.895-0.022-1.34c0.47-0.025,0.938-0.066,1.4-0.123c-0.015,0.439,0.049,0.869,0.308,1.256
		c0.395,0.59,1.104,0.885,1.766,0.596c0.619-0.268,0.983-0.963,0.757-1.637c-0.091-0.27-0.26-0.49-0.469-0.674
		c0.476-0.131,0.944-0.285,1.403-0.469c0.104,0.236,0.237,0.457,0.422,0.645c0.434,0.441,1.119,0.627,1.679,0.336
		c0.582-0.301,0.858-1.039,0.543-1.648c-0.103-0.195-0.258-0.363-0.438-0.488c0.418-0.279,0.818-0.59,1.204-0.934
		c0.434,0.684,1.097,1.254,1.885,0.805c0.592-0.336,0.701-1.107,0.328-1.652c-0.197-0.289-0.482-0.521-0.781-0.715
		c0.253-0.354,0.472-0.719,0.654-1.094c0.762,0.355,1.711,0.592,2.117-0.336c0.253-0.58-0.06-1.193-0.587-1.451
		c-0.286-0.139-0.594-0.195-0.903-0.191c0.073-0.465,0.105-0.932,0.084-1.4c0.966-0.094,2.162-0.773,1.896-1.885
		c-0.17-0.709-0.9-0.971-1.524-0.752c-0.301,0.104-0.578,0.258-0.841,0.434c-0.093-0.24-0.195-0.479-0.314-0.713
		c0.89,0,1.777,0,2.667,0c0.059,0.068,0.127,0.133,0.216,0.186c2.78,1.686,2.752,5.236,1.567,7.945
		C98.596,12.613,96.53,14.994,94.29,16.881z"/>
	<path fill="none" d="M6.235,1.99c-0.059-0.078-0.099-0.158-0.13-0.24C6.137,1.832,6.177,1.912,6.235,1.99
		C7.212,3.27,6.95,4.805,6.137,5.992C6.95,4.805,7.212,3.27,6.235,1.99z"/>
	<path fill="none" d="M41.748,4.758c-1.563,0.006-2.144-1.732-1.359-2.945c0.013-0.021,0.021-0.041,0.031-0.063
		c0.442,0,0.885,0,1.328,0c0.442,0,0.885,0,1.327,0c0.011,0.021,0.019,0.041,0.032,0.063C43.897,3.035,43.308,4.752,41.748,4.758z"
		/>
	<path fill="none" d="M52.633,16.881c-3.728,3.143-8.347,5.311-10.885,9.609c-2.538-4.299-7.158-6.467-10.886-9.609
		c-2.334-1.965-4.574-4.529-5.701-7.447c-1.015-2.631-0.826-5.928,1.766-7.498c0.089-0.053,0.157-0.117,0.216-0.186
		c0.889,0,1.776,0,2.666,0c-0.139,0.271-0.254,0.551-0.355,0.832c-0.313-0.227-0.644-0.422-1.011-0.553
		C27.811,1.801,27.1,2.08,26.918,2.781c-0.308,1.191,1.131,1.889,2.113,1.896c-0.02,0.469,0.008,0.936,0.083,1.398
		c-0.396-0.037-0.798,0.014-1.157,0.199c-0.511,0.264-0.792,0.875-0.549,1.434c0.438,1,1.507,0.648,2.292,0.25
		c0.176,0.375,0.384,0.74,0.627,1.09c-0.351,0.209-0.698,0.469-0.929,0.805c-0.372,0.545-0.264,1.316,0.328,1.652
		c0.834,0.475,1.528-0.189,1.959-0.924c0.396,0.365,0.811,0.689,1.238,0.982c-0.227,0.133-0.42,0.324-0.546,0.559
		c-0.326,0.605-0.034,1.352,0.542,1.648c0.561,0.291,1.245,0.105,1.679-0.336c0.205-0.209,0.345-0.459,0.454-0.725
		c0.519,0.213,1.049,0.395,1.59,0.543c-0.214,0.184-0.385,0.406-0.477,0.68c-0.226,0.674,0.139,1.369,0.758,1.637
		c0.661,0.289,1.371-0.006,1.766-0.596c0.261-0.391,0.323-0.824,0.307-1.268c0.464,0.059,0.932,0.1,1.401,0.125
		c-0.047,0.447-0.146,0.889-0.024,1.35c0.164,0.611,0.723,1.191,1.375,1.191c0.65,0,1.21-0.58,1.374-1.191
		c0.122-0.455,0.024-0.895-0.022-1.34c0.469-0.025,0.937-0.066,1.399-0.123c-0.016,0.439,0.049,0.869,0.307,1.256
		c0.395,0.59,1.104,0.885,1.766,0.596c0.62-0.268,0.984-0.963,0.759-1.637c-0.091-0.27-0.26-0.49-0.471-0.674
		c0.478-0.131,0.946-0.285,1.404-0.469c0.104,0.236,0.237,0.457,0.422,0.645c0.433,0.441,1.118,0.627,1.679,0.336
		c0.582-0.301,0.859-1.039,0.542-1.648c-0.103-0.195-0.258-0.363-0.438-0.488c0.417-0.279,0.818-0.59,1.204-0.934
		c0.435,0.684,1.096,1.254,1.884,0.805c0.593-0.336,0.701-1.107,0.329-1.652c-0.198-0.289-0.482-0.521-0.781-0.715
		c0.253-0.354,0.471-0.719,0.654-1.094c0.762,0.355,1.712,0.592,2.117-0.336c0.254-0.58-0.059-1.193-0.587-1.451
		c-0.286-0.139-0.594-0.195-0.904-0.191c0.074-0.465,0.105-0.932,0.084-1.4c0.968-0.094,2.162-0.773,1.897-1.885
		c-0.169-0.709-0.9-0.971-1.525-0.752C54.54,2.133,54.263,2.287,54,2.463c-0.092-0.24-0.194-0.479-0.314-0.713
		c0.89,0,1.779,0,2.668,0c0.059,0.068,0.126,0.133,0.215,0.186c2.782,1.686,2.753,5.236,1.567,7.945
		C56.939,12.613,54.873,14.994,52.633,16.881z"/>
	<path fill="none" d="M83.404,4.758c-1.563,0.006-2.144-1.732-1.359-2.945c0.014-0.021,0.021-0.041,0.032-0.063
		c0.442,0,0.885,0,1.327,0s0.885,0,1.326,0c0.012,0.021,0.02,0.041,0.033,0.063C85.553,3.035,84.964,4.752,83.404,4.758z"/>
	<path fill="none" d="M78.748,7.34c1.324,0.828,3.126,1.25,4.657,1.25h-0.001C81.874,8.59,80.071,8.168,78.748,7.34
		c-1.72-1.072-2.9-3.498-1.488-5.35c0.059-0.078,0.099-0.158,0.13-0.24c0.001,0,0.001,0,0.002,0
		c-0.032,0.082-0.072,0.162-0.131,0.24C75.85,3.842,77.029,6.268,78.748,7.34z"/>
	<path fill="none" d="M11.088,4.063c-0.063-0.381-0.175-0.762-0.341-1.141C10.913,3.301,11.025,3.682,11.088,4.063z"/>
	<path fill="none" d="M302.684,4.063c-0.063-0.381-0.175-0.762-0.34-1.141C302.509,3.301,302.621,3.682,302.684,4.063z"/>
	<path fill="none" d="M188.974,17.787c-0.468-1.029-0.99-2.014-1.438-3.033c0.004-0.008,0.008-0.014,0.011-0.021
		c0.451,1.027,0.979,2.018,1.449,3.055c0.915,2.016,1.822,6.324-1.449,6.705c-0.004,0-0.007-0.002-0.011-0.002
		C190.793,24.1,189.887,19.801,188.974,17.787z"/>
	<path fill="none" d="M301.648,1.75c0.011,0.016,0.018,0.033,0.03,0.049C301.666,1.783,301.659,1.766,301.648,1.75L301.648,1.75z"/>
	<path fill="none" d="M284.468,7.334c1.66,2.096,4.662,3.006,7.22,3.006C289.13,10.34,286.127,9.43,284.468,7.334z"/>
	<path fill="none" d="M344.229,16.881c-3.728,3.143-8.348,5.311-10.886,9.609c-2.539-4.299-7.157-6.467-10.885-9.609
		c-2.335-1.965-4.574-4.529-5.701-7.447c-1.016-2.631-0.826-5.928,1.766-7.498c0.088-0.053,0.156-0.117,0.215-0.186
		c0.889,0,1.777,0,2.667,0c-0.14,0.271-0.254,0.551-0.356,0.832c-0.313-0.227-0.643-0.422-1.01-0.553
		c-0.633-0.229-1.345,0.051-1.525,0.752c-0.307,1.191,1.131,1.889,2.114,1.896c-0.021,0.469,0.007,0.936,0.082,1.398
		c-0.396-0.037-0.797,0.014-1.157,0.199c-0.512,0.264-0.792,0.875-0.549,1.434c0.438,1,1.508,0.648,2.293,0.25
		c0.175,0.375,0.384,0.74,0.627,1.09c-0.351,0.209-0.698,0.469-0.93,0.805c-0.372,0.545-0.263,1.316,0.329,1.652
		c0.833,0.475,1.526-0.189,1.957-0.924c0.397,0.365,0.813,0.689,1.24,0.982c-0.228,0.133-0.42,0.324-0.547,0.559
		c-0.326,0.605-0.033,1.352,0.542,1.648c0.562,0.291,1.246,0.105,1.679-0.336c0.205-0.209,0.345-0.459,0.454-0.725
		c0.519,0.213,1.049,0.395,1.591,0.543c-0.214,0.184-0.385,0.406-0.478,0.68c-0.227,0.674,0.139,1.369,0.759,1.637
		c0.661,0.289,1.371-0.006,1.765-0.596c0.262-0.391,0.324-0.824,0.307-1.268c0.463,0.059,0.931,0.1,1.401,0.125
		c-0.047,0.447-0.146,0.889-0.023,1.35c0.164,0.611,0.723,1.191,1.374,1.191s1.211-0.58,1.375-1.191
		c0.12-0.455,0.023-0.895-0.023-1.34c0.469-0.025,0.937-0.066,1.399-0.123c-0.015,0.439,0.049,0.869,0.308,1.256
		c0.395,0.59,1.104,0.885,1.766,0.596c0.619-0.268,0.983-0.963,0.757-1.637c-0.091-0.27-0.259-0.49-0.469-0.674
		c0.476-0.131,0.945-0.285,1.403-0.469c0.105,0.236,0.237,0.457,0.422,0.645c0.434,0.441,1.119,0.627,1.679,0.336
		c0.582-0.301,0.859-1.039,0.543-1.648c-0.103-0.195-0.258-0.363-0.438-0.488c0.417-0.279,0.817-0.59,1.203-0.934
		c0.434,0.684,1.097,1.254,1.885,0.805c0.593-0.336,0.701-1.107,0.328-1.652c-0.197-0.289-0.482-0.521-0.781-0.715
		c0.254-0.354,0.472-0.719,0.654-1.094c0.763,0.355,1.711,0.592,2.117-0.336c0.253-0.58-0.059-1.193-0.587-1.451
		c-0.286-0.139-0.594-0.195-0.903-0.191c0.074-0.465,0.105-0.932,0.084-1.4c0.966-0.094,2.161-0.773,1.896-1.885
		c-0.169-0.709-0.9-0.971-1.524-0.752c-0.301,0.104-0.578,0.258-0.841,0.434c-0.093-0.24-0.195-0.479-0.314-0.713
		c0.89,0,1.778,0,2.667,0c0.059,0.068,0.127,0.133,0.216,0.186c2.781,1.686,2.752,5.236,1.567,7.945
		C348.536,12.613,346.47,14.994,344.229,16.881z"/>
	<path fill="none" d="M291.688,8.59c1.505,0,3.355-0.424,4.657-1.25C295.044,8.166,293.192,8.59,291.688,8.59z"/>
	<path fill="none" d="M291.688,4.758c-1.563,0.006-2.144-1.732-1.359-2.945c0.014-0.021,0.021-0.041,0.033-0.063
		c0.441,0,0.884,0,1.326,0s0.885,0,1.327,0c0.012,0.021,0.019,0.041,0.032,0.063C293.837,3.035,293.247,4.752,291.688,4.758z"/>
	<path fill="none" d="M288.464,1.75L288.464,1.75c-0.516,1.52,0.027,3.199,1.225,4.1C288.491,4.949,287.947,3.27,288.464,1.75z"/>
	<path fill="none" d="M299.394,6.607c0.621-1.088,0.849-2.307,0.663-3.48C300.242,4.301,300.015,5.52,299.394,6.607z"/>
	<path fill="none" d="M333.344,4.758c-1.563,0.006-2.144-1.732-1.359-2.945c0.014-0.021,0.021-0.041,0.032-0.063
		c0.442,0,0.885,0,1.327,0s0.885,0,1.326,0c0.012,0.021,0.02,0.041,0.033,0.063C335.493,3.035,334.903,4.752,333.344,4.758z"/>
	<path fill="none" d="M333.346,6.51L333.346,6.51c2.479-0.002,3.973-2.551,3.222-4.76h0.001
		C337.319,3.959,335.827,6.51,333.346,6.51z"/>
	<path fill="none" d="M313.965,17.787c-0.472-1.037-0.999-2.027-1.449-3.055C312.967,15.76,313.494,16.75,313.965,17.787
		c0.915,2.016,1.823,6.324-1.449,6.705c0,0,0,0-0.001,0C315.787,24.109,314.879,19.803,313.965,17.787z"/>
	<path fill="none" d="M230.619,17.787c-0.466-1.025-0.985-2.006-1.432-3.021c0.005-0.012,0.011-0.021,0.016-0.033
		c0.451,1.027,0.978,2.018,1.448,3.055c0.916,2.016,1.823,6.324-1.448,6.705c-0.006,0-0.011-0.002-0.017-0.004
		C232.438,24.094,231.532,19.799,230.619,17.787z"/>
	<path fill="none" d="M325.348,10.018c2.452,1.736,5.105,2.107,7.997,2.107h-0.001C330.453,12.125,327.799,11.754,325.348,10.018
		c-2.677-1.891-4.226-5.273-1.995-8.219c0.013-0.016,0.02-0.033,0.03-0.049c0.001,0,0.001,0,0.002,0
		c-0.012,0.016-0.019,0.033-0.031,0.049C321.123,4.744,322.673,8.127,325.348,10.018z"/>
	<path fill="none" d="M270.859,14.732c-0.45,1.027-0.977,2.02-1.449,3.055C269.883,16.752,270.408,15.76,270.859,14.732z"/>
	<path fill="none" d="M299.686,10.018c-1.827,1.301-3.793,1.836-5.876,2.021C295.893,11.854,297.858,11.318,299.686,10.018
		c1.831-1.303,3.143-3.303,3.057-5.385C302.828,6.715,301.518,8.715,299.686,10.018z"/>
	<path fill="none" d="M328.688,7.34c1.324,0.828,3.126,1.25,4.657,1.25h-0.001C331.813,8.59,330.011,8.168,328.688,7.34
		c-1.72-1.072-2.9-3.498-1.488-5.35c0.059-0.078,0.099-0.158,0.13-0.24c0.001,0,0.001,0,0.002,0
		c-0.032,0.082-0.072,0.162-0.131,0.24C325.789,3.842,326.969,6.268,328.688,7.34z"/>
	<path fill="none" d="M302.573,16.881c-3.729,3.143-8.348,5.311-10.886,9.609c-2.538-4.299-7.158-6.467-10.886-9.609
		c-2.334-1.965-4.574-4.529-5.701-7.447c-1.015-2.631-0.826-5.928,1.766-7.498c0.089-0.053,0.157-0.117,0.216-0.186
		c0.889,0,1.776,0,2.666,0c-0.139,0.271-0.254,0.551-0.355,0.832c-0.313-0.227-0.644-0.422-1.011-0.553
		c-0.632-0.229-1.343,0.051-1.524,0.752c-0.308,1.191,1.132,1.889,2.113,1.896c-0.02,0.469,0.008,0.936,0.083,1.398
		c-0.396-0.037-0.798,0.014-1.157,0.199c-0.512,0.264-0.792,0.875-0.549,1.434c0.438,1,1.507,0.648,2.292,0.25
		c0.176,0.375,0.384,0.74,0.627,1.09c-0.351,0.209-0.698,0.469-0.929,0.805c-0.372,0.545-0.264,1.316,0.328,1.652
		c0.834,0.475,1.528-0.189,1.959-0.924c0.397,0.365,0.811,0.689,1.238,0.982c-0.227,0.133-0.42,0.324-0.546,0.559
		c-0.326,0.605-0.034,1.352,0.542,1.648c0.561,0.291,1.245,0.105,1.679-0.336c0.204-0.209,0.345-0.459,0.455-0.725
		c0.518,0.213,1.048,0.395,1.589,0.543c-0.214,0.184-0.384,0.406-0.477,0.68c-0.226,0.674,0.139,1.369,0.758,1.637
		c0.661,0.289,1.371-0.006,1.766-0.596c0.261-0.391,0.323-0.824,0.307-1.268c0.464,0.059,0.932,0.1,1.402,0.125
		c-0.047,0.447-0.147,0.889-0.023,1.35c0.162,0.611,0.721,1.191,1.373,1.191c0.651,0,1.21-0.58,1.374-1.191
		c0.122-0.455,0.024-0.895-0.022-1.34c0.47-0.025,0.937-0.066,1.399-0.123c-0.016,0.439,0.049,0.869,0.307,1.256
		c0.395,0.59,1.104,0.885,1.767,0.596c0.619-0.268,0.983-0.963,0.758-1.637c-0.091-0.27-0.26-0.49-0.471-0.674
		c0.478-0.131,0.946-0.285,1.404-0.469c0.105,0.236,0.237,0.457,0.422,0.645c0.434,0.441,1.118,0.627,1.679,0.336
		c0.582-0.301,0.859-1.039,0.542-1.648c-0.103-0.195-0.258-0.363-0.438-0.488c0.417-0.279,0.819-0.59,1.204-0.934
		c0.435,0.684,1.097,1.254,1.885,0.805c0.592-0.336,0.7-1.107,0.328-1.652c-0.198-0.289-0.482-0.521-0.781-0.715
		c0.253-0.354,0.471-0.719,0.654-1.094c0.762,0.355,1.711,0.592,2.118-0.336c0.253-0.58-0.06-1.193-0.588-1.451
		c-0.286-0.139-0.594-0.195-0.904-0.191c0.074-0.465,0.105-0.932,0.085-1.4c0.966-0.094,2.161-0.773,1.896-1.885
		c-0.169-0.709-0.9-0.971-1.525-0.752c-0.301,0.104-0.578,0.258-0.841,0.434c-0.092-0.24-0.194-0.479-0.314-0.713
		c0.89,0,1.779,0,2.668,0c0.06,0.068,0.127,0.133,0.216,0.186c2.781,1.686,2.753,5.236,1.566,7.945
		C306.879,12.613,304.813,14.994,302.573,16.881z"/>
	<path fill="none" d="M355.61,17.787c-0.47-1.033-0.994-2.021-1.443-3.043c0.002-0.004,0.004-0.008,0.006-0.012
		c0.451,1.027,0.977,2.018,1.448,3.055c0.916,2.016,1.823,6.324-1.448,6.705c-0.002,0-0.004,0-0.006,0
		C357.432,24.105,356.524,19.803,355.61,17.787z"/>
	<path fill="none" d="M246.807,1.75L246.807,1.75c-0.751,2.211,0.742,4.76,3.224,4.76C247.548,6.51,246.056,3.961,246.807,1.75z"/>
	<path fill="none" d="M147.317,17.787c-0.468-1.029-0.99-2.014-1.438-3.033c0.004-0.008,0.008-0.014,0.011-0.021
		c0.45,1.027,0.978,2.018,1.449,3.055c0.915,2.016,1.823,6.324-1.45,6.705c-0.004,0-0.007-0.002-0.011-0.002
		C149.137,24.1,148.231,19.801,147.317,17.787z"/>
	<path fill="none" d="M259.991,1.75c0.011,0.016,0.019,0.033,0.03,0.049C260.009,1.783,260.002,1.766,259.991,1.75L259.991,1.75z"/>
	<path fill="none" d="M260.917,16.881c-3.728,3.143-8.348,5.311-10.887,9.609c-2.538-4.299-7.158-6.467-10.886-9.609
		c-2.333-1.965-4.574-4.529-5.699-7.447c-1.017-2.631-0.826-5.928,1.764-7.498c0.09-0.053,0.158-0.117,0.216-0.186
		c0.89,0,1.778,0,2.666,0c-0.139,0.271-0.253,0.551-0.354,0.832c-0.313-0.227-0.644-0.422-1.01-0.553
		c-0.633-0.229-1.345,0.051-1.525,0.752c-0.309,1.191,1.131,1.889,2.114,1.896c-0.021,0.469,0.007,0.936,0.082,1.398
		c-0.396-0.037-0.797,0.014-1.158,0.199c-0.511,0.264-0.792,0.875-0.549,1.434c0.438,1,1.508,0.648,2.293,0.25
		c0.175,0.375,0.384,0.74,0.627,1.09c-0.352,0.209-0.698,0.469-0.929,0.805c-0.372,0.545-0.264,1.316,0.327,1.652
		c0.834,0.475,1.528-0.189,1.959-0.924c0.397,0.365,0.812,0.689,1.239,0.982c-0.227,0.133-0.42,0.324-0.546,0.559
		c-0.327,0.605-0.034,1.352,0.542,1.648c0.561,0.291,1.244,0.105,1.678-0.336c0.205-0.209,0.345-0.459,0.455-0.725
		c0.518,0.213,1.049,0.395,1.591,0.543c-0.214,0.184-0.386,0.406-0.478,0.68c-0.227,0.674,0.139,1.369,0.758,1.637
		c0.662,0.289,1.37-0.006,1.765-0.596c0.261-0.391,0.324-0.824,0.307-1.268c0.464,0.059,0.932,0.1,1.402,0.125
		c-0.047,0.447-0.146,0.889-0.023,1.35c0.164,0.611,0.723,1.191,1.373,1.191c0.651,0,1.21-0.58,1.374-1.191
		c0.122-0.455,0.024-0.895-0.022-1.34c0.47-0.025,0.937-0.066,1.4-0.123c-0.016,0.439,0.049,0.869,0.308,1.256
		c0.394,0.59,1.103,0.885,1.765,0.596c0.619-0.268,0.984-0.963,0.758-1.637c-0.091-0.27-0.26-0.49-0.471-0.674
		c0.478-0.131,0.946-0.285,1.404-0.469c0.105,0.236,0.238,0.457,0.423,0.645c0.434,0.441,1.119,0.627,1.678,0.336
		c0.582-0.301,0.859-1.039,0.542-1.648c-0.102-0.195-0.258-0.363-0.438-0.488c0.417-0.279,0.819-0.59,1.205-0.934
		c0.434,0.684,1.097,1.254,1.885,0.805c0.591-0.336,0.699-1.107,0.327-1.652c-0.196-0.289-0.481-0.521-0.779-0.715
		c0.252-0.354,0.471-0.719,0.652-1.094c0.762,0.355,1.711,0.592,2.118-0.336c0.253-0.58-0.06-1.193-0.588-1.451
		c-0.286-0.139-0.594-0.195-0.903-0.191c0.073-0.465,0.105-0.932,0.084-1.4c0.967-0.094,2.162-0.773,1.896-1.885
		c-0.169-0.709-0.899-0.971-1.524-0.752c-0.302,0.104-0.578,0.258-0.842,0.434c-0.092-0.24-0.194-0.479-0.313-0.713
		c0.888,0,1.777,0,2.667,0c0.059,0.068,0.127,0.133,0.216,0.186c2.78,1.686,2.752,5.236,1.566,7.945
		C265.223,12.613,263.155,14.994,260.917,16.881z"/>
	<path fill="none" d="M261.027,4.063c-0.063-0.381-0.175-0.762-0.341-1.141C260.853,3.301,260.965,3.682,261.027,4.063z"/>
	<path fill="none" d="M242.811,7.334c1.66,2.096,4.662,3.006,7.22,3.006C247.473,10.34,244.47,9.43,242.811,7.334z"/>
	<path fill="none" d="M340.632,7.244c-1.637,2.166-4.702,3.096-7.286,3.096h-0.001c2.585,0,5.649-0.93,7.285-3.096
		c1.246-1.648,1.491-3.717,0.663-5.494h0.001C342.123,3.527,341.877,5.596,340.632,7.244z"/>
	<path fill="none" d="M242.081,1.75L242.081,1.75c-0.631,1.359-0.639,2.893-0.054,4.27C241.442,4.643,241.45,3.109,242.081,1.75z"/>
	<path fill="none" d="M258.029,10.018c-2.437,1.732-5.119,2.107-7.999,2.107c2.88,0,5.562-0.375,7.997-2.107
		c1.832-1.303,3.145-3.303,3.059-5.385C261.172,6.715,259.859,8.715,258.029,10.018z"/>
	<path fill="#8D183D" d="M17.384,18.271c-0.579,1.389-1.145,2.832-1.056,4.369c0.146,2.504,2.146,4.287,4.591,4.287
		c2.545,0,4.565-1.924,4.607-4.529c0.024-1.566-0.612-3.035-1.205-4.441c-0.743-1.766-1.542-3.508-2.346-5.244
		c-0.089-0.277-0.17-0.555-0.234-0.838c-0.189-0.836-1.454-0.834-1.643,0c-0.064,0.283-0.146,0.563-0.235,0.838
		C19.012,14.555,18.166,16.398,17.384,18.271z M19.471,17.787c0.473-1.035,0.999-2.027,1.449-3.055
		c0.45,1.027,0.978,2.018,1.449,3.055c0.915,2.016,1.822,6.324-1.45,6.705C17.636,24.109,18.554,19.799,19.471,17.787z"/>
	<path fill="#8D183D" d="M59.041,18.271c-0.579,1.389-1.145,2.832-1.056,4.369c0.146,2.504,2.146,4.287,4.591,4.287
		c2.544,0,4.564-1.924,4.606-4.529c0.025-1.566-0.611-3.035-1.205-4.441c-0.744-1.766-1.541-3.508-2.345-5.244
		c-0.089-0.277-0.171-0.555-0.235-0.838c-0.188-0.836-1.454-0.834-1.644,0c-0.063,0.283-0.146,0.563-0.234,0.838
		C60.668,14.555,59.823,16.398,59.041,18.271z M61.126,17.787c0.473-1.035,1-2.027,1.45-3.055c0.451,1.027,0.979,2.018,1.45,3.055
		c0.914,2.016,1.822,6.324-1.45,6.705c0,0,0,0-0.001,0l0,0C59.292,24.109,60.21,19.799,61.126,17.787z"/>
	<path fill="#8D183D" d="M100.697,18.271c-0.578,1.389-1.145,2.832-1.055,4.369c0.146,2.504,2.145,4.287,4.591,4.287
		c2.544,0,4.564-1.924,4.606-4.529c0.024-1.566-0.611-3.035-1.205-4.441c-0.744-1.766-1.542-3.508-2.346-5.244
		c-0.089-0.277-0.171-0.555-0.235-0.838c-0.189-0.836-1.453-0.834-1.643,0c-0.064,0.283-0.146,0.563-0.235,0.838
		C102.324,14.555,101.479,16.398,100.697,18.271z M102.772,17.787c0.473-1.035,1-2.027,1.45-3.055
		c0.002,0.004,0.004,0.008,0.005,0.012c0.002-0.004,0.004-0.008,0.006-0.012c0.45,1.027,0.977,2.018,1.448,3.055
		c0.916,2.016,1.823,6.324-1.448,6.705c-0.002,0-0.004,0-0.006,0s-0.004,0-0.006,0C100.938,24.109,101.855,19.799,102.772,17.787z"
		/>
	<path fill="#8D183D" d="M142.354,18.271c-0.579,1.389-1.145,2.832-1.056,4.369c0.146,2.504,2.146,4.287,4.591,4.287
		c2.545,0,4.565-1.924,4.607-4.529c0.025-1.566-0.612-3.035-1.205-4.441c-0.743-1.766-1.542-3.508-2.345-5.244
		c-0.089-0.277-0.171-0.555-0.235-0.838c-0.189-0.836-1.455-0.834-1.644,0c-0.063,0.283-0.146,0.563-0.234,0.838
		C143.981,14.555,143.136,16.398,142.354,18.271z M144.419,17.787c0.473-1.035,0.999-2.027,1.449-3.055
		c0.003,0.008,0.007,0.014,0.011,0.021c0.004-0.008,0.008-0.014,0.011-0.021c0.45,1.027,0.978,2.018,1.449,3.055
		c0.915,2.016,1.823,6.324-1.45,6.705c-0.004,0-0.007-0.002-0.011-0.002s-0.007,0.002-0.011,0.002
		C142.584,24.109,143.502,19.799,144.419,17.787z"/>
	<path fill="#8D183D" d="M184.011,18.271c-0.579,1.389-1.146,2.832-1.056,4.369c0.146,2.504,2.146,4.287,4.591,4.287
		c2.544,0,4.564-1.924,4.606-4.529c0.025-1.566-0.611-3.035-1.204-4.441c-0.745-1.766-1.542-3.508-2.346-5.244
		c-0.089-0.277-0.171-0.555-0.234-0.838c-0.189-0.836-1.455-0.834-1.644,0c-0.064,0.283-0.146,0.563-0.236,0.838
		C185.637,14.555,184.793,16.398,184.011,18.271z M186.074,17.787c0.473-1.035,1-2.027,1.45-3.055
		c0.003,0.008,0.007,0.014,0.011,0.021c0.004-0.008,0.008-0.014,0.011-0.021c0.451,1.027,0.979,2.018,1.449,3.055
		c0.915,2.016,1.822,6.324-1.449,6.705c-0.004,0-0.007-0.002-0.011-0.002c-0.005,0-0.008,0.002-0.012,0.002
		C184.24,24.109,185.158,19.799,186.074,17.787z"/>
	<path fill="#8D183D" d="M225.667,18.271c-0.578,1.389-1.145,2.832-1.055,4.369c0.146,2.504,2.145,4.287,4.591,4.287
		c2.544,0,4.564-1.924,4.606-4.529c0.024-1.566-0.612-3.035-1.205-4.441c-0.744-1.766-1.542-3.508-2.346-5.244
		c-0.089-0.277-0.171-0.555-0.235-0.838c-0.189-0.836-1.453-0.834-1.643,0c-0.064,0.283-0.146,0.563-0.235,0.838
		C227.294,14.555,226.448,16.398,225.667,18.271z M227.721,17.787c0.473-1.035,1-2.027,1.45-3.055
		c0.005,0.012,0.011,0.021,0.017,0.033c0.005-0.012,0.011-0.021,0.016-0.033c0.451,1.027,0.978,2.018,1.448,3.055
		c0.916,2.016,1.823,6.324-1.448,6.705c-0.006,0-0.011-0.002-0.017-0.004c-0.006,0.002-0.011,0.004-0.017,0.004
		C225.886,24.109,226.804,19.799,227.721,17.787z"/>
	<path fill="#8D183D" d="M267.323,18.271c-0.578,1.389-1.145,2.832-1.055,4.369c0.146,2.504,2.145,4.287,4.59,4.287
		c2.545,0,4.565-1.924,4.607-4.529c0.025-1.566-0.612-3.035-1.205-4.441c-0.743-1.766-1.541-3.508-2.345-5.244
		c-0.089-0.277-0.172-0.555-0.235-0.838c-0.189-0.836-1.454-0.834-1.643,0c-0.064,0.283-0.146,0.563-0.235,0.838
		C268.951,14.555,268.105,16.398,267.323,18.271z M269.41,17.787c0.473-1.035,0.998-2.027,1.449-3.055
		c0.45,1.027,0.978,2.018,1.449,3.055c0.915,2.016,1.822,6.324-1.45,6.705C267.575,24.109,268.493,19.799,269.41,17.787z"/>
	<path fill="#8D183D" d="M308.98,18.271c-0.579,1.389-1.145,2.832-1.056,4.369c0.146,2.504,2.146,4.287,4.591,4.287
		c2.544,0,4.564-1.924,4.607-4.529c0.024-1.566-0.612-3.035-1.206-4.441c-0.743-1.766-1.541-3.508-2.345-5.244
		c-0.089-0.277-0.171-0.555-0.235-0.838c-0.188-0.836-1.454-0.834-1.643,0c-0.064,0.283-0.146,0.563-0.235,0.838
		C310.607,14.555,309.763,16.398,308.98,18.271z M310.729,18.637c0.106-0.311,0.222-0.598,0.336-0.85
		c0.473-1.035,1-2.027,1.45-3.055c0.451,1.027,0.979,2.018,1.45,3.055c0.914,2.016,1.822,6.324-1.45,6.705c0,0,0,0-0.001,0l0,0
		C309.642,24.156,309.985,20.814,310.729,18.637z"/>
	<path fill="#8D183D" d="M350.638,18.271c-0.579,1.389-1.146,2.832-1.056,4.369c0.146,2.504,2.145,4.287,4.591,4.287
		c2.544,0,4.564-1.924,4.606-4.529c0.025-1.566-0.611-3.035-1.205-4.441c-0.744-1.766-1.542-3.508-2.346-5.244
		c-0.089-0.277-0.171-0.555-0.235-0.838c-0.188-0.836-1.453-0.834-1.643,0c-0.064,0.283-0.146,0.563-0.235,0.838
		C352.264,14.555,351.418,16.398,350.638,18.271z M352.712,17.787c0.473-1.035,1-2.027,1.45-3.055
		c0.002,0.004,0.004,0.008,0.005,0.012c0.002-0.004,0.004-0.008,0.006-0.012c0.451,1.027,0.977,2.018,1.448,3.055
		c0.916,2.016,1.823,6.324-1.448,6.705c-0.002,0-0.004,0-0.006,0s-0.004,0-0.006,0C350.877,24.109,351.795,19.799,352.712,17.787z"
		/>
	<path fill="#8D183D" d="M375,1.75V0c-13.885,0-27.771,0-41.656,0s-27.771,0-41.656,0c-13.885,0-27.771,0-41.657,0
		c-13.885,0-27.771,0-41.656,0s-27.771,0-41.656,0s-27.771,0-41.657,0c-13.885,0-27.771,0-41.656,0C69.519,0,55.634,0,41.748,0
		S13.977,0,0.091,0v1.75c0.442,0,0.885,0,1.327,0C1.43,1.771,1.437,1.791,1.45,1.813c0.79,1.223,0.2,2.939-1.359,2.945V6.51
		c2.482,0,3.974-2.551,3.224-4.76c0.93,0,1.86,0,2.791,0c0.031,0.082,0.071,0.162,0.131,0.24c0.976,1.279,0.714,2.814-0.1,4.002
		C5.989,6.209,5.822,6.414,5.642,6.604C5.371,6.887,5.068,7.137,4.748,7.34c-1.3,0.826-3.152,1.25-4.657,1.25v1.75
		c2.585,0,5.65-0.93,7.287-3.096c0.312-0.412,0.561-0.85,0.744-1.303C8.678,4.58,8.661,3.084,8.039,1.75H8.04c0.67,0,1.34,0,2.011,0
		h0.001c0.011,0.016,0.018,0.033,0.03,0.049c0.279,0.369,0.5,0.744,0.665,1.123c0.166,0.379,0.278,0.76,0.341,1.141
		c0.032,0.189,0.051,0.381,0.059,0.57c0.086,2.082-1.227,4.082-3.058,5.385c-2.436,1.732-5.118,2.107-7.998,2.107v4.248
		c0.651,0,1.21-0.58,1.374-1.191c0.122-0.455,0.024-0.895-0.022-1.34c0.47-0.025,0.937-0.066,1.4-0.123
		c-0.016,0.439,0.049,0.869,0.308,1.256c0.394,0.59,1.103,0.885,1.765,0.596c0.619-0.268,0.984-0.963,0.758-1.637
		c-0.091-0.27-0.26-0.49-0.471-0.674c0.478-0.131,0.946-0.285,1.404-0.469c0.105,0.236,0.238,0.457,0.423,0.645
		c0.434,0.441,1.118,0.627,1.678,0.336c0.582-0.301,0.859-1.039,0.542-1.648c-0.102-0.195-0.258-0.363-0.438-0.488
		c0.417-0.279,0.819-0.59,1.204-0.934c0.435,0.684,1.098,1.254,1.886,0.805c0.591-0.336,0.699-1.107,0.327-1.652
		c-0.196-0.289-0.481-0.521-0.78-0.715c0.253-0.354,0.472-0.719,0.653-1.094c0.762,0.355,1.712,0.592,2.118-0.336
		c0.253-0.58-0.06-1.193-0.588-1.451c-0.286-0.139-0.594-0.195-0.904-0.191c0.074-0.465,0.106-0.932,0.085-1.4
		c0.967-0.094,2.162-0.773,1.896-1.885c-0.169-0.709-0.899-0.971-1.524-0.752c-0.302,0.104-0.578,0.258-0.842,0.434
		c-0.092-0.24-0.194-0.479-0.313-0.713c0.889,0,1.777,0,2.667,0c0.059,0.068,0.127,0.133,0.216,0.186
		c2.78,1.686,2.752,5.236,1.565,7.945c-1.195,2.732-3.263,5.113-5.501,7C7.25,20.023,2.63,22.191,0.091,26.49v3.256
		c0.3,0,0.599-0.143,0.735-0.43c3.035-6.346,9.853-8.906,14.335-13.908c3.332-3.719,5.173-9.146,2.636-13.658
		c2.082,0,4.163,0,6.245,0c-2.538,4.512-0.695,9.939,2.637,13.658c4.482,5.002,11.3,7.563,14.333,13.908
		c0.137,0.287,0.437,0.43,0.736,0.43c0.299,0,0.599-0.143,0.735-0.43c3.033-6.346,9.852-8.906,14.334-13.908
		c3.332-3.719,5.174-9.146,2.637-13.658c2.081,0,4.163,0,6.244,0c-2.537,4.512-0.696,9.939,2.638,13.658
		c4.48,5.002,11.3,7.563,14.333,13.908c0.137,0.287,0.436,0.43,0.735,0.43s0.6-0.143,0.736-0.43
		c3.033-6.346,9.851-8.906,14.333-13.908c3.332-3.719,5.175-9.146,2.636-13.658c2.083,0,4.164,0,6.246,0
		c-2.539,4.512-0.696,9.939,2.636,13.658c4.482,5.002,11.3,7.563,14.334,13.908c0.137,0.287,0.437,0.43,0.735,0.43
		c0.3,0,0.6-0.143,0.736-0.43c3.033-6.346,9.852-8.906,14.334-13.908c3.331-3.719,5.173-9.146,2.636-13.658c2.082,0,4.164,0,6.246,0
		c-2.539,4.512-0.696,9.939,2.636,13.658c4.482,5.002,11.3,7.563,14.333,13.908c0.137,0.287,0.437,0.43,0.736,0.43
		c0.299,0,0.599-0.143,0.735-0.43c3.033-6.346,9.853-8.906,14.333-13.908c3.333-3.719,5.175-9.146,2.638-13.658
		c2.081,0,4.163,0,6.244,0c-2.537,4.512-0.696,9.939,2.637,13.658c4.481,5.002,11.301,7.563,14.334,13.908
		c0.137,0.287,0.437,0.43,0.735,0.43c0.3,0,0.6-0.143,0.736-0.43c3.033-6.346,9.851-8.906,14.333-13.908
		c3.332-3.719,5.175-9.146,2.636-13.658c2.082,0,4.164,0,6.246,0c-2.538,4.512-0.696,9.939,2.636,13.658
		c4.482,5.002,11.301,7.563,14.334,13.908c0.137,0.287,0.437,0.43,0.735,0.43c0.3,0,0.599-0.143,0.736-0.43
		c3.034-6.346,9.852-8.906,14.334-13.908c3.332-3.719,5.173-9.146,2.636-13.658c2.082,0,4.163,0,6.245,0
		c-2.538,4.512-0.695,9.939,2.637,13.658c4.482,5.002,11.3,7.563,14.333,13.908c0.137,0.287,0.437,0.43,0.736,0.43
		c0.299,0,0.599-0.143,0.735-0.43c3.033-6.346,9.853-8.906,14.333-13.908c3.333-3.719,5.175-9.146,2.638-13.658
		c2.081,0,4.163,0,6.244,0c-2.537,4.512-0.696,9.939,2.638,13.658c4.48,5.002,11.3,7.563,14.333,13.908
		c0.137,0.287,0.436,0.43,0.735,0.43s0.6-0.143,0.736-0.43c3.033-6.346,9.851-8.906,14.333-13.908
		c3.332-3.719,5.175-9.146,2.637-13.658c2.082,0,4.163,0,6.245,0c-2.538,4.512-0.696,9.939,2.636,13.658
		c4.482,5.002,11.3,7.563,14.334,13.908c0.137,0.287,0.437,0.43,0.735,0.43V26.49c-2.538-4.299-7.157-6.467-10.886-9.609
		c-2.333-1.965-4.574-4.529-5.699-7.447c-1.016-2.631-0.826-5.928,1.764-7.498c0.089-0.053,0.157-0.117,0.216-0.186
		c0.89,0,1.778,0,2.666,0c-0.139,0.271-0.253,0.551-0.354,0.832c-0.313-0.227-0.644-0.422-1.01-0.553
		c-0.633-0.229-1.345,0.051-1.525,0.752c-0.309,1.191,1.131,1.889,2.114,1.896c-0.021,0.469,0.007,0.936,0.082,1.398
		c-0.396-0.037-0.797,0.014-1.157,0.199c-0.512,0.264-0.793,0.875-0.55,1.434c0.438,1,1.509,0.648,2.293,0.25
		c0.175,0.375,0.384,0.74,0.627,1.09c-0.352,0.209-0.699,0.469-0.929,0.805c-0.372,0.545-0.264,1.316,0.327,1.652
		c0.834,0.475,1.528-0.189,1.959-0.924c0.397,0.365,0.812,0.689,1.24,0.982c-0.228,0.133-0.42,0.324-0.547,0.559
		c-0.327,0.605-0.034,1.352,0.542,1.648c0.561,0.291,1.244,0.105,1.678-0.336c0.205-0.209,0.345-0.459,0.455-0.725
		c0.518,0.213,1.049,0.395,1.591,0.543c-0.214,0.184-0.386,0.406-0.478,0.68c-0.227,0.674,0.139,1.369,0.758,1.637
		c0.662,0.289,1.371-0.006,1.765-0.596c0.261-0.391,0.324-0.824,0.307-1.268c0.464,0.059,0.932,0.1,1.402,0.125
		c-0.047,0.447-0.146,0.889-0.023,1.35c0.164,0.611,0.723,1.191,1.373,1.191v-4.248c-0.002,0-0.002,0-0.004,0s-0.004,0-0.006,0
		c-2.892,0-5.545-0.371-7.998-2.107c-2.674-1.891-4.224-5.273-1.993-8.219c0.013-0.016,0.02-0.033,0.031-0.049
		c0.003,0,0.007,0,0.01,0c0.667,0,1.335,0,2.001,0c0.004,0,0.007,0,0.011,0c-0.843,1.813-0.576,3.934,0.729,5.584
		c1.658,2.096,4.658,3.006,7.215,3.006c0.002,0,0.002,0,0.004,0V8.59c-0.002,0-0.002,0-0.004,0s-0.004,0-0.006,0
		c-1.53,0-3.334-0.422-4.657-1.25c-1.719-1.072-2.899-3.498-1.487-5.35c0.059-0.078,0.099-0.158,0.131-0.24c0.003,0,0.007,0,0.01,0
		c0.927,0,1.854,0,2.78,0c0.004,0,0.007,0,0.011,0c-0.752,2.209,0.739,4.756,3.219,4.76c0.002,0,0.002-0.002,0.004-0.002v-1.75
		c-1.563,0.006-2.143-1.732-1.358-2.945c0.014-0.021,0.021-0.041,0.032-0.063C374.116,1.75,374.559,1.75,375,1.75z M41.748,4.758
		c-1.563,0.006-2.144-1.732-1.359-2.945c0.013-0.021,0.021-0.041,0.031-0.063c0.442,0,0.885,0,1.328,0c0.442,0,0.885,0,1.327,0
		c0.011,0.021,0.019,0.041,0.032,0.063C43.897,3.035,43.308,4.752,41.748,4.758z M46.405,7.34c-1.302,0.826-3.152,1.25-4.657,1.25
		c-1.53,0-3.334-0.422-4.658-1.25c-1.718-1.072-2.898-3.498-1.486-5.35c0.059-0.078,0.099-0.158,0.131-0.24c0.93,0,1.859,0,2.79,0
		c-0.751,2.211,0.741,4.76,3.224,4.76s3.974-2.551,3.223-4.76c0.931,0,1.861,0,2.792,0c0.031,0.082,0.071,0.162,0.13,0.24
		C49.312,3.852,48.115,6.256,46.405,7.34z M49.745,10.018c-2.436,1.732-5.118,2.107-7.997,2.107c-2.892,0-5.545-0.371-7.998-2.107
		c-2.674-1.891-4.225-5.273-1.993-8.219c0.013-0.016,0.02-0.033,0.031-0.049c0.67,0,1.34,0,2.011,0
		c-0.843,1.813-0.576,3.934,0.729,5.584c1.659,2.096,4.662,3.006,7.22,3.006c2.584,0,5.65-0.93,7.286-3.096
		c1.245-1.648,1.491-3.717,0.662-5.494c0.671,0,1.342,0,2.012,0c0.012,0.016,0.019,0.033,0.031,0.049
		C53.974,4.75,52.409,8.125,49.745,10.018z M58.136,9.881c-1.196,2.732-3.263,5.113-5.503,7c-3.728,3.143-8.347,5.311-10.885,9.609
		c-2.538-4.299-7.158-6.467-10.886-9.609c-2.334-1.965-4.574-4.529-5.701-7.447c-1.015-2.631-0.826-5.928,1.766-7.498
		c0.089-0.053,0.157-0.117,0.216-0.186c0.889,0,1.776,0,2.666,0c-0.139,0.271-0.254,0.551-0.355,0.832
		c-0.313-0.227-0.644-0.422-1.011-0.553C27.811,1.801,27.1,2.08,26.918,2.781c-0.308,1.191,1.131,1.889,2.113,1.896
		c-0.02,0.469,0.008,0.936,0.083,1.398c-0.396-0.037-0.798,0.014-1.157,0.199c-0.511,0.264-0.792,0.875-0.549,1.434
		c0.438,1,1.507,0.648,2.292,0.25c0.176,0.375,0.384,0.74,0.627,1.09c-0.351,0.209-0.698,0.469-0.929,0.805
		c-0.372,0.545-0.264,1.316,0.328,1.652c0.834,0.475,1.528-0.189,1.959-0.924c0.396,0.365,0.811,0.689,1.238,0.982
		c-0.227,0.133-0.42,0.324-0.546,0.559c-0.326,0.605-0.034,1.352,0.542,1.648c0.561,0.291,1.245,0.105,1.679-0.336
		c0.205-0.209,0.345-0.459,0.454-0.725c0.519,0.213,1.049,0.395,1.59,0.543c-0.214,0.184-0.385,0.406-0.477,0.68
		c-0.226,0.674,0.139,1.369,0.758,1.637c0.661,0.289,1.371-0.006,1.766-0.596c0.261-0.391,0.323-0.824,0.307-1.268
		c0.464,0.059,0.932,0.1,1.401,0.125c-0.047,0.447-0.146,0.889-0.024,1.35c0.164,0.611,0.723,1.191,1.375,1.191
		c0.65,0,1.21-0.58,1.374-1.191c0.122-0.455,0.024-0.895-0.022-1.34c0.469-0.025,0.937-0.066,1.399-0.123
		c-0.016,0.439,0.049,0.869,0.307,1.256c0.395,0.59,1.104,0.885,1.766,0.596c0.62-0.268,0.984-0.963,0.759-1.637
		c-0.091-0.27-0.26-0.49-0.471-0.674c0.478-0.131,0.946-0.285,1.404-0.469c0.104,0.236,0.237,0.457,0.422,0.645
		c0.433,0.441,1.118,0.627,1.679,0.336c0.582-0.301,0.859-1.039,0.542-1.648c-0.103-0.195-0.258-0.363-0.438-0.488
		c0.417-0.279,0.818-0.59,1.204-0.934c0.435,0.684,1.096,1.254,1.884,0.805c0.593-0.336,0.701-1.107,0.329-1.652
		c-0.198-0.289-0.482-0.521-0.781-0.715c0.253-0.354,0.471-0.719,0.654-1.094c0.762,0.355,1.712,0.592,2.117-0.336
		c0.254-0.58-0.059-1.193-0.587-1.451c-0.286-0.139-0.594-0.195-0.904-0.191c0.074-0.465,0.105-0.932,0.084-1.4
		c0.968-0.094,2.162-0.773,1.897-1.885c-0.169-0.709-0.9-0.971-1.525-0.752C54.54,2.133,54.263,2.287,54,2.463
		c-0.092-0.24-0.194-0.479-0.314-0.713c0.89,0,1.779,0,2.668,0c0.059,0.068,0.126,0.133,0.215,0.186
		C59.351,3.621,59.321,7.172,58.136,9.881z M83.404,4.758c-1.563,0.006-2.144-1.732-1.359-2.945
		c0.014-0.021,0.021-0.041,0.032-0.063c0.442,0,0.885,0,1.327,0s0.885,0,1.326,0c0.012,0.021,0.02,0.041,0.033,0.063
		C85.553,3.035,84.964,4.752,83.404,4.758z M88.063,7.34c-1.302,0.826-3.153,1.25-4.657,1.25h-0.001h-0.001
		c-1.53,0-3.333-0.422-4.657-1.25c-1.719-1.072-2.899-3.498-1.487-5.35c0.059-0.078,0.099-0.158,0.13-0.24c0.001,0,0.001,0,0.002,0
		c0.93,0,1.86,0,2.79,0h0.001c-0.751,2.211,0.739,4.758,3.223,4.76c2.48-0.002,3.974-2.551,3.222-4.76c0.001,0,0.001,0,0.002,0
		c0.93,0,1.86,0,2.789,0c0.001,0,0.001,0,0.002,0c0.031,0.082,0.071,0.162,0.13,0.24C90.97,3.852,89.772,6.256,88.063,7.34z
		 M91.403,10.018c-2.437,1.732-5.118,2.107-7.997,2.107h-0.001h-0.001c-2.891,0-5.545-0.371-7.998-2.107
		c-2.674-1.891-4.224-5.273-1.993-8.219c0.013-0.016,0.02-0.033,0.03-0.049c0.001,0,0.001,0,0.002,0c0.67,0,1.341,0,2.011,0h0.001
		c-0.843,1.813-0.576,3.934,0.729,5.584c1.658,2.096,4.66,3.006,7.219,3.006c2.584,0,5.649-0.93,7.285-3.096
		c1.245-1.648,1.491-3.717,0.663-5.494h0.001c0.671,0,1.341,0,2.01,0h0.001c0.012,0.016,0.019,0.033,0.031,0.049
		C95.632,4.75,94.067,8.125,91.403,10.018z M99.793,9.881c-1.197,2.732-3.263,5.113-5.503,7c-3.728,3.143-8.348,5.311-10.886,9.609
		c-2.539-4.299-7.157-6.467-10.886-9.609c-2.334-1.965-4.574-4.529-5.7-7.447c-1.016-2.631-0.826-5.928,1.764-7.498
		c0.09-0.053,0.158-0.117,0.217-0.186c0.889,0,1.777,0,2.666,0c-0.139,0.271-0.253,0.551-0.354,0.832
		C70.798,2.355,70.466,2.16,70.1,2.029c-0.633-0.229-1.345,0.051-1.525,0.752c-0.307,1.191,1.131,1.889,2.114,1.896
		c-0.021,0.469,0.007,0.936,0.082,1.398c-0.396-0.037-0.797,0.014-1.157,0.199c-0.512,0.264-0.793,0.875-0.549,1.434
		c0.438,1,1.508,0.648,2.293,0.25c0.175,0.375,0.384,0.74,0.627,1.09c-0.352,0.209-0.698,0.469-0.929,0.805
		c-0.373,0.545-0.265,1.316,0.328,1.652c0.833,0.475,1.526-0.189,1.957-0.924c0.397,0.365,0.813,0.689,1.24,0.982
		c-0.228,0.133-0.42,0.324-0.547,0.559c-0.327,0.605-0.034,1.352,0.542,1.648c0.562,0.291,1.245,0.105,1.679-0.336
		c0.205-0.209,0.344-0.459,0.454-0.725c0.519,0.213,1.049,0.395,1.591,0.543c-0.214,0.184-0.386,0.406-0.478,0.68
		c-0.227,0.674,0.139,1.369,0.758,1.637c0.662,0.289,1.372-0.006,1.767-0.596c0.261-0.391,0.322-0.824,0.306-1.268
		c0.463,0.059,0.931,0.1,1.401,0.125c-0.046,0.447-0.146,0.889-0.023,1.35c0.164,0.611,0.723,1.191,1.374,1.191
		s1.21-0.58,1.373-1.191c0.122-0.455,0.025-0.895-0.022-1.34c0.47-0.025,0.938-0.066,1.4-0.123
		c-0.015,0.439,0.049,0.869,0.308,1.256c0.395,0.59,1.104,0.885,1.766,0.596c0.619-0.268,0.983-0.963,0.757-1.637
		c-0.091-0.27-0.26-0.49-0.469-0.674c0.476-0.131,0.944-0.285,1.403-0.469c0.104,0.236,0.237,0.457,0.422,0.645
		c0.434,0.441,1.119,0.627,1.679,0.336c0.582-0.301,0.858-1.039,0.543-1.648c-0.103-0.195-0.258-0.363-0.438-0.488
		c0.418-0.279,0.818-0.59,1.204-0.934c0.434,0.684,1.097,1.254,1.885,0.805c0.592-0.336,0.701-1.107,0.328-1.652
		c-0.197-0.289-0.482-0.521-0.781-0.715c0.253-0.354,0.472-0.719,0.654-1.094c0.762,0.355,1.711,0.592,2.117-0.336
		c0.253-0.58-0.06-1.193-0.587-1.451c-0.286-0.139-0.594-0.195-0.903-0.191c0.073-0.465,0.105-0.932,0.084-1.4
		c0.966-0.094,2.162-0.773,1.896-1.885c-0.17-0.709-0.9-0.971-1.524-0.752c-0.301,0.104-0.578,0.258-0.841,0.434
		c-0.093-0.24-0.195-0.479-0.314-0.713c0.89,0,1.777,0,2.667,0c0.059,0.068,0.127,0.133,0.216,0.186
		C101.006,3.621,100.978,7.172,99.793,9.881z M125.061,4.758c-1.563,0.006-2.143-1.732-1.358-2.945
		c0.014-0.021,0.021-0.041,0.032-0.063c0.442,0,0.885,0,1.326,0c0.442,0,0.885,0,1.327,0c0.012,0.021,0.019,0.041,0.032,0.063
		C127.21,3.035,126.62,4.752,125.061,4.758z M129.718,7.34c-1.3,0.826-3.152,1.25-4.657,1.25c-0.003,0-0.007,0-0.011,0
		s-0.008,0-0.011,0c-1.53,0-3.334-0.422-4.657-1.25c-1.719-1.072-2.899-3.498-1.487-5.35c0.059-0.078,0.099-0.158,0.131-0.24
		c0.007,0,0.015,0,0.021,0c0.923,0,1.847,0,2.769,0c0.008,0,0.015,0,0.022,0c-0.751,2.207,0.736,4.752,3.212,4.758
		c2.476-0.006,3.962-2.551,3.213-4.758c0.007,0,0.015,0,0.021,0c0.923,0,1.846,0,2.77,0c0.007,0,0.015,0,0.021,0
		c0.031,0.082,0.071,0.162,0.131,0.24C132.626,3.852,131.428,6.256,129.718,7.34z M133.059,10.018
		c-2.436,1.732-5.118,2.107-7.998,2.107c-0.004,0-0.007,0-0.011,0s-0.007,0-0.011,0c-2.892,0-5.545-0.371-7.998-2.107
		c-2.674-1.891-4.224-5.273-1.993-8.219c0.013-0.016,0.02-0.033,0.031-0.049c0.007,0,0.015,0,0.021,0c0.663,0,1.327,0,1.989,0
		c0.008,0,0.015,0,0.022,0c-0.843,1.813-0.576,3.934,0.729,5.584c1.658,2.094,4.653,3.004,7.209,3.006
		c2.583-0.002,5.642-0.934,7.276-3.096c1.244-1.648,1.49-3.717,0.662-5.494c0.008,0,0.015,0,0.021,0c0.662,0,1.326,0,1.989,0
		c0.008,0,0.015,0,0.022,0c0.011,0.016,0.019,0.033,0.03,0.049C137.287,4.75,135.724,8.125,133.059,10.018z M141.448,9.881
		c-1.195,2.732-3.263,5.113-5.501,7c-3.728,3.143-8.348,5.311-10.887,9.609c-2.538-4.299-7.158-6.467-10.886-9.609
		c-2.333-1.965-4.574-4.529-5.699-7.447c-1.016-2.631-0.826-5.928,1.764-7.498c0.089-0.053,0.157-0.117,0.216-0.186
		c0.889,0,1.778,0,2.666,0c-0.139,0.271-0.254,0.551-0.354,0.832c-0.313-0.227-0.644-0.422-1.01-0.553
		c-0.633-0.229-1.345,0.051-1.525,0.752c-0.309,1.191,1.131,1.889,2.114,1.896c-0.021,0.469,0.007,0.936,0.082,1.398
		c-0.396-0.037-0.798,0.014-1.158,0.199c-0.511,0.264-0.792,0.875-0.549,1.434c0.438,1,1.508,0.648,2.293,0.25
		c0.175,0.375,0.383,0.74,0.626,1.09c-0.351,0.209-0.698,0.469-0.928,0.805c-0.372,0.545-0.264,1.316,0.327,1.652
		c0.834,0.475,1.528-0.189,1.959-0.924c0.397,0.365,0.812,0.689,1.239,0.982c-0.227,0.133-0.419,0.324-0.546,0.559
		c-0.327,0.605-0.034,1.352,0.542,1.648c0.561,0.291,1.244,0.105,1.678-0.336c0.205-0.209,0.345-0.459,0.455-0.725
		c0.518,0.213,1.049,0.395,1.591,0.543c-0.214,0.184-0.386,0.406-0.478,0.68c-0.227,0.674,0.139,1.369,0.758,1.637
		c0.662,0.289,1.371-0.006,1.765-0.596c0.261-0.391,0.324-0.824,0.307-1.268c0.464,0.059,0.932,0.1,1.402,0.125
		c-0.047,0.447-0.146,0.889-0.023,1.35c0.164,0.611,0.723,1.191,1.373,1.191c0.651,0,1.21-0.58,1.374-1.191
		c0.122-0.455,0.024-0.895-0.022-1.34c0.47-0.025,0.937-0.066,1.4-0.123c-0.016,0.439,0.049,0.869,0.308,1.256
		c0.395,0.59,1.103,0.885,1.765,0.596c0.619-0.268,0.984-0.963,0.758-1.637c-0.091-0.27-0.26-0.49-0.47-0.674
		c0.477-0.131,0.945-0.285,1.403-0.469c0.105,0.236,0.238,0.457,0.423,0.645c0.434,0.441,1.118,0.627,1.678,0.336
		c0.582-0.301,0.859-1.039,0.542-1.648c-0.102-0.195-0.258-0.363-0.438-0.488c0.417-0.279,0.819-0.59,1.205-0.934
		c0.434,0.684,1.097,1.254,1.884,0.805c0.592-0.336,0.7-1.107,0.328-1.652c-0.196-0.289-0.481-0.521-0.78-0.715
		c0.253-0.354,0.471-0.719,0.654-1.094c0.761,0.355,1.711,0.592,2.117-0.336c0.253-0.58-0.06-1.193-0.588-1.451
		c-0.286-0.139-0.594-0.195-0.904-0.191c0.074-0.465,0.106-0.932,0.084-1.4c0.968-0.094,2.163-0.773,1.898-1.885
		c-0.17-0.709-0.9-0.971-1.526-0.752c-0.301,0.104-0.577,0.258-0.841,0.434c-0.092-0.24-0.194-0.479-0.313-0.713
		c0.888,0,1.777,0,2.667,0c0.058,0.068,0.126,0.133,0.216,0.186C142.663,3.621,142.635,7.172,141.448,9.881z M166.718,4.758
		c-1.563,0.006-2.143-1.732-1.36-2.945c0.014-0.021,0.021-0.041,0.033-0.063c0.442,0,0.885,0,1.327,0s0.885,0,1.327,0
		c0.012,0.021,0.019,0.041,0.032,0.063C168.867,3.035,168.277,4.752,166.718,4.758z M171.375,7.34
		c-1.301,0.826-3.152,1.25-4.657,1.25c-0.004,0-0.008,0-0.011,0s-0.007,0-0.011,0c-1.53,0-3.334-0.422-4.658-1.25
		c-1.718-1.072-2.898-3.498-1.486-5.35c0.059-0.078,0.099-0.158,0.131-0.24c0.007,0,0.015,0,0.021,0c0.923,0,1.846,0,2.769,0
		c0.007,0,0.015,0,0.021,0c-0.751,2.207,0.737,4.752,3.213,4.758c2.476-0.006,3.962-2.551,3.212-4.758c0.007,0,0.014,0,0.021,0
		c0.925,0,1.848,0,2.771,0c0.007,0,0.014,0,0.021,0c0.032,0.082,0.072,0.162,0.131,0.24C174.281,3.852,173.085,6.256,171.375,7.34z
		 M174.716,10.018c-2.436,1.732-5.119,2.107-7.998,2.107c-0.004,0-0.007,0-0.011,0s-0.007,0-0.011,0
		c-2.892,0-5.545-0.371-7.998-2.107c-2.674-1.891-4.225-5.273-1.993-8.219c0.013-0.016,0.02-0.033,0.031-0.049
		c0.007,0,0.015,0,0.021,0c0.662,0,1.326,0,1.989,0c0.008,0,0.015,0,0.022,0c-0.844,1.813-0.577,3.934,0.729,5.584
		c1.657,2.094,4.653,3.004,7.209,3.006c2.583-0.002,5.642-0.934,7.275-3.096c1.245-1.648,1.491-3.717,0.662-5.494
		c0.008,0,0.015,0,0.022,0c0.662,0,1.326,0,1.989,0c0.008,0,0.015,0,0.022,0c0.011,0.016,0.018,0.033,0.03,0.049
		C178.943,4.75,177.379,8.125,174.716,10.018z M183.105,9.881c-1.196,2.732-3.263,5.113-5.502,7
		c-3.728,3.143-8.347,5.311-10.886,9.609c-2.538-4.299-7.158-6.467-10.886-9.609c-2.334-1.965-4.574-4.529-5.7-7.447
		c-1.016-2.631-0.827-5.928,1.765-7.498c0.089-0.053,0.157-0.117,0.216-0.186c0.889,0,1.777,0,2.666,0
		c-0.139,0.271-0.254,0.551-0.355,0.832c-0.313-0.227-0.644-0.422-1.011-0.553c-0.632-0.229-1.343,0.051-1.524,0.752
		c-0.308,1.191,1.131,1.889,2.113,1.896c-0.02,0.469,0.008,0.936,0.082,1.398c-0.395-0.037-0.797,0.014-1.156,0.199
		c-0.511,0.264-0.793,0.875-0.549,1.434c0.438,1,1.507,0.648,2.292,0.25c0.176,0.375,0.384,0.74,0.627,1.09
		c-0.351,0.209-0.698,0.469-0.929,0.805c-0.373,0.545-0.264,1.316,0.328,1.652c0.834,0.475,1.528-0.189,1.959-0.924
		c0.397,0.365,0.811,0.689,1.238,0.982c-0.228,0.133-0.42,0.324-0.547,0.559c-0.325,0.605-0.033,1.352,0.543,1.648
		c0.561,0.291,1.245,0.105,1.679-0.336c0.204-0.209,0.345-0.459,0.455-0.725c0.518,0.213,1.048,0.395,1.589,0.543
		c-0.213,0.184-0.384,0.406-0.476,0.68c-0.227,0.674,0.137,1.369,0.757,1.637c0.661,0.289,1.371-0.006,1.766-0.596
		c0.261-0.391,0.323-0.824,0.307-1.268c0.463,0.059,0.931,0.1,1.401,0.125c-0.047,0.447-0.146,0.889-0.024,1.35
		c0.164,0.611,0.723,1.191,1.375,1.191c0.65,0,1.21-0.58,1.374-1.191c0.122-0.455,0.024-0.895-0.022-1.34
		c0.469-0.025,0.937-0.066,1.399-0.123c-0.016,0.439,0.049,0.869,0.307,1.256c0.395,0.59,1.104,0.885,1.766,0.596
		c0.62-0.268,0.985-0.963,0.759-1.637c-0.091-0.27-0.261-0.49-0.471-0.674c0.478-0.131,0.946-0.285,1.404-0.469
		c0.104,0.236,0.237,0.457,0.422,0.645c0.433,0.441,1.119,0.627,1.679,0.336c0.582-0.301,0.859-1.039,0.542-1.648
		c-0.103-0.195-0.258-0.363-0.438-0.488c0.418-0.279,0.819-0.59,1.205-0.934c0.435,0.684,1.096,1.254,1.885,0.805
		c0.592-0.336,0.7-1.107,0.328-1.652c-0.198-0.289-0.483-0.521-0.781-0.715c0.253-0.354,0.471-0.719,0.654-1.094
		c0.762,0.355,1.711,0.592,2.117-0.336c0.254-0.58-0.059-1.193-0.587-1.451c-0.286-0.139-0.594-0.195-0.904-0.191
		c0.074-0.465,0.105-0.932,0.084-1.4c0.967-0.094,2.162-0.773,1.897-1.885c-0.169-0.709-0.899-0.971-1.525-0.752
		c-0.301,0.104-0.578,0.258-0.841,0.434c-0.093-0.24-0.195-0.479-0.314-0.713c0.89,0,1.778,0,2.668,0
		c0.059,0.068,0.126,0.133,0.216,0.186C184.32,3.621,184.292,7.172,183.105,9.881z M208.374,4.758
		c-1.563,0.006-2.144-1.732-1.359-2.945c0.014-0.021,0.021-0.041,0.033-0.063c0.442,0,0.884,0,1.326,0s0.885,0,1.326,0
		c0.012,0.021,0.02,0.041,0.033,0.063C210.523,3.035,209.934,4.752,208.374,4.758z M213.032,7.34
		c-1.302,0.826-3.153,1.25-4.658,1.25c-0.003,0-0.007,0-0.01,0s-0.007,0-0.01,0c-1.531,0-3.334-0.422-4.658-1.25
		c-1.719-1.072-2.898-3.498-1.487-5.35c0.059-0.078,0.099-0.158,0.131-0.24c0.007,0,0.013,0,0.02,0c0.924,0,1.848,0,2.771,0
		c0.007,0,0.014,0,0.021,0c-0.751,2.207,0.736,4.752,3.213,4.758c2.476-0.006,3.963-2.551,3.213-4.758c0.007,0,0.013,0,0.02,0
		c0.924,0,1.849,0,2.771,0c0.007,0,0.013,0,0.02,0c0.031,0.082,0.071,0.162,0.131,0.24C215.938,3.852,214.741,6.256,213.032,7.34z
		 M216.372,10.018c-2.437,1.732-5.118,2.107-7.998,2.107c-0.003,0-0.007,0-0.01,0s-0.007,0-0.01,0c-2.892,0-5.546-0.371-7.998-2.107
		c-2.675-1.891-4.225-5.273-1.994-8.219c0.013-0.016,0.02-0.033,0.031-0.049c0.007,0,0.013,0,0.02,0c0.664,0,1.328,0,1.992,0
		c0.007,0,0.014,0,0.021,0c-0.843,1.813-0.577,3.934,0.729,5.584c1.656,2.094,4.653,3.004,7.209,3.006
		c2.582-0.002,5.642-0.934,7.276-3.096c1.245-1.648,1.491-3.717,0.662-5.494c0.007,0,0.014,0,0.021,0c0.664,0,1.328,0,1.99,0
		c0.007,0,0.014,0,0.021,0c0.012,0.016,0.019,0.033,0.031,0.049C220.601,4.75,219.036,8.125,216.372,10.018z M224.763,9.881
		c-1.196,2.732-3.263,5.113-5.503,7c-3.728,3.143-8.348,5.311-10.886,9.609c-2.539-4.299-7.157-6.467-10.886-9.609
		c-2.333-1.965-4.574-4.529-5.7-7.447c-1.016-2.631-0.826-5.928,1.765-7.498c0.089-0.053,0.157-0.117,0.216-0.186
		c0.889,0,1.777,0,2.667,0c-0.139,0.271-0.254,0.551-0.355,0.832c-0.313-0.227-0.645-0.422-1.011-0.553
		c-0.633-0.229-1.345,0.051-1.524,0.752c-0.309,1.191,1.13,1.889,2.113,1.896c-0.02,0.469,0.008,0.936,0.082,1.398
		c-0.396-0.037-0.797,0.014-1.157,0.199c-0.512,0.264-0.793,0.875-0.549,1.434c0.438,1,1.508,0.648,2.293,0.25
		c0.176,0.375,0.384,0.74,0.627,1.09c-0.351,0.209-0.698,0.469-0.929,0.805c-0.373,0.545-0.265,1.316,0.328,1.652
		c0.834,0.475,1.527-0.189,1.957-0.924c0.397,0.365,0.812,0.689,1.24,0.982c-0.228,0.133-0.42,0.324-0.547,0.559
		c-0.326,0.605-0.034,1.352,0.543,1.648c0.56,0.291,1.244,0.105,1.678-0.336c0.205-0.209,0.344-0.459,0.454-0.725
		c0.519,0.213,1.049,0.395,1.591,0.543c-0.214,0.184-0.386,0.406-0.478,0.68c-0.227,0.674,0.139,1.369,0.758,1.637
		c0.662,0.289,1.372-0.006,1.767-0.596c0.261-0.391,0.322-0.824,0.307-1.268c0.462,0.059,0.93,0.1,1.4,0.125
		c-0.047,0.447-0.146,0.889-0.023,1.35c0.164,0.611,0.723,1.191,1.374,1.191s1.211-0.58,1.373-1.191
		c0.123-0.455,0.024-0.895-0.021-1.34c0.469-0.025,0.936-0.066,1.399-0.123c-0.016,0.439,0.049,0.869,0.308,1.256
		c0.395,0.59,1.104,0.885,1.766,0.596c0.619-0.268,0.983-0.963,0.757-1.637c-0.091-0.27-0.26-0.49-0.469-0.674
		c0.476-0.131,0.944-0.285,1.403-0.469c0.104,0.236,0.238,0.457,0.423,0.645c0.433,0.441,1.118,0.627,1.678,0.336
		c0.582-0.301,0.858-1.039,0.542-1.648c-0.102-0.195-0.258-0.363-0.438-0.488c0.417-0.279,0.818-0.59,1.204-0.934
		c0.434,0.684,1.097,1.254,1.885,0.805c0.593-0.336,0.701-1.107,0.328-1.652c-0.197-0.289-0.482-0.521-0.78-0.715
		c0.253-0.354,0.471-0.719,0.653-1.094c0.763,0.355,1.711,0.592,2.117-0.336c0.253-0.58-0.059-1.193-0.588-1.451
		c-0.285-0.139-0.593-0.195-0.902-0.191c0.073-0.465,0.105-0.932,0.084-1.4c0.966-0.094,2.162-0.773,1.896-1.885
		c-0.17-0.709-0.9-0.971-1.524-0.752c-0.301,0.104-0.578,0.258-0.841,0.434c-0.093-0.24-0.195-0.479-0.314-0.713
		c0.89,0,1.777,0,2.667,0c0.059,0.068,0.127,0.133,0.216,0.186C225.976,3.621,225.947,7.172,224.763,9.881z M250.03,4.758
		c-1.563,0.006-2.143-1.732-1.358-2.945c0.014-0.021,0.021-0.041,0.032-0.063c0.442,0,0.885,0,1.326,0c0.442,0,0.885,0,1.327,0
		c0.012,0.021,0.019,0.041,0.032,0.063C252.181,3.035,251.591,4.752,250.03,4.758z M254.688,7.34c-1.3,0.826-3.152,1.25-4.657,1.25
		c-1.53,0-3.334-0.422-4.657-1.25c-1.504-0.939-2.596-2.912-1.899-4.631c0.1-0.246,0.235-0.486,0.412-0.719
		c0.06-0.078,0.1-0.158,0.131-0.24c0.931,0,1.86,0,2.79,0h0.001c-0.752,2.211,0.741,4.76,3.223,4.76c2.482,0,3.974-2.551,3.224-4.76
		c0.93,0,1.86,0,2.791,0c0.031,0.082,0.071,0.162,0.13,0.24C257.595,3.852,256.397,6.256,254.688,7.34z M261.086,4.633
		c0.086,2.082-1.227,4.082-3.057,5.385c-2.437,1.732-5.119,2.107-7.999,2.107c-2.53,0-4.878-0.283-7.068-1.518
		c-0.313-0.176-0.623-0.373-0.93-0.59c-2.674-1.891-4.224-5.273-1.993-8.219c0.013-0.016,0.02-0.033,0.031-0.049
		c0.671,0,1.341,0,2.011,0h0.001c-0.632,1.359-0.64,2.893-0.055,4.27c0.195,0.459,0.457,0.9,0.783,1.314
		c1.66,2.096,4.662,3.006,7.22,3.006c2.585,0,5.65-0.93,7.287-3.096c0.312-0.412,0.561-0.85,0.745-1.303
		c0.555-1.361,0.538-2.857-0.083-4.191h0.001c0.67,0,1.339,0,2.01,0h0.001c0.011,0.016,0.019,0.033,0.03,0.049
		c0.279,0.369,0.5,0.744,0.665,1.123c0.166,0.379,0.278,0.76,0.341,1.141C261.06,4.252,261.078,4.443,261.086,4.633z M266.419,9.881
		c-1.196,2.732-3.264,5.113-5.502,7c-3.728,3.143-8.348,5.311-10.887,9.609c-2.538-4.299-7.158-6.467-10.886-9.609
		c-2.333-1.965-4.574-4.529-5.699-7.447c-1.017-2.631-0.826-5.928,1.764-7.498c0.09-0.053,0.158-0.117,0.216-0.186
		c0.89,0,1.778,0,2.666,0c-0.139,0.271-0.253,0.551-0.354,0.832c-0.313-0.227-0.644-0.422-1.01-0.553
		c-0.633-0.229-1.345,0.051-1.525,0.752c-0.309,1.191,1.131,1.889,2.114,1.896c-0.021,0.469,0.007,0.936,0.082,1.398
		c-0.396-0.037-0.797,0.014-1.158,0.199c-0.511,0.264-0.792,0.875-0.549,1.434c0.438,1,1.508,0.648,2.293,0.25
		c0.175,0.375,0.384,0.74,0.627,1.09c-0.352,0.209-0.698,0.469-0.929,0.805c-0.372,0.545-0.264,1.316,0.327,1.652
		c0.834,0.475,1.528-0.189,1.959-0.924c0.397,0.365,0.812,0.689,1.239,0.982c-0.227,0.133-0.42,0.324-0.546,0.559
		c-0.327,0.605-0.034,1.352,0.542,1.648c0.561,0.291,1.244,0.105,1.678-0.336c0.205-0.209,0.345-0.459,0.455-0.725
		c0.518,0.213,1.049,0.395,1.591,0.543c-0.214,0.184-0.386,0.406-0.478,0.68c-0.227,0.674,0.139,1.369,0.758,1.637
		c0.662,0.289,1.37-0.006,1.765-0.596c0.261-0.391,0.324-0.824,0.307-1.268c0.464,0.059,0.932,0.1,1.402,0.125
		c-0.047,0.447-0.146,0.889-0.023,1.35c0.164,0.611,0.723,1.191,1.373,1.191c0.651,0,1.21-0.58,1.374-1.191
		c0.122-0.455,0.024-0.895-0.022-1.34c0.47-0.025,0.937-0.066,1.4-0.123c-0.016,0.439,0.049,0.869,0.308,1.256
		c0.394,0.59,1.103,0.885,1.765,0.596c0.619-0.268,0.984-0.963,0.758-1.637c-0.091-0.27-0.26-0.49-0.471-0.674
		c0.478-0.131,0.946-0.285,1.404-0.469c0.105,0.236,0.238,0.457,0.423,0.645c0.434,0.441,1.119,0.627,1.678,0.336
		c0.582-0.301,0.859-1.039,0.542-1.648c-0.102-0.195-0.258-0.363-0.438-0.488c0.417-0.279,0.819-0.59,1.205-0.934
		c0.434,0.684,1.097,1.254,1.885,0.805c0.591-0.336,0.699-1.107,0.327-1.652c-0.196-0.289-0.481-0.521-0.779-0.715
		c0.252-0.354,0.471-0.719,0.652-1.094c0.762,0.355,1.711,0.592,2.118-0.336c0.253-0.58-0.06-1.193-0.588-1.451
		c-0.286-0.139-0.594-0.195-0.903-0.191c0.073-0.465,0.105-0.932,0.084-1.4c0.967-0.094,2.162-0.773,1.896-1.885
		c-0.169-0.709-0.899-0.971-1.524-0.752c-0.302,0.104-0.578,0.258-0.842,0.434c-0.092-0.24-0.194-0.479-0.313-0.713
		c0.888,0,1.777,0,2.667,0c0.059,0.068,0.127,0.133,0.216,0.186C267.633,3.621,267.604,7.172,266.419,9.881z M291.688,4.758
		c-1.563,0.006-2.144-1.732-1.359-2.945c0.014-0.021,0.021-0.041,0.033-0.063c0.441,0,0.884,0,1.326,0s0.885,0,1.327,0
		c0.012,0.021,0.019,0.041,0.032,0.063C293.837,3.035,293.247,4.752,291.688,4.758z M296.345,7.34
		c-1.301,0.826-3.152,1.25-4.657,1.25c-1.53,0-3.334-0.422-4.658-1.25c-1.503-0.939-2.595-2.912-1.898-4.631
		c0.1-0.246,0.235-0.486,0.412-0.719c0.059-0.078,0.099-0.158,0.131-0.24c0.93,0,1.859,0,2.79,0h0.001
		c-0.517,1.52,0.026,3.199,1.224,4.1c0.545,0.41,1.223,0.66,1.999,0.66c2.482,0,3.974-2.551,3.223-4.76c0.931,0,1.861,0,2.792,0
		c0.031,0.082,0.071,0.162,0.13,0.24C299.251,3.852,298.055,6.256,296.345,7.34z M302.742,4.633
		c0.086,2.082-1.225,4.082-3.057,5.385c-1.827,1.301-3.793,1.836-5.876,2.021c-0.694,0.063-1.402,0.086-2.122,0.086
		c-2.892,0-5.545-0.371-7.998-2.107c-2.674-1.891-4.225-5.273-1.993-8.219c0.013-0.016,0.02-0.033,0.031-0.049
		c0.67,0,1.341,0,2.011,0c-0.843,1.813-0.576,3.934,0.729,5.584c1.66,2.096,4.662,3.006,7.22,3.006c2.585,0,5.65-0.93,7.286-3.096
		c0.155-0.205,0.296-0.418,0.42-0.637c0.621-1.088,0.849-2.307,0.663-3.48c-0.073-0.469-0.214-0.932-0.421-1.377h0.001
		c0.67,0,1.34,0,2.011,0h0.001c0.011,0.016,0.018,0.033,0.03,0.049c0.279,0.369,0.499,0.744,0.665,1.123
		c0.165,0.379,0.277,0.76,0.34,1.141C302.716,4.252,302.735,4.443,302.742,4.633z M308.075,9.881c-1.196,2.732-3.263,5.113-5.502,7
		c-3.729,3.143-8.348,5.311-10.886,9.609c-2.538-4.299-7.158-6.467-10.886-9.609c-2.334-1.965-4.574-4.529-5.701-7.447
		c-1.015-2.631-0.826-5.928,1.766-7.498c0.089-0.053,0.157-0.117,0.216-0.186c0.889,0,1.776,0,2.666,0
		c-0.139,0.271-0.254,0.551-0.355,0.832c-0.313-0.227-0.644-0.422-1.011-0.553c-0.632-0.229-1.343,0.051-1.524,0.752
		c-0.308,1.191,1.132,1.889,2.113,1.896c-0.02,0.469,0.008,0.936,0.083,1.398c-0.396-0.037-0.798,0.014-1.157,0.199
		c-0.512,0.264-0.792,0.875-0.549,1.434c0.438,1,1.507,0.648,2.292,0.25c0.176,0.375,0.384,0.74,0.627,1.09
		c-0.351,0.209-0.698,0.469-0.929,0.805c-0.372,0.545-0.264,1.316,0.328,1.652c0.834,0.475,1.528-0.189,1.959-0.924
		c0.397,0.365,0.811,0.689,1.238,0.982c-0.227,0.133-0.42,0.324-0.546,0.559c-0.326,0.605-0.034,1.352,0.542,1.648
		c0.561,0.291,1.245,0.105,1.679-0.336c0.204-0.209,0.345-0.459,0.455-0.725c0.518,0.213,1.048,0.395,1.589,0.543
		c-0.214,0.184-0.384,0.406-0.477,0.68c-0.226,0.674,0.139,1.369,0.758,1.637c0.661,0.289,1.371-0.006,1.766-0.596
		c0.261-0.391,0.323-0.824,0.307-1.268c0.464,0.059,0.932,0.1,1.402,0.125c-0.047,0.447-0.147,0.889-0.023,1.35
		c0.162,0.611,0.721,1.191,1.373,1.191c0.651,0,1.21-0.58,1.374-1.191c0.122-0.455,0.024-0.895-0.022-1.34
		c0.47-0.025,0.937-0.066,1.399-0.123c-0.016,0.439,0.049,0.869,0.307,1.256c0.395,0.59,1.104,0.885,1.767,0.596
		c0.619-0.268,0.983-0.963,0.758-1.637c-0.091-0.27-0.26-0.49-0.471-0.674c0.478-0.131,0.946-0.285,1.404-0.469
		c0.105,0.236,0.237,0.457,0.422,0.645c0.434,0.441,1.118,0.627,1.679,0.336c0.582-0.301,0.859-1.039,0.542-1.648
		c-0.103-0.195-0.258-0.363-0.438-0.488c0.417-0.279,0.819-0.59,1.204-0.934c0.435,0.684,1.097,1.254,1.885,0.805
		c0.592-0.336,0.7-1.107,0.328-1.652c-0.198-0.289-0.482-0.521-0.781-0.715c0.253-0.354,0.471-0.719,0.654-1.094
		c0.762,0.355,1.711,0.592,2.118-0.336c0.253-0.58-0.06-1.193-0.588-1.451c-0.286-0.139-0.594-0.195-0.904-0.191
		c0.074-0.465,0.105-0.932,0.085-1.4c0.966-0.094,2.161-0.773,1.896-1.885c-0.169-0.709-0.9-0.971-1.525-0.752
		c-0.301,0.104-0.578,0.258-0.841,0.434c-0.092-0.24-0.194-0.479-0.314-0.713c0.89,0,1.779,0,2.668,0
		c0.06,0.068,0.127,0.133,0.216,0.186C309.29,3.621,309.262,7.172,308.075,9.881z M333.344,4.758
		c-1.563,0.006-2.144-1.732-1.359-2.945c0.014-0.021,0.021-0.041,0.032-0.063c0.442,0,0.885,0,1.327,0s0.885,0,1.326,0
		c0.012,0.021,0.02,0.041,0.033,0.063C335.493,3.035,334.903,4.752,333.344,4.758z M338.003,7.34
		c-1.302,0.826-3.153,1.25-4.657,1.25h-0.001h-0.001c-1.53,0-3.333-0.422-4.657-1.25c-1.719-1.072-2.899-3.498-1.487-5.35
		c0.059-0.078,0.099-0.158,0.13-0.24c0.001,0,0.001,0,0.002,0c0.93,0,1.86,0,2.79,0h0.001c-0.751,2.211,0.739,4.758,3.223,4.76
		c2.48-0.002,3.974-2.551,3.223-4.76h0.001c0.931,0,1.859,0,2.789,0c0.001,0,0.001,0,0.002,0c0.031,0.082,0.071,0.162,0.13,0.24
		C340.909,3.852,339.712,6.256,338.003,7.34z M341.343,10.018c-2.437,1.732-5.118,2.107-7.997,2.107h-0.001h-0.001
		c-2.891,0-5.545-0.371-7.997-2.107c-2.676-1.891-4.225-5.273-1.994-8.219c0.013-0.016,0.02-0.033,0.03-0.049
		c0.001,0,0.001,0,0.002,0c0.67,0,1.341,0,2.011,0h0.001c-0.843,1.813-0.576,3.934,0.729,5.584c1.658,2.096,4.66,3.006,7.219,3.006
		c2.585,0,5.649-0.93,7.285-3.096c1.246-1.648,1.491-3.717,0.663-5.494h0.001c0.671,0,1.34,0,2.01,0h0.001
		c0.012,0.016,0.019,0.033,0.031,0.049C345.571,4.75,344.007,8.125,341.343,10.018z M349.732,9.881
		c-1.196,2.732-3.263,5.113-5.503,7c-3.728,3.143-8.348,5.311-10.886,9.609c-2.539-4.299-7.157-6.467-10.885-9.609
		c-2.335-1.965-4.574-4.529-5.701-7.447c-1.016-2.631-0.826-5.928,1.766-7.498c0.088-0.053,0.156-0.117,0.215-0.186
		c0.889,0,1.777,0,2.667,0c-0.14,0.271-0.254,0.551-0.356,0.832c-0.313-0.227-0.643-0.422-1.01-0.553
		c-0.633-0.229-1.345,0.051-1.525,0.752c-0.307,1.191,1.131,1.889,2.114,1.896c-0.021,0.469,0.007,0.936,0.082,1.398
		c-0.396-0.037-0.797,0.014-1.157,0.199c-0.512,0.264-0.792,0.875-0.549,1.434c0.438,1,1.508,0.648,2.293,0.25
		c0.175,0.375,0.384,0.74,0.627,1.09c-0.351,0.209-0.698,0.469-0.93,0.805c-0.372,0.545-0.263,1.316,0.329,1.652
		c0.833,0.475,1.526-0.189,1.957-0.924c0.397,0.365,0.813,0.689,1.24,0.982c-0.228,0.133-0.42,0.324-0.547,0.559
		c-0.326,0.605-0.033,1.352,0.542,1.648c0.562,0.291,1.246,0.105,1.679-0.336c0.205-0.209,0.345-0.459,0.454-0.725
		c0.519,0.213,1.049,0.395,1.591,0.543c-0.214,0.184-0.385,0.406-0.478,0.68c-0.227,0.674,0.139,1.369,0.759,1.637
		c0.661,0.289,1.371-0.006,1.765-0.596c0.262-0.391,0.324-0.824,0.307-1.268c0.463,0.059,0.931,0.1,1.401,0.125
		c-0.047,0.447-0.146,0.889-0.023,1.35c0.164,0.611,0.723,1.191,1.374,1.191s1.211-0.58,1.375-1.191
		c0.12-0.455,0.023-0.895-0.023-1.34c0.469-0.025,0.937-0.066,1.399-0.123c-0.015,0.439,0.049,0.869,0.308,1.256
		c0.395,0.59,1.104,0.885,1.766,0.596c0.619-0.268,0.983-0.963,0.757-1.637c-0.091-0.27-0.259-0.49-0.469-0.674
		c0.476-0.131,0.945-0.285,1.403-0.469c0.105,0.236,0.237,0.457,0.422,0.645c0.434,0.441,1.119,0.627,1.679,0.336
		c0.582-0.301,0.859-1.039,0.543-1.648c-0.103-0.195-0.258-0.363-0.438-0.488c0.417-0.279,0.817-0.59,1.203-0.934
		c0.434,0.684,1.097,1.254,1.885,0.805c0.593-0.336,0.701-1.107,0.328-1.652c-0.197-0.289-0.482-0.521-0.781-0.715
		c0.254-0.354,0.472-0.719,0.654-1.094c0.763,0.355,1.711,0.592,2.117-0.336c0.253-0.58-0.059-1.193-0.587-1.451
		c-0.286-0.139-0.594-0.195-0.903-0.191c0.074-0.465,0.105-0.932,0.084-1.4c0.966-0.094,2.161-0.773,1.896-1.885
		c-0.169-0.709-0.9-0.971-1.524-0.752c-0.301,0.104-0.578,0.258-0.841,0.434c-0.093-0.24-0.195-0.479-0.314-0.713
		c0.89,0,1.778,0,2.667,0c0.059,0.068,0.127,0.133,0.216,0.186C350.946,3.621,350.917,7.172,349.732,9.881z"/>
	<path fill="#00A8A8" d="M20.92,14.732c0.45,1.027,0.978,2.018,1.449,3.055c0.915,2.016,1.822,6.324-1.45,6.705
		c-3.283-0.383-2.365-4.693-1.448-6.705C19.943,16.752,20.47,15.76,20.92,14.732z"/>
	<path fill="#00A8A8" d="M61.127,17.787c0.473-1.035,0.999-2.027,1.449-3.055c0.45,1.027,0.978,2.018,1.449,3.055
		c0.914,2.016,1.822,6.322-1.45,6.705C59.292,24.107,60.21,19.799,61.127,17.787z"/>
	<path fill="#00A8A8" d="M62.576,14.732c-0.45,1.027-0.977,2.02-1.449,3.055c-0.917,2.012-1.835,6.32,1.448,6.705l0,0
		c-3.283-0.383-2.365-4.693-1.449-6.705C61.599,16.752,62.126,15.76,62.576,14.732z"/>
	<path fill="#00A8A8" d="M102.783,17.787c0.471-1.031,0.996-2.021,1.444-3.043c0.449,1.021,0.974,2.01,1.443,3.043
		c0.914,2.016,1.821,6.318-1.443,6.705C100.95,24.104,101.867,19.799,102.783,17.787z"/>
	<path fill="#00A8A8" d="M104.223,14.732c0.002,0.004,0.004,0.008,0.005,0.012c-0.448,1.021-0.974,2.012-1.444,3.043
		c-0.916,2.012-1.833,6.316,1.444,6.705c-0.002,0-0.004,0-0.006,0c-3.284-0.383-2.366-4.693-1.449-6.705
		C103.245,16.752,103.772,15.76,104.223,14.732z"/>
	<path fill="#F16A5A" d="M49.745,10.018c-2.436,1.732-5.118,2.107-7.997,2.107c-2.892,0-5.545-0.371-7.998-2.107
		c-2.674-1.891-4.225-5.273-1.993-8.219c0.013-0.016,0.02-0.033,0.031-0.049c0.67,0,1.34,0,2.011,0
		c-0.843,1.813-0.576,3.934,0.729,5.584c1.659,2.096,4.662,3.006,7.22,3.006c2.584,0,5.65-0.93,7.286-3.096
		c1.245-1.648,1.491-3.717,0.662-5.494c0.671,0,1.342,0,2.012,0c0.012,0.016,0.019,0.033,0.031,0.049
		C53.974,4.75,52.409,8.125,49.745,10.018z"/>
	<path fill="#FCBD66" d="M46.405,7.34c-1.302,0.826-3.152,1.25-4.657,1.25c-1.53,0-3.334-0.422-4.658-1.25
		c-1.718-1.072-2.898-3.498-1.486-5.35c0.059-0.078,0.099-0.158,0.131-0.24c0.93,0,1.859,0,2.79,0
		c-0.751,2.211,0.741,4.76,3.224,4.76s3.974-2.551,3.223-4.76c0.931,0,1.861,0,2.792,0c0.031,0.082,0.071,0.162,0.13,0.24
		C49.312,3.852,48.115,6.256,46.405,7.34z"/>
	<path fill="#F16A5A" d="M91.402,10.018c-2.437,1.732-5.118,2.107-7.997,2.107c-2.892,0-5.545-0.371-7.997-2.107
		c-2.675-1.891-4.225-5.273-1.994-8.219c0.013-0.016,0.02-0.033,0.031-0.049c0.67,0,1.341,0,2.011,0
		c-0.844,1.813-0.576,3.934,0.729,5.584c1.658,2.096,4.661,3.006,7.219,3.006h0.001h0.001c2.584,0,5.649-0.93,7.286-3.096
		c1.245-1.648,1.491-3.717,0.662-5.494c0.671,0,1.341,0,2.01,0c0.011,0.016,0.019,0.033,0.03,0.049
		C95.631,4.75,94.066,8.125,91.402,10.018z"/>
	<path fill="#F16A5A" d="M91.403,10.018c-2.437,1.732-5.118,2.107-7.997,2.107h-0.001C86.284,12.125,88.966,11.75,91.403,10.018
		c2.663-1.893,4.228-5.268,1.991-8.219c-0.012-0.016-0.02-0.033-0.03-0.049h0.001c0.012,0.016,0.019,0.033,0.031,0.049
		C95.632,4.75,94.067,8.125,91.403,10.018z"/>
	<path fill="#F16A5A" d="M76.186,7.334c-1.306-1.65-1.573-3.771-0.729-5.584h0.001C74.614,3.563,74.881,5.684,76.186,7.334
		c1.659,2.096,4.661,3.006,7.22,3.006h-0.001C80.847,10.34,77.844,9.43,76.186,7.334z"/>
	<path fill="#FCBD66" d="M88.062,7.34c-1.301,0.826-3.151,1.25-4.656,1.25c-1.531,0-3.333-0.422-4.657-1.25
		c-1.719-1.072-2.898-3.498-1.487-5.35c0.059-0.078,0.099-0.158,0.131-0.24c0.93,0,1.86,0,2.79,0c-0.752,2.211,0.74,4.76,3.223,4.76
		h0.001h0.001c2.481,0,3.974-2.551,3.223-4.76c0.93,0,1.86,0,2.789,0c0.032,0.082,0.071,0.162,0.131,0.24
		C90.969,3.852,89.771,6.256,88.062,7.34z"/>
	<path fill="#FCBD66" d="M80.182,1.75L80.182,1.75c-0.75,2.211,0.74,4.758,3.224,4.76h-0.001C80.922,6.51,79.43,3.961,80.182,1.75z"
		/>
	<path fill="#FCBD66" d="M88.063,7.34c-1.302,0.826-3.153,1.25-4.657,1.25h-0.001c1.505,0,3.355-0.424,4.656-1.25
		c1.71-1.084,2.907-3.488,1.487-5.35c-0.06-0.078-0.099-0.158-0.131-0.24c0.001,0,0.001,0,0.002,0
		c0.031,0.082,0.071,0.162,0.13,0.24C90.97,3.852,89.772,6.256,88.063,7.34z"/>
	<path fill="#F16A5A" d="M8.122,5.941C8.678,4.58,8.661,3.084,8.039,1.75H8.04C8.661,3.084,8.678,4.58,8.122,5.941z"/>
	<path fill="#F16A5A" d="M367.002,10.018c-2.674-1.891-4.223-5.273-1.992-8.219c0.013-0.016,0.02-0.033,0.03-0.049
		c0.667,0,1.335,0,2.001,0c-0.842,1.813-0.575,3.934,0.729,5.584c1.659,2.096,4.662,3.006,7.22,3.006c0.002,0,0.004,0,0.006,0
		s0.002,0,0.004,0v1.785c-0.002,0-0.002,0-0.004,0C372.106,12.125,369.454,11.754,367.002,10.018z"/>
	<polygon fill="#F16A5A" points="374.996,10.34 375,10.34 375,10.34 	"/>
	<path fill="#F16A5A" d="M367.002,10.018c2.452,1.736,5.104,2.107,7.994,2.107c-0.002,0-0.004,0-0.006,0
		c-2.892,0-5.545-0.371-7.998-2.107c-2.674-1.891-4.224-5.273-1.993-8.219c0.013-0.016,0.02-0.033,0.031-0.049
		c0.003,0,0.007,0,0.01,0c-0.011,0.016-0.018,0.033-0.03,0.049C362.779,4.744,364.328,8.127,367.002,10.018z"/>
	<path fill="#FCBD66" d="M370.344,7.34c-1.719-1.072-2.9-3.498-1.488-5.35c0.06-0.078,0.1-0.158,0.131-0.24c0.927,0,1.854,0,2.78,0
		c-0.751,2.211,0.741,4.76,3.224,4.76c0.002,0,0.004,0,0.006,0s0.002,0,0.004,0v2.08c-0.002,0-0.002,0-0.004,0
		C373.467,8.59,371.666,8.166,370.344,7.34z"/>
	<path fill="#FCBD66" d="M370.344,7.34c1.322,0.826,3.123,1.25,4.652,1.25c-0.002,0-0.004,0-0.006,0c-1.53,0-3.334-0.422-4.657-1.25
		c-1.719-1.072-2.899-3.498-1.487-5.35c0.059-0.078,0.099-0.158,0.131-0.24c0.003,0,0.007,0,0.01,0
		c-0.031,0.082-0.071,0.162-0.131,0.24C367.443,3.842,368.625,6.268,370.344,7.34z"/>
	<polygon fill="#FCBD66" points="374.996,6.51 375,6.508 375,6.51 	"/>
	<path fill="#00A8A8" d="M144.44,17.787c0.469-1.027,0.989-2.014,1.438-3.033c0.448,1.02,0.971,2.004,1.438,3.033
		c0.914,2.014,1.819,6.313-1.439,6.703C142.608,24.098,143.524,19.797,144.44,17.787z"/>
	<path fill="#00A8A8" d="M145.868,14.732c0.003,0.008,0.007,0.014,0.011,0.021c-0.449,1.02-0.97,2.006-1.438,3.033
		c-0.916,2.01-1.832,6.311,1.438,6.703c-0.004,0-0.007,0.002-0.011,0.002c-3.283-0.383-2.365-4.693-1.448-6.705
		C144.892,16.752,145.418,15.76,145.868,14.732z"/>
	<path fill="#00A8A8" d="M186.097,17.787c0.468-1.027,0.99-2.014,1.438-3.033c0.448,1.02,0.971,2.004,1.438,3.033
		c0.913,2.014,1.819,6.313-1.438,6.703C184.266,24.098,185.181,19.797,186.097,17.787z"/>
	<path fill="#00A8A8" d="M187.524,14.732c0.003,0.008,0.007,0.014,0.011,0.021c-0.448,1.02-0.971,2.006-1.438,3.033
		c-0.916,2.01-1.831,6.311,1.438,6.703c-0.005,0-0.008,0.002-0.012,0.002c-3.283-0.383-2.365-4.693-1.449-6.705
		C186.547,16.752,187.074,15.76,187.524,14.732z"/>
	<path fill="#00A8A8" d="M227.753,17.787c0.468-1.023,0.987-2.006,1.435-3.021c0.446,1.016,0.966,1.996,1.432,3.021
		c0.913,2.012,1.818,6.307-1.433,6.701C225.923,24.092,226.838,19.795,227.753,17.787z"/>
	<path fill="#00A8A8" d="M229.171,14.732c0.005,0.012,0.011,0.021,0.017,0.033c-0.447,1.016-0.967,1.998-1.435,3.021
		c-0.915,2.008-1.83,6.305,1.434,6.701c-0.006,0.002-0.011,0.004-0.017,0.004c-3.284-0.383-2.366-4.693-1.449-6.705
		C228.193,16.752,228.721,15.76,229.171,14.732z"/>
	<path fill="#F16A5A" d="M174.693,10.018c-2.433,1.73-5.111,2.105-7.986,2.107c-2.888-0.002-5.537-0.373-7.988-2.107
		c-2.673-1.891-4.223-5.273-1.992-8.219c0.013-0.016,0.021-0.033,0.031-0.049c0.662,0,1.326,0,1.989,0
		c-0.843,1.813-0.576,3.934,0.729,5.584c1.659,2.096,4.662,3.006,7.22,3.006c0.004,0,0.007,0,0.011,0c0.003,0,0.007,0,0.011,0
		c2.585,0,5.65-0.93,7.285-3.096c1.246-1.648,1.492-3.717,0.664-5.494c0.662,0,1.326,0,1.989,0c0.012,0.016,0.019,0.033,0.031,0.049
		C178.922,4.75,177.358,8.125,174.693,10.018z"/>
	<path fill="#F16A5A" d="M174.003,7.244c-1.635,2.166-4.7,3.096-7.285,3.096c-0.004,0-0.008,0-0.011,0
		c2.583-0.002,5.642-0.934,7.275-3.096c1.245-1.648,1.491-3.717,0.662-5.494c0.008,0,0.015,0,0.022,0
		C175.495,3.527,175.249,5.596,174.003,7.244z"/>
	<path fill="#F16A5A" d="M158.719,10.018c2.451,1.734,5.101,2.105,7.988,2.107c-0.004,0-0.007,0-0.011,0
		c-2.892,0-5.545-0.371-7.998-2.107c-2.674-1.891-4.225-5.273-1.993-8.219c0.013-0.016,0.02-0.033,0.031-0.049
		c0.007,0,0.015,0,0.021,0c-0.011,0.016-0.019,0.033-0.031,0.049C154.496,4.744,156.046,8.127,158.719,10.018z"/>
	<path fill="#FCBD66" d="M171.354,7.34c-1.299,0.824-3.144,1.248-4.646,1.25c-1.528-0.002-3.325-0.424-4.647-1.25
		c-1.717-1.072-2.899-3.498-1.486-5.35c0.06-0.078,0.099-0.158,0.131-0.24c0.923,0,1.846,0,2.769,0
		c-0.751,2.211,0.741,4.76,3.224,4.76c0.004,0,0.007-0.002,0.011-0.002s0.007,0.002,0.011,0.002c2.481,0,3.974-2.551,3.222-4.76
		c0.925,0,1.848,0,2.771,0c0.031,0.082,0.071,0.162,0.13,0.24C174.26,3.852,173.063,6.256,171.354,7.34z"/>
	<path fill="#FCBD66" d="M162.06,7.34c1.322,0.826,3.119,1.248,4.647,1.25c-0.003,0-0.007,0-0.011,0c-1.53,0-3.334-0.422-4.658-1.25
		c-1.718-1.072-2.898-3.498-1.486-5.35c0.059-0.078,0.099-0.158,0.131-0.24c0.007,0,0.015,0,0.021,0
		c-0.032,0.082-0.071,0.162-0.131,0.24C159.16,3.842,160.343,6.268,162.06,7.34z"/>
	<path fill="#FCBD66" d="M166.718,6.51c-0.004,0-0.007-0.002-0.011-0.002c2.476-0.006,3.962-2.551,3.212-4.758
		c0.007,0,0.014,0,0.021,0C170.691,3.959,169.199,6.51,166.718,6.51z"/>
	<path fill="#F16A5A" d="M216.352,10.018c-2.434,1.73-5.112,2.105-7.987,2.107c-2.887-0.002-5.538-0.373-7.988-2.107
		c-2.675-1.891-4.224-5.273-1.993-8.219c0.013-0.016,0.02-0.033,0.03-0.049c0.664,0,1.328,0,1.992,0
		c-0.843,1.813-0.576,3.934,0.729,5.584c1.658,2.096,4.661,3.006,7.22,3.006c0.003,0,0.007,0,0.01,0s0.007,0,0.01,0
		c2.584,0,5.65-0.93,7.286-3.096c1.245-1.648,1.491-3.717,0.663-5.494c0.664,0,1.328,0,1.99,0c0.012,0.016,0.019,0.033,0.031,0.049
		C220.58,4.75,219.016,8.125,216.352,10.018z"/>
	<path fill="#F16A5A" d="M200.376,10.018c2.45,1.734,5.102,2.105,7.988,2.107c-0.003,0-0.007,0-0.01,0
		c-2.892,0-5.546-0.371-7.998-2.107c-2.675-1.891-4.225-5.273-1.994-8.219c0.013-0.016,0.02-0.033,0.031-0.049
		c0.007,0,0.013,0,0.02,0c-0.011,0.016-0.018,0.033-0.03,0.049C196.152,4.744,197.701,8.127,200.376,10.018z"/>
	<path fill="#F16A5A" d="M215.66,7.244c-1.636,2.166-4.702,3.096-7.286,3.096c-0.003,0-0.007,0-0.01,0
		c2.582-0.002,5.642-0.934,7.276-3.096c1.245-1.648,1.491-3.717,0.662-5.494c0.007,0,0.014,0,0.021,0
		C217.151,3.527,216.905,5.596,215.66,7.244z"/>
	<path fill="#FCBD66" d="M213.012,7.34c-1.299,0.824-3.146,1.248-4.647,1.25c-1.528-0.002-3.326-0.424-4.647-1.25
		c-1.719-1.072-2.899-3.498-1.487-5.35c0.059-0.078,0.099-0.158,0.13-0.24c0.924,0,1.848,0,2.771,0
		c-0.751,2.211,0.74,4.76,3.224,4.76c0.004,0,0.006-0.002,0.01-0.002s0.006,0.002,0.01,0.002c2.481,0,3.975-2.551,3.223-4.76
		c0.924,0,1.849,0,2.771,0c0.031,0.082,0.071,0.162,0.13,0.24C215.918,3.852,214.721,6.256,213.012,7.34z"/>
	<path fill="#FCBD66" d="M208.374,6.51c-0.004,0-0.006-0.002-0.01-0.002c2.476-0.006,3.963-2.551,3.213-4.758
		c0.007,0,0.013,0,0.02,0C212.349,3.959,210.855,6.51,208.374,6.51z"/>
	<path fill="#FCBD66" d="M203.717,7.34c1.321,0.826,3.119,1.248,4.647,1.25c-0.003,0-0.007,0-0.01,0
		c-1.531,0-3.334-0.422-4.658-1.25c-1.719-1.072-2.898-3.498-1.487-5.35c0.059-0.078,0.099-0.158,0.131-0.24c0.007,0,0.013,0,0.02,0
		c-0.031,0.082-0.071,0.162-0.13,0.24C200.817,3.842,201.998,6.268,203.717,7.34z"/>
	<path fill="#F16A5A" d="M133.037,10.018c-2.434,1.73-5.111,2.105-7.987,2.107c-2.888-0.002-5.537-0.373-7.987-2.107
		c-2.674-1.891-4.223-5.273-1.992-8.219c0.012-0.016,0.02-0.033,0.03-0.049c0.663,0,1.327,0,1.989,0
		c-0.842,1.813-0.575,3.934,0.729,5.584c1.659,2.096,4.662,3.006,7.22,3.006c0.003,0,0.007,0,0.011,0s0.007,0,0.011,0
		c2.585,0,5.65-0.93,7.287-3.096c1.244-1.648,1.49-3.717,0.662-5.494c0.662,0,1.326,0,1.989,0c0.012,0.016,0.019,0.033,0.031,0.049
		C137.265,4.75,135.701,8.125,133.037,10.018z"/>
	<path fill="#F16A5A" d="M132.348,7.244c-1.637,2.166-4.702,3.096-7.287,3.096c-0.004,0-0.007,0-0.011,0
		c2.583-0.002,5.642-0.934,7.276-3.096c1.244-1.648,1.49-3.717,0.662-5.494c0.008,0,0.015,0,0.021,0
		C133.838,3.527,133.592,5.596,132.348,7.244z"/>
	<path fill="#F16A5A" d="M117.063,10.018c2.45,1.734,5.1,2.105,7.987,2.107c-0.004,0-0.007,0-0.011,0
		c-2.892,0-5.545-0.371-7.998-2.107c-2.674-1.891-4.224-5.273-1.993-8.219c0.013-0.016,0.02-0.033,0.031-0.049
		c0.007,0,0.015,0,0.021,0c-0.011,0.016-0.019,0.033-0.03,0.049C112.84,4.744,114.389,8.127,117.063,10.018z"/>
	<path fill="#FCBD66" d="M129.696,7.34c-1.298,0.824-3.144,1.248-4.646,1.25c-1.527-0.002-3.325-0.424-4.646-1.25
		c-1.719-1.072-2.9-3.498-1.488-5.35c0.06-0.078,0.1-0.158,0.131-0.24c0.923,0,1.847,0,2.769,0c-0.751,2.211,0.741,4.76,3.224,4.76
		c0.004,0,0.007-0.002,0.011-0.002s0.007,0.002,0.011,0.002c2.482,0,3.975-2.551,3.224-4.76c0.923,0,1.846,0,2.77,0
		c0.031,0.082,0.071,0.162,0.13,0.24C132.604,3.852,131.406,6.256,129.696,7.34z"/>
	<path fill="#FCBD66" d="M125.061,6.51c-0.004,0-0.007-0.002-0.011-0.002c2.476-0.006,3.962-2.551,3.213-4.758
		c0.007,0,0.015,0,0.021,0C129.035,3.959,127.543,6.51,125.061,6.51z"/>
	<path fill="#FCBD66" d="M120.404,7.34c1.32,0.826,3.118,1.248,4.646,1.25c-0.004,0-0.008,0-0.011,0c-1.53,0-3.334-0.422-4.657-1.25
		c-1.719-1.072-2.899-3.498-1.487-5.35c0.059-0.078,0.099-0.158,0.131-0.24c0.007,0,0.015,0,0.021,0
		c-0.031,0.082-0.071,0.162-0.131,0.24C117.504,3.842,118.686,6.268,120.404,7.34z"/>
	<path fill="#00A8A8" d="M270.859,14.732c0.45,1.027,0.978,2.018,1.449,3.055c0.915,2.016,1.822,6.324-1.45,6.705
		c-3.283-0.383-2.365-4.693-1.448-6.705C269.883,16.752,270.409,15.76,270.859,14.732z"/>
	<path fill="#00A8A8" d="M310.729,18.637c0.106-0.311,0.222-0.598,0.336-0.85c0.473-1.035,1-2.027,1.45-3.055
		c0.45,1.027,0.978,2.018,1.449,3.055c0.914,2.016,1.822,6.322-1.45,6.705C309.643,24.156,309.986,20.814,310.729,18.637z"/>
	<path fill="#00A8A8" d="M312.515,24.492L312.515,24.492c-2.873-0.336-2.529-3.678-1.785-5.855
		C309.986,20.814,309.643,24.156,312.515,24.492z"/>
	<path fill="#00A8A8" d="M352.723,17.787c0.471-1.031,0.996-2.021,1.444-3.043c0.449,1.021,0.974,2.01,1.443,3.043
		c0.914,2.016,1.821,6.318-1.443,6.705C350.89,24.104,351.807,19.799,352.723,17.787z"/>
	<path fill="#00A8A8" d="M354.162,14.732c0.002,0.004,0.004,0.008,0.005,0.012c-0.448,1.021-0.974,2.012-1.444,3.043
		c-0.916,2.012-1.833,6.316,1.444,6.705c-0.002,0-0.004,0-0.006,0c-3.284-0.383-2.366-4.693-1.449-6.705
		C353.185,16.752,353.712,15.76,354.162,14.732z"/>
	<path fill="#F16A5A" d="M299.685,10.018c-1.826,1.301-3.792,1.836-5.875,2.021c-0.694,0.063-1.402,0.086-2.122,0.086
		c-2.892,0-5.545-0.371-7.998-2.107c-2.674-1.891-4.224-5.273-1.992-8.219c0.012-0.016,0.02-0.033,0.03-0.049
		c0.67,0,1.341,0,2.011,0c-0.843,1.813-0.576,3.934,0.729,5.584c1.659,2.096,4.662,3.006,7.22,3.006c2.585,0,5.65-0.93,7.286-3.096
		c0.155-0.205,0.296-0.418,0.42-0.637c0.621-1.088,0.849-2.307,0.663-3.48c-0.073-0.469-0.213-0.932-0.42-1.377
		c0.67,0,1.34,0,2.011,0c0.012,0.016,0.019,0.033,0.031,0.049c0.279,0.369,0.499,0.744,0.665,1.123
		c0.165,0.379,0.277,0.76,0.34,1.141c0.032,0.189,0.052,0.381,0.059,0.57C302.828,6.715,301.517,8.715,299.685,10.018z"/>
	<path fill="#F16A5A" d="M299.636,1.75L299.636,1.75c0.208,0.445,0.348,0.908,0.421,1.377C299.983,2.658,299.843,2.195,299.636,1.75
		z"/>
	<path fill="#F16A5A" d="M283.689,10.018c-2.674-1.891-4.225-5.273-1.993-8.219c0.013-0.016,0.02-0.033,0.031-0.049
		c-0.011,0.016-0.019,0.033-0.03,0.049C279.466,4.744,281.016,8.127,283.689,10.018z"/>
	<path fill="#FCBD66" d="M296.345,7.34c-1.302,0.826-3.152,1.25-4.657,1.25c-1.529,0-3.334-0.422-4.657-1.25
		c-1.503-0.939-2.596-2.912-1.899-4.631c0.1-0.246,0.235-0.486,0.412-0.719c0.059-0.078,0.099-0.158,0.131-0.24
		c0.93,0,1.859,0,2.79,0c-0.517,1.52,0.027,3.199,1.225,4.1c0.545,0.41,1.223,0.66,1.999,0.66c2.482,0,3.974-2.551,3.223-4.76
		c0.931,0,1.861,0,2.792,0c0.031,0.082,0.071,0.162,0.13,0.24C299.251,3.852,298.055,6.256,296.345,7.34z"/>
	<path fill="#FCBD66" d="M287.03,7.34c1.323,0.828,3.128,1.25,4.657,1.25C290.157,8.59,288.354,8.168,287.03,7.34
		c-1.504-0.939-2.596-2.912-1.899-4.631C284.435,4.428,285.527,6.4,287.03,7.34z"/>
	<path fill="#F16A5A" d="M341.342,10.018c-2.437,1.732-5.118,2.107-7.997,2.107c-2.892,0-5.545-0.371-7.997-2.107
		c-2.675-1.891-4.225-5.273-1.994-8.219c0.013-0.016,0.02-0.033,0.031-0.049c0.67,0,1.341,0,2.011,0
		c-0.843,1.813-0.576,3.934,0.729,5.584c1.658,2.096,4.661,3.006,7.219,3.006h0.001h0.001c2.584,0,5.649-0.93,7.286-3.096
		c1.245-1.648,1.491-3.717,0.662-5.494c0.671,0,1.34,0,2.01,0c0.012,0.016,0.019,0.033,0.031,0.049
		C345.57,4.75,344.006,8.125,341.342,10.018z"/>
	<path fill="#F16A5A" d="M341.343,10.018c-2.437,1.732-5.118,2.107-7.997,2.107h-0.001C336.224,12.125,338.905,11.75,341.343,10.018
		c2.663-1.893,4.228-5.268,1.992-8.219c-0.013-0.016-0.02-0.033-0.031-0.049h0.001c0.012,0.016,0.019,0.033,0.031,0.049
		C345.571,4.75,344.007,8.125,341.343,10.018z"/>
	<path fill="#F16A5A" d="M326.125,7.334c-1.306-1.65-1.572-3.771-0.729-5.584h0.001C324.554,3.563,324.82,5.684,326.125,7.334
		c1.659,2.096,4.661,3.006,7.22,3.006h-0.001C330.786,10.34,327.783,9.43,326.125,7.334z"/>
	<path fill="#FCBD66" d="M338.002,7.34c-1.302,0.826-3.152,1.25-4.657,1.25c-1.531,0-3.333-0.422-4.657-1.25
		c-1.719-1.072-2.898-3.498-1.487-5.35c0.059-0.078,0.099-0.158,0.131-0.24c0.93,0,1.86,0,2.79,0c-0.752,2.211,0.74,4.76,3.223,4.76
		h0.001h0.001c2.481,0,3.974-2.551,3.223-4.76c0.931,0,1.859,0,2.789,0c0.032,0.082,0.071,0.162,0.131,0.24
		C340.908,3.852,339.711,6.256,338.002,7.34z"/>
	<path fill="#FCBD66" d="M338.003,7.34c-1.302,0.826-3.153,1.25-4.657,1.25h-0.001C334.85,8.59,336.7,8.166,338.003,7.34
		c1.708-1.084,2.905-3.488,1.485-5.35c-0.06-0.078-0.099-0.158-0.131-0.24c0.001,0,0.001,0,0.002,0
		c0.031,0.082,0.071,0.162,0.13,0.24C340.909,3.852,339.712,6.256,338.003,7.34z"/>
	<path fill="#FCBD66" d="M330.121,1.75L330.121,1.75c-0.75,2.211,0.74,4.758,3.224,4.76h-0.001
		C330.861,6.51,329.369,3.961,330.121,1.75z"/>
	<path fill="#F16A5A" d="M258.027,10.018c-2.436,1.732-5.117,2.107-7.997,2.107c-2.529,0-4.878-0.283-7.068-1.518
		c-0.313-0.176-0.623-0.373-0.93-0.59c-2.674-1.891-4.223-5.273-1.992-8.219c0.012-0.016,0.02-0.033,0.03-0.049
		c0.671,0,1.341,0,2.011,0c-0.631,1.359-0.639,2.893-0.054,4.27c0.195,0.459,0.457,0.9,0.783,1.314
		c1.659,2.096,4.662,3.006,7.22,3.006c2.585,0,5.65-0.93,7.287-3.096c0.312-0.412,0.561-0.85,0.745-1.303
		c0.555-1.361,0.538-2.857-0.082-4.191c0.67,0,1.339,0,2.01,0c0.012,0.016,0.019,0.033,0.031,0.049
		c0.279,0.369,0.5,0.744,0.665,1.123c0.166,0.379,0.278,0.76,0.341,1.141c0.032,0.189,0.051,0.381,0.059,0.57
		C261.172,6.715,259.859,8.715,258.027,10.018z"/>
	<path fill="#F16A5A" d="M242.962,10.607c2.19,1.234,4.539,1.518,7.068,1.518C247.5,12.125,245.152,11.842,242.962,10.607z"/>
	<path fill="#F16A5A" d="M242.032,10.018c-2.674-1.891-4.224-5.273-1.993-8.219c0.013-0.016,0.02-0.033,0.031-0.049
		c-0.011,0.016-0.019,0.033-0.03,0.049C237.81,4.744,239.358,8.127,242.032,10.018z"/>
	<path fill="#F16A5A" d="M258.063,5.941c0.555-1.361,0.538-2.857-0.083-4.191h0.001C258.601,3.084,258.617,4.58,258.063,5.941z"/>
	<path fill="#FCBD66" d="M254.688,7.34c-1.301,0.826-3.152,1.25-4.657,1.25c-1.529,0-3.333-0.422-4.656-1.25
		c-1.504-0.939-2.597-2.912-1.9-4.631c0.1-0.246,0.235-0.486,0.412-0.719c0.06-0.078,0.1-0.158,0.131-0.24c0.931,0,1.86,0,2.79,0
		c-0.751,2.211,0.741,4.76,3.224,4.76s3.974-2.551,3.224-4.76c0.93,0,1.86,0,2.791,0c0.031,0.082,0.071,0.162,0.13,0.24
		C257.595,3.852,256.397,6.256,254.688,7.34z"/>
	<path fill="#FCBD66" d="M245.374,7.34c1.323,0.828,3.127,1.25,4.656,1.25C248.5,8.59,246.696,8.168,245.374,7.34
		c-1.505-0.939-2.597-2.912-1.9-4.631C242.777,4.428,243.87,6.4,245.374,7.34z"/>
	<path fill="#F16A5A" d="M8.088,10.018c-2.436,1.732-5.117,2.107-7.997,2.107c-0.03,0-0.061-0.002-0.091-0.002v-1.787
		c0.029,0,0.061,0.004,0.091,0.004c2.585,0,5.65-0.93,7.287-3.096c0.312-0.412,0.561-0.85,0.744-1.303
		C8.678,4.58,8.661,3.084,8.04,1.75c0.67,0,1.34,0,2.011,0c0.012,0.016,0.019,0.033,0.031,0.049c0.279,0.369,0.5,0.744,0.665,1.123
		c0.166,0.379,0.278,0.76,0.341,1.141c0.032,0.189,0.051,0.381,0.059,0.57C11.232,6.715,9.92,8.715,8.088,10.018z"/>
	<path fill="#FCBD66" d="M0.091,6.51c2.482,0,3.974-2.551,3.224-4.76c0.93,0,1.86,0,2.791,0c0.031,0.082,0.071,0.162,0.13,0.24
		C7.212,3.27,6.95,4.805,6.137,5.992C5.989,6.209,5.822,6.414,5.642,6.604C5.371,6.887,5.068,7.137,4.748,7.34
		C3.447,8.166,1.596,8.59,0.091,8.59C0.062,8.59,0.029,8.584,0,8.584v-2.08C0.031,6.504,0.06,6.51,0.091,6.51z"/>
</g>
</svg>
