<?xml version="1.0" encoding="utf-8"?>
<!-- Generator: Adobe Illustrator 16.0.0, SVG Export Plug-In . SVG Version: 6.00 Build 0)  -->
<!DOCTYPE svg PUBLIC "-//W3C//DTD SVG 1.1//EN" "http://www.w3.org/Graphics/SVG/1.1/DTD/svg11.dtd">
<svg version="1.1" id="Layer_1" xmlns="http://www.w3.org/2000/svg" xmlns:xlink="http://www.w3.org/1999/xlink" x="0px" y="0px"
	 width="45px" height="10px" viewBox="0 0 45 10" enable-background="new 0 0 45 10" xml:space="preserve">
<g>
	<g>
		<g>
			<g id="XMLID_4_">
			</g>
		</g>
	</g>
</g>
<g>
	<g>
		<path fill-rule="evenodd" clip-rule="evenodd" fill="#FAAC50" d="M28.564,3.533c-0.025,0.342-0.051,0.544-0.051,0.745
			C28.508,5.41,28.512,6.54,28.512,7.67c0,0.376-0.033,0.731-0.535,0.727c-0.502-0.001-0.523-0.351-0.523-0.73
			c0.008-1.734,0-3.471,0.008-5.206c0-0.318-0.096-0.699,0.344-0.831c0.428-0.127,0.744,0.042,1.01,0.388
			c0.973,1.271,1.955,2.533,2.934,3.793c0.113,0.145,0.232,0.282,0.348,0.424c0.053-0.02,0.105-0.036,0.158-0.057
			c0-0.202,0-0.404,0-0.605c0-1.134,0.004-2.264,0-3.394c-0.002-0.349,0.131-0.564,0.5-0.577c0.365-0.013,0.545,0.181,0.545,0.532
			c0.006,1.912,0.01,3.821-0.012,5.733c-0.002,0.168-0.182,0.456-0.309,0.474c-0.238,0.032-0.568-0.016-0.736-0.166
			c-0.316-0.279-0.549-0.654-0.813-0.995c-0.799-1.031-1.596-2.065-2.395-3.098C28.92,3.933,28.787,3.794,28.564,3.533z"/>
		<path fill-rule="evenodd" clip-rule="evenodd" fill="#F16A5A" d="M4.109,4.401c1.109,0,2.154,0,3.309,0
			c0-0.616-0.006-1.232,0.002-1.846c0.002-0.435-0.117-1.002,0.561-1C8.67,1.558,8.582,2.127,8.582,2.594
			c0.002,1.617,0.002,3.235,0,4.852c0,0.116-0.002,0.233,0,0.351C8.586,8.195,8.389,8.44,7.996,8.451
			c-0.404,0.01-0.584-0.238-0.578-0.638C7.422,7.078,7.42,6.342,7.42,5.574c-1.129,0-2.174,0-3.311,0
			c0,0.684-0.006,1.357,0.002,2.03c0.006,0.424-0.053,0.829-0.574,0.845C2.975,8.464,2.912,8.046,2.914,7.6
			c0.002-1.737,0.002-3.472,0-5.207c-0.002-0.419,0.045-0.828,0.57-0.845c0.563-0.017,0.633,0.399,0.627,0.849
			C4.104,3.053,4.109,3.711,4.109,4.401z"/>
		<path fill-rule="evenodd" clip-rule="evenodd" fill="#F16A5A" d="M15.668,4.001c0-0.604-0.002-1.208,0.002-1.81
			c0.002-0.378,0.146-0.66,0.563-0.677c0.451-0.019,0.625,0.283,0.625,0.677c-0.004,1.226,0.012,2.453-0.053,3.677
			c-0.109,2.077-1.68,2.848-3.51,2.581c-1.5-0.219-2.26-1.197-2.301-2.895c-0.027-1.09-0.004-2.179-0.006-3.269
			c-0.002-0.417,0.115-0.765,0.596-0.77c0.479-0.006,0.598,0.338,0.6,0.755c0.004,1.146-0.016,2.299,0.029,3.446
			c0.043,1.12,0.711,1.7,1.814,1.665c0.922-0.027,1.541-0.584,1.604-1.514c0.041-0.621,0.006-1.244,0.006-1.868
			C15.646,4.001,15.658,4.001,15.668,4.001z"/>
		<path fill-rule="evenodd" clip-rule="evenodd" fill="#FAAC50" d="M21.969,2.95c-0.131,0.263-0.223,0.427-0.297,0.6
			c-0.623,1.426-1.242,2.852-1.863,4.277c-0.023,0.055-0.047,0.107-0.07,0.162c-0.145,0.333-0.357,0.599-0.756,0.432
			c-0.406-0.17-0.357-0.518-0.213-0.843c0.502-1.14,1.016-2.274,1.523-3.41c0.311-0.691,0.588-1.402,0.951-2.066
			c0.135-0.249,0.482-0.546,0.717-0.532c0.27,0.016,0.643,0.292,0.764,0.552c0.852,1.793,1.645,3.611,2.459,5.42
			c0.16,0.356,0.215,0.703-0.225,0.881c-0.396,0.16-0.619-0.103-0.766-0.432c-0.645-1.479-1.287-2.96-1.93-4.438
			C22.189,3.382,22.1,3.218,21.969,2.95z"/>
		<path fill-rule="evenodd" clip-rule="evenodd" fill="#FAAC50" d="M38.75,2.897c-0.752,1.723-1.432,3.291-2.115,4.857
			c-0.061,0.143-0.094,0.345-0.203,0.409c-0.205,0.122-0.508,0.279-0.678,0.21c-0.146-0.062-0.295-0.477-0.225-0.643
			c0.826-1.933,1.672-3.854,2.557-5.759c0.293-0.633,1.086-0.629,1.379,0.002c0.869,1.867,1.705,3.754,2.537,5.641
			c0.129,0.292,0.15,0.637-0.232,0.798c-0.396,0.166-0.621-0.067-0.771-0.406c-0.645-1.479-1.291-2.957-1.936-4.436
			C38.986,3.397,38.902,3.228,38.75,2.897z"/>
	</g>
</g>
</svg>
