<?xml version="1.0" encoding="utf-8"?>
<!-- Generator: Adobe Illustrator 16.0.0, SVG Export Plug-In . SVG Version: 6.00 Build 0)  -->
<!DOCTYPE svg PUBLIC "-//W3C//DTD SVG 1.1//EN" "http://www.w3.org/Graphics/SVG/1.1/DTD/svg11.dtd">
<svg version="1.1" id="Layer_1" xmlns="http://www.w3.org/2000/svg" xmlns:xlink="http://www.w3.org/1999/xlink" x="0px" y="0px"
	 width="320px" height="170px" viewBox="0 0 320 170" enable-background="new 0 0 320 170" xml:space="preserve">
<g>
	<path fill="none" stroke="#8D183D" stroke-width="2" stroke-linecap="round" stroke-linejoin="round" stroke-miterlimit="10" d="
		M314,140.333c0,13.255-10.745,24-24,24H30c-13.255,0-24-10.745-24-24V29.667c0-13.255,10.745-24,24-24h260
		c13.255,0,24,10.745,24,24V140.333z"/>
	<g>
		<defs>
			<path id="SVGID_9_" d="M314,140.333c0,13.255-10.745,24-24,24H30c-13.255,0-24-10.745-24-24V29.667c0-13.255,10.745-24,24-24h260
				c13.255,0,24,10.745,24,24V140.333z"/>
		</defs>
		<clipPath id="SVGID_2_">
			<use xlink:href="#SVGID_9_"  overflow="visible"/>
		</clipPath>
		<g clip-path="url(#SVGID_2_)">
			<path fill="none" d="M139.218,9.925c-1.563,0.006-2.143-1.732-1.36-2.945c0.014-0.021,0.021-0.042,0.033-0.063
				c0.442,0,0.885,0,1.327,0s0.885,0,1.327,0c0.012,0.021,0.019,0.041,0.032,0.063C141.367,8.202,140.777,9.919,139.218,9.925z"/>
			<path fill="none" d="M222.53,13.757c1.505,0,3.356-0.425,4.657-1.251C225.888,13.332,224.035,13.757,222.53,13.757z"/>
			<path fill="none" d="M131.977,12.5c-1.306-1.65-1.572-3.771-0.729-5.583c0.008,0,0.015,0,0.022,0
				c-0.844,1.812-0.577,3.933,0.729,5.583c1.657,2.094,4.653,3.004,7.209,3.006c-0.004,0-0.007,0.001-0.011,0.001
				C136.639,15.507,133.636,14.597,131.977,12.5z"/>
			<path fill="none" d="M147.216,15.185c-2.436,1.732-5.119,2.106-7.998,2.106c-0.004,0-0.007,0-0.011,0
				c2.875-0.001,5.554-0.376,7.986-2.106c2.665-1.894,4.229-5.268,1.994-8.219c-0.013-0.016-0.02-0.033-0.031-0.049
				c0.008,0,0.015,0,0.022,0c0.011,0.016,0.018,0.033,0.03,0.049C151.443,9.917,149.879,13.291,147.216,15.185z"/>
			<path fill="none" d="M143.875,12.506c-1.301,0.826-3.152,1.251-4.657,1.251c-0.004,0-0.008-0.001-0.011-0.001
				c1.503-0.002,3.348-0.426,4.646-1.25c1.71-1.084,2.906-3.487,1.487-5.349c-0.059-0.078-0.099-0.159-0.13-0.24
				c0.007,0,0.014,0,0.021,0c0.032,0.081,0.072,0.162,0.131,0.24C146.781,9.019,145.585,11.422,143.875,12.506z"/>
			<path fill="none" d="M90.319,12.5c-1.305-1.65-1.571-3.771-0.729-5.583c0.008,0,0.015,0,0.022,0
				c-0.843,1.812-0.576,3.933,0.729,5.583c1.658,2.094,4.653,3.004,7.209,3.006c-0.004,0-0.008,0.001-0.011,0.001
				C94.981,15.507,91.979,14.597,90.319,12.5z"/>
			<path fill="none" d="M102.218,12.506c-1.3,0.826-3.152,1.251-4.657,1.251c-0.003,0-0.007-0.001-0.011-0.001
				c1.503-0.002,3.349-0.426,4.646-1.25c1.71-1.084,2.907-3.487,1.487-5.349c-0.059-0.078-0.099-0.159-0.13-0.24
				c0.007,0,0.015,0,0.021,0c0.031,0.081,0.071,0.162,0.131,0.24C105.126,9.019,103.928,11.422,102.218,12.506z"/>
			<path fill="none" d="M105.559,15.185c-2.436,1.732-5.118,2.106-7.998,2.106c-0.004,0-0.007,0-0.011,0
				c2.876-0.001,5.554-0.376,7.987-2.106c2.664-1.894,4.228-5.268,1.993-8.219c-0.013-0.016-0.02-0.033-0.031-0.049
				c0.008,0,0.015,0,0.022,0c0.011,0.016,0.019,0.033,0.03,0.049C109.787,9.917,108.224,13.291,105.559,15.185z"/>
			<path fill="none" d="M36.525,22.954c-0.472-1.037-0.999-2.028-1.449-3.056C35.527,20.926,36.055,21.917,36.525,22.954
				c0.915,2.016,1.823,6.323-1.449,6.705c0,0,0,0-0.001,0C38.348,29.276,37.439,24.97,36.525,22.954z"/>
			<path fill="none" d="M108.447,22.048c-3.728,3.142-8.348,5.311-10.887,9.609c-2.538-4.3-7.158-6.468-10.886-9.609
				c-2.333-1.966-4.574-4.529-5.699-7.447c-1.016-2.631-0.826-5.928,1.764-7.498c0.089-0.054,0.157-0.117,0.216-0.186
				c0.889,0,1.778,0,2.666,0c-0.139,0.271-0.254,0.551-0.354,0.831c-0.313-0.227-0.644-0.421-1.01-0.553
				c-0.633-0.229-1.345,0.052-1.525,0.753c-0.309,1.191,1.131,1.889,2.114,1.896c-0.021,0.468,0.007,0.936,0.082,1.397
				c-0.396-0.037-0.798,0.014-1.158,0.199c-0.511,0.265-0.792,0.876-0.549,1.434c0.438,1.001,1.508,0.648,2.293,0.251
				c0.175,0.374,0.383,0.739,0.626,1.09c-0.351,0.209-0.698,0.468-0.928,0.805c-0.372,0.545-0.264,1.316,0.327,1.652
				c0.834,0.475,1.528-0.189,1.959-0.924c0.397,0.364,0.812,0.689,1.239,0.982c-0.227,0.133-0.419,0.323-0.546,0.559
				c-0.327,0.605-0.034,1.351,0.542,1.648c0.561,0.29,1.244,0.105,1.678-0.337c0.205-0.209,0.345-0.458,0.455-0.725
				c0.518,0.214,1.049,0.396,1.591,0.543c-0.214,0.184-0.386,0.407-0.478,0.681c-0.227,0.673,0.139,1.368,0.758,1.637
				c0.662,0.288,1.371-0.007,1.765-0.597c0.261-0.39,0.324-0.824,0.307-1.267c0.464,0.058,0.932,0.099,1.402,0.124
				c-0.047,0.448-0.146,0.89-0.023,1.35c0.164,0.612,0.723,1.191,1.373,1.191c0.651,0,1.21-0.58,1.374-1.191
				c0.122-0.455,0.024-0.895-0.022-1.34c0.47-0.025,0.937-0.066,1.4-0.123c-0.016,0.439,0.049,0.869,0.308,1.256
				c0.395,0.59,1.103,0.885,1.765,0.597c0.619-0.269,0.984-0.964,0.758-1.637c-0.091-0.271-0.26-0.491-0.47-0.674
				c0.477-0.132,0.945-0.285,1.403-0.469c0.105,0.235,0.238,0.456,0.423,0.644c0.434,0.441,1.118,0.627,1.678,0.337
				c0.582-0.302,0.859-1.039,0.542-1.648c-0.102-0.196-0.258-0.363-0.438-0.489c0.417-0.278,0.819-0.589,1.205-0.933
				c0.434,0.684,1.097,1.253,1.884,0.805c0.592-0.336,0.7-1.107,0.328-1.652c-0.196-0.289-0.481-0.522-0.78-0.716
				c0.253-0.353,0.471-0.718,0.654-1.094c0.761,0.356,1.711,0.592,2.117-0.336c0.253-0.58-0.06-1.192-0.588-1.45
				c-0.286-0.14-0.594-0.196-0.904-0.192c0.074-0.464,0.106-0.932,0.084-1.399c0.968-0.095,2.163-0.774,1.898-1.885
				c-0.17-0.709-0.9-0.971-1.526-0.753c-0.301,0.104-0.577,0.259-0.841,0.435c-0.092-0.24-0.194-0.479-0.313-0.713
				c0.888,0,1.777,0,2.667,0c0.058,0.068,0.126,0.132,0.216,0.186c2.78,1.686,2.752,5.235,1.565,7.944
				C112.753,17.78,110.686,20.161,108.447,22.048z"/>
			<path fill="none" d="M94.315,6.917c0.008,0,0.015,0,0.022,0c-0.751,2.207,0.736,4.751,3.212,4.758
				c-0.004,0-0.007,0.001-0.011,0.001C95.057,11.676,93.564,9.127,94.315,6.917z"/>
			<path fill="none" d="M191.76,22.048c-3.728,3.142-8.348,5.311-10.886,9.609c-2.539-4.3-7.157-6.468-10.886-9.609
				c-2.333-1.966-4.574-4.529-5.7-7.447c-1.016-2.631-0.826-5.928,1.765-7.498c0.089-0.054,0.157-0.117,0.216-0.186
				c0.889,0,1.777,0,2.667,0c-0.139,0.271-0.254,0.551-0.355,0.831c-0.313-0.227-0.645-0.421-1.011-0.553
				c-0.633-0.229-1.345,0.052-1.524,0.753c-0.309,1.191,1.13,1.889,2.113,1.896c-0.02,0.468,0.008,0.936,0.082,1.397
				c-0.396-0.037-0.797,0.014-1.157,0.199c-0.512,0.265-0.793,0.876-0.549,1.434c0.438,1.001,1.508,0.648,2.293,0.251
				c0.176,0.374,0.384,0.739,0.627,1.09c-0.351,0.209-0.698,0.468-0.929,0.805c-0.373,0.545-0.265,1.316,0.328,1.652
				c0.834,0.475,1.527-0.189,1.957-0.924c0.397,0.364,0.812,0.689,1.24,0.982c-0.228,0.133-0.42,0.323-0.547,0.559
				c-0.326,0.605-0.034,1.351,0.543,1.648c0.56,0.29,1.244,0.105,1.678-0.337c0.205-0.209,0.344-0.458,0.454-0.725
				c0.519,0.214,1.049,0.396,1.591,0.543c-0.214,0.184-0.386,0.407-0.478,0.681c-0.227,0.673,0.139,1.368,0.758,1.637
				c0.662,0.288,1.372-0.007,1.767-0.597c0.261-0.39,0.322-0.824,0.307-1.267c0.462,0.058,0.93,0.099,1.4,0.124
				c-0.047,0.448-0.146,0.89-0.023,1.35c0.164,0.612,0.723,1.191,1.374,1.191s1.211-0.58,1.373-1.191
				c0.123-0.455,0.024-0.895-0.021-1.34c0.469-0.025,0.936-0.066,1.399-0.123c-0.016,0.439,0.049,0.869,0.308,1.256
				c0.395,0.59,1.104,0.885,1.766,0.597c0.619-0.269,0.983-0.964,0.757-1.637c-0.091-0.271-0.26-0.491-0.469-0.674
				c0.476-0.132,0.944-0.285,1.403-0.469c0.104,0.235,0.238,0.456,0.423,0.644c0.433,0.441,1.118,0.627,1.678,0.337
				c0.582-0.302,0.858-1.039,0.542-1.648c-0.102-0.196-0.258-0.363-0.438-0.489c0.417-0.278,0.818-0.589,1.204-0.933
				c0.434,0.684,1.097,1.253,1.885,0.805c0.593-0.336,0.701-1.107,0.328-1.652c-0.197-0.289-0.482-0.522-0.78-0.716
				c0.253-0.353,0.471-0.718,0.653-1.094c0.763,0.356,1.711,0.592,2.117-0.336c0.253-0.58-0.059-1.192-0.588-1.45
				c-0.285-0.14-0.593-0.196-0.902-0.192c0.073-0.464,0.105-0.932,0.084-1.399c0.966-0.095,2.162-0.774,1.896-1.885
				c-0.17-0.709-0.9-0.971-1.524-0.753c-0.301,0.104-0.578,0.259-0.841,0.435c-0.093-0.24-0.195-0.479-0.314-0.713
				c0.89,0,1.777,0,2.667,0c0.059,0.068,0.127,0.132,0.216,0.186c2.78,1.686,2.752,5.235,1.567,7.944
				C196.066,17.78,194,20.161,191.76,22.048z"/>
			<path fill="none" d="M188.872,15.185c-2.437,1.732-5.118,2.106-7.998,2.106c-0.003,0-0.007,0-0.01,0
				c2.875-0.001,5.554-0.376,7.987-2.106c2.664-1.894,4.229-5.268,1.993-8.219c-0.013-0.016-0.02-0.033-0.031-0.049
				c0.007,0,0.014,0,0.021,0c0.012,0.016,0.019,0.033,0.031,0.049C193.101,9.917,191.536,13.291,188.872,15.185z"/>
			<path fill="none" d="M222.53,9.925c-1.563,0.006-2.143-1.732-1.358-2.945c0.014-0.021,0.021-0.042,0.032-0.063
				c0.442,0,0.885,0,1.326,0c0.442,0,0.885,0,1.327,0c0.012,0.021,0.019,0.041,0.032,0.063
				C224.681,8.202,224.091,9.919,222.53,9.925z"/>
			<path fill="none" d="M150.104,22.048c-3.728,3.142-8.347,5.311-10.886,9.609c-2.538-4.3-7.158-6.468-10.886-9.609
				c-2.334-1.966-4.574-4.529-5.7-7.447c-1.016-2.631-0.827-5.928,1.765-7.498c0.089-0.054,0.157-0.117,0.216-0.186
				c0.889,0,1.777,0,2.666,0c-0.139,0.271-0.254,0.551-0.355,0.831c-0.313-0.227-0.644-0.421-1.011-0.553
				c-0.632-0.229-1.343,0.052-1.524,0.753c-0.308,1.191,1.131,1.889,2.113,1.896c-0.02,0.468,0.008,0.936,0.082,1.397
				c-0.395-0.037-0.797,0.014-1.156,0.199c-0.511,0.265-0.793,0.876-0.549,1.434c0.438,1.001,1.507,0.648,2.292,0.251
				c0.176,0.374,0.384,0.739,0.627,1.09c-0.351,0.209-0.698,0.468-0.929,0.805c-0.373,0.545-0.264,1.316,0.328,1.652
				c0.834,0.475,1.528-0.189,1.959-0.924c0.397,0.364,0.811,0.689,1.238,0.982c-0.228,0.133-0.42,0.323-0.547,0.559
				c-0.325,0.605-0.033,1.351,0.543,1.648c0.561,0.29,1.245,0.105,1.679-0.337c0.204-0.209,0.345-0.458,0.455-0.725
				c0.518,0.214,1.048,0.396,1.589,0.543c-0.213,0.184-0.384,0.407-0.476,0.681c-0.227,0.673,0.137,1.368,0.757,1.637
				c0.661,0.288,1.371-0.007,1.766-0.597c0.261-0.39,0.323-0.824,0.307-1.267c0.463,0.058,0.931,0.099,1.401,0.124
				c-0.047,0.448-0.146,0.89-0.024,1.35c0.164,0.612,0.723,1.191,1.375,1.191c0.65,0,1.21-0.58,1.374-1.191
				c0.122-0.455,0.024-0.895-0.022-1.34c0.469-0.025,0.937-0.066,1.399-0.123c-0.016,0.439,0.049,0.869,0.307,1.256
				c0.395,0.59,1.104,0.885,1.766,0.597c0.62-0.269,0.985-0.964,0.759-1.637c-0.091-0.271-0.261-0.491-0.471-0.674
				c0.478-0.132,0.946-0.285,1.404-0.469c0.104,0.235,0.237,0.456,0.422,0.644c0.433,0.441,1.119,0.627,1.679,0.337
				c0.582-0.302,0.859-1.039,0.542-1.648c-0.103-0.196-0.258-0.363-0.438-0.489c0.418-0.278,0.819-0.589,1.205-0.933
				c0.435,0.684,1.096,1.253,1.885,0.805c0.592-0.336,0.7-1.107,0.328-1.652c-0.198-0.289-0.483-0.522-0.781-0.716
				c0.253-0.353,0.471-0.718,0.654-1.094c0.762,0.356,1.711,0.592,2.117-0.336c0.254-0.58-0.059-1.192-0.587-1.45
				c-0.286-0.14-0.594-0.196-0.904-0.192c0.074-0.464,0.105-0.932,0.084-1.399c0.967-0.095,2.162-0.774,1.897-1.885
				c-0.169-0.709-0.899-0.971-1.525-0.753c-0.301,0.104-0.578,0.259-0.841,0.435c-0.093-0.24-0.195-0.479-0.314-0.713
				c0.89,0,1.778,0,2.668,0c0.059,0.068,0.126,0.132,0.216,0.186c2.781,1.686,2.753,5.235,1.566,7.944
				C154.409,17.78,152.343,20.161,150.104,22.048z"/>
			<path fill="none" d="M78.171,22.954c-0.47-1.033-0.994-2.021-1.443-3.044c0.002-0.004,0.004-0.008,0.006-0.012
				c0.45,1.027,0.977,2.019,1.448,3.056c0.916,2.016,1.823,6.323-1.448,6.705c-0.002,0-0.004-0.001-0.006-0.001
				C79.992,29.271,79.085,24.969,78.171,22.954z"/>
			<path fill="none" d="M173.635,12.5c-1.306-1.65-1.572-3.771-0.729-5.583c0.007,0,0.014,0,0.021,0
				c-0.843,1.812-0.577,3.933,0.729,5.583c1.656,2.094,4.653,3.004,7.209,3.007c-0.003,0-0.007,0-0.01,0
				C178.296,15.507,175.293,14.597,173.635,12.5z"/>
			<path fill="none" d="M177.631,6.917c0.007,0,0.014,0,0.021,0c-0.751,2.207,0.736,4.751,3.213,4.758
				c-0.004,0-0.006,0.001-0.01,0.001C178.371,11.676,176.88,9.127,177.631,6.917z"/>
			<path fill="none" d="M180.874,9.925c-1.563,0.006-2.144-1.732-1.359-2.945c0.014-0.021,0.021-0.042,0.033-0.063
				c0.442,0,0.884,0,1.326,0s0.885,0,1.326,0c0.012,0.021,0.02,0.041,0.033,0.063C183.023,8.202,182.434,9.919,180.874,9.925z"/>
			<path fill="none" d="M185.532,12.506c-1.302,0.826-3.153,1.251-4.658,1.251c-0.003,0-0.007-0.001-0.01-0.001
				c1.502-0.001,3.349-0.426,4.647-1.25c1.709-1.084,2.906-3.487,1.486-5.349c-0.059-0.078-0.099-0.159-0.13-0.24
				c0.007,0,0.013,0,0.02,0c0.031,0.081,0.071,0.162,0.131,0.24C188.438,9.019,187.241,11.422,185.532,12.506z"/>
			<path fill="none" d="M135.973,6.917c0.007,0,0.015,0,0.021,0c-0.751,2.207,0.737,4.751,3.213,4.758
				c-0.004,0-0.007,0.001-0.011,0.001C136.714,11.676,135.222,9.127,135.973,6.917z"/>
			<path fill="none" d="M55.906,11.676L55.906,11.676c2.479-0.001,3.973-2.55,3.221-4.759c0.001,0,0.001,0,0.002,0
				C59.88,9.126,58.388,11.676,55.906,11.676z"/>
			<path fill="none" d="M97.561,9.925c-1.563,0.006-2.143-1.732-1.358-2.945c0.014-0.021,0.021-0.042,0.032-0.063
				c0.442,0,0.885,0,1.326,0c0.442,0,0.885,0,1.327,0c0.012,0.021,0.019,0.041,0.032,0.063C99.71,8.202,99.12,9.919,97.561,9.925z"
				/>
			<path fill="none" d="M63.192,12.411c-1.637,2.165-4.702,3.096-7.286,3.096h-0.001c2.584,0,5.649-0.931,7.285-3.096
				c1.245-1.648,1.491-3.717,0.663-5.494h0.001C64.684,8.694,64.438,10.763,63.192,12.411z"/>
			<path fill="none" d="M47.908,15.185c2.452,1.736,5.105,2.106,7.997,2.106h-0.001c-2.891,0-5.545-0.37-7.998-2.106
				c-2.674-1.891-4.224-5.273-1.993-8.219c0.013-0.016,0.02-0.033,0.03-0.049c0.001,0,0.001,0,0.002,0
				c-0.012,0.016-0.019,0.033-0.031,0.049C43.684,9.911,45.233,13.294,47.908,15.185z"/>
			<path fill="none" d="M66.79,22.048c-3.728,3.142-8.348,5.311-10.886,9.609c-2.539-4.3-7.157-6.468-10.886-9.609
				c-2.334-1.966-4.574-4.529-5.7-7.447c-1.016-2.631-0.826-5.928,1.764-7.498c0.09-0.054,0.158-0.117,0.217-0.186
				c0.889,0,1.777,0,2.666,0c-0.139,0.271-0.253,0.551-0.354,0.831c-0.313-0.227-0.645-0.421-1.011-0.553
				c-0.633-0.229-1.345,0.052-1.525,0.753c-0.307,1.191,1.131,1.889,2.114,1.896c-0.021,0.468,0.007,0.936,0.082,1.397
				c-0.396-0.037-0.797,0.014-1.157,0.199c-0.512,0.265-0.793,0.876-0.549,1.434c0.438,1.001,1.508,0.648,2.293,0.251
				c0.175,0.374,0.384,0.739,0.627,1.09c-0.352,0.209-0.698,0.468-0.929,0.805c-0.373,0.545-0.265,1.316,0.328,1.652
				c0.833,0.475,1.526-0.189,1.957-0.924c0.397,0.364,0.813,0.689,1.24,0.982c-0.228,0.133-0.42,0.323-0.547,0.559
				c-0.327,0.605-0.034,1.351,0.542,1.648c0.562,0.29,1.245,0.105,1.679-0.337c0.205-0.209,0.344-0.458,0.454-0.725
				c0.519,0.214,1.049,0.396,1.591,0.543c-0.214,0.184-0.386,0.407-0.478,0.681c-0.227,0.673,0.139,1.368,0.758,1.637
				c0.662,0.288,1.372-0.007,1.767-0.597c0.261-0.39,0.322-0.824,0.306-1.267c0.463,0.058,0.931,0.099,1.401,0.124
				c-0.046,0.448-0.146,0.89-0.023,1.35c0.164,0.612,0.723,1.191,1.374,1.191s1.21-0.58,1.373-1.191
				c0.122-0.455,0.025-0.895-0.022-1.34c0.47-0.025,0.938-0.066,1.4-0.123c-0.015,0.439,0.049,0.869,0.308,1.256
				c0.395,0.59,1.104,0.885,1.766,0.597c0.619-0.269,0.983-0.964,0.757-1.637c-0.091-0.271-0.26-0.491-0.469-0.674
				c0.476-0.132,0.944-0.285,1.403-0.469c0.104,0.235,0.237,0.456,0.422,0.644c0.434,0.441,1.119,0.627,1.679,0.337
				c0.582-0.302,0.858-1.039,0.543-1.648c-0.103-0.196-0.258-0.363-0.438-0.489c0.418-0.278,0.818-0.589,1.204-0.933
				c0.434,0.684,1.097,1.253,1.885,0.805c0.592-0.336,0.701-1.107,0.328-1.652c-0.197-0.289-0.482-0.522-0.781-0.716
				c0.253-0.353,0.472-0.718,0.654-1.094c0.762,0.356,1.711,0.592,2.117-0.336c0.253-0.58-0.06-1.192-0.587-1.45
				c-0.286-0.14-0.594-0.196-0.903-0.192c0.073-0.464,0.105-0.932,0.084-1.399c0.966-0.095,2.162-0.774,1.896-1.885
				c-0.17-0.709-0.9-0.971-1.524-0.753C68.697,7.3,68.42,7.454,68.157,7.63c-0.093-0.24-0.195-0.479-0.314-0.713
				c0.89,0,1.777,0,2.667,0c0.059,0.068,0.127,0.132,0.216,0.186c2.78,1.686,2.752,5.235,1.567,7.944
				C71.096,17.78,69.03,20.161,66.79,22.048z"/>
			<path fill="none" d="M14.248,9.925c-1.563,0.006-2.144-1.732-1.359-2.945c0.013-0.021,0.021-0.042,0.031-0.063
				c0.442,0,0.885,0,1.328,0c0.442,0,0.885,0,1.327,0c0.011,0.021,0.019,0.041,0.032,0.063C16.397,8.202,15.808,9.919,14.248,9.925z
				"/>
			<path fill="none" d="M25.133,22.048c-3.728,3.142-8.347,5.311-10.885,9.609c-2.538-4.3-7.158-6.468-10.886-9.609
				c-2.334-1.966-4.574-4.529-5.701-7.447c-1.015-2.631-0.826-5.928,1.766-7.498c0.089-0.054,0.157-0.117,0.216-0.186
				c0.889,0,1.776,0,2.666,0C2.17,7.188,2.055,7.468,1.953,7.748C1.641,7.521,1.31,7.327,0.942,7.195
				C0.311,6.967-0.4,7.247-0.582,7.948C-0.89,9.14,0.549,9.837,1.531,9.845c-0.02,0.468,0.008,0.936,0.083,1.397
				c-0.396-0.037-0.798,0.014-1.157,0.199c-0.511,0.265-0.792,0.876-0.549,1.434c0.438,1.001,1.507,0.648,2.292,0.251
				c0.176,0.374,0.384,0.739,0.627,1.09c-0.351,0.209-0.698,0.468-0.929,0.805c-0.372,0.545-0.264,1.316,0.328,1.652
				c0.834,0.475,1.528-0.189,1.959-0.924c0.396,0.364,0.811,0.689,1.238,0.982c-0.227,0.133-0.42,0.323-0.546,0.559
				c-0.326,0.605-0.034,1.351,0.542,1.648c0.561,0.29,1.245,0.105,1.679-0.337c0.205-0.209,0.345-0.458,0.454-0.725
				c0.519,0.214,1.049,0.396,1.59,0.543c-0.214,0.184-0.385,0.407-0.477,0.681c-0.226,0.673,0.139,1.368,0.758,1.637
				c0.661,0.288,1.371-0.007,1.766-0.597c0.261-0.39,0.323-0.824,0.307-1.267c0.464,0.058,0.932,0.099,1.401,0.124
				c-0.047,0.448-0.146,0.89-0.024,1.35c0.164,0.612,0.723,1.191,1.375,1.191c0.65,0,1.21-0.58,1.374-1.191
				c0.122-0.455,0.024-0.895-0.022-1.34c0.469-0.025,0.937-0.066,1.399-0.123c-0.016,0.439,0.049,0.869,0.307,1.256
				c0.395,0.59,1.104,0.885,1.766,0.597c0.62-0.269,0.984-0.964,0.759-1.637c-0.091-0.271-0.26-0.491-0.471-0.674
				c0.478-0.132,0.946-0.285,1.404-0.469c0.104,0.235,0.237,0.456,0.422,0.644c0.433,0.441,1.118,0.627,1.679,0.337
				c0.582-0.302,0.859-1.039,0.542-1.648c-0.103-0.196-0.258-0.363-0.438-0.489c0.417-0.278,0.818-0.589,1.204-0.933
				c0.435,0.684,1.096,1.253,1.884,0.805c0.593-0.336,0.701-1.107,0.329-1.652c-0.198-0.289-0.482-0.522-0.781-0.716
				c0.253-0.353,0.471-0.718,0.654-1.094c0.762,0.356,1.712,0.592,2.117-0.336c0.254-0.58-0.059-1.192-0.587-1.45
				c-0.286-0.14-0.594-0.196-0.904-0.192c0.074-0.464,0.105-0.932,0.084-1.399c0.968-0.095,2.162-0.774,1.897-1.885
				c-0.169-0.709-0.9-0.971-1.525-0.753C27.04,7.3,26.763,7.454,26.5,7.63c-0.092-0.24-0.194-0.479-0.314-0.713
				c0.89,0,1.779,0,2.668,0c0.059,0.068,0.126,0.132,0.215,0.186c2.782,1.686,2.753,5.235,1.567,7.944
				C29.439,17.78,27.373,20.161,25.133,22.048z"/>
			<path fill="none" d="M55.904,9.925c-1.563,0.006-2.144-1.732-1.359-2.945c0.014-0.021,0.021-0.042,0.032-0.063
				c0.442,0,0.885,0,1.327,0s0.885,0,1.326,0c0.012,0.021,0.02,0.041,0.033,0.063C58.053,8.202,57.464,9.919,55.904,9.925z"/>
			<path fill="none" d="M51.248,12.506c1.324,0.828,3.126,1.251,4.657,1.251h-0.001C54.374,13.757,52.571,13.334,51.248,12.506
				c-1.72-1.072-2.9-3.497-1.488-5.349c0.059-0.078,0.099-0.159,0.13-0.24c0.001,0,0.001,0,0.002,0
				c-0.032,0.081-0.072,0.162-0.131,0.24C48.35,9.009,49.529,11.434,51.248,12.506z"/>
			<path fill="none" d="M275.184,9.229c-0.063-0.38-0.175-0.762-0.34-1.14C275.009,8.467,275.121,8.849,275.184,9.229z"/>
			<path fill="none" d="M161.474,22.954c-0.468-1.029-0.99-2.014-1.438-3.033c0.004-0.008,0.008-0.015,0.011-0.022
				c0.451,1.027,0.979,2.019,1.449,3.056c0.915,2.016,1.822,6.323-1.449,6.705c-0.004,0-0.007-0.002-0.011-0.002
				C163.293,29.266,162.387,24.967,161.474,22.954z"/>
			<path fill="none" d="M274.148,6.917c0.011,0.016,0.018,0.033,0.03,0.049C274.166,6.95,274.159,6.933,274.148,6.917L274.148,6.917
				z"/>
			<path fill="none" d="M256.968,12.5c1.66,2.097,4.662,3.007,7.22,3.007C261.63,15.507,258.627,14.597,256.968,12.5z"/>
			<path fill="none" d="M316.729,22.048c-3.728,3.142-8.348,5.311-10.886,9.609c-2.539-4.3-7.157-6.468-10.885-9.609
				c-2.335-1.966-4.574-4.529-5.701-7.447c-1.016-2.631-0.826-5.928,1.766-7.498c0.088-0.054,0.156-0.117,0.215-0.186
				c0.889,0,1.777,0,2.667,0c-0.14,0.271-0.254,0.551-0.356,0.831c-0.313-0.227-0.643-0.421-1.01-0.553
				c-0.633-0.229-1.345,0.052-1.525,0.753c-0.307,1.191,1.131,1.889,2.114,1.896c-0.021,0.468,0.007,0.936,0.082,1.397
				c-0.396-0.037-0.797,0.014-1.157,0.199c-0.512,0.265-0.792,0.876-0.549,1.434c0.438,1.001,1.508,0.648,2.293,0.251
				c0.175,0.374,0.384,0.739,0.627,1.09c-0.351,0.209-0.698,0.468-0.93,0.805c-0.372,0.545-0.263,1.316,0.329,1.652
				c0.833,0.475,1.526-0.189,1.957-0.924c0.397,0.364,0.813,0.689,1.24,0.982c-0.228,0.133-0.42,0.323-0.547,0.559
				c-0.326,0.605-0.033,1.351,0.542,1.648c0.562,0.29,1.246,0.105,1.679-0.337c0.205-0.209,0.345-0.458,0.454-0.725
				c0.519,0.214,1.049,0.396,1.591,0.543c-0.214,0.184-0.385,0.407-0.478,0.681c-0.227,0.673,0.139,1.368,0.759,1.637
				c0.661,0.288,1.371-0.007,1.765-0.597c0.262-0.39,0.324-0.824,0.307-1.267c0.463,0.058,0.931,0.099,1.401,0.124
				c-0.047,0.448-0.146,0.89-0.023,1.35c0.164,0.612,0.723,1.191,1.374,1.191s1.211-0.58,1.375-1.191
				c0.12-0.455,0.023-0.895-0.023-1.34c0.469-0.025,0.937-0.066,1.399-0.123c-0.015,0.439,0.049,0.869,0.308,1.256
				c0.395,0.59,1.104,0.885,1.766,0.597c0.619-0.269,0.983-0.964,0.757-1.637c-0.091-0.271-0.259-0.491-0.469-0.674
				c0.476-0.132,0.945-0.285,1.403-0.469c0.105,0.235,0.237,0.456,0.422,0.644c0.434,0.441,1.119,0.627,1.679,0.337
				c0.582-0.302,0.859-1.039,0.543-1.648c-0.103-0.196-0.258-0.363-0.438-0.489c0.417-0.278,0.817-0.589,1.203-0.933
				c0.434,0.684,1.097,1.253,1.885,0.805c0.593-0.336,0.701-1.107,0.328-1.652c-0.197-0.289-0.482-0.522-0.781-0.716
				c0.254-0.353,0.472-0.718,0.654-1.094c0.763,0.356,1.711,0.592,2.117-0.336c0.253-0.58-0.059-1.192-0.587-1.45
				c-0.286-0.14-0.594-0.196-0.903-0.192c0.074-0.464,0.105-0.932,0.084-1.399c0.966-0.095,2.161-0.774,1.896-1.885
				c-0.169-0.709-0.9-0.971-1.524-0.753c-0.301,0.104-0.578,0.259-0.841,0.435c-0.093-0.24-0.195-0.479-0.314-0.713
				c0.89,0,1.778,0,2.667,0c0.059,0.068,0.127,0.132,0.216,0.186c2.781,1.686,2.752,5.235,1.567,7.944
				C321.036,17.78,318.97,20.161,316.729,22.048z"/>
			<path fill="none" d="M264.188,13.757c1.505,0,3.355-0.425,4.657-1.251C267.544,13.332,265.692,13.757,264.188,13.757z"/>
			<path fill="none" d="M264.188,9.925c-1.563,0.006-2.144-1.732-1.359-2.945c0.014-0.021,0.021-0.042,0.033-0.063
				c0.441,0,0.884,0,1.326,0s0.885,0,1.327,0c0.012,0.021,0.019,0.041,0.032,0.063C266.337,8.202,265.747,9.919,264.188,9.925z"/>
			<path fill="none" d="M260.964,6.917L260.964,6.917c-0.516,1.52,0.027,3.198,1.225,4.1
				C260.991,10.115,260.447,8.437,260.964,6.917z"/>
			<path fill="none" d="M271.894,11.774c0.621-1.089,0.849-2.307,0.663-3.48C272.742,9.468,272.515,10.686,271.894,11.774z"/>
			<path fill="none" d="M305.844,9.925c-1.563,0.006-2.144-1.732-1.359-2.945c0.014-0.021,0.021-0.042,0.032-0.063
				c0.442,0,0.885,0,1.327,0s0.885,0,1.326,0c0.012,0.021,0.02,0.041,0.033,0.063C307.993,8.202,307.403,9.919,305.844,9.925z"/>
			<path fill="none" d="M305.846,11.676L305.846,11.676c2.479-0.001,3.973-2.55,3.222-4.759h0.001
				C309.819,9.126,308.327,11.676,305.846,11.676z"/>
			<path fill="none" d="M286.465,22.954c-0.472-1.037-0.999-2.028-1.449-3.056C285.467,20.926,285.994,21.917,286.465,22.954
				c0.915,2.016,1.823,6.323-1.449,6.705c0,0,0,0-0.001,0C288.287,29.276,287.379,24.97,286.465,22.954z"/>
			<path fill="none" d="M203.119,22.954c-0.466-1.025-0.985-2.006-1.432-3.021c0.005-0.012,0.011-0.022,0.016-0.034
				c0.451,1.027,0.978,2.019,1.448,3.056c0.916,2.016,1.823,6.323-1.448,6.705c-0.006-0.001-0.011-0.003-0.017-0.004
				C204.938,29.261,204.032,24.966,203.119,22.954z"/>
			<path fill="none" d="M297.848,15.185c2.452,1.736,5.105,2.106,7.997,2.106h-0.001C302.953,17.291,300.299,16.921,297.848,15.185
				c-2.677-1.891-4.226-5.273-1.995-8.219c0.013-0.016,0.02-0.033,0.03-0.049c0.001,0,0.001,0,0.002,0
				c-0.012,0.016-0.019,0.033-0.031,0.049C293.623,9.911,295.173,13.294,297.848,15.185z"/>
			<path fill="none" d="M243.359,19.898c-0.45,1.027-0.977,2.021-1.449,3.056C242.383,21.919,242.908,20.926,243.359,19.898z"/>
			<path fill="none" d="M272.186,15.185c-1.827,1.3-3.793,1.835-5.876,2.021C268.393,17.02,270.358,16.484,272.186,15.185
				c1.831-1.303,3.143-3.304,3.057-5.386C275.328,11.881,274.018,13.882,272.186,15.185z"/>
			<path fill="none" d="M301.188,12.506c1.324,0.828,3.126,1.251,4.657,1.251h-0.001C304.313,13.757,302.511,13.334,301.188,12.506
				c-1.72-1.072-2.9-3.497-1.488-5.349c0.059-0.078,0.099-0.159,0.13-0.24c0.001,0,0.001,0,0.002,0
				c-0.032,0.081-0.072,0.162-0.131,0.24C298.289,9.009,299.469,11.434,301.188,12.506z"/>
			<path fill="none" d="M275.073,22.048c-3.729,3.142-8.348,5.311-10.886,9.609c-2.538-4.3-7.158-6.468-10.886-9.609
				c-2.334-1.966-4.574-4.529-5.701-7.447c-1.015-2.631-0.826-5.928,1.766-7.498c0.089-0.054,0.157-0.117,0.216-0.186
				c0.889,0,1.776,0,2.666,0c-0.139,0.271-0.254,0.551-0.355,0.831c-0.313-0.227-0.644-0.421-1.011-0.553
				c-0.632-0.229-1.343,0.052-1.524,0.753c-0.308,1.191,1.132,1.889,2.113,1.896c-0.02,0.468,0.008,0.936,0.083,1.397
				c-0.396-0.037-0.798,0.014-1.157,0.199c-0.512,0.265-0.792,0.876-0.549,1.434c0.438,1.001,1.507,0.648,2.292,0.251
				c0.176,0.374,0.384,0.739,0.627,1.09c-0.351,0.209-0.698,0.468-0.929,0.805c-0.372,0.545-0.264,1.316,0.328,1.652
				c0.834,0.475,1.528-0.189,1.959-0.924c0.397,0.364,0.811,0.689,1.238,0.982c-0.227,0.133-0.42,0.323-0.546,0.559
				c-0.326,0.605-0.034,1.351,0.542,1.648c0.561,0.29,1.245,0.105,1.679-0.337c0.204-0.209,0.345-0.458,0.455-0.725
				c0.518,0.214,1.048,0.396,1.589,0.543c-0.214,0.184-0.384,0.407-0.477,0.681c-0.226,0.673,0.139,1.368,0.758,1.637
				c0.661,0.288,1.371-0.007,1.766-0.597c0.261-0.39,0.323-0.824,0.307-1.267c0.464,0.058,0.932,0.099,1.402,0.124
				c-0.047,0.448-0.147,0.89-0.023,1.35c0.162,0.612,0.721,1.191,1.373,1.191c0.651,0,1.21-0.58,1.374-1.191
				c0.122-0.455,0.024-0.895-0.022-1.34c0.47-0.025,0.937-0.066,1.399-0.123c-0.016,0.439,0.049,0.869,0.307,1.256
				c0.395,0.59,1.104,0.885,1.767,0.597c0.619-0.269,0.983-0.964,0.758-1.637c-0.091-0.271-0.26-0.491-0.471-0.674
				c0.478-0.132,0.946-0.285,1.404-0.469c0.105,0.235,0.237,0.456,0.422,0.644c0.434,0.441,1.118,0.627,1.679,0.337
				c0.582-0.302,0.859-1.039,0.542-1.648c-0.103-0.196-0.258-0.363-0.438-0.489c0.417-0.278,0.819-0.589,1.204-0.933
				c0.435,0.684,1.097,1.253,1.885,0.805c0.592-0.336,0.7-1.107,0.328-1.652c-0.198-0.289-0.482-0.522-0.781-0.716
				c0.253-0.353,0.471-0.718,0.654-1.094c0.762,0.356,1.711,0.592,2.118-0.336c0.253-0.58-0.06-1.192-0.588-1.45
				c-0.286-0.14-0.594-0.196-0.904-0.192c0.074-0.464,0.105-0.932,0.085-1.399c0.966-0.095,2.161-0.774,1.896-1.885
				c-0.169-0.709-0.9-0.971-1.525-0.753c-0.301,0.104-0.578,0.259-0.841,0.435c-0.092-0.24-0.194-0.479-0.314-0.713
				c0.89,0,1.779,0,2.668,0c0.06,0.068,0.127,0.132,0.216,0.186c2.781,1.686,2.753,5.235,1.566,7.944
				C279.379,17.78,277.313,20.161,275.073,22.048z"/>
			<path fill="none" d="M219.307,6.917L219.307,6.917c-0.751,2.21,0.742,4.759,3.224,4.759
				C220.048,11.676,218.556,9.127,219.307,6.917z"/>
			<path fill="none" d="M119.817,22.954c-0.468-1.029-0.99-2.014-1.438-3.033c0.004-0.008,0.008-0.015,0.011-0.022
				c0.45,1.027,0.978,2.019,1.449,3.056c0.915,2.016,1.823,6.323-1.45,6.705c-0.004,0-0.007-0.002-0.011-0.002
				C121.637,29.267,120.731,24.968,119.817,22.954z"/>
			<path fill="none" d="M232.491,6.917c0.011,0.016,0.019,0.033,0.03,0.049C232.509,6.95,232.502,6.933,232.491,6.917L232.491,6.917
				z"/>
			<path fill="none" d="M233.417,22.048c-3.728,3.142-8.348,5.311-10.887,9.609c-2.538-4.3-7.158-6.468-10.886-9.609
				c-2.333-1.966-4.574-4.529-5.699-7.447c-1.017-2.631-0.826-5.928,1.764-7.498c0.09-0.054,0.158-0.117,0.216-0.186
				c0.89,0,1.778,0,2.666,0c-0.139,0.271-0.253,0.551-0.354,0.831c-0.313-0.227-0.644-0.421-1.01-0.553
				c-0.633-0.229-1.345,0.052-1.525,0.753c-0.309,1.191,1.131,1.889,2.114,1.896c-0.021,0.468,0.007,0.936,0.082,1.397
				c-0.396-0.037-0.797,0.014-1.158,0.199c-0.511,0.265-0.792,0.876-0.549,1.434c0.438,1.001,1.508,0.648,2.293,0.251
				c0.175,0.374,0.384,0.739,0.627,1.09c-0.352,0.209-0.698,0.468-0.929,0.805c-0.372,0.545-0.264,1.316,0.327,1.652
				c0.834,0.475,1.528-0.189,1.959-0.924c0.397,0.364,0.812,0.689,1.239,0.982c-0.227,0.133-0.42,0.323-0.546,0.559
				c-0.327,0.605-0.034,1.351,0.542,1.648c0.561,0.29,1.244,0.105,1.678-0.337c0.205-0.209,0.345-0.458,0.455-0.725
				c0.518,0.214,1.049,0.396,1.591,0.543c-0.214,0.184-0.386,0.407-0.478,0.681c-0.227,0.673,0.139,1.368,0.758,1.637
				c0.662,0.288,1.37-0.007,1.765-0.597c0.261-0.39,0.324-0.824,0.307-1.267c0.464,0.058,0.932,0.099,1.402,0.124
				c-0.047,0.448-0.146,0.89-0.023,1.35c0.164,0.612,0.723,1.191,1.373,1.191c0.651,0,1.21-0.58,1.374-1.191
				c0.122-0.455,0.024-0.895-0.022-1.34c0.47-0.025,0.937-0.066,1.4-0.123c-0.016,0.439,0.049,0.869,0.308,1.256
				c0.394,0.59,1.103,0.885,1.765,0.597c0.619-0.269,0.984-0.964,0.758-1.637c-0.091-0.271-0.26-0.491-0.471-0.674
				c0.478-0.132,0.946-0.285,1.404-0.469c0.105,0.235,0.238,0.456,0.423,0.644c0.434,0.441,1.119,0.627,1.678,0.337
				c0.582-0.302,0.859-1.039,0.542-1.648c-0.102-0.196-0.258-0.363-0.438-0.489c0.417-0.278,0.819-0.589,1.205-0.933
				c0.434,0.684,1.097,1.253,1.885,0.805c0.591-0.336,0.699-1.107,0.327-1.652c-0.196-0.289-0.481-0.522-0.779-0.716
				c0.252-0.353,0.471-0.718,0.652-1.094c0.762,0.356,1.711,0.592,2.118-0.336c0.253-0.58-0.06-1.192-0.588-1.45
				c-0.286-0.14-0.594-0.196-0.903-0.192c0.073-0.464,0.105-0.932,0.084-1.399c0.967-0.095,2.162-0.774,1.896-1.885
				c-0.169-0.709-0.899-0.971-1.524-0.753c-0.302,0.104-0.578,0.259-0.842,0.435c-0.092-0.24-0.194-0.479-0.313-0.713
				c0.888,0,1.777,0,2.667,0c0.059,0.068,0.127,0.132,0.216,0.186c2.78,1.686,2.752,5.235,1.566,7.944
				C237.723,17.78,235.655,20.161,233.417,22.048z"/>
			<path fill="none" d="M233.527,9.229c-0.063-0.38-0.175-0.762-0.341-1.14C233.353,8.467,233.465,8.849,233.527,9.229z"/>
			<path fill="none" d="M215.311,12.5c1.66,2.097,4.662,3.007,7.22,3.007C219.973,15.507,216.97,14.597,215.311,12.5z"/>
			<path fill="none" d="M313.132,12.411c-1.637,2.165-4.702,3.096-7.286,3.096h-0.001c2.585,0,5.649-0.931,7.285-3.096
				c1.246-1.648,1.491-3.717,0.663-5.494h0.001C314.623,8.694,314.377,10.763,313.132,12.411z"/>
			<path fill="none" d="M214.581,6.917L214.581,6.917c-0.631,1.358-0.639,2.892-0.054,4.269
				C213.942,9.809,213.95,8.275,214.581,6.917z"/>
			<path fill="none" d="M230.529,15.185c-2.437,1.732-5.119,2.106-7.999,2.106c2.88,0,5.562-0.374,7.997-2.106
				c1.832-1.303,3.145-3.304,3.059-5.386C233.672,11.881,232.359,13.882,230.529,15.185z"/>
			<path fill="#8D183D" d="M31.541,23.438c-0.579,1.388-1.145,2.831-1.056,4.368c0.146,2.504,2.146,4.287,4.591,4.287
				c2.544,0,4.564-1.923,4.606-4.528c0.025-1.566-0.611-3.035-1.205-4.442c-0.744-1.766-1.541-3.507-2.345-5.244
				c-0.089-0.276-0.171-0.554-0.235-0.838c-0.188-0.835-1.454-0.834-1.644,0c-0.063,0.284-0.146,0.563-0.234,0.839
				C33.168,19.721,32.323,21.565,31.541,23.438z M33.626,22.954c0.473-1.035,1-2.028,1.45-3.056c0.451,1.027,0.979,2.019,1.45,3.056
				c0.914,2.016,1.822,6.323-1.45,6.705c0,0,0,0-0.001,0l0,0C31.792,29.275,32.71,24.966,33.626,22.954z"/>
			<path fill="#8D183D" d="M73.197,23.438c-0.578,1.388-1.145,2.831-1.055,4.368c0.146,2.504,2.145,4.287,4.591,4.287
				c2.544,0,4.564-1.923,4.606-4.528c0.024-1.566-0.611-3.035-1.205-4.442c-0.744-1.766-1.542-3.507-2.346-5.244
				c-0.089-0.276-0.171-0.554-0.235-0.838c-0.189-0.835-1.453-0.834-1.643,0c-0.064,0.284-0.146,0.563-0.235,0.839
				C74.824,19.721,73.979,21.565,73.197,23.438z M75.272,22.954c0.473-1.035,1-2.028,1.45-3.056
				c0.002,0.004,0.004,0.008,0.005,0.012c0.002-0.004,0.004-0.008,0.006-0.012c0.45,1.027,0.977,2.019,1.448,3.056
				c0.916,2.016,1.823,6.323-1.448,6.705c-0.002,0-0.004-0.001-0.006-0.001s-0.004,0.001-0.006,0.001
				C73.438,29.275,74.355,24.966,75.272,22.954z"/>
			<path fill="#8D183D" d="M114.854,23.438c-0.579,1.388-1.145,2.831-1.056,4.368c0.146,2.504,2.146,4.287,4.591,4.287
				c2.545,0,4.565-1.923,4.607-4.528c0.025-1.566-0.612-3.035-1.205-4.442c-0.743-1.766-1.542-3.507-2.345-5.244
				c-0.089-0.276-0.171-0.554-0.235-0.838c-0.189-0.835-1.455-0.834-1.644,0c-0.063,0.284-0.146,0.563-0.234,0.839
				C116.481,19.721,115.636,21.565,114.854,23.438z M116.919,22.954c0.473-1.035,0.999-2.028,1.449-3.056
				c0.003,0.008,0.007,0.015,0.011,0.022c0.004-0.008,0.008-0.015,0.011-0.022c0.45,1.027,0.978,2.019,1.449,3.056
				c0.915,2.016,1.823,6.323-1.45,6.705c-0.004,0-0.007-0.002-0.011-0.002s-0.007,0.002-0.011,0.002
				C115.084,29.275,116.002,24.966,116.919,22.954z"/>
			<path fill="#8D183D" d="M156.511,23.438c-0.579,1.388-1.146,2.831-1.056,4.368c0.146,2.504,2.146,4.287,4.591,4.287
				c2.544,0,4.564-1.923,4.606-4.528c0.025-1.566-0.611-3.035-1.204-4.442c-0.745-1.766-1.542-3.507-2.346-5.244
				c-0.089-0.276-0.171-0.554-0.234-0.838c-0.189-0.835-1.455-0.834-1.644,0c-0.064,0.284-0.146,0.563-0.236,0.839
				C158.137,19.721,157.293,21.565,156.511,23.438z M158.574,22.954c0.473-1.035,1-2.028,1.45-3.056
				c0.003,0.008,0.007,0.015,0.011,0.022c0.004-0.008,0.008-0.015,0.011-0.022c0.451,1.027,0.979,2.019,1.449,3.056
				c0.915,2.016,1.822,6.323-1.449,6.705c-0.004,0-0.007-0.002-0.011-0.002c-0.005,0-0.008,0.002-0.012,0.002
				C156.74,29.275,157.658,24.966,158.574,22.954z"/>
			<path fill="#8D183D" d="M198.167,23.438c-0.578,1.388-1.145,2.831-1.055,4.368c0.146,2.504,2.145,4.287,4.591,4.287
				c2.544,0,4.564-1.923,4.606-4.528c0.024-1.566-0.612-3.035-1.205-4.442c-0.744-1.766-1.542-3.507-2.346-5.244
				c-0.089-0.276-0.171-0.554-0.235-0.838c-0.189-0.835-1.453-0.834-1.643,0c-0.064,0.284-0.146,0.563-0.235,0.839
				C199.794,19.721,198.948,21.565,198.167,23.438z M200.221,22.954c0.473-1.035,1-2.028,1.45-3.056
				c0.005,0.012,0.011,0.022,0.017,0.034c0.005-0.012,0.011-0.022,0.016-0.034c0.451,1.027,0.978,2.019,1.448,3.056
				c0.916,2.016,1.823,6.323-1.448,6.705c-0.006-0.001-0.011-0.003-0.017-0.004c-0.006,0.001-0.011,0.003-0.017,0.004
				C198.386,29.275,199.304,24.966,200.221,22.954z"/>
			<path fill="#8D183D" d="M239.823,23.438c-0.578,1.388-1.145,2.831-1.055,4.368c0.146,2.504,2.145,4.287,4.59,4.287
				c2.545,0,4.565-1.923,4.607-4.528c0.025-1.566-0.612-3.035-1.205-4.442c-0.743-1.766-1.541-3.507-2.345-5.244
				c-0.089-0.276-0.172-0.554-0.235-0.838c-0.189-0.835-1.454-0.834-1.643,0c-0.064,0.284-0.146,0.563-0.235,0.839
				C241.451,19.721,240.605,21.565,239.823,23.438z M241.91,22.954c0.473-1.035,0.998-2.028,1.449-3.056
				c0.45,1.027,0.978,2.019,1.449,3.056c0.915,2.016,1.822,6.323-1.45,6.705C240.075,29.275,240.993,24.966,241.91,22.954z"/>
			<path fill="#8D183D" d="M281.48,23.438c-0.579,1.388-1.145,2.831-1.056,4.368c0.146,2.504,2.146,4.287,4.591,4.287
				c2.544,0,4.564-1.923,4.607-4.528c0.024-1.566-0.612-3.035-1.206-4.442c-0.743-1.766-1.541-3.507-2.345-5.244
				c-0.089-0.276-0.171-0.554-0.235-0.838c-0.188-0.835-1.454-0.834-1.643,0c-0.064,0.284-0.146,0.563-0.235,0.839
				C283.107,19.721,282.263,21.565,281.48,23.438z M283.229,23.804c0.106-0.311,0.222-0.599,0.336-0.85
				c0.473-1.035,1-2.028,1.45-3.056c0.451,1.027,0.979,2.019,1.45,3.056c0.914,2.016,1.822,6.323-1.45,6.705c0,0,0,0-0.001,0l0,0
				C282.142,29.323,282.485,25.981,283.229,23.804z"/>
			<path fill="#8D183D" d="M347.5,6.917v-1.75c-13.885,0-27.771,0-41.656,0s-27.771,0-41.656,0c-13.885,0-27.771,0-41.657,0
				c-13.885,0-27.771,0-41.656,0s-27.771,0-41.656,0s-27.771,0-41.657,0c-13.885,0-27.771,0-41.656,0c-13.886,0-27.771,0-41.656,0
				s-27.771,0-41.657,0v1.75c0.442,0,0.885,0,1.327,0c0.012,0.021,0.019,0.041,0.032,0.063c0.79,1.223,0.2,2.939-1.359,2.945v1.751
				c2.482,0,3.974-2.55,3.224-4.759c0.93,0,1.86,0,2.791,0c0.031,0.081,0.071,0.162,0.131,0.24c0.976,1.279,0.714,2.814-0.1,4.002
				c-0.147,0.217-0.314,0.421-0.495,0.61c-0.271,0.283-0.573,0.533-0.894,0.736c-1.3,0.826-3.152,1.251-4.657,1.251v1.75
				c2.585,0,5.65-0.931,7.287-3.096c0.312-0.412,0.561-0.851,0.744-1.304c0.556-1.36,0.539-2.857-0.083-4.19h0.001
				c0.67,0,1.34,0,2.011,0h0.001c0.011,0.016,0.018,0.033,0.03,0.049c0.279,0.369,0.5,0.744,0.665,1.123
				c0.166,0.378,0.278,0.76,0.341,1.14c0.032,0.19,0.051,0.381,0.059,0.57c0.086,2.082-1.227,4.083-3.058,5.386
				c-2.436,1.732-5.118,2.106-7.998,2.106v4.248c0.651,0,1.21-0.58,1.374-1.191c0.122-0.455,0.024-0.895-0.022-1.34
				c0.47-0.025,0.937-0.066,1.4-0.123c-0.016,0.439,0.049,0.869,0.308,1.256c0.394,0.59,1.103,0.885,1.765,0.597
				c0.619-0.269,0.984-0.964,0.758-1.637c-0.091-0.271-0.26-0.491-0.471-0.674c0.478-0.132,0.946-0.285,1.404-0.469
				c0.105,0.235,0.238,0.456,0.423,0.644c0.434,0.441,1.118,0.627,1.678,0.337c0.582-0.302,0.859-1.039,0.542-1.648
				c-0.102-0.196-0.258-0.363-0.438-0.489c0.417-0.278,0.819-0.589,1.204-0.933c0.435,0.684,1.098,1.253,1.886,0.805
				c0.591-0.336,0.699-1.107,0.327-1.652c-0.196-0.289-0.481-0.522-0.78-0.716c0.253-0.353,0.472-0.718,0.653-1.094
				c0.762,0.356,1.712,0.592,2.118-0.336c0.253-0.58-0.06-1.192-0.588-1.45c-0.286-0.14-0.594-0.196-0.904-0.192
				c0.074-0.464,0.106-0.932,0.085-1.399c0.967-0.095,2.162-0.774,1.896-1.885c-0.169-0.709-0.899-0.971-1.524-0.753
				c-0.302,0.104-0.578,0.259-0.842,0.435c-0.092-0.24-0.194-0.479-0.313-0.713c0.889,0,1.777,0,2.667,0
				c0.059,0.068,0.127,0.132,0.216,0.186c2.78,1.686,2.752,5.235,1.565,7.944c-1.195,2.733-3.263,5.114-5.501,7.001
				c-3.728,3.142-8.348,5.311-10.887,9.609v3.255c0.3,0,0.599-0.143,0.735-0.429c3.035-6.346,9.853-8.906,14.335-13.909
				c3.332-3.719,5.173-9.146,2.636-13.657c2.082,0,4.163,0,6.245,0c-2.538,4.511-0.695,9.938,2.637,13.657
				c4.482,5.003,11.3,7.563,14.333,13.909c0.137,0.286,0.437,0.429,0.736,0.429c0.299,0,0.599-0.143,0.735-0.429
				c3.033-6.346,9.852-8.906,14.334-13.909c3.332-3.719,5.174-9.146,2.637-13.657c2.081,0,4.163,0,6.244,0
				c-2.537,4.511-0.696,9.938,2.638,13.657c4.48,5.003,11.3,7.563,14.333,13.909c0.137,0.286,0.436,0.429,0.735,0.429
				s0.6-0.143,0.736-0.429c3.033-6.346,9.851-8.906,14.333-13.909c3.332-3.719,5.175-9.146,2.636-13.657c2.083,0,4.164,0,6.246,0
				c-2.539,4.511-0.696,9.938,2.636,13.657c4.482,5.003,11.3,7.563,14.334,13.909c0.137,0.286,0.437,0.429,0.735,0.429
				c0.3,0,0.6-0.143,0.736-0.429c3.033-6.346,9.852-8.906,14.334-13.909c3.331-3.719,5.173-9.146,2.636-13.657
				c2.082,0,4.164,0,6.246,0c-2.539,4.511-0.696,9.938,2.636,13.657c4.482,5.003,11.3,7.563,14.333,13.909
				c0.137,0.286,0.437,0.429,0.736,0.429c0.299,0,0.599-0.143,0.735-0.429c3.033-6.346,9.853-8.906,14.333-13.909
				c3.333-3.719,5.175-9.146,2.638-13.657c2.081,0,4.163,0,6.244,0c-2.537,4.511-0.696,9.938,2.637,13.657
				c4.481,5.003,11.301,7.563,14.334,13.909c0.137,0.286,0.437,0.429,0.735,0.429c0.3,0,0.6-0.143,0.736-0.429
				c3.033-6.346,9.851-8.906,14.333-13.909c3.332-3.719,5.175-9.146,2.636-13.657c2.082,0,4.164,0,6.246,0
				c-2.538,4.511-0.696,9.938,2.636,13.657c4.482,5.003,11.301,7.563,14.334,13.909c0.137,0.286,0.437,0.429,0.735,0.429
				c0.3,0,0.599-0.143,0.736-0.429c3.034-6.346,9.852-8.906,14.334-13.909c3.332-3.719,5.173-9.146,2.636-13.657
				c2.082,0,4.163,0,6.245,0c-2.538,4.511-0.695,9.938,2.637,13.657c4.482,5.003,11.3,7.563,14.333,13.909
				c0.137,0.286,0.437,0.429,0.736,0.429c0.299,0,0.599-0.143,0.735-0.429c3.033-6.346,9.853-8.906,14.333-13.909
				c3.333-3.719,5.175-9.146,2.638-13.657c2.081,0,4.163,0,6.244,0c-2.537,4.511-0.696,9.938,2.638,13.657
				c4.48,5.003,11.3,7.563,14.333,13.909c0.137,0.286,0.436,0.429,0.735,0.429s0.6-0.143,0.736-0.429
				c3.033-6.346,9.851-8.906,14.333-13.909c3.332-3.719,5.175-9.146,2.637-13.657c2.082,0,4.163,0,6.245,0
				c-2.538,4.511-0.696,9.938,2.636,13.657c4.482,5.003,11.3,7.563,14.334,13.909c0.137,0.286,0.437,0.429,0.735,0.429v-3.255
				c-2.538-4.3-7.157-6.468-10.886-9.609c-2.333-1.966-4.574-4.529-5.699-7.447c-1.016-2.631-0.826-5.928,1.764-7.498
				c0.089-0.054,0.157-0.117,0.216-0.186c0.89,0,1.778,0,2.666,0c-0.139,0.271-0.253,0.551-0.354,0.831
				c-0.313-0.227-0.644-0.421-1.01-0.553c-0.633-0.229-1.345,0.052-1.525,0.753c-0.309,1.191,1.131,1.889,2.114,1.896
				c-0.021,0.468,0.007,0.936,0.082,1.397c-0.396-0.037-0.797,0.014-1.157,0.199c-0.512,0.265-0.793,0.876-0.55,1.434
				c0.438,1.001,1.509,0.648,2.293,0.251c0.175,0.374,0.384,0.739,0.627,1.09c-0.352,0.209-0.699,0.468-0.929,0.805
				c-0.372,0.545-0.264,1.316,0.327,1.652c0.834,0.475,1.528-0.189,1.959-0.924c0.397,0.364,0.812,0.689,1.24,0.982
				c-0.228,0.133-0.42,0.323-0.547,0.559c-0.327,0.605-0.034,1.351,0.542,1.648c0.561,0.29,1.244,0.105,1.678-0.337
				c0.205-0.209,0.345-0.458,0.455-0.725c0.518,0.214,1.049,0.396,1.591,0.543c-0.214,0.184-0.386,0.407-0.478,0.681
				c-0.227,0.673,0.139,1.368,0.758,1.637c0.662,0.288,1.371-0.007,1.765-0.597c0.261-0.39,0.324-0.824,0.307-1.267
				c0.464,0.058,0.932,0.099,1.402,0.124c-0.047,0.448-0.146,0.89-0.023,1.35c0.164,0.612,0.723,1.191,1.373,1.191v-4.248
				c-0.002,0-0.002,0-0.004,0s-0.004,0-0.006,0c-2.892,0-5.545-0.37-7.998-2.106c-2.674-1.891-4.224-5.273-1.993-8.219
				c0.013-0.016,0.02-0.033,0.031-0.049c0.003,0,0.007,0,0.01,0c0.667,0,1.335,0,2.001,0c0.004,0,0.007,0,0.011,0
				c-0.843,1.812-0.576,3.933,0.729,5.583c1.658,2.096,4.658,3.006,7.215,3.007c0.002,0,0.002,0,0.004,0v-1.75
				c-0.002,0-0.002,0-0.004,0s-0.004,0-0.006,0c-1.53,0-3.334-0.423-4.657-1.251c-1.719-1.072-2.899-3.497-1.487-5.349
				c0.059-0.078,0.099-0.159,0.131-0.24c0.003,0,0.007,0,0.01,0c0.927,0,1.854,0,2.78,0c0.004,0,0.007,0,0.011,0
				c-0.752,2.208,0.739,4.755,3.219,4.759c0.002,0,0.002-0.001,0.004-0.001v-1.75c-1.563,0.006-2.143-1.732-1.358-2.945
				c0.014-0.021,0.021-0.042,0.032-0.063C346.616,6.917,347.059,6.917,347.5,6.917z M14.248,9.925
				c-1.563,0.006-2.144-1.732-1.359-2.945c0.013-0.021,0.021-0.042,0.031-0.063c0.442,0,0.885,0,1.328,0c0.442,0,0.885,0,1.327,0
				c0.011,0.021,0.019,0.041,0.032,0.063C16.397,8.202,15.808,9.919,14.248,9.925z M18.905,12.506
				c-1.302,0.826-3.152,1.251-4.657,1.251c-1.53,0-3.334-0.423-4.658-1.251c-1.718-1.072-2.898-3.497-1.486-5.349
				c0.059-0.078,0.099-0.159,0.131-0.24c0.93,0,1.859,0,2.79,0c-0.751,2.21,0.741,4.759,3.224,4.759s3.974-2.55,3.223-4.759
				c0.931,0,1.861,0,2.792,0c0.031,0.081,0.071,0.162,0.13,0.24C21.812,9.019,20.615,11.422,18.905,12.506z M22.245,15.185
				c-2.436,1.732-5.118,2.106-7.997,2.106c-2.892,0-5.545-0.37-7.998-2.106c-2.674-1.891-4.225-5.273-1.993-8.219
				C4.27,6.95,4.276,6.933,4.288,6.917c0.67,0,1.34,0,2.011,0C5.456,8.729,5.723,10.85,7.028,12.5
				c1.659,2.097,4.662,3.007,7.22,3.007c2.584,0,5.65-0.931,7.286-3.096c1.245-1.648,1.491-3.717,0.662-5.494
				c0.671,0,1.342,0,2.012,0c0.012,0.016,0.019,0.033,0.031,0.049C26.474,9.917,24.909,13.291,22.245,15.185z M30.636,15.047
				c-1.196,2.733-3.263,5.114-5.503,7.001c-3.728,3.142-8.347,5.311-10.885,9.609c-2.538-4.3-7.158-6.468-10.886-9.609
				c-2.334-1.966-4.574-4.529-5.701-7.447c-1.015-2.631-0.826-5.928,1.766-7.498c0.089-0.054,0.157-0.117,0.216-0.186
				c0.889,0,1.776,0,2.666,0C2.17,7.188,2.055,7.468,1.953,7.748C1.641,7.521,1.31,7.327,0.942,7.195
				C0.311,6.967-0.4,7.247-0.582,7.948C-0.89,9.14,0.549,9.837,1.531,9.845c-0.02,0.468,0.008,0.936,0.083,1.397
				c-0.396-0.037-0.798,0.014-1.157,0.199c-0.511,0.265-0.792,0.876-0.549,1.434c0.438,1.001,1.507,0.648,2.292,0.251
				c0.176,0.374,0.384,0.739,0.627,1.09c-0.351,0.209-0.698,0.468-0.929,0.805c-0.372,0.545-0.264,1.316,0.328,1.652
				c0.834,0.475,1.528-0.189,1.959-0.924c0.396,0.364,0.811,0.689,1.238,0.982c-0.227,0.133-0.42,0.323-0.546,0.559
				c-0.326,0.605-0.034,1.351,0.542,1.648c0.561,0.29,1.245,0.105,1.679-0.337c0.205-0.209,0.345-0.458,0.454-0.725
				c0.519,0.214,1.049,0.396,1.59,0.543c-0.214,0.184-0.385,0.407-0.477,0.681c-0.226,0.673,0.139,1.368,0.758,1.637
				c0.661,0.288,1.371-0.007,1.766-0.597c0.261-0.39,0.323-0.824,0.307-1.267c0.464,0.058,0.932,0.099,1.401,0.124
				c-0.047,0.448-0.146,0.89-0.024,1.35c0.164,0.612,0.723,1.191,1.375,1.191c0.65,0,1.21-0.58,1.374-1.191
				c0.122-0.455,0.024-0.895-0.022-1.34c0.469-0.025,0.937-0.066,1.399-0.123c-0.016,0.439,0.049,0.869,0.307,1.256
				c0.395,0.59,1.104,0.885,1.766,0.597c0.62-0.269,0.984-0.964,0.759-1.637c-0.091-0.271-0.26-0.491-0.471-0.674
				c0.478-0.132,0.946-0.285,1.404-0.469c0.104,0.235,0.237,0.456,0.422,0.644c0.433,0.441,1.118,0.627,1.679,0.337
				c0.582-0.302,0.859-1.039,0.542-1.648c-0.103-0.196-0.258-0.363-0.438-0.489c0.417-0.278,0.818-0.589,1.204-0.933
				c0.435,0.684,1.096,1.253,1.884,0.805c0.593-0.336,0.701-1.107,0.329-1.652c-0.198-0.289-0.482-0.522-0.781-0.716
				c0.253-0.353,0.471-0.718,0.654-1.094c0.762,0.356,1.712,0.592,2.117-0.336c0.254-0.58-0.059-1.192-0.587-1.45
				c-0.286-0.14-0.594-0.196-0.904-0.192c0.074-0.464,0.105-0.932,0.084-1.399c0.968-0.095,2.162-0.774,1.897-1.885
				c-0.169-0.709-0.9-0.971-1.525-0.753C27.04,7.3,26.763,7.454,26.5,7.63c-0.092-0.24-0.194-0.479-0.314-0.713
				c0.89,0,1.779,0,2.668,0c0.059,0.068,0.126,0.132,0.215,0.186C31.851,8.788,31.821,12.338,30.636,15.047z M55.904,9.925
				c-1.563,0.006-2.144-1.732-1.359-2.945c0.014-0.021,0.021-0.042,0.032-0.063c0.442,0,0.885,0,1.327,0s0.885,0,1.326,0
				c0.012,0.021,0.02,0.041,0.033,0.063C58.053,8.202,57.464,9.919,55.904,9.925z M60.563,12.506
				c-1.302,0.826-3.153,1.251-4.657,1.251h-0.001h-0.001c-1.53,0-3.333-0.423-4.657-1.251c-1.719-1.072-2.899-3.497-1.487-5.349
				c0.059-0.078,0.099-0.159,0.13-0.24c0.001,0,0.001,0,0.002,0c0.93,0,1.86,0,2.79,0h0.001c-0.751,2.21,0.739,4.758,3.223,4.759
				c2.48-0.001,3.974-2.55,3.222-4.759c0.001,0,0.001,0,0.002,0c0.93,0,1.86,0,2.789,0c0.001,0,0.001,0,0.002,0
				c0.031,0.081,0.071,0.162,0.13,0.24C63.47,9.019,62.272,11.422,60.563,12.506z M63.903,15.185
				c-2.437,1.732-5.118,2.106-7.997,2.106h-0.001h-0.001c-2.891,0-5.545-0.37-7.998-2.106c-2.674-1.891-4.224-5.273-1.993-8.219
				c0.013-0.016,0.02-0.033,0.03-0.049c0.001,0,0.001,0,0.002,0c0.67,0,1.341,0,2.011,0h0.001c-0.843,1.812-0.576,3.933,0.729,5.583
				c1.658,2.097,4.66,3.007,7.219,3.007c2.584,0,5.649-0.931,7.285-3.096c1.245-1.648,1.491-3.717,0.663-5.494h0.001
				c0.671,0,1.341,0,2.01,0h0.001c0.012,0.016,0.019,0.033,0.031,0.049C68.132,9.917,66.567,13.291,63.903,15.185z M72.293,15.047
				c-1.197,2.733-3.263,5.114-5.503,7.001c-3.728,3.142-8.348,5.311-10.886,9.609c-2.539-4.3-7.157-6.468-10.886-9.609
				c-2.334-1.966-4.574-4.529-5.7-7.447c-1.016-2.631-0.826-5.928,1.764-7.498c0.09-0.054,0.158-0.117,0.217-0.186
				c0.889,0,1.777,0,2.666,0c-0.139,0.271-0.253,0.551-0.354,0.831c-0.313-0.227-0.645-0.421-1.011-0.553
				c-0.633-0.229-1.345,0.052-1.525,0.753c-0.307,1.191,1.131,1.889,2.114,1.896c-0.021,0.468,0.007,0.936,0.082,1.397
				c-0.396-0.037-0.797,0.014-1.157,0.199c-0.512,0.265-0.793,0.876-0.549,1.434c0.438,1.001,1.508,0.648,2.293,0.251
				c0.175,0.374,0.384,0.739,0.627,1.09c-0.352,0.209-0.698,0.468-0.929,0.805c-0.373,0.545-0.265,1.316,0.328,1.652
				c0.833,0.475,1.526-0.189,1.957-0.924c0.397,0.364,0.813,0.689,1.24,0.982c-0.228,0.133-0.42,0.323-0.547,0.559
				c-0.327,0.605-0.034,1.351,0.542,1.648c0.562,0.29,1.245,0.105,1.679-0.337c0.205-0.209,0.344-0.458,0.454-0.725
				c0.519,0.214,1.049,0.396,1.591,0.543c-0.214,0.184-0.386,0.407-0.478,0.681c-0.227,0.673,0.139,1.368,0.758,1.637
				c0.662,0.288,1.372-0.007,1.767-0.597c0.261-0.39,0.322-0.824,0.306-1.267c0.463,0.058,0.931,0.099,1.401,0.124
				c-0.046,0.448-0.146,0.89-0.023,1.35c0.164,0.612,0.723,1.191,1.374,1.191s1.21-0.58,1.373-1.191
				c0.122-0.455,0.025-0.895-0.022-1.34c0.47-0.025,0.938-0.066,1.4-0.123c-0.015,0.439,0.049,0.869,0.308,1.256
				c0.395,0.59,1.104,0.885,1.766,0.597c0.619-0.269,0.983-0.964,0.757-1.637c-0.091-0.271-0.26-0.491-0.469-0.674
				c0.476-0.132,0.944-0.285,1.403-0.469c0.104,0.235,0.237,0.456,0.422,0.644c0.434,0.441,1.119,0.627,1.679,0.337
				c0.582-0.302,0.858-1.039,0.543-1.648c-0.103-0.196-0.258-0.363-0.438-0.489c0.418-0.278,0.818-0.589,1.204-0.933
				c0.434,0.684,1.097,1.253,1.885,0.805c0.592-0.336,0.701-1.107,0.328-1.652c-0.197-0.289-0.482-0.522-0.781-0.716
				c0.253-0.353,0.472-0.718,0.654-1.094c0.762,0.356,1.711,0.592,2.117-0.336c0.253-0.58-0.06-1.192-0.587-1.45
				c-0.286-0.14-0.594-0.196-0.903-0.192c0.073-0.464,0.105-0.932,0.084-1.399c0.966-0.095,2.162-0.774,1.896-1.885
				c-0.17-0.709-0.9-0.971-1.524-0.753C68.697,7.3,68.42,7.454,68.157,7.63c-0.093-0.24-0.195-0.479-0.314-0.713
				c0.89,0,1.777,0,2.667,0c0.059,0.068,0.127,0.132,0.216,0.186C73.506,8.788,73.478,12.338,72.293,15.047z M97.561,9.925
				c-1.563,0.006-2.143-1.732-1.358-2.945c0.014-0.021,0.021-0.042,0.032-0.063c0.442,0,0.885,0,1.326,0c0.442,0,0.885,0,1.327,0
				c0.012,0.021,0.019,0.041,0.032,0.063C99.71,8.202,99.12,9.919,97.561,9.925z M102.218,12.506
				c-1.3,0.826-3.152,1.251-4.657,1.251c-0.003,0-0.007-0.001-0.011-0.001s-0.008,0.001-0.011,0.001
				c-1.53,0-3.334-0.423-4.657-1.251c-1.719-1.072-2.899-3.497-1.487-5.349c0.059-0.078,0.099-0.159,0.131-0.24
				c0.007,0,0.015,0,0.021,0c0.923,0,1.847,0,2.769,0c0.008,0,0.015,0,0.022,0c-0.751,2.207,0.736,4.751,3.212,4.758
				c2.476-0.007,3.962-2.552,3.213-4.758c0.007,0,0.015,0,0.021,0c0.923,0,1.846,0,2.77,0c0.007,0,0.015,0,0.021,0
				c0.031,0.081,0.071,0.162,0.131,0.24C105.126,9.019,103.928,11.422,102.218,12.506z M105.559,15.185
				c-2.436,1.732-5.118,2.106-7.998,2.106c-0.004,0-0.007,0-0.011,0s-0.007,0-0.011,0c-2.892,0-5.545-0.37-7.998-2.106
				c-2.674-1.891-4.224-5.273-1.993-8.219c0.013-0.016,0.02-0.033,0.031-0.049c0.007,0,0.015,0,0.021,0c0.663,0,1.327,0,1.989,0
				c0.008,0,0.015,0,0.022,0c-0.843,1.812-0.576,3.933,0.729,5.583c1.658,2.094,4.653,3.004,7.209,3.006
				c2.583-0.002,5.642-0.933,7.276-3.095c1.244-1.648,1.49-3.717,0.662-5.494c0.008,0,0.015,0,0.021,0c0.662,0,1.326,0,1.989,0
				c0.008,0,0.015,0,0.022,0c0.011,0.016,0.019,0.033,0.03,0.049C109.787,9.917,108.224,13.291,105.559,15.185z M113.948,15.047
				c-1.195,2.733-3.263,5.114-5.501,7.001c-3.728,3.142-8.348,5.311-10.887,9.609c-2.538-4.3-7.158-6.468-10.886-9.609
				c-2.333-1.966-4.574-4.529-5.699-7.447c-1.016-2.631-0.826-5.928,1.764-7.498c0.089-0.054,0.157-0.117,0.216-0.186
				c0.889,0,1.778,0,2.666,0c-0.139,0.271-0.254,0.551-0.354,0.831c-0.313-0.227-0.644-0.421-1.01-0.553
				c-0.633-0.229-1.345,0.052-1.525,0.753c-0.309,1.191,1.131,1.889,2.114,1.896c-0.021,0.468,0.007,0.936,0.082,1.397
				c-0.396-0.037-0.798,0.014-1.158,0.199c-0.511,0.265-0.792,0.876-0.549,1.434c0.438,1.001,1.508,0.648,2.293,0.251
				c0.175,0.374,0.383,0.739,0.626,1.09c-0.351,0.209-0.698,0.468-0.928,0.805c-0.372,0.545-0.264,1.316,0.327,1.652
				c0.834,0.475,1.528-0.189,1.959-0.924c0.397,0.364,0.812,0.689,1.239,0.982c-0.227,0.133-0.419,0.323-0.546,0.559
				c-0.327,0.605-0.034,1.351,0.542,1.648c0.561,0.29,1.244,0.105,1.678-0.337c0.205-0.209,0.345-0.458,0.455-0.725
				c0.518,0.214,1.049,0.396,1.591,0.543c-0.214,0.184-0.386,0.407-0.478,0.681c-0.227,0.673,0.139,1.368,0.758,1.637
				c0.662,0.288,1.371-0.007,1.765-0.597c0.261-0.39,0.324-0.824,0.307-1.267c0.464,0.058,0.932,0.099,1.402,0.124
				c-0.047,0.448-0.146,0.89-0.023,1.35c0.164,0.612,0.723,1.191,1.373,1.191c0.651,0,1.21-0.58,1.374-1.191
				c0.122-0.455,0.024-0.895-0.022-1.34c0.47-0.025,0.937-0.066,1.4-0.123c-0.016,0.439,0.049,0.869,0.308,1.256
				c0.395,0.59,1.103,0.885,1.765,0.597c0.619-0.269,0.984-0.964,0.758-1.637c-0.091-0.271-0.26-0.491-0.47-0.674
				c0.477-0.132,0.945-0.285,1.403-0.469c0.105,0.235,0.238,0.456,0.423,0.644c0.434,0.441,1.118,0.627,1.678,0.337
				c0.582-0.302,0.859-1.039,0.542-1.648c-0.102-0.196-0.258-0.363-0.438-0.489c0.417-0.278,0.819-0.589,1.205-0.933
				c0.434,0.684,1.097,1.253,1.884,0.805c0.592-0.336,0.7-1.107,0.328-1.652c-0.196-0.289-0.481-0.522-0.78-0.716
				c0.253-0.353,0.471-0.718,0.654-1.094c0.761,0.356,1.711,0.592,2.117-0.336c0.253-0.58-0.06-1.192-0.588-1.45
				c-0.286-0.14-0.594-0.196-0.904-0.192c0.074-0.464,0.106-0.932,0.084-1.399c0.968-0.095,2.163-0.774,1.898-1.885
				c-0.17-0.709-0.9-0.971-1.526-0.753c-0.301,0.104-0.577,0.259-0.841,0.435c-0.092-0.24-0.194-0.479-0.313-0.713
				c0.888,0,1.777,0,2.667,0c0.058,0.068,0.126,0.132,0.216,0.186C115.163,8.788,115.135,12.338,113.948,15.047z M139.218,9.925
				c-1.563,0.006-2.143-1.732-1.36-2.945c0.014-0.021,0.021-0.042,0.033-0.063c0.442,0,0.885,0,1.327,0s0.885,0,1.327,0
				c0.012,0.021,0.019,0.041,0.032,0.063C141.367,8.202,140.777,9.919,139.218,9.925z M143.875,12.506
				c-1.301,0.826-3.152,1.251-4.657,1.251c-0.004,0-0.008-0.001-0.011-0.001s-0.007,0.001-0.011,0.001
				c-1.53,0-3.334-0.423-4.658-1.251c-1.718-1.072-2.898-3.497-1.486-5.349c0.059-0.078,0.099-0.159,0.131-0.24
				c0.007,0,0.015,0,0.021,0c0.923,0,1.846,0,2.769,0c0.007,0,0.015,0,0.021,0c-0.751,2.207,0.737,4.751,3.213,4.758
				c2.476-0.007,3.962-2.552,3.212-4.758c0.007,0,0.014,0,0.021,0c0.925,0,1.848,0,2.771,0c0.007,0,0.014,0,0.021,0
				c0.032,0.081,0.072,0.162,0.131,0.24C146.781,9.019,145.585,11.422,143.875,12.506z M147.216,15.185
				c-2.436,1.732-5.119,2.106-7.998,2.106c-0.004,0-0.007,0-0.011,0s-0.007,0-0.011,0c-2.892,0-5.545-0.37-7.998-2.106
				c-2.674-1.891-4.225-5.273-1.993-8.219c0.013-0.016,0.02-0.033,0.031-0.049c0.007,0,0.015,0,0.021,0c0.662,0,1.326,0,1.989,0
				c0.008,0,0.015,0,0.022,0c-0.844,1.812-0.577,3.933,0.729,5.583c1.657,2.094,4.653,3.004,7.209,3.006
				c2.583-0.002,5.642-0.933,7.275-3.095c1.245-1.648,1.491-3.717,0.662-5.494c0.008,0,0.015,0,0.022,0c0.662,0,1.326,0,1.989,0
				c0.008,0,0.015,0,0.022,0c0.011,0.016,0.018,0.033,0.03,0.049C151.443,9.917,149.879,13.291,147.216,15.185z M155.605,15.047
				c-1.196,2.733-3.263,5.114-5.502,7.001c-3.728,3.142-8.347,5.311-10.886,9.609c-2.538-4.3-7.158-6.468-10.886-9.609
				c-2.334-1.966-4.574-4.529-5.7-7.447c-1.016-2.631-0.827-5.928,1.765-7.498c0.089-0.054,0.157-0.117,0.216-0.186
				c0.889,0,1.777,0,2.666,0c-0.139,0.271-0.254,0.551-0.355,0.831c-0.313-0.227-0.644-0.421-1.011-0.553
				c-0.632-0.229-1.343,0.052-1.524,0.753c-0.308,1.191,1.131,1.889,2.113,1.896c-0.02,0.468,0.008,0.936,0.082,1.397
				c-0.395-0.037-0.797,0.014-1.156,0.199c-0.511,0.265-0.793,0.876-0.549,1.434c0.438,1.001,1.507,0.648,2.292,0.251
				c0.176,0.374,0.384,0.739,0.627,1.09c-0.351,0.209-0.698,0.468-0.929,0.805c-0.373,0.545-0.264,1.316,0.328,1.652
				c0.834,0.475,1.528-0.189,1.959-0.924c0.397,0.364,0.811,0.689,1.238,0.982c-0.228,0.133-0.42,0.323-0.547,0.559
				c-0.325,0.605-0.033,1.351,0.543,1.648c0.561,0.29,1.245,0.105,1.679-0.337c0.204-0.209,0.345-0.458,0.455-0.725
				c0.518,0.214,1.048,0.396,1.589,0.543c-0.213,0.184-0.384,0.407-0.476,0.681c-0.227,0.673,0.137,1.368,0.757,1.637
				c0.661,0.288,1.371-0.007,1.766-0.597c0.261-0.39,0.323-0.824,0.307-1.267c0.463,0.058,0.931,0.099,1.401,0.124
				c-0.047,0.448-0.146,0.89-0.024,1.35c0.164,0.612,0.723,1.191,1.375,1.191c0.65,0,1.21-0.58,1.374-1.191
				c0.122-0.455,0.024-0.895-0.022-1.34c0.469-0.025,0.937-0.066,1.399-0.123c-0.016,0.439,0.049,0.869,0.307,1.256
				c0.395,0.59,1.104,0.885,1.766,0.597c0.62-0.269,0.985-0.964,0.759-1.637c-0.091-0.271-0.261-0.491-0.471-0.674
				c0.478-0.132,0.946-0.285,1.404-0.469c0.104,0.235,0.237,0.456,0.422,0.644c0.433,0.441,1.119,0.627,1.679,0.337
				c0.582-0.302,0.859-1.039,0.542-1.648c-0.103-0.196-0.258-0.363-0.438-0.489c0.418-0.278,0.819-0.589,1.205-0.933
				c0.435,0.684,1.096,1.253,1.885,0.805c0.592-0.336,0.7-1.107,0.328-1.652c-0.198-0.289-0.483-0.522-0.781-0.716
				c0.253-0.353,0.471-0.718,0.654-1.094c0.762,0.356,1.711,0.592,2.117-0.336c0.254-0.58-0.059-1.192-0.587-1.45
				c-0.286-0.14-0.594-0.196-0.904-0.192c0.074-0.464,0.105-0.932,0.084-1.399c0.967-0.095,2.162-0.774,1.897-1.885
				c-0.169-0.709-0.899-0.971-1.525-0.753c-0.301,0.104-0.578,0.259-0.841,0.435c-0.093-0.24-0.195-0.479-0.314-0.713
				c0.89,0,1.778,0,2.668,0c0.059,0.068,0.126,0.132,0.216,0.186C156.82,8.788,156.792,12.338,155.605,15.047z M180.874,9.925
				c-1.563,0.006-2.144-1.732-1.359-2.945c0.014-0.021,0.021-0.042,0.033-0.063c0.442,0,0.884,0,1.326,0s0.885,0,1.326,0
				c0.012,0.021,0.02,0.041,0.033,0.063C183.023,8.202,182.434,9.919,180.874,9.925z M185.532,12.506
				c-1.302,0.826-3.153,1.251-4.658,1.251c-0.003,0-0.007-0.001-0.01-0.001s-0.007,0.001-0.01,0.001
				c-1.531,0-3.334-0.423-4.658-1.251c-1.719-1.072-2.898-3.497-1.487-5.349c0.059-0.078,0.099-0.159,0.131-0.24
				c0.007,0,0.013,0,0.02,0c0.924,0,1.848,0,2.771,0c0.007,0,0.014,0,0.021,0c-0.751,2.207,0.736,4.751,3.213,4.758
				c2.476-0.007,3.963-2.552,3.213-4.758c0.007,0,0.013,0,0.02,0c0.924,0,1.849,0,2.771,0c0.007,0,0.013,0,0.02,0
				c0.031,0.081,0.071,0.162,0.131,0.24C188.438,9.019,187.241,11.422,185.532,12.506z M188.872,15.185
				c-2.437,1.732-5.118,2.106-7.998,2.106c-0.003,0-0.007,0-0.01,0s-0.007,0-0.01,0c-2.892,0-5.546-0.37-7.998-2.106
				c-2.675-1.891-4.225-5.273-1.994-8.219c0.013-0.016,0.02-0.033,0.031-0.049c0.007,0,0.013,0,0.02,0c0.664,0,1.328,0,1.992,0
				c0.007,0,0.014,0,0.021,0c-0.843,1.812-0.577,3.933,0.729,5.583c1.656,2.094,4.653,3.004,7.209,3.007
				c2.582-0.003,5.642-0.934,7.276-3.096c1.245-1.648,1.491-3.717,0.662-5.494c0.007,0,0.014,0,0.021,0c0.664,0,1.328,0,1.99,0
				c0.007,0,0.014,0,0.021,0c0.012,0.016,0.019,0.033,0.031,0.049C193.101,9.917,191.536,13.291,188.872,15.185z M197.263,15.047
				c-1.196,2.733-3.263,5.114-5.503,7.001c-3.728,3.142-8.348,5.311-10.886,9.609c-2.539-4.3-7.157-6.468-10.886-9.609
				c-2.333-1.966-4.574-4.529-5.7-7.447c-1.016-2.631-0.826-5.928,1.765-7.498c0.089-0.054,0.157-0.117,0.216-0.186
				c0.889,0,1.777,0,2.667,0c-0.139,0.271-0.254,0.551-0.355,0.831c-0.313-0.227-0.645-0.421-1.011-0.553
				c-0.633-0.229-1.345,0.052-1.524,0.753c-0.309,1.191,1.13,1.889,2.113,1.896c-0.02,0.468,0.008,0.936,0.082,1.397
				c-0.396-0.037-0.797,0.014-1.157,0.199c-0.512,0.265-0.793,0.876-0.549,1.434c0.438,1.001,1.508,0.648,2.293,0.251
				c0.176,0.374,0.384,0.739,0.627,1.09c-0.351,0.209-0.698,0.468-0.929,0.805c-0.373,0.545-0.265,1.316,0.328,1.652
				c0.834,0.475,1.527-0.189,1.957-0.924c0.397,0.364,0.812,0.689,1.24,0.982c-0.228,0.133-0.42,0.323-0.547,0.559
				c-0.326,0.605-0.034,1.351,0.543,1.648c0.56,0.29,1.244,0.105,1.678-0.337c0.205-0.209,0.344-0.458,0.454-0.725
				c0.519,0.214,1.049,0.396,1.591,0.543c-0.214,0.184-0.386,0.407-0.478,0.681c-0.227,0.673,0.139,1.368,0.758,1.637
				c0.662,0.288,1.372-0.007,1.767-0.597c0.261-0.39,0.322-0.824,0.307-1.267c0.462,0.058,0.93,0.099,1.4,0.124
				c-0.047,0.448-0.146,0.89-0.023,1.35c0.164,0.612,0.723,1.191,1.374,1.191s1.211-0.58,1.373-1.191
				c0.123-0.455,0.024-0.895-0.021-1.34c0.469-0.025,0.936-0.066,1.399-0.123c-0.016,0.439,0.049,0.869,0.308,1.256
				c0.395,0.59,1.104,0.885,1.766,0.597c0.619-0.269,0.983-0.964,0.757-1.637c-0.091-0.271-0.26-0.491-0.469-0.674
				c0.476-0.132,0.944-0.285,1.403-0.469c0.104,0.235,0.238,0.456,0.423,0.644c0.433,0.441,1.118,0.627,1.678,0.337
				c0.582-0.302,0.858-1.039,0.542-1.648c-0.102-0.196-0.258-0.363-0.438-0.489c0.417-0.278,0.818-0.589,1.204-0.933
				c0.434,0.684,1.097,1.253,1.885,0.805c0.593-0.336,0.701-1.107,0.328-1.652c-0.197-0.289-0.482-0.522-0.78-0.716
				c0.253-0.353,0.471-0.718,0.653-1.094c0.763,0.356,1.711,0.592,2.117-0.336c0.253-0.58-0.059-1.192-0.588-1.45
				c-0.285-0.14-0.593-0.196-0.902-0.192c0.073-0.464,0.105-0.932,0.084-1.399c0.966-0.095,2.162-0.774,1.896-1.885
				c-0.17-0.709-0.9-0.971-1.524-0.753c-0.301,0.104-0.578,0.259-0.841,0.435c-0.093-0.24-0.195-0.479-0.314-0.713
				c0.89,0,1.777,0,2.667,0c0.059,0.068,0.127,0.132,0.216,0.186C198.476,8.788,198.447,12.338,197.263,15.047z M222.53,9.925
				c-1.563,0.006-2.143-1.732-1.358-2.945c0.014-0.021,0.021-0.042,0.032-0.063c0.442,0,0.885,0,1.326,0c0.442,0,0.885,0,1.327,0
				c0.012,0.021,0.019,0.041,0.032,0.063C224.681,8.202,224.091,9.919,222.53,9.925z M227.188,12.506
				c-1.3,0.826-3.152,1.251-4.657,1.251c-1.53,0-3.334-0.423-4.657-1.251c-1.504-0.938-2.596-2.912-1.899-4.631
				c0.1-0.246,0.235-0.486,0.412-0.718c0.06-0.078,0.1-0.159,0.131-0.24c0.931,0,1.86,0,2.79,0h0.001
				c-0.752,2.21,0.741,4.759,3.223,4.759c2.482,0,3.974-2.55,3.224-4.759c0.93,0,1.86,0,2.791,0c0.031,0.081,0.071,0.162,0.13,0.24
				C230.095,9.019,228.897,11.422,227.188,12.506z M233.586,9.799c0.086,2.082-1.227,4.083-3.057,5.386
				c-2.437,1.732-5.119,2.106-7.999,2.106c-2.53,0-4.878-0.283-7.068-1.518c-0.313-0.176-0.623-0.372-0.93-0.589
				c-2.674-1.891-4.224-5.273-1.993-8.219c0.013-0.016,0.02-0.033,0.031-0.049c0.671,0,1.341,0,2.011,0h0.001
				c-0.632,1.358-0.64,2.892-0.055,4.269c0.195,0.46,0.457,0.901,0.783,1.314c1.66,2.097,4.662,3.007,7.22,3.007
				c2.585,0,5.65-0.931,7.287-3.096c0.312-0.412,0.561-0.851,0.745-1.304c0.555-1.36,0.538-2.857-0.083-4.19h0.001
				c0.67,0,1.339,0,2.01,0h0.001c0.011,0.016,0.019,0.033,0.03,0.049c0.279,0.369,0.5,0.744,0.665,1.123
				c0.166,0.378,0.278,0.76,0.341,1.14C233.56,9.419,233.578,9.609,233.586,9.799z M238.919,15.047
				c-1.196,2.733-3.264,5.114-5.502,7.001c-3.728,3.142-8.348,5.311-10.887,9.609c-2.538-4.3-7.158-6.468-10.886-9.609
				c-2.333-1.966-4.574-4.529-5.699-7.447c-1.017-2.631-0.826-5.928,1.764-7.498c0.09-0.054,0.158-0.117,0.216-0.186
				c0.89,0,1.778,0,2.666,0c-0.139,0.271-0.253,0.551-0.354,0.831c-0.313-0.227-0.644-0.421-1.01-0.553
				c-0.633-0.229-1.345,0.052-1.525,0.753c-0.309,1.191,1.131,1.889,2.114,1.896c-0.021,0.468,0.007,0.936,0.082,1.397
				c-0.396-0.037-0.797,0.014-1.158,0.199c-0.511,0.265-0.792,0.876-0.549,1.434c0.438,1.001,1.508,0.648,2.293,0.251
				c0.175,0.374,0.384,0.739,0.627,1.09c-0.352,0.209-0.698,0.468-0.929,0.805c-0.372,0.545-0.264,1.316,0.327,1.652
				c0.834,0.475,1.528-0.189,1.959-0.924c0.397,0.364,0.812,0.689,1.239,0.982c-0.227,0.133-0.42,0.323-0.546,0.559
				c-0.327,0.605-0.034,1.351,0.542,1.648c0.561,0.29,1.244,0.105,1.678-0.337c0.205-0.209,0.345-0.458,0.455-0.725
				c0.518,0.214,1.049,0.396,1.591,0.543c-0.214,0.184-0.386,0.407-0.478,0.681c-0.227,0.673,0.139,1.368,0.758,1.637
				c0.662,0.288,1.37-0.007,1.765-0.597c0.261-0.39,0.324-0.824,0.307-1.267c0.464,0.058,0.932,0.099,1.402,0.124
				c-0.047,0.448-0.146,0.89-0.023,1.35c0.164,0.612,0.723,1.191,1.373,1.191c0.651,0,1.21-0.58,1.374-1.191
				c0.122-0.455,0.024-0.895-0.022-1.34c0.47-0.025,0.937-0.066,1.4-0.123c-0.016,0.439,0.049,0.869,0.308,1.256
				c0.394,0.59,1.103,0.885,1.765,0.597c0.619-0.269,0.984-0.964,0.758-1.637c-0.091-0.271-0.26-0.491-0.471-0.674
				c0.478-0.132,0.946-0.285,1.404-0.469c0.105,0.235,0.238,0.456,0.423,0.644c0.434,0.441,1.119,0.627,1.678,0.337
				c0.582-0.302,0.859-1.039,0.542-1.648c-0.102-0.196-0.258-0.363-0.438-0.489c0.417-0.278,0.819-0.589,1.205-0.933
				c0.434,0.684,1.097,1.253,1.885,0.805c0.591-0.336,0.699-1.107,0.327-1.652c-0.196-0.289-0.481-0.522-0.779-0.716
				c0.252-0.353,0.471-0.718,0.652-1.094c0.762,0.356,1.711,0.592,2.118-0.336c0.253-0.58-0.06-1.192-0.588-1.45
				c-0.286-0.14-0.594-0.196-0.903-0.192c0.073-0.464,0.105-0.932,0.084-1.399c0.967-0.095,2.162-0.774,1.896-1.885
				c-0.169-0.709-0.899-0.971-1.524-0.753c-0.302,0.104-0.578,0.259-0.842,0.435c-0.092-0.24-0.194-0.479-0.313-0.713
				c0.888,0,1.777,0,2.667,0c0.059,0.068,0.127,0.132,0.216,0.186C240.133,8.788,240.104,12.338,238.919,15.047z M264.188,9.925
				c-1.563,0.006-2.144-1.732-1.359-2.945c0.014-0.021,0.021-0.042,0.033-0.063c0.441,0,0.884,0,1.326,0s0.885,0,1.327,0
				c0.012,0.021,0.019,0.041,0.032,0.063C266.337,8.202,265.747,9.919,264.188,9.925z M268.845,12.506
				c-1.301,0.826-3.152,1.251-4.657,1.251c-1.53,0-3.334-0.423-4.658-1.251c-1.503-0.938-2.595-2.912-1.898-4.631
				c0.1-0.246,0.235-0.486,0.412-0.718c0.059-0.078,0.099-0.159,0.131-0.24c0.93,0,1.859,0,2.79,0h0.001
				c-0.517,1.52,0.026,3.198,1.224,4.1c0.545,0.41,1.223,0.659,1.999,0.659c2.482,0,3.974-2.55,3.223-4.759c0.931,0,1.861,0,2.792,0
				c0.031,0.081,0.071,0.162,0.13,0.24C271.751,9.019,270.555,11.422,268.845,12.506z M275.242,9.799
				c0.086,2.082-1.225,4.083-3.057,5.386c-1.827,1.3-3.793,1.835-5.876,2.021c-0.694,0.063-1.402,0.086-2.122,0.086
				c-2.892,0-5.545-0.37-7.998-2.106c-2.674-1.891-4.225-5.273-1.993-8.219c0.013-0.016,0.02-0.033,0.031-0.049
				c0.67,0,1.341,0,2.011,0c-0.843,1.812-0.576,3.933,0.729,5.583c1.66,2.097,4.662,3.007,7.22,3.007
				c2.585,0,5.65-0.931,7.286-3.096c0.155-0.206,0.296-0.419,0.42-0.637c0.621-1.089,0.849-2.307,0.663-3.48
				c-0.073-0.47-0.214-0.933-0.421-1.377h0.001c0.67,0,1.34,0,2.011,0h0.001c0.011,0.016,0.018,0.033,0.03,0.049
				c0.279,0.369,0.499,0.744,0.665,1.123c0.165,0.378,0.277,0.76,0.34,1.14C275.216,9.419,275.235,9.609,275.242,9.799z
				 M280.575,15.047c-1.196,2.733-3.263,5.114-5.502,7.001c-3.729,3.142-8.348,5.311-10.886,9.609
				c-2.538-4.3-7.158-6.468-10.886-9.609c-2.334-1.966-4.574-4.529-5.701-7.447c-1.015-2.631-0.826-5.928,1.766-7.498
				c0.089-0.054,0.157-0.117,0.216-0.186c0.889,0,1.776,0,2.666,0c-0.139,0.271-0.254,0.551-0.355,0.831
				c-0.313-0.227-0.644-0.421-1.011-0.553c-0.632-0.229-1.343,0.052-1.524,0.753c-0.308,1.191,1.132,1.889,2.113,1.896
				c-0.02,0.468,0.008,0.936,0.083,1.397c-0.396-0.037-0.798,0.014-1.157,0.199c-0.512,0.265-0.792,0.876-0.549,1.434
				c0.438,1.001,1.507,0.648,2.292,0.251c0.176,0.374,0.384,0.739,0.627,1.09c-0.351,0.209-0.698,0.468-0.929,0.805
				c-0.372,0.545-0.264,1.316,0.328,1.652c0.834,0.475,1.528-0.189,1.959-0.924c0.397,0.364,0.811,0.689,1.238,0.982
				c-0.227,0.133-0.42,0.323-0.546,0.559c-0.326,0.605-0.034,1.351,0.542,1.648c0.561,0.29,1.245,0.105,1.679-0.337
				c0.204-0.209,0.345-0.458,0.455-0.725c0.518,0.214,1.048,0.396,1.589,0.543c-0.214,0.184-0.384,0.407-0.477,0.681
				c-0.226,0.673,0.139,1.368,0.758,1.637c0.661,0.288,1.371-0.007,1.766-0.597c0.261-0.39,0.323-0.824,0.307-1.267
				c0.464,0.058,0.932,0.099,1.402,0.124c-0.047,0.448-0.147,0.89-0.023,1.35c0.162,0.612,0.721,1.191,1.373,1.191
				c0.651,0,1.21-0.58,1.374-1.191c0.122-0.455,0.024-0.895-0.022-1.34c0.47-0.025,0.937-0.066,1.399-0.123
				c-0.016,0.439,0.049,0.869,0.307,1.256c0.395,0.59,1.104,0.885,1.767,0.597c0.619-0.269,0.983-0.964,0.758-1.637
				c-0.091-0.271-0.26-0.491-0.471-0.674c0.478-0.132,0.946-0.285,1.404-0.469c0.105,0.235,0.237,0.456,0.422,0.644
				c0.434,0.441,1.118,0.627,1.679,0.337c0.582-0.302,0.859-1.039,0.542-1.648c-0.103-0.196-0.258-0.363-0.438-0.489
				c0.417-0.278,0.819-0.589,1.204-0.933c0.435,0.684,1.097,1.253,1.885,0.805c0.592-0.336,0.7-1.107,0.328-1.652
				c-0.198-0.289-0.482-0.522-0.781-0.716c0.253-0.353,0.471-0.718,0.654-1.094c0.762,0.356,1.711,0.592,2.118-0.336
				c0.253-0.58-0.06-1.192-0.588-1.45c-0.286-0.14-0.594-0.196-0.904-0.192c0.074-0.464,0.105-0.932,0.085-1.399
				c0.966-0.095,2.161-0.774,1.896-1.885c-0.169-0.709-0.9-0.971-1.525-0.753c-0.301,0.104-0.578,0.259-0.841,0.435
				c-0.092-0.24-0.194-0.479-0.314-0.713c0.89,0,1.779,0,2.668,0c0.06,0.068,0.127,0.132,0.216,0.186
				C281.79,8.788,281.762,12.338,280.575,15.047z M305.844,9.925c-1.563,0.006-2.144-1.732-1.359-2.945
				c0.014-0.021,0.021-0.042,0.032-0.063c0.442,0,0.885,0,1.327,0s0.885,0,1.326,0c0.012,0.021,0.02,0.041,0.033,0.063
				C307.993,8.202,307.403,9.919,305.844,9.925z M310.503,12.506c-1.302,0.826-3.153,1.251-4.657,1.251h-0.001h-0.001
				c-1.53,0-3.333-0.423-4.657-1.251c-1.719-1.072-2.899-3.497-1.487-5.349c0.059-0.078,0.099-0.159,0.13-0.24
				c0.001,0,0.001,0,0.002,0c0.93,0,1.86,0,2.79,0h0.001c-0.751,2.21,0.739,4.758,3.223,4.759c2.48-0.001,3.974-2.55,3.223-4.759
				h0.001c0.931,0,1.859,0,2.789,0c0.001,0,0.001,0,0.002,0c0.031,0.081,0.071,0.162,0.13,0.24
				C313.409,9.019,312.212,11.422,310.503,12.506z M313.843,15.185c-2.437,1.732-5.118,2.106-7.997,2.106h-0.001h-0.001
				c-2.891,0-5.545-0.37-7.997-2.106c-2.676-1.891-4.225-5.273-1.994-8.219c0.013-0.016,0.02-0.033,0.03-0.049
				c0.001,0,0.001,0,0.002,0c0.67,0,1.341,0,2.011,0h0.001c-0.843,1.812-0.576,3.933,0.729,5.583
				c1.658,2.097,4.66,3.007,7.219,3.007c2.585,0,5.649-0.931,7.285-3.096c1.246-1.648,1.491-3.717,0.663-5.494h0.001
				c0.671,0,1.34,0,2.01,0h0.001c0.012,0.016,0.019,0.033,0.031,0.049C318.071,9.917,316.507,13.291,313.843,15.185z
				 M322.232,15.047c-1.196,2.733-3.263,5.114-5.503,7.001c-3.728,3.142-8.348,5.311-10.886,9.609
				c-2.539-4.3-7.157-6.468-10.885-9.609c-2.335-1.966-4.574-4.529-5.701-7.447c-1.016-2.631-0.826-5.928,1.766-7.498
				c0.088-0.054,0.156-0.117,0.215-0.186c0.889,0,1.777,0,2.667,0c-0.14,0.271-0.254,0.551-0.356,0.831
				c-0.313-0.227-0.643-0.421-1.01-0.553c-0.633-0.229-1.345,0.052-1.525,0.753c-0.307,1.191,1.131,1.889,2.114,1.896
				c-0.021,0.468,0.007,0.936,0.082,1.397c-0.396-0.037-0.797,0.014-1.157,0.199c-0.512,0.265-0.792,0.876-0.549,1.434
				c0.438,1.001,1.508,0.648,2.293,0.251c0.175,0.374,0.384,0.739,0.627,1.09c-0.351,0.209-0.698,0.468-0.93,0.805
				c-0.372,0.545-0.263,1.316,0.329,1.652c0.833,0.475,1.526-0.189,1.957-0.924c0.397,0.364,0.813,0.689,1.24,0.982
				c-0.228,0.133-0.42,0.323-0.547,0.559c-0.326,0.605-0.033,1.351,0.542,1.648c0.562,0.29,1.246,0.105,1.679-0.337
				c0.205-0.209,0.345-0.458,0.454-0.725c0.519,0.214,1.049,0.396,1.591,0.543c-0.214,0.184-0.385,0.407-0.478,0.681
				c-0.227,0.673,0.139,1.368,0.759,1.637c0.661,0.288,1.371-0.007,1.765-0.597c0.262-0.39,0.324-0.824,0.307-1.267
				c0.463,0.058,0.931,0.099,1.401,0.124c-0.047,0.448-0.146,0.89-0.023,1.35c0.164,0.612,0.723,1.191,1.374,1.191
				s1.211-0.58,1.375-1.191c0.12-0.455,0.023-0.895-0.023-1.34c0.469-0.025,0.937-0.066,1.399-0.123
				c-0.015,0.439,0.049,0.869,0.308,1.256c0.395,0.59,1.104,0.885,1.766,0.597c0.619-0.269,0.983-0.964,0.757-1.637
				c-0.091-0.271-0.259-0.491-0.469-0.674c0.476-0.132,0.945-0.285,1.403-0.469c0.105,0.235,0.237,0.456,0.422,0.644
				c0.434,0.441,1.119,0.627,1.679,0.337c0.582-0.302,0.859-1.039,0.543-1.648c-0.103-0.196-0.258-0.363-0.438-0.489
				c0.417-0.278,0.817-0.589,1.203-0.933c0.434,0.684,1.097,1.253,1.885,0.805c0.593-0.336,0.701-1.107,0.328-1.652
				c-0.197-0.289-0.482-0.522-0.781-0.716c0.254-0.353,0.472-0.718,0.654-1.094c0.763,0.356,1.711,0.592,2.117-0.336
				c0.253-0.58-0.059-1.192-0.587-1.45c-0.286-0.14-0.594-0.196-0.903-0.192c0.074-0.464,0.105-0.932,0.084-1.399
				c0.966-0.095,2.161-0.774,1.896-1.885c-0.169-0.709-0.9-0.971-1.524-0.753c-0.301,0.104-0.578,0.259-0.841,0.435
				c-0.093-0.24-0.195-0.479-0.314-0.713c0.89,0,1.778,0,2.667,0c0.059,0.068,0.127,0.132,0.216,0.186
				C323.446,8.788,323.417,12.338,322.232,15.047z"/>
			<path fill="#00A8A8" d="M33.627,22.954c0.473-1.035,0.999-2.028,1.449-3.056c0.45,1.027,0.978,2.019,1.449,3.056
				c0.914,2.016,1.822,6.322-1.45,6.705C31.792,29.274,32.71,24.966,33.627,22.954z"/>
			<path fill="#00A8A8" d="M35.076,19.898c-0.45,1.027-0.977,2.021-1.449,3.056c-0.917,2.012-1.835,6.32,1.448,6.705l0,0
				c-3.283-0.384-2.365-4.693-1.449-6.705C34.099,21.919,34.626,20.926,35.076,19.898z"/>
			<path fill="#00A8A8" d="M75.283,22.954c0.471-1.031,0.996-2.021,1.444-3.044c0.449,1.022,0.974,2.011,1.443,3.044
				c0.914,2.015,1.821,6.317-1.443,6.704C73.45,29.27,74.367,24.965,75.283,22.954z"/>
			<path fill="#00A8A8" d="M76.723,19.898c0.002,0.004,0.004,0.008,0.005,0.012c-0.448,1.022-0.974,2.013-1.444,3.044
				c-0.916,2.011-1.833,6.315,1.444,6.704c-0.002,0-0.004,0.001-0.006,0.001c-3.284-0.384-2.366-4.693-1.449-6.705
				C75.745,21.919,76.272,20.926,76.723,19.898z"/>
			<path fill="#F16A5A" d="M22.245,15.185c-2.436,1.732-5.118,2.106-7.997,2.106c-2.892,0-5.545-0.37-7.998-2.106
				c-2.674-1.891-4.225-5.273-1.993-8.219C4.27,6.95,4.276,6.933,4.288,6.917c0.67,0,1.34,0,2.011,0
				C5.456,8.729,5.723,10.85,7.028,12.5c1.659,2.097,4.662,3.007,7.22,3.007c2.584,0,5.65-0.931,7.286-3.096
				c1.245-1.648,1.491-3.717,0.662-5.494c0.671,0,1.342,0,2.012,0c0.012,0.016,0.019,0.033,0.031,0.049
				C26.474,9.917,24.909,13.291,22.245,15.185z"/>
			<path fill="#FCBD66" d="M18.905,12.506c-1.302,0.826-3.152,1.251-4.657,1.251c-1.53,0-3.334-0.423-4.658-1.251
				c-1.718-1.072-2.898-3.497-1.486-5.349c0.059-0.078,0.099-0.159,0.131-0.24c0.93,0,1.859,0,2.79,0
				c-0.751,2.21,0.741,4.759,3.224,4.759s3.974-2.55,3.223-4.759c0.931,0,1.861,0,2.792,0c0.031,0.081,0.071,0.162,0.13,0.24
				C21.812,9.019,20.615,11.422,18.905,12.506z"/>
			<path fill="#F16A5A" d="M63.902,15.185c-2.437,1.732-5.118,2.106-7.997,2.106c-2.892,0-5.545-0.37-7.997-2.106
				c-2.675-1.891-4.225-5.273-1.994-8.219c0.013-0.016,0.02-0.033,0.031-0.049c0.67,0,1.341,0,2.011,0
				c-0.844,1.812-0.576,3.933,0.729,5.583c1.658,2.097,4.661,3.007,7.219,3.007h0.001h0.001c2.584,0,5.649-0.931,7.286-3.096
				c1.245-1.648,1.491-3.717,0.662-5.494c0.671,0,1.341,0,2.01,0c0.011,0.016,0.019,0.033,0.03,0.049
				C68.131,9.917,66.566,13.291,63.902,15.185z"/>
			<path fill="#F16A5A" d="M63.903,15.185c-2.437,1.732-5.118,2.106-7.997,2.106h-0.001C58.784,17.291,61.466,16.917,63.903,15.185
				c2.663-1.894,4.228-5.268,1.991-8.219c-0.012-0.016-0.02-0.033-0.03-0.049h0.001c0.012,0.016,0.019,0.033,0.031,0.049
				C68.132,9.917,66.567,13.291,63.903,15.185z"/>
			<path fill="#F16A5A" d="M48.686,12.5c-1.306-1.65-1.573-3.771-0.729-5.583h0.001C47.114,8.729,47.381,10.85,48.686,12.5
				c1.659,2.097,4.661,3.007,7.22,3.007h-0.001C53.347,15.507,50.344,14.597,48.686,12.5z"/>
			<path fill="#FCBD66" d="M60.562,12.506c-1.301,0.826-3.151,1.251-4.656,1.251c-1.531,0-3.333-0.423-4.657-1.251
				c-1.719-1.072-2.898-3.497-1.487-5.349c0.059-0.078,0.099-0.159,0.131-0.24c0.93,0,1.86,0,2.79,0
				c-0.752,2.21,0.74,4.759,3.223,4.759h0.001h0.001c2.481,0,3.974-2.55,3.223-4.759c0.93,0,1.86,0,2.789,0
				c0.032,0.081,0.071,0.162,0.131,0.24C63.469,9.019,62.271,11.422,60.562,12.506z"/>
			<path fill="#FCBD66" d="M52.682,6.917L52.682,6.917c-0.75,2.21,0.74,4.758,3.224,4.759h-0.001
				C53.422,11.676,51.93,9.127,52.682,6.917z"/>
			<path fill="#FCBD66" d="M60.563,12.506c-1.302,0.826-3.153,1.251-4.657,1.251h-0.001c1.505,0,3.355-0.425,4.656-1.251
				c1.71-1.084,2.907-3.487,1.487-5.349c-0.06-0.078-0.099-0.159-0.131-0.24c0.001,0,0.001,0,0.002,0
				c0.031,0.081,0.071,0.162,0.13,0.24C63.47,9.019,62.272,11.422,60.563,12.506z"/>
			<path fill="#00A8A8" d="M116.94,22.954c0.469-1.027,0.989-2.014,1.438-3.033c0.448,1.02,0.971,2.004,1.438,3.033
				c0.914,2.014,1.819,6.313-1.439,6.703C115.108,29.265,116.024,24.964,116.94,22.954z"/>
			<path fill="#00A8A8" d="M118.368,19.898c0.003,0.008,0.007,0.015,0.011,0.022c-0.449,1.02-0.97,2.006-1.438,3.033
				c-0.916,2.01-1.832,6.311,1.438,6.703c-0.004,0-0.007,0.002-0.011,0.002c-3.283-0.384-2.365-4.693-1.448-6.705
				C117.392,21.919,117.918,20.926,118.368,19.898z"/>
			<path fill="#00A8A8" d="M158.597,22.954c0.468-1.027,0.99-2.014,1.438-3.033c0.448,1.02,0.971,2.004,1.438,3.033
				c0.913,2.013,1.819,6.312-1.438,6.703C156.766,29.264,157.681,24.963,158.597,22.954z"/>
			<path fill="#00A8A8" d="M160.024,19.898c0.003,0.008,0.007,0.015,0.011,0.022c-0.448,1.02-0.971,2.006-1.438,3.033
				c-0.916,2.009-1.831,6.31,1.438,6.703c-0.005,0-0.008,0.002-0.012,0.002c-3.283-0.384-2.365-4.693-1.449-6.705
				C159.047,21.919,159.574,20.926,160.024,19.898z"/>
			<path fill="#00A8A8" d="M200.253,22.954c0.468-1.023,0.987-2.006,1.435-3.021c0.446,1.016,0.966,1.996,1.432,3.021
				c0.913,2.012,1.818,6.307-1.433,6.701C198.423,29.259,199.338,24.962,200.253,22.954z"/>
			<path fill="#00A8A8" d="M201.671,19.898c0.005,0.012,0.011,0.022,0.017,0.034c-0.447,1.016-0.967,1.998-1.435,3.021
				c-0.915,2.008-1.83,6.305,1.434,6.701c-0.006,0.001-0.011,0.003-0.017,0.004c-3.284-0.384-2.366-4.693-1.449-6.705
				C200.693,21.919,201.221,20.926,201.671,19.898z"/>
			<path fill="#F16A5A" d="M147.193,15.185c-2.433,1.73-5.111,2.105-7.986,2.106c-2.888-0.001-5.537-0.372-7.988-2.106
				c-2.673-1.891-4.223-5.273-1.992-8.219c0.013-0.016,0.021-0.033,0.031-0.049c0.662,0,1.326,0,1.989,0
				c-0.843,1.812-0.576,3.933,0.729,5.583c1.659,2.097,4.662,3.007,7.22,3.007c0.004,0,0.007-0.001,0.011-0.001
				c0.003,0,0.007,0.001,0.011,0.001c2.585,0,5.65-0.931,7.285-3.096c1.246-1.648,1.492-3.717,0.664-5.494c0.662,0,1.326,0,1.989,0
				c0.012,0.016,0.019,0.033,0.031,0.049C151.422,9.917,149.858,13.291,147.193,15.185z"/>
			<path fill="#F16A5A" d="M146.503,12.411c-1.635,2.165-4.7,3.096-7.285,3.096c-0.004,0-0.008-0.001-0.011-0.001
				c2.583-0.002,5.642-0.933,7.275-3.095c1.245-1.648,1.491-3.717,0.662-5.494c0.008,0,0.015,0,0.022,0
				C147.995,8.694,147.749,10.763,146.503,12.411z"/>
			<path fill="#F16A5A" d="M131.219,15.185c2.451,1.734,5.101,2.105,7.988,2.106c-0.004,0-0.007,0-0.011,0
				c-2.892,0-5.545-0.37-7.998-2.106c-2.674-1.891-4.225-5.273-1.993-8.219c0.013-0.016,0.02-0.033,0.031-0.049
				c0.007,0,0.015,0,0.021,0c-0.011,0.016-0.019,0.033-0.031,0.049C126.996,9.911,128.546,13.294,131.219,15.185z"/>
			<path fill="#FCBD66" d="M143.854,12.506c-1.299,0.824-3.144,1.248-4.646,1.25c-1.528-0.002-3.325-0.424-4.647-1.25
				c-1.717-1.072-2.899-3.497-1.486-5.349c0.06-0.078,0.099-0.159,0.131-0.24c0.923,0,1.846,0,2.769,0
				c-0.751,2.21,0.741,4.759,3.224,4.759c0.004,0,0.007-0.001,0.011-0.001s0.007,0.001,0.011,0.001c2.481,0,3.974-2.55,3.222-4.759
				c0.925,0,1.848,0,2.771,0c0.031,0.081,0.071,0.162,0.13,0.24C146.76,9.019,145.563,11.422,143.854,12.506z"/>
			<path fill="#FCBD66" d="M134.56,12.506c1.322,0.826,3.119,1.248,4.647,1.25c-0.003,0-0.007,0.001-0.011,0.001
				c-1.53,0-3.334-0.423-4.658-1.251c-1.718-1.072-2.898-3.497-1.486-5.349c0.059-0.078,0.099-0.159,0.131-0.24
				c0.007,0,0.015,0,0.021,0c-0.032,0.081-0.071,0.162-0.131,0.24C131.66,9.009,132.843,11.434,134.56,12.506z"/>
			<path fill="#FCBD66" d="M139.218,11.676c-0.004,0-0.007-0.001-0.011-0.001c2.476-0.007,3.962-2.552,3.212-4.758
				c0.007,0,0.014,0,0.021,0C143.191,9.126,141.699,11.676,139.218,11.676z"/>
			<path fill="#F16A5A" d="M188.852,15.185c-2.434,1.73-5.112,2.105-7.987,2.106c-2.887-0.001-5.538-0.372-7.988-2.106
				c-2.675-1.891-4.224-5.273-1.993-8.219c0.013-0.016,0.02-0.033,0.03-0.049c0.664,0,1.328,0,1.992,0
				c-0.843,1.812-0.576,3.933,0.729,5.583c1.658,2.097,4.661,3.007,7.22,3.007c0.003,0,0.007,0,0.01,0s0.007,0,0.01,0
				c2.584,0,5.65-0.931,7.286-3.096c1.245-1.648,1.491-3.717,0.663-5.494c0.664,0,1.328,0,1.99,0
				c0.012,0.016,0.019,0.033,0.031,0.049C193.08,9.917,191.516,13.291,188.852,15.185z"/>
			<path fill="#F16A5A" d="M172.876,15.185c2.45,1.734,5.102,2.105,7.988,2.106c-0.003,0-0.007,0-0.01,0
				c-2.892,0-5.546-0.37-7.998-2.106c-2.675-1.891-4.225-5.273-1.994-8.219c0.013-0.016,0.02-0.033,0.031-0.049
				c0.007,0,0.013,0,0.02,0c-0.011,0.016-0.018,0.033-0.03,0.049C168.652,9.911,170.201,13.294,172.876,15.185z"/>
			<path fill="#F16A5A" d="M188.16,12.411c-1.636,2.165-4.702,3.096-7.286,3.096c-0.003,0-0.007,0-0.01,0
				c2.582-0.003,5.642-0.934,7.276-3.096c1.245-1.648,1.491-3.717,0.662-5.494c0.007,0,0.014,0,0.021,0
				C189.651,8.694,189.405,10.763,188.16,12.411z"/>
			<path fill="#FCBD66" d="M185.512,12.506c-1.299,0.824-3.146,1.249-4.647,1.25c-1.528-0.001-3.326-0.424-4.647-1.25
				c-1.719-1.072-2.899-3.497-1.487-5.349c0.059-0.078,0.099-0.159,0.13-0.24c0.924,0,1.848,0,2.771,0
				c-0.751,2.21,0.74,4.759,3.224,4.759c0.004,0,0.006-0.001,0.01-0.001s0.006,0.001,0.01,0.001c2.481,0,3.975-2.55,3.223-4.759
				c0.924,0,1.849,0,2.771,0c0.031,0.081,0.071,0.162,0.13,0.24C188.418,9.019,187.221,11.422,185.512,12.506z"/>
			<path fill="#FCBD66" d="M180.874,11.676c-0.004,0-0.006-0.001-0.01-0.001c2.476-0.007,3.963-2.552,3.213-4.758
				c0.007,0,0.013,0,0.02,0C184.849,9.126,183.355,11.676,180.874,11.676z"/>
			<path fill="#FCBD66" d="M176.217,12.506c1.321,0.826,3.119,1.249,4.647,1.25c-0.003,0-0.007,0.001-0.01,0.001
				c-1.531,0-3.334-0.423-4.658-1.251c-1.719-1.072-2.898-3.497-1.487-5.349c0.059-0.078,0.099-0.159,0.131-0.24
				c0.007,0,0.013,0,0.02,0c-0.031,0.081-0.071,0.162-0.13,0.24C173.317,9.009,174.498,11.434,176.217,12.506z"/>
			<path fill="#F16A5A" d="M105.537,15.185c-2.434,1.73-5.111,2.105-7.987,2.106c-2.888-0.001-5.537-0.372-7.987-2.106
				c-2.674-1.891-4.223-5.273-1.992-8.219c0.012-0.016,0.02-0.033,0.03-0.049c0.663,0,1.327,0,1.989,0
				c-0.842,1.812-0.575,3.933,0.729,5.583c1.659,2.097,4.662,3.007,7.22,3.007c0.003,0,0.007-0.001,0.011-0.001
				s0.007,0.001,0.011,0.001c2.585,0,5.65-0.931,7.287-3.096c1.244-1.648,1.49-3.717,0.662-5.494c0.662,0,1.326,0,1.989,0
				c0.012,0.016,0.019,0.033,0.031,0.049C109.765,9.917,108.201,13.291,105.537,15.185z"/>
			<path fill="#F16A5A" d="M104.848,12.411c-1.637,2.165-4.702,3.096-7.287,3.096c-0.004,0-0.007-0.001-0.011-0.001
				c2.583-0.002,5.642-0.933,7.276-3.095c1.244-1.648,1.49-3.717,0.662-5.494c0.008,0,0.015,0,0.021,0
				C106.338,8.694,106.092,10.763,104.848,12.411z"/>
			<path fill="#F16A5A" d="M89.563,15.185c2.45,1.734,5.1,2.105,7.987,2.106c-0.004,0-0.007,0-0.011,0
				c-2.892,0-5.545-0.37-7.998-2.106c-2.674-1.891-4.224-5.273-1.993-8.219c0.013-0.016,0.02-0.033,0.031-0.049
				c0.007,0,0.015,0,0.021,0c-0.011,0.016-0.019,0.033-0.03,0.049C85.34,9.911,86.889,13.294,89.563,15.185z"/>
			<path fill="#FCBD66" d="M102.196,12.506c-1.298,0.824-3.144,1.248-4.646,1.25c-1.527-0.002-3.325-0.424-4.646-1.25
				c-1.719-1.072-2.9-3.497-1.488-5.349c0.06-0.078,0.1-0.159,0.131-0.24c0.923,0,1.847,0,2.769,0
				c-0.751,2.21,0.741,4.759,3.224,4.759c0.004,0,0.007-0.001,0.011-0.001s0.007,0.001,0.011,0.001c2.482,0,3.975-2.55,3.224-4.759
				c0.923,0,1.846,0,2.77,0c0.031,0.081,0.071,0.162,0.13,0.24C105.104,9.019,103.906,11.422,102.196,12.506z"/>
			<path fill="#FCBD66" d="M97.561,11.676c-0.004,0-0.007-0.001-0.011-0.001c2.476-0.007,3.962-2.552,3.213-4.758
				c0.007,0,0.015,0,0.021,0C101.535,9.126,100.043,11.676,97.561,11.676z"/>
			<path fill="#FCBD66" d="M92.904,12.506c1.32,0.826,3.118,1.248,4.646,1.25c-0.004,0-0.008,0.001-0.011,0.001
				c-1.53,0-3.334-0.423-4.657-1.251c-1.719-1.072-2.899-3.497-1.487-5.349c0.059-0.078,0.099-0.159,0.131-0.24
				c0.007,0,0.015,0,0.021,0c-0.031,0.081-0.071,0.162-0.131,0.24C90.004,9.009,91.186,11.434,92.904,12.506z"/>
			<path fill="#00A8A8" d="M243.359,19.898c0.45,1.027,0.978,2.019,1.449,3.056c0.915,2.016,1.822,6.323-1.45,6.705
				c-3.283-0.384-2.365-4.693-1.448-6.705C242.383,21.919,242.909,20.926,243.359,19.898z"/>
			<path fill="#00A8A8" d="M283.229,23.804c0.106-0.311,0.222-0.599,0.336-0.85c0.473-1.035,1-2.028,1.45-3.056
				c0.45,1.027,0.978,2.019,1.449,3.056c0.914,2.016,1.822,6.322-1.45,6.705C282.143,29.323,282.486,25.981,283.229,23.804z"/>
			<path fill="#00A8A8" d="M285.015,29.659L285.015,29.659c-2.873-0.336-2.529-3.678-1.785-5.855
				C282.486,25.981,282.143,29.323,285.015,29.659z"/>
			<path fill="#F16A5A" d="M272.185,15.185c-1.826,1.3-3.792,1.835-5.875,2.021c-0.694,0.063-1.402,0.086-2.122,0.086
				c-2.892,0-5.545-0.37-7.998-2.106c-2.674-1.891-4.224-5.273-1.992-8.219c0.012-0.016,0.02-0.033,0.03-0.049
				c0.67,0,1.341,0,2.011,0c-0.843,1.812-0.576,3.933,0.729,5.583c1.659,2.097,4.662,3.007,7.22,3.007
				c2.585,0,5.65-0.931,7.286-3.096c0.155-0.206,0.296-0.419,0.42-0.637c0.621-1.089,0.849-2.307,0.663-3.48
				c-0.073-0.47-0.213-0.933-0.42-1.377c0.67,0,1.34,0,2.011,0c0.012,0.016,0.019,0.033,0.031,0.049
				c0.279,0.369,0.499,0.744,0.665,1.123c0.165,0.378,0.277,0.76,0.34,1.14c0.032,0.19,0.052,0.381,0.059,0.57
				C275.328,11.881,274.017,13.882,272.185,15.185z"/>
			<path fill="#F16A5A" d="M272.136,6.917L272.136,6.917c0.208,0.444,0.348,0.907,0.421,1.377
				C272.483,7.824,272.343,7.361,272.136,6.917z"/>
			<path fill="#F16A5A" d="M256.189,15.185c-2.674-1.891-4.225-5.273-1.993-8.219c0.013-0.016,0.02-0.033,0.031-0.049
				c-0.011,0.016-0.019,0.033-0.03,0.049C251.966,9.911,253.516,13.294,256.189,15.185z"/>
			<path fill="#FCBD66" d="M268.845,12.506c-1.302,0.826-3.152,1.251-4.657,1.251c-1.529,0-3.334-0.423-4.657-1.251
				c-1.503-0.938-2.596-2.912-1.899-4.631c0.1-0.246,0.235-0.486,0.412-0.718c0.059-0.078,0.099-0.159,0.131-0.24
				c0.93,0,1.859,0,2.79,0c-0.517,1.52,0.027,3.198,1.225,4.1c0.545,0.41,1.223,0.659,1.999,0.659c2.482,0,3.974-2.55,3.223-4.759
				c0.931,0,1.861,0,2.792,0c0.031,0.081,0.071,0.162,0.13,0.24C271.751,9.019,270.555,11.422,268.845,12.506z"/>
			<path fill="#FCBD66" d="M259.53,12.506c1.323,0.828,3.128,1.251,4.657,1.251C262.657,13.757,260.854,13.334,259.53,12.506
				c-1.504-0.938-2.596-2.912-1.899-4.631C256.935,9.594,258.027,11.567,259.53,12.506z"/>
			<path fill="#F16A5A" d="M313.842,15.185c-2.437,1.732-5.118,2.106-7.997,2.106c-2.892,0-5.545-0.37-7.997-2.106
				c-2.675-1.891-4.225-5.273-1.994-8.219c0.013-0.016,0.02-0.033,0.031-0.049c0.67,0,1.341,0,2.011,0
				c-0.843,1.812-0.576,3.933,0.729,5.583c1.658,2.097,4.661,3.007,7.219,3.007h0.001h0.001c2.584,0,5.649-0.931,7.286-3.096
				c1.245-1.648,1.491-3.717,0.662-5.494c0.671,0,1.34,0,2.01,0c0.012,0.016,0.019,0.033,0.031,0.049
				C318.07,9.917,316.506,13.291,313.842,15.185z"/>
			<path fill="#F16A5A" d="M313.843,15.185c-2.437,1.732-5.118,2.106-7.997,2.106h-0.001
				C308.724,17.291,311.405,16.917,313.843,15.185c2.663-1.894,4.228-5.268,1.992-8.219c-0.013-0.016-0.02-0.033-0.031-0.049h0.001
				c0.012,0.016,0.019,0.033,0.031,0.049C318.071,9.917,316.507,13.291,313.843,15.185z"/>
			<path fill="#F16A5A" d="M298.625,12.5c-1.306-1.65-1.572-3.771-0.729-5.583h0.001C297.054,8.729,297.32,10.85,298.625,12.5
				c1.659,2.097,4.661,3.007,7.22,3.007h-0.001C303.286,15.507,300.283,14.597,298.625,12.5z"/>
			<path fill="#FCBD66" d="M310.502,12.506c-1.302,0.826-3.152,1.251-4.657,1.251c-1.531,0-3.333-0.423-4.657-1.251
				c-1.719-1.072-2.898-3.497-1.487-5.349c0.059-0.078,0.099-0.159,0.131-0.24c0.93,0,1.86,0,2.79,0
				c-0.752,2.21,0.74,4.759,3.223,4.759h0.001h0.001c2.481,0,3.974-2.55,3.223-4.759c0.931,0,1.859,0,2.789,0
				c0.032,0.081,0.071,0.162,0.131,0.24C313.408,9.019,312.211,11.422,310.502,12.506z"/>
			<path fill="#FCBD66" d="M310.503,12.506c-1.302,0.826-3.153,1.251-4.657,1.251h-0.001C307.35,13.757,309.2,13.332,310.503,12.506
				c1.708-1.084,2.905-3.487,1.485-5.349c-0.06-0.078-0.099-0.159-0.131-0.24c0.001,0,0.001,0,0.002,0
				c0.031,0.081,0.071,0.162,0.13,0.24C313.409,9.019,312.212,11.422,310.503,12.506z"/>
			<path fill="#FCBD66" d="M302.621,6.917L302.621,6.917c-0.75,2.21,0.74,4.758,3.224,4.759h-0.001
				C303.361,11.676,301.869,9.127,302.621,6.917z"/>
			<path fill="#F16A5A" d="M230.527,15.185c-2.436,1.732-5.117,2.106-7.997,2.106c-2.529,0-4.878-0.283-7.068-1.518
				c-0.313-0.176-0.623-0.372-0.93-0.589c-2.674-1.891-4.223-5.273-1.992-8.219c0.012-0.016,0.02-0.033,0.03-0.049
				c0.671,0,1.341,0,2.011,0c-0.631,1.358-0.639,2.892-0.054,4.269c0.195,0.46,0.457,0.901,0.783,1.314
				c1.659,2.097,4.662,3.007,7.22,3.007c2.585,0,5.65-0.931,7.287-3.096c0.312-0.412,0.561-0.851,0.745-1.304
				c0.555-1.36,0.538-2.857-0.082-4.19c0.67,0,1.339,0,2.01,0c0.012,0.016,0.019,0.033,0.031,0.049
				c0.279,0.369,0.5,0.744,0.665,1.123c0.166,0.378,0.278,0.76,0.341,1.14c0.032,0.19,0.051,0.381,0.059,0.57
				C233.672,11.881,232.359,13.882,230.527,15.185z"/>
			<path fill="#F16A5A" d="M215.462,15.773c2.19,1.234,4.539,1.518,7.068,1.518C220,17.291,217.652,17.008,215.462,15.773z"/>
			<path fill="#F16A5A" d="M214.532,15.185c-2.674-1.891-4.224-5.273-1.993-8.219c0.013-0.016,0.02-0.033,0.031-0.049
				c-0.011,0.016-0.019,0.033-0.03,0.049C210.31,9.911,211.858,13.294,214.532,15.185z"/>
			<path fill="#F16A5A" d="M230.563,11.107c0.555-1.36,0.538-2.857-0.083-4.19h0.001C231.101,8.25,231.117,9.747,230.563,11.107z"/>
			<path fill="#FCBD66" d="M227.188,12.506c-1.301,0.826-3.152,1.251-4.657,1.251c-1.529,0-3.333-0.423-4.656-1.251
				c-1.504-0.938-2.597-2.912-1.9-4.631c0.1-0.246,0.235-0.486,0.412-0.718c0.06-0.078,0.1-0.159,0.131-0.24c0.931,0,1.86,0,2.79,0
				c-0.751,2.21,0.741,4.759,3.224,4.759s3.974-2.55,3.224-4.759c0.93,0,1.86,0,2.791,0c0.031,0.081,0.071,0.162,0.13,0.24
				C230.095,9.019,228.897,11.422,227.188,12.506z"/>
			<path fill="#FCBD66" d="M217.874,12.506c1.323,0.828,3.127,1.251,4.656,1.251C221,13.757,219.196,13.334,217.874,12.506
				c-1.505-0.938-2.597-2.912-1.9-4.631C215.277,9.594,216.37,11.567,217.874,12.506z"/>
		</g>
	</g>
</g>
</svg>
