<?xml version="1.0" encoding="utf-8"?>
<!-- Generator: Adobe Illustrator 16.0.0, SVG Export Plug-In . SVG Version: 6.00 Build 0)  -->
<!DOCTYPE svg PUBLIC "-//W3C//DTD SVG 1.1//EN" "http://www.w3.org/Graphics/SVG/1.1/DTD/svg11.dtd">
<svg version="1.1" id="Layer_1" xmlns="http://www.w3.org/2000/svg" xmlns:xlink="http://www.w3.org/1999/xlink" x="0px" y="0px"
	 width="375px" height="42px" viewBox="0 0 375 42" enable-background="new 0 0 375 42" xml:space="preserve">
<g>
	<path fill="none" d="M159.79,6.094c-2.084,0.008-2.856-2.311-1.813-3.928c0.019-0.027,0.028-0.055,0.044-0.082
		c0.59,0,1.18,0,1.77,0s1.18,0,1.77,0c0.016,0.027,0.025,0.055,0.043,0.082C162.656,3.797,161.87,6.086,159.79,6.094z"/>
	<path fill="none" d="M270.874,11.203c2.006,0,4.475-0.566,6.209-1.668C275.351,10.637,272.88,11.203,270.874,11.203z"/>
	<path fill="none" d="M150.136,9.527c-1.741-2.201-2.097-5.029-0.973-7.443c0.01,0,0.02,0,0.029,0
		c-1.125,2.414-0.77,5.242,0.972,7.443c2.21,2.791,6.204,4.006,9.612,4.008c-0.006,0-0.01,0.002-0.015,0.002
		C156.352,13.537,152.348,12.322,150.136,9.527z"/>
	<path fill="none" d="M170.454,13.107c-3.247,2.309-6.825,2.809-10.664,2.809c-0.005,0-0.009,0-0.014,0
		c3.833-0.002,7.404-0.502,10.648-2.809c3.553-2.525,5.638-7.023,2.658-10.959c-0.017-0.021-0.025-0.045-0.041-0.064
		c0.01,0,0.02,0,0.029,0c0.015,0.02,0.023,0.043,0.041,0.064C176.091,6.084,174.005,10.582,170.454,13.107z"/>
	<path fill="none" d="M166,9.535c-1.734,1.102-4.203,1.668-6.21,1.668c-0.005,0-0.01-0.002-0.014-0.002
		c2.004-0.002,4.463-0.566,6.195-1.666c2.279-1.445,3.875-4.65,1.982-7.131c-0.078-0.105-0.131-0.213-0.173-0.32
		c0.009,0,0.019,0,0.027,0c0.043,0.107,0.097,0.215,0.175,0.32C169.875,4.885,168.28,8.09,166,9.535z"/>
	<path fill="none" d="M94.593,9.527c-1.74-2.201-2.096-5.029-0.973-7.443c0.01,0,0.02,0,0.029,0
		c-1.123,2.414-0.768,5.242,0.972,7.443c2.211,2.791,6.204,4.006,9.612,4.008c-0.006,0-0.011,0.002-0.015,0.002
		C100.809,13.537,96.805,12.322,94.593,9.527z"/>
	<path fill="none" d="M110.457,9.535c-1.733,1.102-4.203,1.668-6.21,1.668c-0.004,0-0.009-0.002-0.014-0.002
		c2.004-0.002,4.465-0.566,6.195-1.666c2.279-1.445,3.876-4.65,1.982-7.131c-0.078-0.105-0.131-0.213-0.173-0.32
		c0.009,0,0.02,0,0.028,0c0.042,0.107,0.096,0.215,0.175,0.32C114.335,4.885,112.737,8.09,110.457,9.535z"/>
	<path fill="none" d="M114.911,13.107c-3.247,2.309-6.824,2.809-10.664,2.809c-0.005,0-0.009,0-0.014,0
		c3.834-0.002,7.404-0.502,10.649-2.809c3.552-2.525,5.637-7.023,2.657-10.959c-0.017-0.021-0.025-0.045-0.041-0.064
		c0.01,0,0.02,0,0.029,0c0.015,0.02,0.025,0.043,0.041,0.064C120.55,6.084,118.465,10.582,114.911,13.107z"/>
	<path fill="none" d="M22.867,23.467c-0.629-1.383-1.332-2.705-1.933-4.074C21.536,20.762,22.239,22.084,22.867,23.467
		c1.22,2.688,2.431,8.43-1.933,8.939c0,0,0,0-0.001,0C25.297,31.896,24.086,26.154,22.867,23.467z"/>
	<path fill="none" d="M118.763,22.258c-4.97,4.189-11.13,7.08-14.516,12.813c-3.384-5.732-9.544-8.623-14.514-12.813
		c-3.111-2.621-6.1-6.039-7.6-9.93C80.78,8.82,81.032,4.424,84.485,2.33c0.119-0.07,0.21-0.156,0.288-0.246c1.185,0,2.371,0,3.555,0
		c-0.185,0.361-0.339,0.734-0.473,1.107c-0.417-0.303-0.858-0.561-1.347-0.736c-0.844-0.305-1.793,0.068-2.033,1.004
		c-0.412,1.588,1.508,2.518,2.818,2.527c-0.027,0.625,0.01,1.248,0.109,1.863c-0.527-0.049-1.063,0.02-1.544,0.266
		c-0.681,0.354-1.056,1.168-0.731,1.912c0.584,1.334,2.01,0.865,3.057,0.334c0.233,0.5,0.511,0.986,0.835,1.453
		c-0.468,0.279-0.931,0.625-1.237,1.074c-0.496,0.727-0.352,1.754,0.437,2.203c1.112,0.633,2.038-0.254,2.612-1.232
		c0.529,0.486,1.082,0.92,1.652,1.311c-0.303,0.176-0.559,0.43-0.729,0.744c-0.436,0.807-0.045,1.801,0.723,2.197
		c0.748,0.387,1.659,0.141,2.237-0.449c0.273-0.277,0.46-0.609,0.606-0.965c0.69,0.285,1.398,0.527,2.121,0.723
		c-0.285,0.246-0.514,0.543-0.637,0.908c-0.302,0.896,0.186,1.824,1.011,2.182c0.883,0.385,1.828-0.008,2.353-0.795
		c0.348-0.52,0.433-1.1,0.409-1.689c0.618,0.078,1.242,0.133,1.87,0.166c-0.063,0.598-0.195,1.186-0.031,1.799
		c0.219,0.816,0.963,1.59,1.83,1.59c0.869,0,1.613-0.773,1.832-1.59c0.163-0.605,0.033-1.191-0.029-1.785
		c0.626-0.035,1.248-0.09,1.867-0.164c-0.021,0.586,0.064,1.158,0.41,1.674c0.525,0.787,1.47,1.18,2.353,0.795
		c0.825-0.357,1.313-1.285,1.011-2.182c-0.121-0.361-0.347-0.654-0.627-0.898c0.636-0.176,1.261-0.381,1.871-0.625
		c0.141,0.314,0.318,0.607,0.564,0.857c0.578,0.59,1.49,0.836,2.236,0.449c0.776-0.402,1.146-1.385,0.723-2.197
		c-0.135-0.262-0.344-0.484-0.583-0.652c0.556-0.371,1.093-0.785,1.606-1.244c0.578,0.912,1.463,1.672,2.512,1.074
		c0.789-0.449,0.934-1.477,0.438-2.203c-0.262-0.387-0.642-0.697-1.04-0.955c0.337-0.471,0.628-0.957,0.872-1.459
		c1.015,0.477,2.281,0.789,2.823-0.447c0.337-0.773-0.079-1.59-0.784-1.934c-0.381-0.186-0.791-0.262-1.205-0.256
		c0.099-0.619,0.142-1.242,0.111-1.867c1.291-0.125,2.885-1.031,2.531-2.512c-0.227-0.945-1.2-1.295-2.035-1.004
		c-0.4,0.139-0.77,0.344-1.121,0.578c-0.122-0.32-0.259-0.637-0.416-0.949c1.184,0,2.369,0,3.556,0
		c0.077,0.09,0.168,0.176,0.288,0.246c3.707,2.248,3.669,6.98,2.087,10.594C124.504,16.568,121.747,19.742,118.763,22.258z"/>
	<path fill="none" d="M99.921,2.084c0.01,0,0.02,0,0.029,0c-1.001,2.941,0.982,6.334,4.283,6.344c-0.006,0-0.01,0-0.015,0
		C100.909,8.428,98.919,5.029,99.921,2.084z"/>
	<path fill="none" d="M229.847,22.258c-4.971,4.189-11.131,7.08-14.515,12.813c-3.386-5.732-9.543-8.623-14.515-12.813
		c-3.11-2.621-6.099-6.039-7.6-9.93c-1.354-3.508-1.102-7.904,2.353-9.998c0.118-0.07,0.21-0.156,0.288-0.246
		c1.185,0,2.369,0,3.556,0c-0.185,0.361-0.339,0.734-0.474,1.107c-0.417-0.303-0.859-0.561-1.348-0.736
		c-0.844-0.305-1.793,0.068-2.033,1.004c-0.411,1.588,1.507,2.518,2.818,2.527c-0.026,0.625,0.01,1.248,0.109,1.863
		c-0.527-0.049-1.063,0.02-1.543,0.266c-0.683,0.354-1.058,1.168-0.732,1.912c0.584,1.334,2.011,0.865,3.058,0.334
		c0.234,0.5,0.512,0.986,0.836,1.453c-0.468,0.279-0.931,0.625-1.238,1.074c-0.497,0.727-0.353,1.754,0.438,2.203
		c1.112,0.633,2.036-0.254,2.609-1.232c0.53,0.486,1.082,0.92,1.653,1.311c-0.303,0.176-0.56,0.43-0.729,0.744
		c-0.436,0.807-0.046,1.801,0.724,2.197c0.746,0.387,1.659,0.141,2.237-0.449c0.273-0.277,0.458-0.609,0.605-0.965
		c0.691,0.285,1.398,0.527,2.121,0.723c-0.285,0.246-0.515,0.543-0.637,0.908c-0.303,0.896,0.185,1.824,1.01,2.182
		c0.883,0.385,1.83-0.008,2.355-0.795c0.348-0.52,0.43-1.1,0.409-1.689c0.616,0.078,1.239,0.133,1.867,0.166
		c-0.063,0.598-0.195,1.186-0.031,1.799c0.219,0.816,0.964,1.59,1.832,1.59s1.614-0.773,1.831-1.59
		c0.164-0.605,0.032-1.191-0.029-1.785c0.625-0.035,1.248-0.09,1.866-0.164c-0.021,0.586,0.065,1.158,0.41,1.674
		c0.526,0.787,1.473,1.18,2.354,0.795c0.825-0.357,1.311-1.285,1.009-2.182c-0.121-0.361-0.347-0.654-0.625-0.898
		c0.634-0.176,1.259-0.381,1.871-0.625c0.14,0.314,0.317,0.607,0.563,0.857c0.577,0.59,1.491,0.836,2.237,0.449
		c0.776-0.402,1.145-1.385,0.723-2.197c-0.136-0.262-0.344-0.484-0.583-0.652c0.556-0.371,1.091-0.785,1.605-1.244
		c0.578,0.912,1.462,1.672,2.513,1.074c0.79-0.449,0.935-1.477,0.438-2.203c-0.263-0.387-0.644-0.697-1.04-0.955
		c0.337-0.471,0.627-0.957,0.871-1.459c1.017,0.477,2.281,0.789,2.822-0.447c0.338-0.773-0.078-1.59-0.783-1.934
		c-0.381-0.186-0.791-0.262-1.203-0.256c0.098-0.619,0.141-1.242,0.111-1.867c1.288-0.125,2.883-1.031,2.529-2.512
		c-0.227-0.945-1.201-1.295-2.033-1.004c-0.4,0.139-0.771,0.344-1.121,0.578c-0.123-0.32-0.26-0.637-0.419-0.949
		c1.187,0,2.37,0,3.556,0c0.078,0.09,0.17,0.176,0.288,0.246c3.707,2.248,3.669,6.98,2.09,10.594
		C235.589,16.568,232.833,19.742,229.847,22.258z"/>
	<path fill="none" d="M225.996,13.107c-3.249,2.309-6.824,2.809-10.664,2.809c-0.004,0-0.009,0-0.013,0
		c3.833-0.002,7.404-0.502,10.649-2.809c3.552-2.525,5.638-7.023,2.657-10.959c-0.017-0.021-0.025-0.045-0.041-0.064
		c0.009,0,0.018,0,0.027,0c0.016,0.02,0.024,0.043,0.041,0.064C231.634,6.084,229.548,10.582,225.996,13.107z"/>
	<path fill="none" d="M270.874,6.094c-2.084,0.008-2.857-2.311-1.812-3.928c0.019-0.027,0.027-0.055,0.043-0.082
		c0.59,0,1.18,0,1.769,0c0.59,0,1.18,0,1.77,0c0.016,0.027,0.024,0.055,0.043,0.082C273.741,3.797,272.954,6.086,270.874,6.094z"/>
	<path fill="none" d="M174.305,22.258c-4.97,4.189-11.129,7.08-14.515,12.813c-3.384-5.732-9.544-8.623-14.514-12.813
		c-3.112-2.621-6.1-6.039-7.601-9.93c-1.354-3.508-1.103-7.904,2.353-9.998c0.119-0.07,0.21-0.156,0.288-0.246
		c1.185,0,2.37,0,3.555,0c-0.185,0.361-0.339,0.734-0.474,1.107c-0.417-0.303-0.858-0.561-1.348-0.736
		c-0.843-0.305-1.791,0.068-2.033,1.004c-0.41,1.588,1.508,2.518,2.818,2.527c-0.026,0.625,0.01,1.248,0.109,1.863
		c-0.526-0.049-1.063,0.02-1.542,0.266c-0.681,0.354-1.058,1.168-0.731,1.912c0.584,1.334,2.009,0.865,3.056,0.334
		c0.234,0.5,0.512,0.986,0.836,1.453c-0.468,0.279-0.931,0.625-1.238,1.074c-0.497,0.727-0.352,1.754,0.438,2.203
		c1.112,0.633,2.038-0.254,2.612-1.232c0.529,0.486,1.08,0.92,1.65,1.311c-0.303,0.176-0.56,0.43-0.729,0.744
		c-0.434,0.807-0.045,1.801,0.724,2.197c0.747,0.387,1.66,0.141,2.238-0.449c0.272-0.277,0.46-0.609,0.606-0.965
		c0.69,0.285,1.397,0.527,2.119,0.723c-0.284,0.246-0.512,0.543-0.635,0.908c-0.302,0.896,0.183,1.824,1.01,2.182
		c0.881,0.385,1.828-0.008,2.354-0.795c0.348-0.52,0.432-1.1,0.409-1.689c0.617,0.078,1.241,0.133,1.868,0.166
		c-0.063,0.598-0.195,1.186-0.032,1.799c0.219,0.816,0.964,1.59,1.833,1.59c0.867,0,1.613-0.773,1.832-1.59
		c0.163-0.605,0.033-1.191-0.029-1.785c0.625-0.035,1.248-0.09,1.865-0.164c-0.021,0.586,0.065,1.158,0.409,1.674
		c0.526,0.787,1.473,1.18,2.354,0.795c0.826-0.357,1.313-1.285,1.012-2.182c-0.121-0.361-0.348-0.654-0.628-0.898
		c0.637-0.176,1.262-0.381,1.872-0.625c0.14,0.314,0.316,0.607,0.563,0.857c0.577,0.59,1.492,0.836,2.238,0.449
		c0.776-0.402,1.146-1.385,0.723-2.197c-0.137-0.262-0.344-0.484-0.584-0.652c0.557-0.371,1.092-0.785,1.606-1.244
		c0.579,0.912,1.461,1.672,2.513,1.074c0.789-0.449,0.934-1.477,0.438-2.203c-0.264-0.387-0.645-0.697-1.041-0.955
		c0.337-0.471,0.627-0.957,0.872-1.459c1.016,0.477,2.281,0.789,2.823-0.447c0.338-0.773-0.078-1.59-0.783-1.934
		c-0.381-0.186-0.791-0.262-1.205-0.256c0.099-0.619,0.141-1.242,0.111-1.867c1.289-0.125,2.883-1.031,2.53-2.512
		c-0.226-0.945-1.199-1.295-2.034-1.004c-0.4,0.139-0.771,0.344-1.121,0.578c-0.123-0.32-0.26-0.637-0.419-0.949
		c1.187,0,2.371,0,3.558,0c0.078,0.09,0.168,0.176,0.287,0.246c3.709,2.248,3.671,6.98,2.089,10.594
		C180.046,16.568,177.29,19.742,174.305,22.258z"/>
	<path fill="none" d="M78.395,23.467c-0.626-1.379-1.325-2.695-1.925-4.059c0.003-0.006,0.006-0.012,0.008-0.016
		c0.601,1.369,1.303,2.691,1.932,4.074c1.221,2.688,2.431,8.43-1.932,8.939c-0.002,0-0.005-0.002-0.008-0.002
		C80.823,31.889,79.613,26.152,78.395,23.467z"/>
	<path fill="none" d="M205.68,9.527c-1.741-2.201-2.097-5.029-0.973-7.443c0.009,0,0.019,0,0.027,0
		c-1.124,2.414-0.77,5.242,0.973,7.443c2.208,2.791,6.204,4.006,9.612,4.01c-0.004,0-0.01,0-0.014,0
		C211.895,13.537,207.891,12.322,205.68,9.527z"/>
	<path fill="none" d="M211.008,2.084c0.009,0,0.019,0,0.027,0c-1.001,2.941,0.981,6.334,4.284,6.344c-0.006,0-0.008,0-0.014,0
		C211.995,8.428,210.007,5.029,211.008,2.084z"/>
	<path fill="none" d="M215.332,6.094c-2.085,0.008-2.858-2.311-1.813-3.928c0.019-0.027,0.028-0.055,0.044-0.082
		c0.59,0,1.179,0,1.769,0s1.18,0,1.769,0c0.016,0.027,0.025,0.055,0.044,0.082C218.198,3.797,217.411,6.086,215.332,6.094z"/>
	<path fill="none" d="M221.543,9.535c-1.735,1.102-4.204,1.668-6.211,1.668c-0.004,0-0.009-0.002-0.013-0.002
		c2.002,0,4.465-0.566,6.196-1.666c2.278-1.445,3.875-4.65,1.981-7.131c-0.078-0.105-0.131-0.213-0.173-0.32
		c0.009,0,0.017,0,0.026,0c0.041,0.107,0.095,0.215,0.174,0.32C225.418,4.885,223.821,8.09,221.543,9.535z"/>
	<path fill="none" d="M155.464,2.084c0.009,0,0.02,0,0.028,0c-1.001,2.941,0.983,6.334,4.284,6.344c-0.006,0-0.01,0-0.015,0
		C156.452,8.428,154.462,5.029,155.464,2.084z"/>
	<path fill="none" d="M48.708,8.428L48.708,8.428c3.307,0,5.297-3.398,4.295-6.344c0.001,0,0.001,0,0.002,0
		C54.007,5.029,52.017,8.428,48.708,8.428z"/>
	<path fill="none" d="M104.247,6.094c-2.083,0.008-2.856-2.311-1.811-3.928c0.018-0.027,0.027-0.055,0.043-0.082
		c0.59,0,1.18,0,1.768,0c0.59,0,1.18,0,1.77,0c0.016,0.027,0.025,0.055,0.043,0.082C107.113,3.797,106.327,6.086,104.247,6.094z"/>
	<path fill="none" d="M58.423,9.408c-2.182,2.887-6.27,4.129-9.715,4.129h-0.001c3.445,0,7.532-1.242,9.714-4.129
		c1.66-2.197,1.988-4.955,0.884-7.324h0.001C60.411,4.453,60.083,7.211,58.423,9.408z"/>
	<path fill="none" d="M38.044,13.107c3.27,2.314,6.808,2.809,10.663,2.809h-0.001c-3.854,0-7.394-0.494-10.664-2.809
		c-3.565-2.521-5.632-7.031-2.658-10.959c0.018-0.021,0.026-0.045,0.041-0.064c0.001,0,0.001,0,0.002,0
		c-0.016,0.02-0.024,0.043-0.041,0.064C32.411,6.076,34.478,10.586,38.044,13.107z"/>
	<path fill="none" d="M63.22,22.258c-4.97,4.189-11.13,7.08-14.514,12.813c-3.386-5.732-9.543-8.623-14.515-12.813
		c-3.112-2.621-6.099-6.039-7.601-9.93c-1.354-3.508-1.102-7.904,2.352-9.998c0.12-0.07,0.211-0.156,0.289-0.246
		c1.186,0,2.37,0,3.555,0c-0.185,0.361-0.337,0.734-0.473,1.107c-0.416-0.303-0.859-0.561-1.348-0.736
		c-0.844-0.305-1.793,0.068-2.033,1.004c-0.409,1.588,1.508,2.518,2.818,2.527c-0.027,0.625,0.01,1.248,0.109,1.863
		c-0.527-0.049-1.063,0.02-1.543,0.266c-0.682,0.354-1.057,1.168-0.731,1.912c0.585,1.334,2.011,0.865,3.058,0.334
		c0.232,0.5,0.512,0.986,0.836,1.453c-0.469,0.279-0.932,0.625-1.238,1.074c-0.498,0.727-0.354,1.754,0.438,2.203
		c1.11,0.633,2.035-0.254,2.609-1.232c0.529,0.486,1.083,0.92,1.653,1.311c-0.304,0.176-0.56,0.43-0.729,0.744
		c-0.436,0.807-0.045,1.801,0.723,2.197c0.749,0.387,1.66,0.141,2.238-0.449c0.273-0.277,0.459-0.609,0.605-0.965
		c0.691,0.285,1.398,0.527,2.121,0.723c-0.285,0.246-0.514,0.543-0.637,0.908c-0.302,0.896,0.186,1.824,1.011,2.182
		c0.883,0.385,1.829-0.008,2.355-0.795c0.348-0.52,0.43-1.1,0.407-1.689c0.617,0.078,1.241,0.133,1.869,0.166
		c-0.062,0.598-0.195,1.186-0.031,1.799c0.219,0.816,0.963,1.59,1.832,1.59c0.868,0,1.613-0.773,1.83-1.59
		c0.163-0.605,0.034-1.191-0.029-1.785c0.626-0.035,1.25-0.09,1.867-0.164c-0.02,0.586,0.064,1.158,0.41,1.674
		c0.525,0.787,1.473,1.18,2.354,0.795c0.826-0.357,1.312-1.285,1.01-2.182c-0.121-0.361-0.347-0.654-0.625-0.898
		c0.634-0.176,1.259-0.381,1.871-0.625c0.139,0.314,0.316,0.607,0.563,0.857c0.578,0.59,1.492,0.836,2.238,0.449
		c0.775-0.402,1.145-1.385,0.724-2.197c-0.137-0.262-0.344-0.484-0.585-0.652c0.558-0.371,1.092-0.785,1.605-1.244
		c0.578,0.912,1.463,1.672,2.514,1.074c0.789-0.449,0.935-1.477,0.438-2.203c-0.264-0.387-0.644-0.697-1.042-0.955
		c0.337-0.471,0.629-0.957,0.872-1.459c1.016,0.477,2.281,0.789,2.823-0.447c0.337-0.773-0.079-1.59-0.782-1.934
		c-0.382-0.186-0.792-0.262-1.205-0.256c0.098-0.619,0.141-1.242,0.112-1.867c1.288-0.125,2.883-1.031,2.528-2.512
		c-0.227-0.945-1.2-1.295-2.032-1.004c-0.401,0.139-0.771,0.344-1.121,0.578c-0.124-0.32-0.261-0.637-0.419-0.949
		c1.186,0,2.369,0,3.556,0c0.078,0.09,0.169,0.176,0.288,0.246c3.707,2.248,3.669,6.98,2.09,10.594
		C68.961,16.568,66.207,19.742,63.22,22.258z"/>
	<path fill="none" d="M7.677,22.258c-4.97,4.189-11.129,7.08-14.513,12.813c-3.384-5.732-9.544-8.623-14.515-12.813
		c-3.111-2.621-6.099-6.039-7.602-9.93c-1.353-3.508-1.102-7.904,2.354-9.998c0.118-0.07,0.21-0.156,0.288-0.246
		c1.185,0,2.368,0,3.555,0c-0.186,0.361-0.339,0.734-0.475,1.107c-0.416-0.303-0.857-0.561-1.348-0.736
		c-0.842-0.305-1.79,0.068-2.032,1.004c-0.41,1.588,1.508,2.518,2.817,2.527c-0.025,0.625,0.011,1.248,0.111,1.863
		c-0.529-0.049-1.064,0.02-1.543,0.266c-0.682,0.354-1.057,1.168-0.732,1.912c0.585,1.334,2.01,0.865,3.057,0.334
		c0.234,0.5,0.512,0.986,0.836,1.453c-0.468,0.279-0.932,0.625-1.238,1.074c-0.496,0.727-0.352,1.754,0.438,2.203
		c1.111,0.633,2.037-0.254,2.611-1.232c0.529,0.486,1.081,0.92,1.651,1.311c-0.302,0.176-0.56,0.43-0.728,0.744
		c-0.436,0.807-0.046,1.801,0.723,2.197c0.747,0.387,1.66,0.141,2.238-0.449c0.273-0.277,0.459-0.609,0.605-0.965
		c0.691,0.285,1.398,0.527,2.119,0.723c-0.285,0.246-0.513,0.543-0.635,0.908c-0.301,0.896,0.185,1.824,1.01,2.182
		c0.882,0.385,1.828-0.008,2.354-0.795c0.348-0.52,0.431-1.1,0.409-1.689c0.618,0.078,1.242,0.133,1.868,0.166
		c-0.063,0.598-0.195,1.186-0.032,1.799c0.219,0.816,0.963,1.59,1.833,1.59c0.867,0,1.613-0.773,1.832-1.59
		c0.163-0.605,0.032-1.191-0.03-1.785c0.625-0.035,1.249-0.09,1.866-0.164c-0.021,0.586,0.065,1.158,0.409,1.674
		c0.525,0.787,1.473,1.18,2.354,0.795c0.827-0.357,1.313-1.285,1.012-2.182c-0.121-0.361-0.346-0.654-0.627-0.898
		c0.637-0.176,1.262-0.381,1.872-0.625c0.14,0.314,0.316,0.607,0.563,0.857c0.577,0.59,1.491,0.836,2.238,0.449
		c0.776-0.402,1.146-1.385,0.723-2.197c-0.137-0.262-0.344-0.484-0.583-0.652c0.556-0.371,1.091-0.785,1.605-1.244
		c0.579,0.912,1.461,1.672,2.512,1.074c0.79-0.449,0.935-1.477,0.438-2.203c-0.265-0.387-0.644-0.697-1.042-0.955
		c0.338-0.471,0.628-0.957,0.873-1.459c1.016,0.477,2.282,0.789,2.822-0.447c0.339-0.773-0.078-1.59-0.782-1.934
		c-0.382-0.186-0.792-0.262-1.206-0.256c0.1-0.619,0.141-1.242,0.112-1.867c1.29-0.125,2.883-1.031,2.53-2.512
		c-0.226-0.945-1.201-1.295-2.034-1.004C10.22,2.594,9.851,2.799,9.5,3.033c-0.122-0.32-0.259-0.637-0.419-0.949
		c1.186,0,2.372,0,3.557,0c0.078,0.09,0.168,0.176,0.287,0.246c3.709,2.248,3.67,6.98,2.09,10.594
		C13.419,16.568,10.664,19.742,7.677,22.258z"/>
	<path fill="none" d="M48.706,6.094c-2.085,0.008-2.858-2.311-1.813-3.928c0.018-0.027,0.027-0.055,0.043-0.082
		c0.59,0,1.18,0,1.77,0s1.18,0,1.768,0c0.016,0.027,0.026,0.055,0.045,0.082C51.57,3.797,50.785,6.086,48.706,6.094z"/>
	<path fill="none" d="M42.497,9.535c1.766,1.104,4.168,1.668,6.21,1.668h-0.001C46.665,11.203,44.262,10.639,42.497,9.535
		c-2.293-1.43-3.867-4.662-1.984-7.131c0.078-0.105,0.132-0.213,0.174-0.32c0.001,0,0.001,0,0.002,0
		c-0.043,0.107-0.096,0.215-0.174,0.32C38.633,4.873,40.206,8.105,42.497,9.535z"/>
	<path fill="none" d="M341.078,5.166c-0.083-0.508-0.233-1.016-0.453-1.52C340.845,4.15,340.995,4.658,341.078,5.166z"/>
	<path fill="none" d="M189.465,23.467c-0.624-1.373-1.32-2.686-1.918-4.045c0.005-0.01,0.011-0.02,0.015-0.029
		c0.602,1.369,1.305,2.691,1.932,4.074c1.221,2.688,2.43,8.43-1.932,8.939c-0.006,0-0.01-0.002-0.015-0.002
		C191.891,31.881,190.683,26.15,189.465,23.467z"/>
	<path fill="none" d="M339.698,2.084c0.014,0.02,0.023,0.043,0.04,0.064c-0.017-0.021-0.026-0.045-0.042-0.064H339.698z"/>
	<path fill="none" d="M316.79,9.527c2.214,2.795,6.217,4.01,9.627,4.01C323.007,13.537,319.003,12.322,316.79,9.527z"/>
	<path fill="none" d="M396.473,22.258c-4.97,4.189-11.13,7.08-14.515,12.813c-3.385-5.732-9.543-8.623-14.513-12.813
		c-3.113-2.621-6.099-6.039-7.602-9.93c-1.354-3.508-1.102-7.904,2.354-9.998c0.117-0.07,0.208-0.156,0.286-0.246
		c1.185,0,2.37,0,3.556,0c-0.186,0.361-0.338,0.734-0.475,1.107c-0.417-0.303-0.857-0.561-1.347-0.736
		c-0.844-0.305-1.793,0.068-2.034,1.004c-0.408,1.588,1.508,2.518,2.819,2.527c-0.027,0.625,0.009,1.248,0.109,1.863
		c-0.527-0.049-1.063,0.02-1.543,0.266c-0.683,0.354-1.056,1.168-0.731,1.912c0.584,1.334,2.01,0.865,3.057,0.334
		c0.233,0.5,0.512,0.986,0.836,1.453c-0.467,0.279-0.931,0.625-1.239,1.074c-0.496,0.727-0.351,1.754,0.438,2.203
		c1.111,0.633,2.035-0.254,2.609-1.232c0.53,0.486,1.084,0.92,1.654,1.311c-0.304,0.176-0.561,0.43-0.729,0.744
		c-0.435,0.807-0.044,1.801,0.723,2.197c0.749,0.387,1.661,0.141,2.238-0.449c0.273-0.277,0.46-0.609,0.605-0.965
		c0.691,0.285,1.398,0.527,2.121,0.723c-0.285,0.246-0.513,0.543-0.637,0.908c-0.302,0.896,0.185,1.824,1.012,2.182
		c0.882,0.385,1.828-0.008,2.353-0.795c0.35-0.52,0.433-1.1,0.409-1.689c0.617,0.078,1.241,0.133,1.868,0.166
		c-0.063,0.598-0.195,1.186-0.031,1.799c0.219,0.816,0.964,1.59,1.832,1.59c0.869,0,1.615-0.773,1.834-1.59
		c0.16-0.605,0.031-1.191-0.031-1.785c0.625-0.035,1.248-0.09,1.865-0.164c-0.02,0.586,0.065,1.158,0.41,1.674
		c0.526,0.787,1.473,1.18,2.354,0.795c0.825-0.357,1.312-1.285,1.009-2.182c-0.121-0.361-0.345-0.654-0.625-0.898
		c0.635-0.176,1.261-0.381,1.871-0.625c0.141,0.314,0.316,0.607,0.563,0.857c0.578,0.59,1.492,0.836,2.238,0.449
		c0.776-0.402,1.146-1.385,0.725-2.197c-0.137-0.262-0.344-0.484-0.584-0.652c0.557-0.371,1.09-0.785,1.604-1.244
		c0.578,0.912,1.462,1.672,2.513,1.074c0.791-0.449,0.936-1.477,0.438-2.203c-0.263-0.387-0.643-0.697-1.041-0.955
		c0.338-0.471,0.629-0.957,0.872-1.459c1.017,0.477,2.281,0.789,2.823-0.447c0.337-0.773-0.078-1.59-0.783-1.934
		c-0.381-0.186-0.791-0.262-1.204-0.256c0.099-0.619,0.141-1.242,0.112-1.867c1.287-0.125,2.881-1.031,2.528-2.512
		c-0.226-0.945-1.2-1.295-2.032-1.004c-0.401,0.139-0.771,0.344-1.121,0.578c-0.124-0.32-0.261-0.637-0.42-0.949
		c1.187,0,2.371,0,3.557,0c0.078,0.09,0.169,0.176,0.287,0.246c3.709,2.248,3.67,6.98,2.09,10.594
		C402.215,16.568,399.46,19.742,396.473,22.258z"/>
	<path fill="none" d="M326.417,11.203c2.006,0,4.474-0.566,6.209-1.668C330.892,10.637,328.423,11.203,326.417,11.203z"/>
	<path fill="none" d="M326.417,6.094c-2.084,0.008-2.858-2.311-1.813-3.928c0.018-0.027,0.028-0.055,0.044-0.082
		c0.589,0,1.179,0,1.769,0s1.18,0,1.77,0c0.016,0.027,0.024,0.055,0.043,0.082C329.282,3.797,328.496,6.086,326.417,6.094z"/>
	<path fill="none" d="M322.118,2.084h0.002c-0.689,2.025,0.035,4.264,1.631,5.465C322.155,6.348,321.43,4.109,322.118,2.084z"/>
	<path fill="none" d="M336.691,8.561c0.828-1.453,1.132-3.076,0.884-4.641C337.823,5.484,337.52,7.107,336.691,8.561z"/>
	<path fill="none" d="M356.12,23.467c-0.629-1.383-1.332-2.705-1.933-4.074C354.789,20.762,355.492,22.084,356.12,23.467
		c1.22,2.688,2.431,8.43-1.933,8.939c0,0,0,0-0.001,0C358.55,31.896,357.339,26.154,356.12,23.467z"/>
	<path fill="none" d="M244.992,23.467c-0.621-1.367-1.313-2.676-1.909-4.029c0.007-0.016,0.015-0.029,0.021-0.045
		c0.602,1.369,1.303,2.691,1.931,4.074c1.222,2.688,2.431,8.43-1.931,8.939c-0.008-0.002-0.015-0.004-0.022-0.006
		C247.417,31.875,246.21,26.148,244.992,23.467z"/>
	<path fill="none" d="M371.297,13.107c3.27,2.314,6.808,2.809,10.663,2.809h-0.002C378.104,15.916,374.565,15.422,371.297,13.107
		c-3.569-2.521-5.634-7.031-2.66-10.959c0.017-0.021,0.026-0.045,0.04-0.064c0.002,0,0.002,0,0.003,0
		c-0.016,0.02-0.024,0.043-0.042,0.064C365.664,6.076,367.73,10.586,371.297,13.107z"/>
	<path fill="none" d="M298.646,19.393c-0.6,1.369-1.302,2.693-1.932,4.074C297.344,22.086,298.044,20.762,298.646,19.393z"/>
	<path fill="none" d="M337.081,13.107c-2.437,1.732-5.058,2.445-7.835,2.693c2.777-0.248,5.398-0.961,7.833-2.693
		c2.443-1.738,4.191-4.406,4.077-7.182C341.271,8.701,339.523,11.369,337.081,13.107z"/>
	<path fill="none" d="M375.75,9.535c1.766,1.104,4.168,1.668,6.21,1.668h-0.002C379.918,11.203,377.515,10.639,375.75,9.535
		c-2.293-1.43-3.867-4.662-1.984-7.131c0.078-0.105,0.132-0.213,0.173-0.32c0.002,0,0.002,0,0.003,0
		c-0.043,0.107-0.097,0.215-0.175,0.32C371.886,4.873,373.458,8.105,375.75,9.535z"/>
	<path fill="none" d="M340.931,22.258c-4.971,4.189-11.13,7.08-14.514,12.813c-3.385-5.732-9.545-8.623-14.515-12.813
		c-3.112-2.621-6.099-6.039-7.602-9.93c-1.353-3.508-1.102-7.904,2.354-9.998c0.118-0.07,0.209-0.156,0.287-0.246
		c1.186,0,2.369,0,3.555,0c-0.185,0.361-0.338,0.734-0.474,1.107c-0.417-0.303-0.858-0.561-1.348-0.736
		c-0.843-0.305-1.79,0.068-2.032,1.004c-0.41,1.588,1.509,2.518,2.817,2.527c-0.026,0.625,0.011,1.248,0.11,1.863
		c-0.527-0.049-1.063,0.02-1.543,0.266c-0.682,0.354-1.056,1.168-0.731,1.912c0.585,1.334,2.009,0.865,3.056,0.334
		c0.234,0.5,0.512,0.986,0.836,1.453c-0.467,0.279-0.931,0.625-1.238,1.074c-0.496,0.727-0.352,1.754,0.438,2.203
		c1.112,0.633,2.038-0.254,2.612-1.232c0.53,0.486,1.081,0.92,1.651,1.311c-0.303,0.176-0.561,0.43-0.729,0.744
		c-0.435,0.807-0.045,1.801,0.723,2.197c0.748,0.387,1.66,0.141,2.238-0.449c0.272-0.277,0.46-0.609,0.607-0.965
		c0.689,0.285,1.396,0.527,2.118,0.723c-0.285,0.246-0.512,0.543-0.636,0.908c-0.301,0.896,0.186,1.824,1.011,2.182
		c0.882,0.385,1.828-0.008,2.354-0.795c0.348-0.52,0.431-1.1,0.408-1.689c0.619,0.078,1.242,0.133,1.87,0.166
		c-0.063,0.598-0.196,1.186-0.031,1.799c0.216,0.816,0.961,1.59,1.831,1.59c0.868,0,1.613-0.773,1.832-1.59
		c0.162-0.605,0.032-1.191-0.03-1.785c0.626-0.035,1.249-0.09,1.866-0.164c-0.021,0.586,0.064,1.158,0.408,1.674
		c0.526,0.787,1.473,1.18,2.355,0.795c0.826-0.357,1.312-1.285,1.011-2.182c-0.121-0.361-0.347-0.654-0.628-0.898
		c0.637-0.176,1.262-0.381,1.873-0.625c0.141,0.314,0.316,0.607,0.563,0.857c0.578,0.59,1.49,0.836,2.238,0.449
		c0.775-0.402,1.146-1.385,0.723-2.197c-0.137-0.262-0.344-0.484-0.584-0.652c0.557-0.371,1.093-0.785,1.605-1.244
		c0.58,0.912,1.463,1.672,2.514,1.074c0.789-0.449,0.934-1.477,0.438-2.203c-0.265-0.387-0.644-0.697-1.042-0.955
		c0.337-0.471,0.628-0.957,0.872-1.459c1.016,0.477,2.281,0.789,2.824-0.447c0.338-0.773-0.079-1.59-0.783-1.934
		c-0.382-0.186-0.792-0.262-1.206-0.256c0.099-0.619,0.141-1.242,0.113-1.867c1.288-0.125,2.882-1.031,2.528-2.512
		c-0.225-0.945-1.2-1.295-2.033-1.004c-0.401,0.139-0.771,0.344-1.121,0.578c-0.123-0.32-0.26-0.637-0.42-0.949
		c1.187,0,2.373,0,3.558,0c0.079,0.09,0.169,0.176,0.288,0.246c3.708,2.248,3.67,6.98,2.088,10.594
		C346.672,16.568,343.917,19.742,340.931,22.258z"/>
	<path fill="none" d="M266.575,2.084h0.002c-1.003,2.945,0.988,6.344,4.297,6.344C267.563,8.428,265.574,5.029,266.575,2.084z"/>
	<path fill="none" d="M133.923,23.467c-0.623-1.373-1.32-2.686-1.918-4.045c0.006-0.01,0.011-0.02,0.015-0.029
		c0.601,1.369,1.304,2.691,1.933,4.074c1.22,2.688,2.431,8.43-1.934,8.939c-0.006,0-0.01-0.002-0.015-0.002
		C136.349,31.883,135.142,26.15,133.923,23.467z"/>
	<path fill="none" d="M284.155,2.084c0.014,0.02,0.024,0.043,0.04,0.064c-0.017-0.021-0.026-0.045-0.042-0.064H284.155z"/>
	<path fill="none" d="M285.39,22.258c-4.971,4.189-11.131,7.08-14.516,12.813c-3.385-5.732-9.545-8.623-14.515-12.813
		c-3.11-2.621-6.099-6.039-7.599-9.93c-1.355-3.508-1.102-7.904,2.352-9.998c0.119-0.07,0.211-0.156,0.287-0.246
		c1.187,0,2.371,0,3.555,0c-0.185,0.361-0.337,0.734-0.473,1.107c-0.416-0.303-0.857-0.561-1.346-0.736
		c-0.844-0.305-1.793,0.068-2.034,1.004c-0.411,1.588,1.508,2.518,2.819,2.527c-0.027,0.625,0.009,1.248,0.109,1.863
		c-0.527-0.049-1.063,0.02-1.545,0.266c-0.681,0.354-1.056,1.168-0.731,1.912c0.585,1.334,2.011,0.865,3.058,0.334
		c0.232,0.5,0.512,0.986,0.836,1.453c-0.469,0.279-0.932,0.625-1.238,1.074c-0.496,0.727-0.352,1.754,0.436,2.203
		c1.112,0.633,2.038-0.254,2.612-1.232c0.53,0.486,1.082,0.92,1.652,1.311c-0.302,0.176-0.56,0.43-0.728,0.744
		c-0.437,0.807-0.046,1.801,0.723,2.197c0.747,0.387,1.658,0.141,2.236-0.449c0.273-0.277,0.46-0.609,0.607-0.965
		c0.689,0.285,1.398,0.527,2.121,0.723c-0.285,0.246-0.515,0.543-0.637,0.908c-0.303,0.896,0.185,1.824,1.01,2.182
		c0.883,0.385,1.827-0.008,2.354-0.795c0.348-0.52,0.432-1.1,0.408-1.689c0.619,0.078,1.242,0.133,1.87,0.166
		c-0.063,0.598-0.195,1.186-0.031,1.799c0.219,0.816,0.964,1.59,1.831,1.59c0.868,0,1.613-0.773,1.832-1.59
		c0.162-0.605,0.032-1.191-0.03-1.785c0.626-0.035,1.249-0.09,1.867-0.164c-0.021,0.586,0.065,1.158,0.41,1.674
		c0.524,0.787,1.47,1.18,2.353,0.795c0.826-0.357,1.313-1.285,1.011-2.182c-0.121-0.361-0.347-0.654-0.628-0.898
		c0.637-0.176,1.262-0.381,1.873-0.625c0.141,0.314,0.317,0.607,0.563,0.857c0.578,0.59,1.492,0.836,2.237,0.449
		c0.775-0.402,1.146-1.385,0.723-2.197c-0.136-0.262-0.344-0.484-0.584-0.652c0.557-0.371,1.093-0.785,1.607-1.244
		c0.578,0.912,1.462,1.672,2.513,1.074c0.788-0.449,0.933-1.477,0.437-2.203c-0.262-0.387-0.643-0.697-1.039-0.955
		c0.336-0.471,0.627-0.957,0.869-1.459c1.016,0.477,2.281,0.789,2.824-0.447c0.338-0.773-0.079-1.59-0.783-1.934
		c-0.382-0.186-0.792-0.262-1.205-0.256c0.098-0.619,0.141-1.242,0.112-1.867c1.289-0.125,2.883-1.031,2.528-2.512
		c-0.225-0.945-1.199-1.295-2.032-1.004c-0.402,0.139-0.771,0.344-1.122,0.578c-0.123-0.32-0.26-0.637-0.417-0.949
		c1.184,0,2.37,0,3.556,0c0.078,0.09,0.17,0.176,0.288,0.246c3.707,2.248,3.669,6.98,2.089,10.594
		C291.13,16.568,288.374,19.742,285.39,22.258z"/>
	<path fill="none" d="M285.536,5.166c-0.083-0.508-0.232-1.016-0.454-1.52C285.304,4.15,285.453,4.658,285.536,5.166z"/>
	<path fill="none" d="M261.247,9.527c2.214,2.795,6.217,4.01,9.627,4.01C267.464,13.537,263.46,12.322,261.247,9.527z"/>
	<path fill="none" d="M260.274,2.084h0.002c-0.843,1.811-0.854,3.855-0.073,5.691C259.423,5.939,259.434,3.895,260.274,2.084z"/>
	<path fill="none" d="M281.539,13.107c-3.249,2.309-6.825,2.809-10.665,2.809c3.84,0,7.415-0.5,10.662-2.809
		c2.443-1.738,4.193-4.406,4.078-7.182C285.729,8.701,283.979,11.369,281.539,13.107z"/>
	<path fill="#8D183D" d="M16.222,24.111c-0.772,1.852-1.526,3.775-1.408,5.824c0.194,3.34,2.862,5.717,6.121,5.717
		c3.393,0,6.086-2.564,6.143-6.037c0.033-2.09-0.815-4.047-1.607-5.924c-0.992-2.354-2.055-4.676-3.126-6.992
		c-0.118-0.369-0.228-0.738-0.313-1.117c-0.252-1.113-1.939-1.111-2.191,0c-0.085,0.379-0.194,0.75-0.313,1.119
		C18.391,19.154,17.265,21.615,16.222,24.111z M19.001,23.467c0.631-1.381,1.334-2.705,1.934-4.074
		c0.602,1.369,1.305,2.691,1.934,4.074c1.219,2.688,2.43,8.43-1.934,8.939c0,0,0,0-0.001,0l0,0
		C16.556,31.895,17.78,26.148,19.001,23.467z"/>
	<path fill="#8D183D" d="M71.763,24.111c-0.771,1.852-1.525,3.775-1.406,5.824c0.194,3.34,2.859,5.717,6.121,5.717
		c3.393,0,6.086-2.564,6.143-6.037c0.032-2.09-0.815-4.047-1.607-5.924c-0.992-2.354-2.056-4.676-3.127-6.992
		c-0.119-0.369-0.229-0.738-0.314-1.117c-0.252-1.113-1.938-1.111-2.189,0c-0.086,0.379-0.195,0.75-0.314,1.119
		C73.933,19.154,72.805,21.615,71.763,24.111z M74.53,23.467c0.63-1.381,1.333-2.705,1.934-4.074
		c0.002,0.004,0.005,0.01,0.006,0.016c0.003-0.006,0.006-0.012,0.008-0.016c0.601,1.369,1.303,2.691,1.932,4.074
		c1.221,2.688,2.431,8.43-1.932,8.939c-0.002,0-0.005-0.002-0.008-0.002c-0.002,0-0.005,0.002-0.008,0.002
		C72.083,31.895,73.308,26.148,74.53,23.467z"/>
	<path fill="#8D183D" d="M127.305,24.111c-0.772,1.852-1.526,3.775-1.407,5.824c0.193,3.34,2.861,5.717,6.121,5.717
		c3.393,0,6.087-2.564,6.143-6.037c0.034-2.09-0.816-4.047-1.606-5.924c-0.991-2.354-2.056-4.676-3.126-6.992
		c-0.119-0.369-0.229-0.738-0.314-1.117c-0.252-1.113-1.939-1.111-2.191,0c-0.084,0.379-0.193,0.75-0.313,1.119
		C129.476,19.154,128.348,21.615,127.305,24.111z M130.059,23.467c0.63-1.381,1.332-2.705,1.933-4.074
		c0.004,0.01,0.009,0.02,0.014,0.029c0.006-0.01,0.011-0.02,0.015-0.029c0.601,1.369,1.304,2.691,1.933,4.074
		c1.22,2.688,2.431,8.43-1.934,8.939c-0.006,0-0.01-0.002-0.015-0.002s-0.009,0.002-0.015,0.002
		C127.612,31.895,128.836,26.148,130.059,23.467z"/>
	<path fill="#8D183D" d="M182.848,24.111c-0.772,1.852-1.527,3.775-1.407,5.824c0.193,3.34,2.86,5.717,6.121,5.717
		c3.392,0,6.086-2.564,6.142-6.037c0.034-2.09-0.815-4.047-1.605-5.924c-0.993-2.354-2.056-4.676-3.128-6.992
		c-0.118-0.369-0.228-0.738-0.313-1.117c-0.252-1.113-1.939-1.111-2.191,0c-0.086,0.379-0.195,0.75-0.314,1.119
		C185.016,19.154,183.891,21.615,182.848,24.111z M185.599,23.467c0.631-1.381,1.334-2.705,1.934-4.074
		c0.004,0.01,0.01,0.02,0.015,0.029c0.005-0.01,0.011-0.02,0.015-0.029c0.602,1.369,1.305,2.691,1.932,4.074
		c1.221,2.688,2.43,8.43-1.932,8.939c-0.006,0-0.01-0.002-0.015-0.002c-0.007,0-0.011,0.002-0.016,0.002
		C183.153,31.895,184.378,26.148,185.599,23.467z"/>
	<path fill="#8D183D" d="M238.39,24.111c-0.771,1.852-1.526,3.775-1.406,5.824c0.193,3.34,2.859,5.717,6.121,5.717
		c3.392,0,6.086-2.564,6.142-6.037c0.032-2.09-0.816-4.047-1.606-5.924c-0.992-2.354-2.057-4.676-3.128-6.992
		c-0.118-0.369-0.228-0.738-0.313-1.117c-0.253-1.113-1.938-1.111-2.19,0c-0.086,0.379-0.195,0.75-0.313,1.119
		C240.559,19.154,239.431,21.615,238.39,24.111z M241.128,23.467c0.63-1.381,1.333-2.705,1.934-4.074
		c0.006,0.016,0.014,0.029,0.021,0.045c0.007-0.016,0.015-0.029,0.021-0.045c0.602,1.369,1.303,2.691,1.931,4.074
		c1.222,2.688,2.431,8.43-1.931,8.939c-0.008-0.002-0.015-0.004-0.022-0.006c-0.008,0.002-0.015,0.004-0.022,0.006
		C238.681,31.895,239.905,26.148,241.128,23.467z"/>
	<path fill="#8D183D" d="M293.931,24.111c-0.771,1.852-1.525,3.775-1.406,5.824c0.194,3.34,2.859,5.717,6.12,5.717
		c3.394,0,6.087-2.564,6.144-6.037c0.033-2.09-0.816-4.047-1.607-5.924c-0.99-2.354-2.055-4.676-3.126-6.992
		c-0.118-0.369-0.229-0.738-0.313-1.117c-0.253-1.113-1.939-1.111-2.19,0c-0.086,0.379-0.195,0.75-0.313,1.119
		C296.102,19.154,294.974,21.615,293.931,24.111z M296.714,23.467c0.63-1.381,1.33-2.705,1.932-4.074
		c0.601,1.369,1.304,2.691,1.933,4.074c1.22,2.688,2.43,8.43-1.934,8.939C294.267,31.895,295.491,26.148,296.714,23.467z"/>
	<path fill="#8D183D" d="M349.474,24.111c-0.771,1.852-1.525,3.775-1.407,5.824c0.195,3.34,2.86,5.717,6.121,5.717
		c3.392,0,6.086-2.564,6.144-6.037c0.032-2.09-0.816-4.047-1.608-5.924c-0.991-2.354-2.055-4.676-3.126-6.992
		c-0.119-0.369-0.229-0.738-0.314-1.117c-0.251-1.113-1.938-1.111-2.189,0c-0.086,0.379-0.195,0.75-0.314,1.119
		C351.644,19.154,350.517,21.615,349.474,24.111z M351.806,24.6c0.143-0.414,0.296-0.799,0.448-1.133
		c0.63-1.381,1.333-2.705,1.934-4.074c0.602,1.369,1.305,2.691,1.934,4.074c1.219,2.688,2.43,8.43-1.934,8.939c0,0,0,0-0.001,0l0,0
		C350.355,31.959,350.813,27.502,351.806,24.6z"/>
	<path fill="#8D183D" d="M437.5,2.084V-0.25c-18.513,0-37.027,0-55.542,0c-18.514,0-37.027,0-55.541,0s-37.029,0-55.543,0
		s-37.027,0-55.542,0s-37.027,0-55.542,0c-18.514,0-37.028,0-55.543,0c-18.513,0-37.028,0-55.541,0c-18.515,0-37.027,0-55.542,0
		s-37.028,0-55.543,0v2.334c0.59,0,1.18,0,1.77,0c0.016,0.027,0.024,0.055,0.043,0.082c1.054,1.631,0.267,3.92-1.813,3.928v2.334
		c3.31,0,5.298-3.398,4.298-6.344c1.24,0,2.48,0,3.722,0c0.042,0.107,0.095,0.215,0.175,0.32c1.301,1.705,0.951,3.752-0.133,5.336
		c-0.197,0.289-0.42,0.561-0.66,0.813c-0.361,0.379-0.765,0.711-1.191,0.982c-1.733,1.102-4.203,1.668-6.21,1.668v2.334
		c3.446,0,7.534-1.242,9.716-4.129c0.416-0.549,0.748-1.133,0.992-1.738c0.741-1.813,0.719-3.809-0.11-5.586h0.001
		c0.894,0,1.787,0,2.682,0h0.001c0.015,0.02,0.023,0.043,0.04,0.064c0.373,0.492,0.667,0.992,0.887,1.498
		c0.222,0.504,0.371,1.012,0.455,1.52c0.043,0.254,0.067,0.508,0.078,0.76c0.114,2.775-1.636,5.443-4.077,7.182
		c-3.247,2.309-6.824,2.809-10.664,2.809v5.664c0.868,0,1.613-0.773,1.832-1.59c0.163-0.605,0.032-1.191-0.03-1.785
		c0.627-0.035,1.249-0.09,1.867-0.164c-0.021,0.586,0.065,1.158,0.41,1.674c0.525,0.787,1.471,1.18,2.354,0.795
		c0.825-0.357,1.313-1.285,1.01-2.182c-0.121-0.361-0.346-0.654-0.627-0.898c0.637-0.176,1.262-0.381,1.872-0.625
		c0.141,0.314,0.317,0.607,0.563,0.857c0.578,0.59,1.491,0.836,2.237,0.449c0.776-0.402,1.146-1.385,0.723-2.197
		c-0.136-0.262-0.344-0.484-0.583-0.652c0.556-0.371,1.092-0.785,1.605-1.244c0.579,0.912,1.463,1.672,2.514,1.074
		c0.788-0.449,0.933-1.477,0.437-2.203c-0.262-0.387-0.642-0.697-1.04-0.955c0.337-0.471,0.629-0.957,0.871-1.459
		c1.016,0.477,2.282,0.789,2.824-0.447c0.337-0.773-0.08-1.59-0.784-1.934c-0.382-0.186-0.792-0.262-1.206-0.256
		c0.1-0.619,0.143-1.242,0.113-1.867c1.289-0.125,2.883-1.031,2.529-2.512c-0.226-0.945-1.199-1.295-2.033-1.004
		c-0.402,0.139-0.771,0.344-1.122,0.578c-0.122-0.32-0.259-0.637-0.417-0.949c1.186,0,2.37,0,3.557,0
		c0.078,0.09,0.169,0.176,0.287,0.246c3.707,2.248,3.67,6.98,2.088,10.594c-1.594,3.645-4.351,6.818-7.335,9.334
		c-4.97,4.189-11.13,7.08-14.516,12.813v4.34c0.399,0,0.798-0.189,0.98-0.572c4.047-8.461,13.137-11.875,19.113-18.545
		c4.442-4.959,6.897-12.195,3.515-18.209c2.775,0,5.551,0,8.326,0c-3.384,6.014-0.927,13.25,3.516,18.209
		c5.977,6.67,15.066,10.084,19.111,18.545c0.182,0.383,0.582,0.572,0.981,0.572c0.398,0,0.798-0.189,0.98-0.572
		c4.044-8.461,13.136-11.875,19.112-18.545c4.442-4.959,6.898-12.195,3.516-18.209c2.774,0,5.551,0,8.325,0
		c-3.383,6.014-0.929,13.25,3.517,18.209c5.975,6.67,15.066,10.084,19.111,18.545c0.182,0.383,0.58,0.572,0.98,0.572
		c0.399,0,0.799-0.189,0.981-0.572c4.044-8.461,13.134-11.875,19.11-18.545c4.443-4.959,6.9-12.195,3.515-18.209
		c2.777,0,5.552,0,8.328,0c-3.386,6.014-0.929,13.25,3.515,18.209c5.977,6.67,15.066,10.084,19.111,18.545
		c0.183,0.383,0.582,0.572,0.98,0.572c0.4,0,0.8-0.189,0.982-0.572c4.044-8.461,13.135-11.875,19.111-18.545
		c4.441-4.959,6.897-12.195,3.515-18.209c2.776,0,5.552,0,8.328,0c-3.386,6.014-0.929,13.25,3.515,18.209
		c5.977,6.67,15.066,10.084,19.11,18.545c0.183,0.383,0.582,0.572,0.981,0.572c0.398,0,0.799-0.189,0.98-0.572
		c4.045-8.461,13.137-11.875,19.111-18.545c4.443-4.959,6.899-12.195,3.517-18.209c2.774,0,5.551,0,8.325,0
		c-3.383,6.014-0.928,13.25,3.516,18.209c5.976,6.67,15.068,10.084,19.112,18.545c0.183,0.383,0.582,0.572,0.98,0.572
		c0.399,0,0.8-0.189,0.981-0.572c4.045-8.461,13.135-11.875,19.111-18.545c4.442-4.959,6.899-12.195,3.514-18.209
		c2.776,0,5.553,0,8.328,0c-3.384,6.014-0.928,13.25,3.515,18.209c5.977,6.67,15.067,10.084,19.112,18.545
		c0.182,0.383,0.582,0.572,0.98,0.572c0.399,0,0.798-0.189,0.981-0.572c4.046-8.461,13.136-11.875,19.112-18.545
		c4.442-4.959,6.896-12.195,3.514-18.209c2.776,0,5.551,0,8.327,0c-3.384,6.014-0.927,13.25,3.516,18.209
		c5.977,6.67,15.066,10.084,19.11,18.545c0.183,0.383,0.582,0.572,0.982,0.572c0.398,0,0.798-0.189,0.98-0.572
		c4.044-8.461,13.137-11.875,19.11-18.545c4.444-4.959,6.899-12.195,3.517-18.209c2.775,0,5.551,0,8.326,0
		c-3.383,6.014-0.929,13.25,3.517,18.209c5.974,6.67,15.066,10.084,19.11,18.545c0.183,0.383,0.581,0.572,0.98,0.572
		c0.4,0,0.8-0.189,0.982-0.572c4.044-8.461,13.134-11.875,19.11-18.545c4.442-4.959,6.899-12.195,3.516-18.209
		c2.776,0,5.551,0,8.327,0c-3.385,6.014-0.929,13.25,3.514,18.209c5.977,6.67,15.066,10.084,19.112,18.545
		c0.183,0.383,0.582,0.572,0.98,0.572v-4.34c-3.384-5.732-9.543-8.623-14.515-12.813c-3.11-2.621-6.099-6.039-7.599-9.93
		c-1.354-3.508-1.102-7.904,2.352-9.998c0.118-0.07,0.21-0.156,0.288-0.246c1.186,0,2.371,0,3.555,0
		c-0.186,0.361-0.338,0.734-0.473,1.107c-0.417-0.303-0.858-0.561-1.347-0.736c-0.844-0.305-1.793,0.068-2.034,1.004
		c-0.411,1.588,1.508,2.518,2.819,2.527c-0.027,0.625,0.009,1.248,0.109,1.863c-0.527-0.049-1.063,0.02-1.543,0.266
		c-0.683,0.354-1.058,1.168-0.733,1.912c0.585,1.334,2.012,0.865,3.058,0.334c0.233,0.5,0.512,0.986,0.836,1.453
		c-0.469,0.279-0.933,0.625-1.238,1.074c-0.496,0.727-0.352,1.754,0.437,2.203c1.111,0.633,2.037-0.254,2.611-1.232
		c0.53,0.486,1.082,0.92,1.654,1.311c-0.304,0.176-0.561,0.43-0.729,0.744c-0.437,0.807-0.046,1.801,0.723,2.197
		c0.747,0.387,1.659,0.141,2.237-0.449c0.273-0.277,0.459-0.609,0.606-0.965c0.69,0.285,1.398,0.527,2.121,0.723
		c-0.285,0.246-0.515,0.543-0.637,0.908c-0.302,0.896,0.185,1.824,1.011,2.182c0.883,0.385,1.828-0.008,2.353-0.795
		c0.348-0.52,0.433-1.1,0.409-1.689c0.618,0.078,1.242,0.133,1.869,0.166c-0.063,0.598-0.195,1.186-0.031,1.799
		c0.219,0.816,0.964,1.59,1.831,1.59v-5.664c-0.003,0-0.003,0-0.005,0c-0.003,0-0.006,0-0.008,0c-3.855,0-7.394-0.494-10.664-2.809
		c-3.565-2.521-5.632-7.031-2.658-10.959c0.018-0.021,0.026-0.045,0.042-0.064c0.004,0,0.009,0,0.013,0c0.89,0,1.78,0,2.668,0
		c0.006,0,0.01,0,0.015,0c-1.124,2.414-0.769,5.242,0.973,7.443c2.211,2.795,6.211,4.008,9.62,4.01c0.002,0,0.002,0,0.005,0v-2.334
		c-0.003,0-0.003,0-0.005,0c-0.003,0-0.006,0-0.008,0c-2.041,0-4.445-0.564-6.21-1.668c-2.292-1.43-3.866-4.662-1.983-7.131
		c0.078-0.105,0.132-0.213,0.175-0.32c0.004,0,0.009,0,0.013,0c1.236,0,2.473,0,3.707,0c0.006,0,0.01,0,0.015,0
		c-1.003,2.943,0.985,6.34,4.292,6.344c0.002,0,0.002,0,0.005,0V6.094c-2.083,0.008-2.856-2.311-1.812-3.928
		c0.019-0.027,0.027-0.055,0.043-0.082C436.321,2.084,436.911,2.084,437.5,2.084z M-6.836,6.094
		c-2.085,0.008-2.858-2.311-1.813-3.928c0.017-0.027,0.027-0.055,0.042-0.082c0.59,0,1.18,0,1.771,0c0.59,0,1.18,0,1.77,0
		c0.015,0.027,0.024,0.055,0.043,0.082C-3.97,3.797-4.757,6.086-6.836,6.094z M-0.626,9.535c-1.736,1.102-4.203,1.668-6.21,1.668
		c-2.04,0-4.445-0.564-6.211-1.668c-2.29-1.43-3.864-4.662-1.981-7.131c0.078-0.105,0.131-0.213,0.174-0.32c1.24,0,2.479,0,3.721,0
		c-1.002,2.945,0.988,6.344,4.298,6.344s5.298-3.398,4.297-6.344c1.241,0,2.481,0,3.723,0c0.042,0.107,0.095,0.215,0.173,0.32
		C3.249,4.885,1.653,8.09-0.626,9.535z M3.827,13.107c-3.248,2.309-6.824,2.809-10.663,2.809c-3.855,0-7.394-0.494-10.664-2.809
		c-3.565-2.521-5.633-7.031-2.657-10.959c0.017-0.021,0.025-0.045,0.041-0.064c0.894,0,1.787,0,2.682,0
		c-1.124,2.414-0.769,5.242,0.973,7.443c2.212,2.795,6.216,4.01,9.626,4.01c3.445,0,7.534-1.242,9.715-4.129
		c1.66-2.197,1.988-4.955,0.883-7.324c0.895,0,1.789,0,2.683,0c0.016,0.02,0.024,0.043,0.041,0.064
		C9.465,6.084,7.379,10.582,3.827,13.107z M15.015,12.924c-1.596,3.645-4.351,6.818-7.338,9.334
		c-4.97,4.189-11.129,7.08-14.513,12.813c-3.384-5.732-9.544-8.623-14.515-12.813c-3.111-2.621-6.099-6.039-7.602-9.93
		c-1.353-3.508-1.102-7.904,2.354-9.998c0.118-0.07,0.21-0.156,0.288-0.246c1.185,0,2.368,0,3.555,0
		c-0.186,0.361-0.339,0.734-0.475,1.107c-0.416-0.303-0.857-0.561-1.348-0.736c-0.842-0.305-1.79,0.068-2.032,1.004
		c-0.41,1.588,1.508,2.518,2.817,2.527c-0.025,0.625,0.011,1.248,0.111,1.863c-0.529-0.049-1.064,0.02-1.543,0.266
		c-0.682,0.354-1.057,1.168-0.732,1.912c0.585,1.334,2.01,0.865,3.057,0.334c0.234,0.5,0.512,0.986,0.836,1.453
		c-0.468,0.279-0.932,0.625-1.238,1.074c-0.496,0.727-0.352,1.754,0.438,2.203c1.111,0.633,2.037-0.254,2.611-1.232
		c0.529,0.486,1.081,0.92,1.651,1.311c-0.302,0.176-0.56,0.43-0.728,0.744c-0.436,0.807-0.046,1.801,0.723,2.197
		c0.747,0.387,1.66,0.141,2.238-0.449c0.273-0.277,0.459-0.609,0.605-0.965c0.691,0.285,1.398,0.527,2.119,0.723
		c-0.285,0.246-0.513,0.543-0.635,0.908c-0.301,0.896,0.185,1.824,1.01,2.182c0.882,0.385,1.828-0.008,2.354-0.795
		c0.348-0.52,0.431-1.1,0.409-1.689c0.618,0.078,1.242,0.133,1.868,0.166c-0.063,0.598-0.195,1.186-0.032,1.799
		c0.219,0.816,0.963,1.59,1.833,1.59c0.867,0,1.613-0.773,1.832-1.59c0.163-0.605,0.032-1.191-0.03-1.785
		c0.625-0.035,1.249-0.09,1.866-0.164c-0.021,0.586,0.065,1.158,0.409,1.674c0.525,0.787,1.473,1.18,2.354,0.795
		c0.827-0.357,1.313-1.285,1.012-2.182c-0.121-0.361-0.346-0.654-0.627-0.898c0.637-0.176,1.262-0.381,1.872-0.625
		c0.14,0.314,0.316,0.607,0.563,0.857c0.577,0.59,1.491,0.836,2.238,0.449c0.776-0.402,1.146-1.385,0.723-2.197
		c-0.137-0.262-0.344-0.484-0.583-0.652c0.556-0.371,1.091-0.785,1.605-1.244c0.579,0.912,1.461,1.672,2.512,1.074
		c0.79-0.449,0.935-1.477,0.438-2.203c-0.265-0.387-0.644-0.697-1.042-0.955c0.338-0.471,0.628-0.957,0.873-1.459
		c1.016,0.477,2.282,0.789,2.822-0.447c0.339-0.773-0.078-1.59-0.782-1.934c-0.382-0.186-0.792-0.262-1.206-0.256
		c0.1-0.619,0.141-1.242,0.112-1.867c1.29-0.125,2.883-1.031,2.53-2.512c-0.226-0.945-1.201-1.295-2.034-1.004
		C10.22,2.594,9.851,2.799,9.5,3.033c-0.122-0.32-0.259-0.637-0.419-0.949c1.186,0,2.372,0,3.557,0
		c0.078,0.09,0.168,0.176,0.287,0.246C16.634,4.578,16.595,9.311,15.015,12.924z M48.706,6.094
		c-2.085,0.008-2.858-2.311-1.813-3.928c0.018-0.027,0.027-0.055,0.043-0.082c0.59,0,1.18,0,1.77,0s1.18,0,1.768,0
		c0.016,0.027,0.026,0.055,0.045,0.082C51.57,3.797,50.785,6.086,48.706,6.094z M54.918,9.535c-1.735,1.102-4.204,1.668-6.21,1.668
		h-0.001h-0.001c-2.041,0-4.444-0.564-6.21-1.668c-2.292-1.43-3.866-4.662-1.983-7.131c0.078-0.105,0.132-0.213,0.174-0.32
		c0.001,0,0.001,0,0.002,0c1.24,0,2.48,0,3.721,0h0.001c-1.001,2.945,0.985,6.344,4.297,6.344c3.308,0,5.298-3.398,4.296-6.344
		c0.001,0,0.001,0,0.002,0c1.24,0,2.48,0,3.719,0c0.002,0,0.002,0,0.003,0c0.042,0.107,0.095,0.215,0.173,0.32
		C58.793,4.885,57.196,8.09,54.918,9.535z M59.371,13.107c-3.249,2.309-6.824,2.809-10.663,2.809h-0.001h-0.001
		c-3.854,0-7.394-0.494-10.664-2.809c-3.565-2.521-5.632-7.031-2.658-10.959c0.018-0.021,0.026-0.045,0.041-0.064
		c0.001,0,0.001,0,0.002,0c0.894,0,1.788,0,2.682,0h0.001c-1.124,2.414-0.769,5.242,0.973,7.443c2.211,2.795,6.214,4.01,9.625,4.01
		c3.445,0,7.532-1.242,9.714-4.129c1.66-2.197,1.988-4.955,0.884-7.324h0.001c0.895,0,1.788,0,2.68,0h0.002
		c0.016,0.02,0.024,0.043,0.041,0.064C65.009,6.084,62.923,10.582,59.371,13.107z M70.558,12.924
		c-1.597,3.645-4.351,6.818-7.338,9.334c-4.97,4.189-11.13,7.08-14.514,12.813c-3.386-5.732-9.543-8.623-14.515-12.813
		c-3.112-2.621-6.099-6.039-7.601-9.93c-1.354-3.508-1.102-7.904,2.352-9.998c0.12-0.07,0.211-0.156,0.289-0.246
		c1.186,0,2.37,0,3.555,0c-0.185,0.361-0.337,0.734-0.473,1.107c-0.416-0.303-0.859-0.561-1.348-0.736
		c-0.844-0.305-1.793,0.068-2.033,1.004c-0.409,1.588,1.508,2.518,2.818,2.527c-0.027,0.625,0.01,1.248,0.109,1.863
		c-0.527-0.049-1.063,0.02-1.543,0.266c-0.682,0.354-1.057,1.168-0.731,1.912c0.585,1.334,2.011,0.865,3.058,0.334
		c0.232,0.5,0.512,0.986,0.836,1.453c-0.469,0.279-0.932,0.625-1.238,1.074c-0.498,0.727-0.354,1.754,0.438,2.203
		c1.11,0.633,2.035-0.254,2.609-1.232c0.529,0.486,1.083,0.92,1.653,1.311c-0.304,0.176-0.56,0.43-0.729,0.744
		c-0.436,0.807-0.045,1.801,0.723,2.197c0.749,0.387,1.66,0.141,2.238-0.449c0.273-0.277,0.459-0.609,0.605-0.965
		c0.691,0.285,1.398,0.527,2.121,0.723c-0.285,0.246-0.514,0.543-0.637,0.908c-0.302,0.896,0.186,1.824,1.011,2.182
		c0.883,0.385,1.829-0.008,2.355-0.795c0.348-0.52,0.43-1.1,0.407-1.689c0.617,0.078,1.241,0.133,1.869,0.166
		c-0.062,0.598-0.195,1.186-0.031,1.799c0.219,0.816,0.963,1.59,1.832,1.59c0.868,0,1.613-0.773,1.83-1.59
		c0.163-0.605,0.034-1.191-0.029-1.785c0.626-0.035,1.25-0.09,1.867-0.164c-0.02,0.586,0.064,1.158,0.41,1.674
		c0.525,0.787,1.473,1.18,2.354,0.795c0.826-0.357,1.312-1.285,1.01-2.182c-0.121-0.361-0.347-0.654-0.625-0.898
		c0.634-0.176,1.259-0.381,1.871-0.625c0.139,0.314,0.316,0.607,0.563,0.857c0.578,0.59,1.492,0.836,2.238,0.449
		c0.775-0.402,1.145-1.385,0.724-2.197c-0.137-0.262-0.344-0.484-0.585-0.652c0.558-0.371,1.092-0.785,1.605-1.244
		c0.578,0.912,1.463,1.672,2.514,1.074c0.789-0.449,0.935-1.477,0.438-2.203c-0.264-0.387-0.644-0.697-1.042-0.955
		c0.337-0.471,0.629-0.957,0.872-1.459c1.016,0.477,2.281,0.789,2.823-0.447c0.337-0.773-0.079-1.59-0.782-1.934
		c-0.382-0.186-0.792-0.262-1.205-0.256c0.098-0.619,0.141-1.242,0.112-1.867c1.288-0.125,2.883-1.031,2.528-2.512
		c-0.227-0.945-1.2-1.295-2.032-1.004c-0.401,0.139-0.771,0.344-1.121,0.578c-0.124-0.32-0.261-0.637-0.419-0.949
		c1.186,0,2.369,0,3.556,0c0.078,0.09,0.169,0.176,0.288,0.246C72.175,4.578,72.137,9.311,70.558,12.924z M104.247,6.094
		c-2.083,0.008-2.856-2.311-1.811-3.928c0.018-0.027,0.027-0.055,0.043-0.082c0.59,0,1.18,0,1.768,0c0.59,0,1.18,0,1.77,0
		c0.016,0.027,0.025,0.055,0.043,0.082C107.113,3.797,106.327,6.086,104.247,6.094z M110.457,9.535
		c-1.733,1.102-4.203,1.668-6.21,1.668c-0.004,0-0.009-0.002-0.014-0.002c-0.006,0-0.011,0.002-0.015,0.002
		c-2.04,0-4.445-0.564-6.21-1.668c-2.291-1.43-3.865-4.662-1.982-7.131c0.078-0.105,0.131-0.213,0.174-0.32c0.01,0,0.02,0,0.029,0
		c1.23,0,2.462,0,3.691,0c0.01,0,0.02,0,0.029,0c-1.001,2.941,0.982,6.334,4.283,6.344c3.301-0.01,5.282-3.402,4.283-6.344
		c0.01,0,0.02,0,0.029,0c1.23,0,2.461,0,3.692,0c0.009,0,0.02,0,0.028,0c0.042,0.107,0.096,0.215,0.175,0.32
		C114.335,4.885,112.737,8.09,110.457,9.535z M114.911,13.107c-3.247,2.309-6.824,2.809-10.664,2.809c-0.005,0-0.009,0-0.014,0
		c-0.006,0-0.01,0-0.015,0c-3.855,0-7.394-0.494-10.664-2.809c-3.565-2.521-5.632-7.031-2.657-10.959
		c0.017-0.021,0.025-0.045,0.041-0.064c0.01,0,0.02,0,0.029,0c0.884,0,1.77,0,2.652,0c0.01,0,0.02,0,0.029,0
		c-1.123,2.414-0.768,5.242,0.972,7.443c2.211,2.791,6.204,4.006,9.612,4.008c3.443-0.002,7.521-1.244,9.701-4.127
		c1.659-2.197,1.987-4.955,0.883-7.324c0.011,0,0.02,0,0.029,0c0.883,0,1.768,0,2.652,0c0.01,0,0.02,0,0.029,0
		c0.015,0.02,0.025,0.043,0.041,0.064C120.55,6.084,118.465,10.582,114.911,13.107z M126.098,12.924
		c-1.594,3.645-4.351,6.818-7.335,9.334c-4.97,4.189-11.13,7.08-14.516,12.813c-3.384-5.732-9.544-8.623-14.514-12.813
		c-3.111-2.621-6.1-6.039-7.6-9.93C80.78,8.82,81.032,4.424,84.485,2.33c0.119-0.07,0.21-0.156,0.288-0.246c1.185,0,2.371,0,3.555,0
		c-0.185,0.361-0.339,0.734-0.473,1.107c-0.417-0.303-0.858-0.561-1.347-0.736c-0.844-0.305-1.793,0.068-2.033,1.004
		c-0.412,1.588,1.508,2.518,2.818,2.527c-0.027,0.625,0.01,1.248,0.109,1.863c-0.527-0.049-1.063,0.02-1.544,0.266
		c-0.681,0.354-1.056,1.168-0.731,1.912c0.584,1.334,2.01,0.865,3.057,0.334c0.233,0.5,0.511,0.986,0.835,1.453
		c-0.468,0.279-0.931,0.625-1.237,1.074c-0.496,0.727-0.352,1.754,0.437,2.203c1.112,0.633,2.038-0.254,2.612-1.232
		c0.529,0.486,1.082,0.92,1.652,1.311c-0.303,0.176-0.559,0.43-0.729,0.744c-0.436,0.807-0.045,1.801,0.723,2.197
		c0.748,0.387,1.659,0.141,2.237-0.449c0.273-0.277,0.46-0.609,0.606-0.965c0.69,0.285,1.398,0.527,2.121,0.723
		c-0.285,0.246-0.514,0.543-0.637,0.908c-0.302,0.896,0.186,1.824,1.011,2.182c0.883,0.385,1.828-0.008,2.353-0.795
		c0.348-0.52,0.433-1.1,0.409-1.689c0.618,0.078,1.242,0.133,1.87,0.166c-0.063,0.598-0.195,1.186-0.031,1.799
		c0.219,0.816,0.963,1.59,1.83,1.59c0.869,0,1.613-0.773,1.832-1.59c0.163-0.605,0.033-1.191-0.029-1.785
		c0.626-0.035,1.248-0.09,1.867-0.164c-0.021,0.586,0.064,1.158,0.41,1.674c0.525,0.787,1.47,1.18,2.353,0.795
		c0.825-0.357,1.313-1.285,1.011-2.182c-0.121-0.361-0.347-0.654-0.627-0.898c0.636-0.176,1.261-0.381,1.871-0.625
		c0.141,0.314,0.318,0.607,0.564,0.857c0.578,0.59,1.49,0.836,2.236,0.449c0.776-0.402,1.146-1.385,0.723-2.197
		c-0.135-0.262-0.344-0.484-0.583-0.652c0.556-0.371,1.093-0.785,1.606-1.244c0.578,0.912,1.463,1.672,2.512,1.074
		c0.789-0.449,0.934-1.477,0.438-2.203c-0.262-0.387-0.642-0.697-1.04-0.955c0.337-0.471,0.628-0.957,0.872-1.459
		c1.015,0.477,2.281,0.789,2.823-0.447c0.337-0.773-0.079-1.59-0.784-1.934c-0.381-0.186-0.791-0.262-1.205-0.256
		c0.099-0.619,0.142-1.242,0.111-1.867c1.291-0.125,2.885-1.031,2.531-2.512c-0.227-0.945-1.2-1.295-2.035-1.004
		c-0.4,0.139-0.77,0.344-1.121,0.578c-0.122-0.32-0.259-0.637-0.416-0.949c1.184,0,2.369,0,3.556,0
		c0.077,0.09,0.168,0.176,0.288,0.246C127.718,4.578,127.68,9.311,126.098,12.924z M159.79,6.094
		c-2.084,0.008-2.856-2.311-1.813-3.928c0.019-0.027,0.028-0.055,0.044-0.082c0.59,0,1.18,0,1.77,0s1.18,0,1.77,0
		c0.016,0.027,0.025,0.055,0.043,0.082C162.656,3.797,161.87,6.086,159.79,6.094z M166,9.535c-1.734,1.102-4.203,1.668-6.21,1.668
		c-0.005,0-0.01-0.002-0.014-0.002s-0.01,0.002-0.015,0.002c-2.04,0-4.445-0.564-6.211-1.668c-2.29-1.43-3.864-4.662-1.981-7.131
		c0.078-0.105,0.131-0.213,0.174-0.32c0.01,0,0.02,0,0.029,0c1.23,0,2.461,0,3.691,0c0.009,0,0.02,0,0.028,0
		c-1.001,2.941,0.983,6.334,4.284,6.344c3.301-0.01,5.282-3.402,4.282-6.344c0.009,0,0.019,0,0.027,0c1.233,0,2.464,0,3.695,0
		c0.009,0,0.019,0,0.027,0c0.043,0.107,0.097,0.215,0.175,0.32C169.875,4.885,168.28,8.09,166,9.535z M170.454,13.107
		c-3.247,2.309-6.825,2.809-10.664,2.809c-0.005,0-0.009,0-0.014,0c-0.006,0-0.01,0-0.015,0c-3.855,0-7.394-0.494-10.664-2.809
		c-3.565-2.521-5.633-7.031-2.657-10.959c0.017-0.021,0.025-0.045,0.041-0.064c0.01,0,0.02,0,0.029,0c0.883,0,1.768,0,2.652,0
		c0.01,0,0.02,0,0.029,0c-1.125,2.414-0.77,5.242,0.972,7.443c2.21,2.791,6.204,4.006,9.612,4.008
		c3.443-0.002,7.521-1.244,9.7-4.127c1.66-2.197,1.988-4.955,0.883-7.324c0.011,0,0.02,0,0.03,0c0.883,0,1.768,0,2.652,0
		c0.01,0,0.02,0,0.029,0c0.015,0.02,0.023,0.043,0.041,0.064C176.091,6.084,174.005,10.582,170.454,13.107z M181.641,12.924
		c-1.595,3.645-4.351,6.818-7.336,9.334c-4.97,4.189-11.129,7.08-14.515,12.813c-3.384-5.732-9.544-8.623-14.514-12.813
		c-3.112-2.621-6.1-6.039-7.601-9.93c-1.354-3.508-1.103-7.904,2.353-9.998c0.119-0.07,0.21-0.156,0.288-0.246
		c1.185,0,2.37,0,3.555,0c-0.185,0.361-0.339,0.734-0.474,1.107c-0.417-0.303-0.858-0.561-1.348-0.736
		c-0.843-0.305-1.791,0.068-2.033,1.004c-0.41,1.588,1.508,2.518,2.818,2.527c-0.026,0.625,0.01,1.248,0.109,1.863
		c-0.526-0.049-1.063,0.02-1.542,0.266c-0.681,0.354-1.058,1.168-0.731,1.912c0.584,1.334,2.009,0.865,3.056,0.334
		c0.234,0.5,0.512,0.986,0.836,1.453c-0.468,0.279-0.931,0.625-1.238,1.074c-0.497,0.727-0.352,1.754,0.438,2.203
		c1.112,0.633,2.038-0.254,2.612-1.232c0.529,0.486,1.08,0.92,1.65,1.311c-0.303,0.176-0.56,0.43-0.729,0.744
		c-0.434,0.807-0.045,1.801,0.724,2.197c0.747,0.387,1.66,0.141,2.238-0.449c0.272-0.277,0.46-0.609,0.606-0.965
		c0.69,0.285,1.397,0.527,2.119,0.723c-0.284,0.246-0.512,0.543-0.635,0.908c-0.302,0.896,0.183,1.824,1.01,2.182
		c0.881,0.385,1.828-0.008,2.354-0.795c0.348-0.52,0.432-1.1,0.409-1.689c0.617,0.078,1.241,0.133,1.868,0.166
		c-0.063,0.598-0.195,1.186-0.032,1.799c0.219,0.816,0.964,1.59,1.833,1.59c0.867,0,1.613-0.773,1.832-1.59
		c0.163-0.605,0.033-1.191-0.029-1.785c0.625-0.035,1.248-0.09,1.865-0.164c-0.021,0.586,0.065,1.158,0.409,1.674
		c0.526,0.787,1.473,1.18,2.354,0.795c0.826-0.357,1.313-1.285,1.012-2.182c-0.121-0.361-0.348-0.654-0.628-0.898
		c0.637-0.176,1.262-0.381,1.872-0.625c0.14,0.314,0.316,0.607,0.563,0.857c0.577,0.59,1.492,0.836,2.238,0.449
		c0.776-0.402,1.146-1.385,0.723-2.197c-0.137-0.262-0.344-0.484-0.584-0.652c0.557-0.371,1.092-0.785,1.606-1.244
		c0.579,0.912,1.461,1.672,2.513,1.074c0.789-0.449,0.934-1.477,0.438-2.203c-0.264-0.387-0.645-0.697-1.041-0.955
		c0.337-0.471,0.627-0.957,0.872-1.459c1.016,0.477,2.281,0.789,2.823-0.447c0.338-0.773-0.078-1.59-0.783-1.934
		c-0.381-0.186-0.791-0.262-1.205-0.256c0.099-0.619,0.141-1.242,0.111-1.867c1.289-0.125,2.883-1.031,2.53-2.512
		c-0.226-0.945-1.199-1.295-2.034-1.004c-0.4,0.139-0.771,0.344-1.121,0.578c-0.123-0.32-0.26-0.637-0.419-0.949
		c1.187,0,2.371,0,3.558,0c0.078,0.09,0.168,0.176,0.287,0.246C183.261,4.578,183.223,9.311,181.641,12.924z M215.332,6.094
		c-2.085,0.008-2.858-2.311-1.813-3.928c0.019-0.027,0.028-0.055,0.044-0.082c0.59,0,1.179,0,1.769,0s1.18,0,1.769,0
		c0.016,0.027,0.025,0.055,0.044,0.082C218.198,3.797,217.411,6.086,215.332,6.094z M221.543,9.535
		c-1.735,1.102-4.204,1.668-6.211,1.668c-0.004,0-0.009-0.002-0.013-0.002s-0.01,0.002-0.014,0.002
		c-2.041,0-4.445-0.564-6.211-1.668c-2.291-1.43-3.864-4.662-1.982-7.131c0.078-0.105,0.131-0.213,0.174-0.32
		c0.01,0,0.018,0,0.026,0c1.231,0,2.464,0,3.695,0c0.009,0,0.019,0,0.027,0c-1.001,2.941,0.981,6.334,4.284,6.344
		c3.301-0.01,5.283-3.402,4.283-6.344c0.01,0,0.018,0,0.026,0c1.231,0,2.465,0,3.695,0c0.009,0,0.017,0,0.026,0
		c0.041,0.107,0.095,0.215,0.174,0.32C225.418,4.885,223.821,8.09,221.543,9.535z M225.996,13.107
		c-3.249,2.309-6.824,2.809-10.664,2.809c-0.004,0-0.009,0-0.013,0s-0.01,0-0.014,0c-3.855,0-7.395-0.494-10.664-2.809
		c-3.566-2.521-5.633-7.031-2.658-10.959c0.017-0.021,0.025-0.045,0.041-0.064c0.01,0,0.018,0,0.026,0c0.886,0,1.771,0,2.656,0
		c0.009,0,0.019,0,0.027,0c-1.124,2.414-0.77,5.242,0.973,7.443c2.208,2.791,6.204,4.006,9.612,4.01
		c3.442-0.004,7.521-1.246,9.701-4.129c1.66-2.197,1.988-4.955,0.883-7.324c0.01,0,0.019,0,0.027,0c0.886,0,1.771,0,2.654,0
		c0.009,0,0.018,0,0.027,0c0.016,0.02,0.024,0.043,0.041,0.064C231.634,6.084,229.548,10.582,225.996,13.107z M237.184,12.924
		c-1.595,3.645-4.351,6.818-7.337,9.334c-4.971,4.189-11.131,7.08-14.515,12.813c-3.386-5.732-9.543-8.623-14.515-12.813
		c-3.11-2.621-6.099-6.039-7.6-9.93c-1.354-3.508-1.102-7.904,2.353-9.998c0.118-0.07,0.21-0.156,0.288-0.246
		c1.185,0,2.369,0,3.556,0c-0.185,0.361-0.339,0.734-0.474,1.107c-0.417-0.303-0.859-0.561-1.348-0.736
		c-0.844-0.305-1.793,0.068-2.033,1.004c-0.411,1.588,1.507,2.518,2.818,2.527c-0.026,0.625,0.01,1.248,0.109,1.863
		c-0.527-0.049-1.063,0.02-1.543,0.266c-0.683,0.354-1.058,1.168-0.732,1.912c0.584,1.334,2.011,0.865,3.058,0.334
		c0.234,0.5,0.512,0.986,0.836,1.453c-0.468,0.279-0.931,0.625-1.238,1.074c-0.497,0.727-0.353,1.754,0.438,2.203
		c1.112,0.633,2.036-0.254,2.609-1.232c0.53,0.486,1.082,0.92,1.653,1.311c-0.303,0.176-0.56,0.43-0.729,0.744
		c-0.436,0.807-0.046,1.801,0.724,2.197c0.746,0.387,1.659,0.141,2.237-0.449c0.273-0.277,0.458-0.609,0.605-0.965
		c0.691,0.285,1.398,0.527,2.121,0.723c-0.285,0.246-0.515,0.543-0.637,0.908c-0.303,0.896,0.185,1.824,1.01,2.182
		c0.883,0.385,1.83-0.008,2.355-0.795c0.348-0.52,0.43-1.1,0.409-1.689c0.616,0.078,1.239,0.133,1.867,0.166
		c-0.063,0.598-0.195,1.186-0.031,1.799c0.219,0.816,0.964,1.59,1.832,1.59s1.614-0.773,1.831-1.59
		c0.164-0.605,0.032-1.191-0.029-1.785c0.625-0.035,1.248-0.09,1.866-0.164c-0.021,0.586,0.065,1.158,0.41,1.674
		c0.526,0.787,1.473,1.18,2.354,0.795c0.825-0.357,1.311-1.285,1.009-2.182c-0.121-0.361-0.347-0.654-0.625-0.898
		c0.634-0.176,1.259-0.381,1.871-0.625c0.14,0.314,0.317,0.607,0.563,0.857c0.577,0.59,1.491,0.836,2.237,0.449
		c0.776-0.402,1.145-1.385,0.723-2.197c-0.136-0.262-0.344-0.484-0.583-0.652c0.556-0.371,1.091-0.785,1.605-1.244
		c0.578,0.912,1.462,1.672,2.513,1.074c0.79-0.449,0.935-1.477,0.438-2.203c-0.263-0.387-0.644-0.697-1.04-0.955
		c0.337-0.471,0.627-0.957,0.871-1.459c1.017,0.477,2.281,0.789,2.822-0.447c0.338-0.773-0.078-1.59-0.783-1.934
		c-0.381-0.186-0.791-0.262-1.203-0.256c0.098-0.619,0.141-1.242,0.111-1.867c1.288-0.125,2.883-1.031,2.529-2.512
		c-0.227-0.945-1.201-1.295-2.033-1.004c-0.4,0.139-0.771,0.344-1.121,0.578c-0.123-0.32-0.26-0.637-0.419-0.949
		c1.187,0,2.37,0,3.556,0c0.078,0.09,0.17,0.176,0.288,0.246C238.801,4.578,238.763,9.311,237.184,12.924z M270.874,6.094
		c-2.084,0.008-2.857-2.311-1.812-3.928c0.019-0.027,0.027-0.055,0.043-0.082c0.59,0,1.18,0,1.769,0c0.59,0,1.18,0,1.77,0
		c0.016,0.027,0.024,0.055,0.043,0.082C273.741,3.797,272.954,6.086,270.874,6.094z M277.083,9.535
		c-1.732,1.102-4.203,1.668-6.209,1.668c-2.041,0-4.445-0.564-6.21-1.668c-2.005-1.252-3.461-3.883-2.532-6.174
		c0.133-0.328,0.313-0.648,0.549-0.957c0.08-0.105,0.133-0.213,0.175-0.32c1.241,0,2.48,0,3.72,0h0.002
		c-1.003,2.945,0.988,6.344,4.297,6.344c3.31,0,5.298-3.398,4.298-6.344c1.239,0,2.48,0,3.722,0c0.041,0.107,0.095,0.215,0.173,0.32
		C280.96,4.885,279.363,8.09,277.083,9.535z M285.614,5.926c0.115,2.775-1.635,5.443-4.075,7.182
		c-3.249,2.309-6.825,2.809-10.665,2.809c-3.374,0-6.504-0.379-9.425-2.023c-0.418-0.234-0.831-0.496-1.239-0.785
		c-3.565-2.521-5.632-7.031-2.658-10.959c0.018-0.021,0.026-0.045,0.042-0.064c0.895,0,1.788,0,2.681,0h0.002
		c-0.843,1.811-0.854,3.855-0.073,5.691c0.261,0.613,0.609,1.201,1.044,1.752c2.214,2.795,6.217,4.01,9.627,4.01
		c3.446,0,7.533-1.242,9.716-4.129c0.415-0.549,0.747-1.133,0.993-1.738c0.74-1.813,0.718-3.809-0.11-5.586h0.001
		c0.894,0,1.785,0,2.68,0h0.002c0.014,0.02,0.024,0.043,0.04,0.064c0.372,0.492,0.667,0.992,0.887,1.498
		c0.222,0.504,0.371,1.012,0.454,1.52C285.579,5.42,285.604,5.674,285.614,5.926z M292.726,12.924
		c-1.596,3.645-4.352,6.818-7.336,9.334c-4.971,4.189-11.131,7.08-14.516,12.813c-3.385-5.732-9.545-8.623-14.515-12.813
		c-3.11-2.621-6.099-6.039-7.599-9.93c-1.355-3.508-1.102-7.904,2.352-9.998c0.119-0.07,0.211-0.156,0.287-0.246
		c1.187,0,2.371,0,3.555,0c-0.185,0.361-0.337,0.734-0.473,1.107c-0.416-0.303-0.857-0.561-1.346-0.736
		c-0.844-0.305-1.793,0.068-2.034,1.004c-0.411,1.588,1.508,2.518,2.819,2.527c-0.027,0.625,0.009,1.248,0.109,1.863
		c-0.527-0.049-1.063,0.02-1.545,0.266c-0.681,0.354-1.056,1.168-0.731,1.912c0.585,1.334,2.011,0.865,3.058,0.334
		c0.232,0.5,0.512,0.986,0.836,1.453c-0.469,0.279-0.932,0.625-1.238,1.074c-0.496,0.727-0.352,1.754,0.436,2.203
		c1.112,0.633,2.038-0.254,2.612-1.232c0.53,0.486,1.082,0.92,1.652,1.311c-0.302,0.176-0.56,0.43-0.728,0.744
		c-0.437,0.807-0.046,1.801,0.723,2.197c0.747,0.387,1.658,0.141,2.236-0.449c0.273-0.277,0.46-0.609,0.607-0.965
		c0.689,0.285,1.398,0.527,2.121,0.723c-0.285,0.246-0.515,0.543-0.637,0.908c-0.303,0.896,0.185,1.824,1.01,2.182
		c0.883,0.385,1.827-0.008,2.354-0.795c0.348-0.52,0.432-1.1,0.408-1.689c0.619,0.078,1.242,0.133,1.87,0.166
		c-0.063,0.598-0.195,1.186-0.031,1.799c0.219,0.816,0.964,1.59,1.831,1.59c0.868,0,1.613-0.773,1.832-1.59
		c0.162-0.605,0.032-1.191-0.03-1.785c0.626-0.035,1.249-0.09,1.867-0.164c-0.021,0.586,0.065,1.158,0.41,1.674
		c0.524,0.787,1.47,1.18,2.353,0.795c0.826-0.357,1.313-1.285,1.011-2.182c-0.121-0.361-0.347-0.654-0.628-0.898
		c0.637-0.176,1.262-0.381,1.873-0.625c0.141,0.314,0.317,0.607,0.563,0.857c0.578,0.59,1.492,0.836,2.237,0.449
		c0.775-0.402,1.146-1.385,0.723-2.197c-0.136-0.262-0.344-0.484-0.584-0.652c0.557-0.371,1.093-0.785,1.607-1.244
		c0.578,0.912,1.462,1.672,2.513,1.074c0.788-0.449,0.933-1.477,0.437-2.203c-0.262-0.387-0.643-0.697-1.039-0.955
		c0.336-0.471,0.627-0.957,0.869-1.459c1.016,0.477,2.281,0.789,2.824-0.447c0.338-0.773-0.079-1.59-0.783-1.934
		c-0.382-0.186-0.792-0.262-1.205-0.256c0.098-0.619,0.141-1.242,0.112-1.867c1.289-0.125,2.883-1.031,2.528-2.512
		c-0.225-0.945-1.199-1.295-2.032-1.004c-0.402,0.139-0.771,0.344-1.122,0.578c-0.123-0.32-0.26-0.637-0.417-0.949
		c1.184,0,2.37,0,3.556,0c0.078,0.09,0.17,0.176,0.288,0.246C294.344,4.578,294.306,9.311,292.726,12.924z M326.417,6.094
		c-2.084,0.008-2.858-2.311-1.813-3.928c0.018-0.027,0.028-0.055,0.044-0.082c0.589,0,1.179,0,1.769,0s1.18,0,1.77,0
		c0.016,0.027,0.024,0.055,0.043,0.082C329.282,3.797,328.496,6.086,326.417,6.094z M332.626,9.535
		c-1.734,1.102-4.203,1.668-6.209,1.668c-2.041,0-4.445-0.564-6.211-1.668c-2.004-1.252-3.46-3.883-2.531-6.174
		c0.133-0.328,0.313-0.648,0.549-0.957c0.078-0.105,0.132-0.213,0.175-0.32c1.239,0,2.479,0,3.72,0h0.002
		c-0.689,2.025,0.035,4.264,1.631,5.465c0.727,0.547,1.631,0.879,2.666,0.879c3.31,0,5.298-3.398,4.297-6.344
		c1.24,0,2.481,0,3.723,0c0.041,0.107,0.095,0.215,0.173,0.32C336.501,4.885,334.906,8.09,332.626,9.535z M341.156,5.926
		c0.114,2.775-1.633,5.443-4.075,7.182c-2.437,1.732-5.058,2.445-7.835,2.693c-0.926,0.084-1.87,0.115-2.829,0.115
		c-3.855,0-7.394-0.494-10.664-2.809c-3.565-2.521-5.633-7.031-2.658-10.959c0.018-0.021,0.026-0.045,0.042-0.064
		c0.894,0,1.788,0,2.681,0c-1.123,2.414-0.768,5.242,0.973,7.443c2.214,2.795,6.217,4.01,9.627,4.01
		c3.446,0,7.533-1.242,9.715-4.129c0.207-0.273,0.395-0.559,0.56-0.848c0.828-1.453,1.132-3.076,0.884-4.641
		c-0.098-0.627-0.285-1.244-0.561-1.836h0.001c0.894,0,1.786,0,2.681,0h0.002c0.014,0.02,0.023,0.043,0.04,0.064
		c0.372,0.492,0.665,0.992,0.887,1.498c0.22,0.504,0.37,1.012,0.453,1.52C341.121,5.42,341.147,5.674,341.156,5.926z
		 M348.267,12.924c-1.595,3.645-4.35,6.818-7.336,9.334c-4.971,4.189-11.13,7.08-14.514,12.813
		c-3.385-5.732-9.545-8.623-14.515-12.813c-3.112-2.621-6.099-6.039-7.602-9.93c-1.353-3.508-1.102-7.904,2.354-9.998
		c0.118-0.07,0.209-0.156,0.287-0.246c1.186,0,2.369,0,3.555,0c-0.185,0.361-0.338,0.734-0.474,1.107
		c-0.417-0.303-0.858-0.561-1.348-0.736c-0.843-0.305-1.79,0.068-2.032,1.004c-0.41,1.588,1.509,2.518,2.817,2.527
		c-0.026,0.625,0.011,1.248,0.11,1.863c-0.527-0.049-1.063,0.02-1.543,0.266c-0.682,0.354-1.056,1.168-0.731,1.912
		c0.585,1.334,2.009,0.865,3.056,0.334c0.234,0.5,0.512,0.986,0.836,1.453c-0.467,0.279-0.931,0.625-1.238,1.074
		c-0.496,0.727-0.352,1.754,0.438,2.203c1.112,0.633,2.038-0.254,2.612-1.232c0.53,0.486,1.081,0.92,1.651,1.311
		c-0.303,0.176-0.561,0.43-0.729,0.744c-0.435,0.807-0.045,1.801,0.723,2.197c0.748,0.387,1.66,0.141,2.238-0.449
		c0.272-0.277,0.46-0.609,0.607-0.965c0.689,0.285,1.396,0.527,2.118,0.723c-0.285,0.246-0.512,0.543-0.636,0.908
		c-0.301,0.896,0.186,1.824,1.011,2.182c0.882,0.385,1.828-0.008,2.354-0.795c0.348-0.52,0.431-1.1,0.408-1.689
		c0.619,0.078,1.242,0.133,1.87,0.166c-0.063,0.598-0.196,1.186-0.031,1.799c0.216,0.816,0.961,1.59,1.831,1.59
		c0.868,0,1.613-0.773,1.832-1.59c0.162-0.605,0.032-1.191-0.03-1.785c0.626-0.035,1.249-0.09,1.866-0.164
		c-0.021,0.586,0.064,1.158,0.408,1.674c0.526,0.787,1.473,1.18,2.355,0.795c0.826-0.357,1.312-1.285,1.011-2.182
		c-0.121-0.361-0.347-0.654-0.628-0.898c0.637-0.176,1.262-0.381,1.873-0.625c0.141,0.314,0.316,0.607,0.563,0.857
		c0.578,0.59,1.49,0.836,2.238,0.449c0.775-0.402,1.146-1.385,0.723-2.197c-0.137-0.262-0.344-0.484-0.584-0.652
		c0.557-0.371,1.093-0.785,1.605-1.244c0.58,0.912,1.463,1.672,2.514,1.074c0.789-0.449,0.934-1.477,0.438-2.203
		c-0.265-0.387-0.644-0.697-1.042-0.955c0.337-0.471,0.628-0.957,0.872-1.459c1.016,0.477,2.281,0.789,2.824-0.447
		c0.338-0.773-0.079-1.59-0.783-1.934c-0.382-0.186-0.792-0.262-1.206-0.256c0.099-0.619,0.141-1.242,0.113-1.867
		c1.288-0.125,2.882-1.031,2.528-2.512c-0.225-0.945-1.2-1.295-2.033-1.004c-0.401,0.139-0.771,0.344-1.121,0.578
		c-0.123-0.32-0.26-0.637-0.42-0.949c1.187,0,2.373,0,3.558,0c0.079,0.09,0.169,0.176,0.288,0.246
		C349.887,4.578,349.849,9.311,348.267,12.924z M381.958,6.094c-2.084,0.008-2.857-2.311-1.813-3.928
		c0.019-0.027,0.029-0.055,0.043-0.082c0.59,0,1.18,0,1.77,0s1.18,0,1.769,0c0.016,0.027,0.026,0.055,0.044,0.082
		C384.824,3.797,384.038,6.086,381.958,6.094z M388.171,9.535c-1.736,1.102-4.205,1.668-6.21,1.668h-0.001h-0.002
		c-2.04,0-4.443-0.564-6.209-1.668c-2.292-1.43-3.866-4.662-1.983-7.131c0.078-0.105,0.132-0.213,0.173-0.32
		c0.002,0,0.002,0,0.003,0c1.239,0,2.48,0,3.72,0h0.002c-1.002,2.945,0.985,6.344,4.297,6.344c3.307,0,5.298-3.398,4.297-6.344
		h0.001c1.241,0,2.479,0,3.719,0c0.001,0,0.001,0,0.003,0c0.041,0.107,0.095,0.215,0.173,0.32
		C392.046,4.885,390.449,8.09,388.171,9.535z M392.624,13.107c-3.249,2.309-6.824,2.809-10.663,2.809h-0.001h-0.002
		c-3.854,0-7.393-0.494-10.662-2.809c-3.568-2.521-5.633-7.031-2.659-10.959c0.017-0.021,0.026-0.045,0.04-0.064
		c0.002,0,0.002,0,0.003,0c0.894,0,1.788,0,2.681,0h0.002c-1.124,2.414-0.769,5.242,0.973,7.443c2.211,2.795,6.213,4.01,9.625,4.01
		c3.446,0,7.532-1.242,9.713-4.129c1.662-2.197,1.988-4.955,0.885-7.324h0.001c0.895,0,1.786,0,2.68,0h0.001
		c0.016,0.02,0.025,0.043,0.042,0.064C398.262,6.084,396.176,10.582,392.624,13.107z M403.81,12.924
		c-1.595,3.645-4.35,6.818-7.337,9.334c-4.97,4.189-11.13,7.08-14.515,12.813c-3.385-5.732-9.543-8.623-14.513-12.813
		c-3.113-2.621-6.099-6.039-7.602-9.93c-1.354-3.508-1.102-7.904,2.354-9.998c0.117-0.07,0.208-0.156,0.286-0.246
		c1.185,0,2.37,0,3.556,0c-0.186,0.361-0.338,0.734-0.475,1.107c-0.417-0.303-0.857-0.561-1.347-0.736
		c-0.844-0.305-1.793,0.068-2.034,1.004c-0.408,1.588,1.508,2.518,2.819,2.527c-0.027,0.625,0.009,1.248,0.109,1.863
		c-0.527-0.049-1.063,0.02-1.543,0.266c-0.683,0.354-1.056,1.168-0.731,1.912c0.584,1.334,2.01,0.865,3.057,0.334
		c0.233,0.5,0.512,0.986,0.836,1.453c-0.467,0.279-0.931,0.625-1.239,1.074c-0.496,0.727-0.351,1.754,0.438,2.203
		c1.111,0.633,2.035-0.254,2.609-1.232c0.53,0.486,1.084,0.92,1.654,1.311c-0.304,0.176-0.561,0.43-0.729,0.744
		c-0.435,0.807-0.044,1.801,0.723,2.197c0.749,0.387,1.661,0.141,2.238-0.449c0.273-0.277,0.46-0.609,0.605-0.965
		c0.691,0.285,1.398,0.527,2.121,0.723c-0.285,0.246-0.513,0.543-0.637,0.908c-0.302,0.896,0.185,1.824,1.012,2.182
		c0.882,0.385,1.828-0.008,2.353-0.795c0.35-0.52,0.433-1.1,0.409-1.689c0.617,0.078,1.241,0.133,1.868,0.166
		c-0.063,0.598-0.195,1.186-0.031,1.799c0.219,0.816,0.964,1.59,1.832,1.59c0.869,0,1.615-0.773,1.834-1.59
		c0.16-0.605,0.031-1.191-0.031-1.785c0.625-0.035,1.248-0.09,1.865-0.164c-0.02,0.586,0.065,1.158,0.41,1.674
		c0.526,0.787,1.473,1.18,2.354,0.795c0.825-0.357,1.312-1.285,1.009-2.182c-0.121-0.361-0.345-0.654-0.625-0.898
		c0.635-0.176,1.261-0.381,1.871-0.625c0.141,0.314,0.316,0.607,0.563,0.857c0.578,0.59,1.492,0.836,2.238,0.449
		c0.776-0.402,1.146-1.385,0.725-2.197c-0.137-0.262-0.344-0.484-0.584-0.652c0.557-0.371,1.09-0.785,1.604-1.244
		c0.578,0.912,1.462,1.672,2.513,1.074c0.791-0.449,0.936-1.477,0.438-2.203c-0.263-0.387-0.643-0.697-1.041-0.955
		c0.338-0.471,0.629-0.957,0.872-1.459c1.017,0.477,2.281,0.789,2.823-0.447c0.337-0.773-0.078-1.59-0.783-1.934
		c-0.381-0.186-0.791-0.262-1.204-0.256c0.099-0.619,0.141-1.242,0.112-1.867c1.287-0.125,2.881-1.031,2.528-2.512
		c-0.226-0.945-1.2-1.295-2.032-1.004c-0.401,0.139-0.771,0.344-1.121,0.578c-0.124-0.32-0.261-0.637-0.42-0.949
		c1.187,0,2.371,0,3.557,0c0.078,0.09,0.169,0.176,0.287,0.246C405.429,4.578,405.39,9.311,403.81,12.924z"/>
	<path fill="#00A8A8" d="M19.003,23.467c0.63-1.381,1.332-2.705,1.932-4.074c0.601,1.369,1.304,2.691,1.933,4.074
		c1.219,2.688,2.43,8.43-1.934,8.939C16.556,31.893,17.78,26.148,19.003,23.467z"/>
	<path fill="#00A8A8" d="M20.935,19.393c-0.6,1.369-1.302,2.693-1.932,4.074c-1.223,2.682-2.447,8.426,1.931,8.939l0,0
		c-4.378-0.512-3.153-6.258-1.933-8.939C19.632,22.086,20.335,20.762,20.935,19.393z"/>
	<path fill="#00A8A8" d="M74.544,23.467c0.628-1.375,1.328-2.695,1.926-4.059c0.6,1.363,1.299,2.68,1.925,4.059
		c1.219,2.686,2.429,8.422-1.925,8.938C72.101,31.887,73.323,26.146,74.544,23.467z"/>
	<path fill="#00A8A8" d="M76.464,19.393c0.002,0.004,0.005,0.01,0.006,0.016c-0.598,1.363-1.298,2.684-1.926,4.059
		c-1.221,2.68-2.443,8.42,1.926,8.938c-0.002,0-0.005,0.002-0.008,0.002c-4.379-0.512-3.154-6.258-1.932-8.939
		C75.16,22.086,75.863,20.762,76.464,19.393z"/>
	<path fill="#F16A5A" d="M3.827,13.107c-3.248,2.309-6.824,2.809-10.663,2.809c-3.855,0-7.394-0.494-10.664-2.809
		c-3.565-2.521-5.633-7.031-2.657-10.959c0.017-0.021,0.025-0.045,0.041-0.064c0.894,0,1.787,0,2.682,0
		c-1.124,2.414-0.769,5.242,0.973,7.443c2.212,2.795,6.216,4.01,9.626,4.01c3.445,0,7.534-1.242,9.715-4.129
		c1.66-2.197,1.988-4.955,0.883-7.324c0.895,0,1.789,0,2.683,0c0.016,0.02,0.024,0.043,0.041,0.064
		C9.465,6.084,7.379,10.582,3.827,13.107z"/>
	<path fill="#FCBD66" d="M-0.626,9.535c-1.736,1.102-4.203,1.668-6.21,1.668c-2.04,0-4.445-0.564-6.211-1.668
		c-2.29-1.43-3.864-4.662-1.981-7.131c0.078-0.105,0.131-0.213,0.174-0.32c1.24,0,2.479,0,3.721,0
		c-1.002,2.945,0.988,6.344,4.298,6.344s5.298-3.398,4.297-6.344c1.241,0,2.481,0,3.723,0c0.042,0.107,0.095,0.215,0.173,0.32
		C3.249,4.885,1.653,8.09-0.626,9.535z"/>
	<path fill="#F16A5A" d="M59.37,13.107c-3.249,2.309-6.824,2.809-10.663,2.809c-3.855,0-7.394-0.494-10.663-2.809
		c-3.566-2.521-5.633-7.031-2.658-10.959c0.017-0.021,0.025-0.045,0.041-0.064c0.894,0,1.788,0,2.682,0
		c-1.125,2.414-0.769,5.242,0.973,7.443c2.211,2.795,6.215,4.01,9.625,4.01h0.001h0.001c3.445,0,7.533-1.242,9.715-4.129
		c1.66-2.197,1.988-4.955,0.883-7.324c0.895,0,1.788,0,2.68,0c0.015,0.02,0.025,0.043,0.041,0.064
		C65.008,6.084,62.922,10.582,59.37,13.107z"/>
	<path fill="#F16A5A" d="M59.371,13.107c-3.249,2.309-6.824,2.809-10.663,2.809h-0.001C52.546,15.916,56.121,15.416,59.371,13.107
		c3.551-2.525,5.637-7.023,2.655-10.959C62.011,2.127,62,2.104,61.985,2.084h0.002c0.016,0.02,0.024,0.043,0.041,0.064
		C65.009,6.084,62.923,10.582,59.371,13.107z"/>
	<path fill="#F16A5A" d="M39.081,9.527c-1.741-2.201-2.098-5.029-0.973-7.443h0.001C36.985,4.498,37.341,7.326,39.081,9.527
		c2.212,2.795,6.215,4.01,9.626,4.01h-0.001C45.296,13.537,41.292,12.322,39.081,9.527z"/>
	<path fill="#FCBD66" d="M54.915,9.535c-1.734,1.102-4.201,1.668-6.208,1.668c-2.042,0-4.444-0.564-6.21-1.668
		c-2.291-1.43-3.864-4.662-1.982-7.131c0.078-0.105,0.131-0.213,0.174-0.32c1.24,0,2.48,0,3.721,0
		c-1.003,2.945,0.986,6.344,4.297,6.344h0.001h0.001c3.309,0,5.299-3.398,4.297-6.344c1.24,0,2.48,0,3.719,0
		c0.043,0.107,0.096,0.215,0.175,0.32C58.792,4.885,57.195,8.09,54.915,9.535z"/>
	<path fill="#FCBD66" d="M44.409,2.084L44.409,2.084c-1,2.945,0.986,6.344,4.298,6.344h-0.001
		C45.396,8.428,43.406,5.029,44.409,2.084z"/>
	<path fill="#FCBD66" d="M54.918,9.535c-1.735,1.102-4.204,1.668-6.21,1.668h-0.001c2.007,0,4.474-0.566,6.208-1.668
		c2.28-1.445,3.877-4.65,1.983-7.131c-0.079-0.105-0.132-0.213-0.175-0.32c0.002,0,0.002,0,0.003,0
		c0.042,0.107,0.095,0.215,0.173,0.32C58.793,4.885,57.196,8.09,54.918,9.535z"/>
	<path fill="#00A8A8" d="M130.087,23.467c0.625-1.371,1.319-2.686,1.918-4.045c0.598,1.359,1.295,2.672,1.918,4.045
		c1.219,2.684,2.426,8.416-1.919,8.938C127.645,31.881,128.866,26.146,130.087,23.467z"/>
	<path fill="#00A8A8" d="M131.991,19.393c0.004,0.01,0.009,0.02,0.014,0.029c-0.599,1.359-1.293,2.674-1.918,4.045
		c-1.221,2.68-2.442,8.414,1.917,8.938c-0.005,0-0.009,0.002-0.015,0.002c-4.377-0.512-3.153-6.258-1.931-8.939
		C130.688,22.086,131.391,20.762,131.991,19.393z"/>
	<path fill="#00A8A8" d="M185.629,23.467c0.624-1.371,1.32-2.686,1.918-4.045c0.598,1.359,1.294,2.672,1.918,4.045
		c1.218,2.684,2.426,8.414-1.918,8.938C183.188,31.879,184.407,26.145,185.629,23.467z"/>
	<path fill="#00A8A8" d="M187.532,19.393c0.004,0.01,0.01,0.02,0.015,0.029c-0.598,1.359-1.294,2.674-1.918,4.045
		c-1.222,2.678-2.441,8.412,1.918,8.938c-0.007,0-0.011,0.002-0.016,0.002c-4.378-0.512-3.153-6.258-1.933-8.939
		C186.229,22.086,186.933,20.762,187.532,19.393z"/>
	<path fill="#00A8A8" d="M241.171,23.467c0.623-1.365,1.316-2.676,1.912-4.029c0.596,1.354,1.288,2.662,1.909,4.029
		c1.218,2.682,2.425,8.408-1.91,8.934C238.73,31.873,239.95,26.143,241.171,23.467z"/>
	<path fill="#00A8A8" d="M243.062,19.393c0.006,0.016,0.014,0.029,0.021,0.045c-0.596,1.354-1.289,2.664-1.912,4.029
		c-1.221,2.676-2.44,8.406,1.911,8.934c-0.008,0.002-0.015,0.004-0.022,0.006c-4.379-0.512-3.154-6.258-1.932-8.939
		C241.758,22.086,242.461,20.762,243.062,19.393z"/>
	<path fill="#F16A5A" d="M170.425,13.107c-3.244,2.307-6.815,2.807-10.648,2.809c-3.851-0.002-7.383-0.496-10.651-2.809
		c-3.563-2.521-5.63-7.031-2.656-10.959c0.017-0.021,0.027-0.045,0.042-0.064c0.883,0,1.768,0,2.652,0
		c-1.124,2.414-0.769,5.242,0.973,7.443c2.212,2.795,6.216,4.01,9.626,4.01c0.005,0,0.009-0.002,0.015-0.002
		c0.004,0,0.009,0.002,0.014,0.002c3.447,0,7.534-1.242,9.714-4.129c1.661-2.197,1.989-4.955,0.886-7.324c0.883,0,1.768,0,2.652,0
		c0.016,0.02,0.024,0.043,0.041,0.064C176.063,6.084,173.978,10.582,170.425,13.107z"/>
	<path fill="#F16A5A" d="M169.504,9.408c-2.18,2.887-6.267,4.129-9.714,4.129c-0.005,0-0.01-0.002-0.014-0.002
		c3.443-0.002,7.521-1.244,9.7-4.127c1.66-2.197,1.988-4.955,0.883-7.324c0.011,0,0.02,0,0.03,0
		C171.493,4.453,171.165,7.211,169.504,9.408z"/>
	<path fill="#F16A5A" d="M149.125,13.107c3.269,2.313,6.801,2.807,10.651,2.809c-0.006,0-0.01,0-0.015,0
		c-3.855,0-7.394-0.494-10.664-2.809c-3.565-2.521-5.633-7.031-2.657-10.959c0.017-0.021,0.025-0.045,0.041-0.064
		c0.01,0,0.02,0,0.029,0c-0.015,0.02-0.025,0.043-0.042,0.064C143.495,6.076,145.562,10.586,149.125,13.107z"/>
	<path fill="#FCBD66" d="M165.972,9.535c-1.732,1.1-4.191,1.664-6.195,1.666c-2.038-0.002-4.434-0.564-6.197-1.666
		c-2.289-1.43-3.865-4.662-1.981-7.131c0.079-0.105,0.132-0.213,0.175-0.32c1.23,0,2.461,0,3.691,0
		c-1.002,2.945,0.988,6.344,4.298,6.344c0.005,0,0.009,0,0.015,0c0.005,0,0.009,0,0.014,0c3.309,0,5.299-3.398,4.296-6.344
		c1.233,0,2.464,0,3.695,0c0.042,0.107,0.095,0.215,0.173,0.32C169.847,4.885,168.251,8.09,165.972,9.535z"/>
	<path fill="#FCBD66" d="M153.579,9.535c1.764,1.102,4.159,1.664,6.197,1.666c-0.004,0-0.01,0.002-0.015,0.002
		c-2.04,0-4.445-0.564-6.211-1.668c-2.29-1.43-3.864-4.662-1.981-7.131c0.078-0.105,0.131-0.213,0.174-0.32c0.01,0,0.02,0,0.029,0
		c-0.043,0.107-0.096,0.215-0.175,0.32C149.714,4.873,151.29,8.105,153.579,9.535z"/>
	<path fill="#FCBD66" d="M159.79,8.428c-0.005,0-0.009,0-0.014,0c3.301-0.01,5.282-3.402,4.282-6.344c0.009,0,0.019,0,0.027,0
		C165.089,5.029,163.099,8.428,159.79,8.428z"/>
	<path fill="#F16A5A" d="M225.969,13.107c-3.245,2.307-6.816,2.807-10.649,2.809c-3.85-0.002-7.385-0.496-10.651-2.809
		c-3.566-2.521-5.632-7.031-2.657-10.959c0.017-0.021,0.025-0.045,0.04-0.064c0.886,0,1.771,0,2.656,0
		c-1.124,2.414-0.769,5.242,0.973,7.443c2.211,2.795,6.215,4.01,9.626,4.01c0.004,0,0.01,0,0.014,0s0.009,0,0.013,0
		c3.445,0,7.534-1.242,9.715-4.129c1.66-2.197,1.988-4.955,0.884-7.324c0.886,0,1.771,0,2.654,0c0.016,0.02,0.024,0.043,0.041,0.064
		C231.606,6.084,229.521,10.582,225.969,13.107z"/>
	<path fill="#F16A5A" d="M204.668,13.107c3.267,2.313,6.802,2.807,10.651,2.809c-0.004,0-0.01,0-0.014,0
		c-3.855,0-7.395-0.494-10.664-2.809c-3.566-2.521-5.633-7.031-2.658-10.959c0.017-0.021,0.025-0.045,0.041-0.064
		c0.01,0,0.018,0,0.026,0c-0.015,0.02-0.023,0.043-0.04,0.064C199.036,6.076,201.102,10.586,204.668,13.107z"/>
	<path fill="#F16A5A" d="M225.047,9.408c-2.181,2.887-6.27,4.129-9.715,4.129c-0.004,0-0.009,0-0.013,0
		c3.442-0.004,7.521-1.246,9.701-4.129c1.66-2.197,1.988-4.955,0.883-7.324c0.01,0,0.019,0,0.027,0
		C227.035,4.453,226.707,7.211,225.047,9.408z"/>
	<path fill="#FCBD66" d="M221.516,9.535c-1.731,1.1-4.194,1.666-6.196,1.666c-2.038,0-4.436-0.564-6.197-1.666
		c-2.291-1.43-3.865-4.662-1.982-7.131c0.078-0.105,0.131-0.213,0.173-0.32c1.231,0,2.464,0,3.695,0
		c-1.001,2.945,0.987,6.344,4.298,6.344c0.006,0,0.008,0,0.014,0c0.005,0,0.008,0,0.013,0c3.309,0,5.3-3.398,4.297-6.344
		c1.231,0,2.465,0,3.695,0c0.042,0.107,0.095,0.215,0.173,0.32C225.391,4.885,223.794,8.09,221.516,9.535z"/>
	<path fill="#FCBD66" d="M215.332,8.428c-0.005,0-0.008,0-0.013,0c3.301-0.01,5.283-3.402,4.283-6.344c0.01,0,0.018,0,0.026,0
		C220.632,5.029,218.641,8.428,215.332,8.428z"/>
	<path fill="#FCBD66" d="M209.122,9.535c1.762,1.102,4.159,1.666,6.197,1.666c-0.004,0-0.01,0.002-0.014,0.002
		c-2.041,0-4.445-0.564-6.211-1.668c-2.291-1.43-3.864-4.662-1.982-7.131c0.078-0.105,0.131-0.213,0.174-0.32
		c0.01,0,0.018,0,0.026,0c-0.042,0.107-0.095,0.215-0.173,0.32C205.257,4.873,206.831,8.105,209.122,9.535z"/>
	<path fill="#F16A5A" d="M114.883,13.107c-3.245,2.307-6.815,2.807-10.649,2.809c-3.851-0.002-7.383-0.496-10.65-2.809
		c-3.564-2.521-5.63-7.031-2.656-10.959c0.016-0.021,0.026-0.045,0.041-0.064c0.884,0,1.77,0,2.652,0
		c-1.123,2.414-0.768,5.242,0.973,7.443c2.212,2.795,6.216,4.01,9.626,4.01c0.004,0,0.009-0.002,0.015-0.002
		c0.005,0,0.009,0.002,0.014,0.002c3.447,0,7.534-1.242,9.717-4.129c1.658-2.197,1.986-4.955,0.883-7.324c0.883,0,1.768,0,2.652,0
		c0.016,0.02,0.024,0.043,0.041,0.064C120.52,6.084,118.435,10.582,114.883,13.107z"/>
	<path fill="#F16A5A" d="M113.964,9.408c-2.183,2.887-6.27,4.129-9.717,4.129c-0.005,0-0.009-0.002-0.014-0.002
		c3.443-0.002,7.521-1.244,9.701-4.127c1.659-2.197,1.987-4.955,0.883-7.324c0.011,0,0.02,0,0.029,0
		C115.95,4.453,115.622,7.211,113.964,9.408z"/>
	<path fill="#F16A5A" d="M93.583,13.107c3.268,2.313,6.8,2.807,10.65,2.809c-0.006,0-0.01,0-0.015,0
		c-3.855,0-7.394-0.494-10.664-2.809c-3.565-2.521-5.632-7.031-2.657-10.959c0.017-0.021,0.025-0.045,0.041-0.064
		c0.01,0,0.02,0,0.029,0c-0.015,0.02-0.025,0.043-0.041,0.064C87.953,6.076,90.019,10.586,93.583,13.107z"/>
	<path fill="#FCBD66" d="M110.429,9.535c-1.73,1.1-4.191,1.664-6.195,1.666c-2.037-0.002-4.434-0.564-6.194-1.666
		c-2.292-1.43-3.867-4.662-1.984-7.131c0.079-0.105,0.133-0.213,0.175-0.32c1.23,0,2.462,0,3.691,0
		c-1.002,2.945,0.988,6.344,4.298,6.344c0.005,0,0.009,0,0.015,0c0.005,0,0.009,0,0.014,0c3.311,0,5.3-3.398,4.299-6.344
		c1.23,0,2.461,0,3.692,0c0.042,0.107,0.095,0.215,0.173,0.32C114.305,4.885,112.708,8.09,110.429,9.535z"/>
	<path fill="#FCBD66" d="M104.247,8.428c-0.005,0-0.009,0-0.014,0c3.301-0.01,5.282-3.402,4.283-6.344c0.01,0,0.02,0,0.029,0
		C109.547,5.029,107.558,8.428,104.247,8.428z"/>
	<path fill="#FCBD66" d="M98.039,9.535c1.761,1.102,4.157,1.664,6.194,1.666c-0.006,0-0.011,0.002-0.015,0.002
		c-2.04,0-4.445-0.564-6.21-1.668c-2.291-1.43-3.865-4.662-1.982-7.131c0.078-0.105,0.131-0.213,0.174-0.32c0.01,0,0.02,0,0.029,0
		c-0.042,0.107-0.096,0.215-0.175,0.32C94.172,4.873,95.747,8.105,98.039,9.535z"/>
	<path fill="#00A8A8" d="M298.646,19.393c0.601,1.369,1.304,2.691,1.933,4.074c1.22,2.688,2.43,8.43-1.934,8.939
		c-4.378-0.512-3.153-6.258-1.931-8.939C297.344,22.086,298.046,20.762,298.646,19.393z"/>
	<path fill="#00A8A8" d="M351.806,24.6c0.143-0.414,0.296-0.799,0.448-1.133c0.63-1.381,1.333-2.705,1.934-4.074
		c0.601,1.369,1.304,2.691,1.933,4.074c1.219,2.688,2.43,8.43-1.934,8.939C350.356,31.959,350.815,27.502,351.806,24.6z"/>
	<path fill="#00A8A8" d="M354.187,32.406L354.187,32.406c-3.831-0.447-3.373-4.904-2.381-7.807
		C350.815,27.502,350.356,31.959,354.187,32.406z"/>
	<path fill="#F16A5A" d="M337.079,13.107c-2.435,1.732-5.056,2.445-7.833,2.693c-0.926,0.084-1.87,0.115-2.829,0.115
		c-3.855,0-7.394-0.494-10.664-2.809c-3.565-2.521-5.632-7.031-2.656-10.959c0.016-0.021,0.025-0.045,0.04-0.064
		c0.894,0,1.788,0,2.681,0c-1.123,2.414-0.768,5.242,0.973,7.443c2.213,2.795,6.217,4.01,9.627,4.01
		c3.446,0,7.533-1.242,9.715-4.129c0.207-0.273,0.395-0.559,0.56-0.848c0.828-1.453,1.132-3.076,0.884-4.641
		c-0.098-0.627-0.283-1.244-0.56-1.836c0.894,0,1.786,0,2.681,0c0.016,0.02,0.025,0.043,0.042,0.064
		c0.372,0.492,0.665,0.992,0.887,1.498c0.22,0.504,0.37,1.012,0.453,1.52c0.043,0.254,0.069,0.508,0.078,0.76
		C341.271,8.701,339.522,11.369,337.079,13.107z"/>
	<path fill="#F16A5A" d="M337.015,2.084L337.015,2.084c0.277,0.592,0.463,1.209,0.561,1.836
		C337.478,3.293,337.29,2.676,337.015,2.084z"/>
	<path fill="#F16A5A" d="M315.753,13.107c-3.565-2.521-5.633-7.031-2.658-10.959c0.018-0.021,0.026-0.045,0.042-0.064
		c-0.015,0.02-0.024,0.043-0.04,0.064C310.121,6.076,312.188,10.586,315.753,13.107z"/>
	<path fill="#FCBD66" d="M332.626,9.535c-1.735,1.102-4.203,1.668-6.209,1.668c-2.039,0-4.445-0.564-6.21-1.668
		c-2.004-1.252-3.461-3.883-2.532-6.174c0.133-0.328,0.313-0.648,0.549-0.957c0.078-0.105,0.132-0.213,0.175-0.32
		c1.239,0,2.479,0,3.72,0c-0.688,2.025,0.037,4.264,1.633,5.465c0.727,0.547,1.631,0.879,2.666,0.879
		c3.31,0,5.298-3.398,4.297-6.344c1.24,0,2.481,0,3.723,0c0.041,0.107,0.095,0.215,0.173,0.32
		C336.501,4.885,334.906,8.09,332.626,9.535z"/>
	<path fill="#FCBD66" d="M320.207,9.535c1.765,1.104,4.171,1.668,6.21,1.668C324.376,11.203,321.972,10.639,320.207,9.535
		c-2.005-1.252-3.461-3.883-2.532-6.174C316.746,5.652,318.203,8.283,320.207,9.535z"/>
	<path fill="#F16A5A" d="M392.622,13.107c-3.248,2.309-6.824,2.809-10.662,2.809c-3.855,0-7.394-0.494-10.663-2.809
		c-3.566-2.521-5.633-7.031-2.659-10.959c0.018-0.021,0.026-0.045,0.042-0.064c0.894,0,1.788,0,2.681,0
		c-1.123,2.414-0.768,5.242,0.973,7.443c2.211,2.795,6.215,4.01,9.625,4.01h0.002h0.001c3.445,0,7.532-1.242,9.715-4.129
		c1.66-2.197,1.988-4.955,0.883-7.324c0.895,0,1.786,0,2.68,0c0.016,0.02,0.024,0.043,0.042,0.064
		C398.261,6.084,396.175,10.582,392.622,13.107z"/>
	<path fill="#F16A5A" d="M372.333,9.527c-1.74-2.201-2.096-5.029-0.973-7.443h0.002c-1.124,2.414-0.769,5.242,0.973,7.443
		c2.211,2.795,6.213,4.01,9.625,4.01h-0.002C378.548,13.537,374.544,12.322,372.333,9.527z"/>
	<path fill="#FCBD66" d="M388.169,9.535c-1.735,1.102-4.203,1.668-6.209,1.668c-2.042,0-4.444-0.564-6.21-1.668
		c-2.292-1.43-3.864-4.662-1.983-7.131c0.078-0.105,0.132-0.213,0.175-0.32c1.239,0,2.48,0,3.72,0
		c-1.002,2.945,0.987,6.344,4.297,6.344h0.002h0.001c3.309,0,5.298-3.398,4.297-6.344c1.241,0,2.479,0,3.719,0
		c0.043,0.107,0.095,0.215,0.175,0.32C392.044,4.885,390.448,8.09,388.169,9.535z"/>
	<path fill="#F16A5A" d="M281.536,13.107c-3.247,2.309-6.822,2.809-10.662,2.809c-3.373,0-6.504-0.379-9.425-2.023
		c-0.418-0.234-0.831-0.496-1.239-0.785c-3.565-2.521-5.631-7.031-2.656-10.959c0.016-0.021,0.025-0.045,0.04-0.064
		c0.895,0,1.788,0,2.681,0c-0.841,1.811-0.852,3.855-0.071,5.691c0.261,0.613,0.609,1.201,1.044,1.752
		c2.213,2.795,6.217,4.01,9.627,4.01c3.446,0,7.533-1.242,9.716-4.129c0.415-0.549,0.747-1.133,0.993-1.738
		c0.74-1.813,0.718-3.809-0.109-5.586c0.894,0,1.785,0,2.68,0c0.016,0.02,0.025,0.043,0.042,0.064
		c0.372,0.492,0.667,0.992,0.887,1.498c0.222,0.504,0.371,1.012,0.454,1.52c0.043,0.254,0.068,0.508,0.078,0.76
		C285.729,8.701,283.979,11.369,281.536,13.107z"/>
	<path fill="#F16A5A" d="M261.449,13.893c2.921,1.645,6.052,2.023,9.425,2.023C267.5,15.916,264.37,15.537,261.449,13.893z"/>
	<path fill="#F16A5A" d="M260.21,13.107c-3.565-2.521-5.632-7.031-2.658-10.959c0.018-0.021,0.026-0.045,0.042-0.064
		c-0.015,0.02-0.024,0.043-0.04,0.064C254.579,6.076,256.645,10.586,260.21,13.107z"/>
	<path fill="#F16A5A" d="M281.583,7.67c0.74-1.813,0.718-3.809-0.11-5.586h0.001C282.301,3.861,282.323,5.857,281.583,7.67z"/>
	<path fill="#FCBD66" d="M277.083,9.535c-1.734,1.102-4.203,1.668-6.209,1.668c-2.039,0-4.444-0.564-6.209-1.668
		c-2.005-1.252-3.462-3.883-2.533-6.174c0.133-0.328,0.313-0.648,0.549-0.957c0.08-0.105,0.133-0.213,0.175-0.32
		c1.241,0,2.48,0,3.72,0c-1.001,2.945,0.988,6.344,4.299,6.344c3.31,0,5.298-3.398,4.298-6.344c1.239,0,2.48,0,3.722,0
		c0.041,0.107,0.095,0.215,0.173,0.32C280.96,4.885,279.363,8.09,277.083,9.535z"/>
	<path fill="#FCBD66" d="M264.665,9.535c1.765,1.104,4.17,1.668,6.209,1.668C268.833,11.203,266.429,10.639,264.665,9.535
		c-2.006-1.252-3.462-3.883-2.533-6.174C261.203,5.652,262.66,8.283,264.665,9.535z"/>
</g>
</svg>
