<?xml version="1.0" encoding="utf-8"?>
<!-- Generator: Adobe Illustrator 16.0.0, SVG Export Plug-In . SVG Version: 6.00 Build 0)  -->
<!DOCTYPE svg PUBLIC "-//W3C//DTD SVG 1.1//EN" "http://www.w3.org/Graphics/SVG/1.1/DTD/svg11.dtd">
<svg version="1.1" id="Layer_1" xmlns="http://www.w3.org/2000/svg" xmlns:xlink="http://www.w3.org/1999/xlink" x="0px" y="0px"
	 width="222px" height="3px" viewBox="0 0 222 3" enable-background="new 0 0 222 3" xml:space="preserve">
<g>
	<circle opacity="0.4" fill="#F16A5A" cx="2.212" cy="1.5" r="1"/>
	<circle opacity="0.4" fill="#F16A5A" cx="6.479" cy="1.5" r="1"/>
	<circle opacity="0.4" fill="#F16A5A" cx="10.744" cy="1.5" r="1"/>
	<circle opacity="0.4" fill="#F16A5A" cx="15.011" cy="1.5" r="1"/>
	<circle opacity="0.4" fill="#F16A5A" cx="19.276" cy="1.5" r="1"/>
	<circle opacity="0.4" fill="#F16A5A" cx="23.543" cy="1.5" r="1"/>
	<circle opacity="0.4" fill="#F16A5A" cx="27.81" cy="1.5" r="1"/>
	<circle opacity="0.4" fill="#F16A5A" cx="32.075" cy="1.5" r="1"/>
	<circle opacity="0.4" fill="#F16A5A" cx="36.342" cy="1.5" r="1"/>
	<circle opacity="0.4" fill="#F16A5A" cx="40.607" cy="1.5" r="1"/>
	<circle opacity="0.4" fill="#F16A5A" cx="44.874" cy="1.5" r="1"/>
	<circle opacity="0.4" fill="#F16A5A" cx="49.14" cy="1.5" r="1"/>
	<circle opacity="0.4" fill="#F16A5A" cx="53.406" cy="1.5" r="1"/>
	<circle opacity="0.4" fill="#F16A5A" cx="57.673" cy="1.5" r="1"/>
	<circle opacity="0.4" fill="#F16A5A" cx="61.938" cy="1.5" r="1"/>
	<circle opacity="0.4" fill="#F16A5A" cx="66.205" cy="1.5" r="1"/>
	<circle opacity="0.4" fill="#F16A5A" cx="70.471" cy="1.5" r="1"/>
	<circle opacity="0.4" fill="#F16A5A" cx="74.737" cy="1.5" r="1"/>
	<circle opacity="0.4" fill="#F16A5A" cx="79.004" cy="1.5" r="1"/>
	<circle opacity="0.4" fill="#F16A5A" cx="83.27" cy="1.5" r="1"/>
	<circle opacity="0.4" fill="#F16A5A" cx="87.536" cy="1.5" r="1"/>
	<circle opacity="0.4" fill="#F16A5A" cx="91.802" cy="1.5" r="1"/>
	<circle opacity="0.4" fill="#F16A5A" cx="96.068" cy="1.5" r="1"/>
	<circle opacity="0.4" fill="#F16A5A" cx="100.335" cy="1.5" r="1"/>
	<circle opacity="0.4" fill="#F16A5A" cx="104.601" cy="1.5" r="1"/>
	<circle opacity="0.4" fill="#F16A5A" cx="108.867" cy="1.5" r="1"/>
	<circle opacity="0.4" fill="#F16A5A" cx="113.133" cy="1.5" r="1"/>
	<circle opacity="0.4" fill="#F16A5A" cx="117.399" cy="1.5" r="1"/>
	<circle opacity="0.4" fill="#F16A5A" cx="121.665" cy="1.5" r="1"/>
	<circle opacity="0.4" fill="#F16A5A" cx="125.932" cy="1.5" r="1"/>
	<circle opacity="0.4" fill="#F16A5A" cx="130.198" cy="1.5" r="1"/>
	<circle opacity="0.4" fill="#F16A5A" cx="134.464" cy="1.5" r="1"/>
	<circle opacity="0.4" fill="#F16A5A" cx="138.73" cy="1.5" r="1"/>
	<circle opacity="0.4" fill="#F16A5A" cx="142.996" cy="1.5" r="1"/>
	<circle opacity="0.4" fill="#F16A5A" cx="147.263" cy="1.5" r="1"/>
	<circle opacity="0.4" fill="#F16A5A" cx="151.529" cy="1.5" r="1"/>
	<circle opacity="0.4" fill="#F16A5A" cx="155.795" cy="1.5" r="1"/>
	<circle opacity="0.4" fill="#F16A5A" cx="160.062" cy="1.5" r="1"/>
	<circle opacity="0.4" fill="#F16A5A" cx="164.327" cy="1.5" r="1"/>
	<circle opacity="0.4" fill="#F16A5A" cx="168.594" cy="1.5" r="1"/>
	<circle opacity="0.4" fill="#F16A5A" cx="172.86" cy="1.5" r="1"/>
	<circle opacity="0.4" fill="#F16A5A" cx="177.126" cy="1.5" r="1"/>
	<circle opacity="0.4" fill="#F16A5A" cx="181.393" cy="1.5" r="1"/>
	<circle opacity="0.4" fill="#F16A5A" cx="185.658" cy="1.5" r="1"/>
	<circle opacity="0.4" fill="#F16A5A" cx="189.925" cy="1.5" r="1"/>
	<circle opacity="0.4" fill="#F16A5A" cx="194.19" cy="1.5" r="1"/>
	<circle opacity="0.4" fill="#F16A5A" cx="198.457" cy="1.5" r="1"/>
	<circle opacity="0.4" fill="#F16A5A" cx="202.724" cy="1.5" r="1"/>
	<circle opacity="0.4" fill="#F16A5A" cx="206.989" cy="1.5" r="1"/>
	<circle opacity="0.4" fill="#F16A5A" cx="211.256" cy="1.5" r="1"/>
	<circle opacity="0.4" fill="#F16A5A" cx="215.521" cy="1.5" r="1"/>
	<circle opacity="0.4" fill="#F16A5A" cx="219.788" cy="1.5" r="1"/>
</g>
</svg>
