<?xml version="1.0" encoding="utf-8"?>
<!-- Generator: Adobe Illustrator 16.0.0, SVG Export Plug-In . SVG Version: 6.00 Build 0)  -->
<!DOCTYPE svg PUBLIC "-//W3C//DTD SVG 1.1//EN" "http://www.w3.org/Graphics/SVG/1.1/DTD/svg11.dtd">
<svg version="1.1" id="Layer_1" xmlns="http://www.w3.org/2000/svg" xmlns:xlink="http://www.w3.org/1999/xlink" x="0px" y="0px"
	 width="160px" height="160px" viewBox="0 0 160 160" enable-background="new 0 0 160 160" xml:space="preserve">
<g>
	<path fill="#8D183D" d="M58.985,90.195c-6.821,2.29-14.166,8.53-15.769,13.467C47.062,103.327,56.656,95.078,58.985,90.195z"/>
	<path fill="#8D183D" d="M72.81,81.514c1.913-4.722,3.744-9.473,5.6-14.218c0.122-0.324,0.22-0.66,0.447-1.334
		c-4.252,6.379-8.289,12.446-12.455,18.701c1.776-0.596,3.418-1.064,4.975-1.719C71.962,82.695,72.572,82.1,72.81,81.514z"/>
	<path fill="#8D183D" d="M121.803,53.325c-2.077,4.675-4.016,9.033-5.957,13.394C121.51,63.7,124.291,57.524,121.803,53.325z"/>
	<path fill="#8D183D" d="M79.615,83.809c-1.172,3.513-2.39,7.021-3.244,10.62c-0.723,3.032-0.974,6.18-1.44,9.321
		c2.469,0.117,4.219-0.257,5.298-2.497c2.183-4.5,4.654-8.857,6.833-13.353c1.227-2.524,2.112-5.205,3.29-8.179
		c-3.397,0.986-6.348,1.787-9.249,2.725C80.507,82.637,79.811,83.239,79.615,83.809z"/>
	<path fill="#8D183D" d="M80,5C38.578,5,5,38.579,5,80.005C5,121.426,38.578,155,80,155s75-33.574,75-74.995
		C155,38.579,121.422,5,80,5z M110.707,105.423c-4.446-0.623-7.788-4.197-8.826-9.393c-0.869-4.36-0.132-8.599,0.977-12.793
		c0.711-2.686,1.538-5.346,2.399-8.307c-2.039,0.717-3.928,1.361-5.795,2.066c-0.22,0.082-0.352,0.518-0.443,0.814
		c-2.789,9.029-6.808,17.452-12.357,25.118c-0.051,0.068-0.051,0.173-0.105,0.366c2.059,0.703,4.61,0.845,5.013,3.771
		c-1.613-1.389-3.569-1.569-5.544-1.745c-0.82-0.075-1.35,0.169-1.89,0.82c-4.497,5.41-9.658,10.029-16.155,12.944
		c-5.515,2.473-11.25,3.506-17.236,2.163c-7.526-1.685-11.197-6.858-10.416-14.531c0.033-0.319,0.073-0.635,0.106-0.908
		c-0.131-0.107-0.192-0.188-0.273-0.22c-6.181-2.539-8.54-8.115-6.074-14.395c1.838-4.688,6.525-8.271,10.884-8.325
		c0.118,0.112,0.236,0.225,0.354,0.342c-0.366,0.225-0.801,0.381-1.099,0.679c-4.565,4.595-6.416,10.012-4.78,16.396
		c0.257,1.016,0.887,1.938,1.526,2.883c2.515-5.72,6.909-9.416,12.023-12.341c2.616-1.487,5.403-2.671,8.079-4.058
		c0.708-0.366,1.442-0.857,1.91-1.484c7.218-9.751,13.692-19.98,19.659-30.537c0.474-0.84,0.818-1.756,1.279-2.742
		c1.895,1.131,3.691,2.363,4.788,4.314c0.393,0.703,0.629,1.744,0.427,2.5c-0.817,3.125-1.66,6.27-2.808,9.282
		c-1.324,3.467-2.98,6.797-4.489,10.19c-0.195,0.447-0.347,0.914-0.623,1.636c3.353-0.986,6.455-1.88,9.541-2.832
		c0.265-0.085,0.509-0.513,0.613-0.83c2.414-7.842,4.199-15.794,4.028-24.058c-0.037-1.842-0.306-3.711-0.732-5.504
		c-1.333-5.629-4.334-7.548-10.071-6.73c-7.065,1.012-12.573,4.639-16.846,10.169c-5.871,7.609-9.121,16.206-9.084,25.907
		c0.005,2.338,0.423,4.621,2.425,6.417c-2.156,0.192-3.711-0.684-4.5-2.339c-0.822-1.729-1.526-3.641-1.701-5.527
		c-1.119-12.264,6.635-30.13,23.054-35.039c4.046-1.211,8.185-1.772,12.378-1.152c3.928,0.578,6.802,2.813,8.758,6.23
		c2.106,3.682,2.8,7.741,3.004,11.904c0.262,5.462-0.51,10.833-1.701,16.152c-0.075,0.361-0.148,0.723-0.203,1.09
		c-0.009,0.072,0.061,0.164,0.143,0.37c1.822-0.659,3.657-1.28,5.451-2.017c0.387-0.158,0.726-0.682,0.896-1.111
		c2.722-6.857,5.417-13.718,8.101-20.588c0.332-0.855,0.566-1.758,0.884-2.762c2.595,1.063,5.124,2.171,7.173,4.127
		c2.651,2.536,2.236,5.651,1.384,8.708c-1.006,3.628-3.481,6.331-6.616,8.135c-2.7,1.558-3.923,3.745-4.785,6.548
		c-1.797,5.859-3.72,11.685-4.36,17.808c-0.241,2.327-0.222,4.749,0.145,7.056c0.518,3.291,3.032,4.575,6.24,3.54
		c1.855-0.601,3.249-1.836,4.211-3.472c3.437-5.845,4.165-11.826,0.672-17.949c-0.178-0.313-0.342-0.63-0.535-0.983
		c3.752,0.451,6.333,2.761,7.234,6.401C128.917,97.712,120.865,106.846,110.707,105.423z"/>
	<path fill="#8D183D" d="M63.505,108.857c-2.139,0.503-4.314,0.684-6.441-0.142c-1.706-0.664-2.381-1.992-1.966-3.228
		c1.168,0.456,2.311,1.045,3.534,1.353c2.569,0.646,5.044-0.139,7.537-0.693c0.977-0.215,1.322-0.646,1.423-1.665
		c0.256-2.622,0.539-5.264,1.074-7.842c0.771-3.711,1.776-7.368,2.744-11.309c-2.293,0.806-4.46,1.501-6.553,2.347
		c-0.775,0.313-1.538,0.863-2.065,1.508c-3.572,4.402-7.197,8.753-11.585,12.376c-2.404,1.997-4.932,3.804-8.149,4.272
		c-0.305,0.049-0.713,0.441-0.793,0.752c-1.478,5.293,1.179,10.601,6.396,12.48c5.427,1.958,10.752,1.641,15.84-1.226
		c4.109-2.314,7.414-5.547,10.378-9.155c0.751-0.91,1.459-1.854,2.368-3.018c-0.632,0.078-0.909,0.088-1.172,0.151
		C71.886,106.833,67.704,107.878,63.505,108.857z"/>
</g>
</svg>
